<?xml version="1.0" encoding="UTF-8" standalone="no"?>
<!DOCTYPE svg PUBLIC "-//W3C//DTD SVG 1.1//EN"
 "http://www.w3.org/Graphics/SVG/1.1/DTD/svg11.dtd">
<!-- Generated by graphviz version 2.43.0 (0)
 -->
<!-- Title: DecomposedDatabase Pages: 1 -->
<svg width="453pt" height="160pt"
 viewBox="0.00 0.00 453.00 160.25" xmlns="http://www.w3.org/2000/svg" xmlns:xlink="http://www.w3.org/1999/xlink">
<g id="graph0" class="graph" transform="scale(1 1) rotate(0) translate(4 156.25)">
<title>DecomposedDatabase</title>
<polygon fill="white" stroke="transparent" points="-4,4 -4,-156.25 449,-156.25 449,4 -4,4"/>
<text text-anchor="middle" x="222.5" y="-133.85" font-family="Times,serif" font-size="18.00">Modular Monolith with Decomposed Database</text>
<!-- ModuleA -->
<g id="node1" class="node">
<title>ModuleA</title>
<path fill="none" stroke="black" d="M62,-124.25C62,-124.25 12,-124.25 12,-124.25 6,-124.25 0,-118.25 0,-112.25 0,-112.25 0,-100.25 0,-100.25 0,-94.25 6,-88.25 12,-88.25 12,-88.25 62,-88.25 62,-88.25 68,-88.25 74,-94.25 74,-100.25 74,-100.25 74,-112.25 74,-112.25 74,-118.25 68,-124.25 62,-124.25"/>
<text text-anchor="middle" x="37" y="-102.55" font-family="Arial" font-size="14.00">Module A</text>
</g>
<!-- ModuleB -->
<g id="node2" class="node">
<title>ModuleB</title>
<path fill="none" stroke="black" d="M154,-124.25C154,-124.25 104,-124.25 104,-124.25 98,-124.25 92,-118.25 92,-112.25 92,-112.25 92,-100.25 92,-100.25 92,-94.25 98,-88.25 104,-88.25 104,-88.25 154,-88.25 154,-88.25 160,-88.25 166,-94.25 166,-100.25 166,-100.25 166,-112.25 166,-112.25 166,-118.25 160,-124.25 154,-124.25"/>
<text text-anchor="middle" x="129" y="-102.55" font-family="Arial" font-size="14.00">Module B</text>
</g>
<!-- ModuleC -->
<g id="node3" class="node">
<title>ModuleC</title>
<path fill="none" stroke="black" d="M247.5,-124.25C247.5,-124.25 196.5,-124.25 196.5,-124.25 190.5,-124.25 184.5,-118.25 184.5,-112.25 184.5,-112.25 184.5,-100.25 184.5,-100.25 184.5,-94.25 190.5,-88.25 196.5,-88.25 196.5,-88.25 247.5,-88.25 247.5,-88.25 253.5,-88.25 259.5,-94.25 259.5,-100.25 259.5,-100.25 259.5,-112.25 259.5,-112.25 259.5,-118.25 253.5,-124.25 247.5,-124.25"/>
<text text-anchor="middle" x="222" y="-102.55" font-family="Arial" font-size="14.00">Module C</text>
</g>
<!-- DataC -->
<g id="node6" class="node">
<title>DataC</title>
<path fill="none" stroke="black" d="M259.5,-47.6C259.5,-50.24 242.69,-52.38 222,-52.38 201.31,-52.38 184.5,-50.24 184.5,-47.6 184.5,-47.6 184.5,-4.65 184.5,-4.65 184.5,-2.01 201.31,0.13 222,0.13 242.69,0.13 259.5,-2.01 259.5,-4.65 259.5,-4.65 259.5,-47.6 259.5,-47.6"/>
<path fill="none" stroke="black" d="M259.5,-47.6C259.5,-44.97 242.69,-42.83 222,-42.83 201.31,-42.83 184.5,-44.97 184.5,-47.6"/>
<text text-anchor="middle" x="222" y="-29.93" font-family="Arial" font-size="14.00">Data for</text>
<text text-anchor="middle" x="222" y="-14.93" font-family="Arial" font-size="14.00">Module C</text>
</g>
<!-- ModuleC&#45;&gt;DataC -->
<g id="edge1" class="edge">
<title>ModuleC&#45;&gt;DataC</title>
<path fill="none" stroke="black" d="M222,-87.91C222,-80.42 222,-71.35 222,-62.54"/>
<polygon fill="black" stroke="black" points="225.5,-62.42 222,-52.42 218.5,-62.42 225.5,-62.42"/>
</g>
<!-- ModuleD -->
<g id="node4" class="node">
<title>ModuleD</title>
<path fill="none" stroke="black" d="M340.5,-124.25C340.5,-124.25 289.5,-124.25 289.5,-124.25 283.5,-124.25 277.5,-118.25 277.5,-112.25 277.5,-112.25 277.5,-100.25 277.5,-100.25 277.5,-94.25 283.5,-88.25 289.5,-88.25 289.5,-88.25 340.5,-88.25 340.5,-88.25 346.5,-88.25 352.5,-94.25 352.5,-100.25 352.5,-100.25 352.5,-112.25 352.5,-112.25 352.5,-118.25 346.5,-124.25 340.5,-124.25"/>
<text text-anchor="middle" x="315" y="-102.55" font-family="Arial" font-size="14.00">Module D</text>
</g>
<!-- DataD -->
<g id="node7" class="node">
<title>DataD</title>
<path fill="none" stroke="black" d="M352.5,-47.6C352.5,-50.24 335.69,-52.38 315,-52.38 294.31,-52.38 277.5,-50.24 277.5,-47.6 277.5,-47.6 277.5,-4.65 277.5,-4.65 277.5,-2.01 294.31,0.13 315,0.13 335.69,0.13 352.5,-2.01 352.5,-4.65 352.5,-4.65 352.5,-47.6 352.5,-47.6"/>
<path fill="none" stroke="black" d="M352.5,-47.6C352.5,-44.97 335.69,-42.83 315,-42.83 294.31,-42.83 277.5,-44.97 277.5,-47.6"/>
<text text-anchor="middle" x="315" y="-29.93" font-family="Arial" font-size="14.00">Data for</text>
<text text-anchor="middle" x="315" y="-14.93" font-family="Arial" font-size="14.00">Module D</text>
</g>
<!-- ModuleD&#45;&gt;DataD -->
<g id="edge2" class="edge">
<title>ModuleD&#45;&gt;DataD</title>
<path fill="none" stroke="black" d="M315,-87.91C315,-80.42 315,-71.35 315,-62.54"/>
<polygon fill="black" stroke="black" points="318.5,-62.42 315,-52.42 311.5,-62.42 318.5,-62.42"/>
</g>
<!-- ModuleE -->
<g id="node5" class="node">
<title>ModuleE</title>
<path fill="none" stroke="black" d="M433,-124.25C433,-124.25 383,-124.25 383,-124.25 377,-124.25 371,-118.25 371,-112.25 371,-112.25 371,-100.25 371,-100.25 371,-94.25 377,-88.25 383,-88.25 383,-88.25 433,-88.25 433,-88.25 439,-88.25 445,-94.25 445,-100.25 445,-100.25 445,-112.25 445,-112.25 445,-118.25 439,-124.25 433,-124.25"/>
<text text-anchor="middle" x="408" y="-102.55" font-family="Arial" font-size="14.00">Module E</text>
</g>
<!-- DataE -->
<g id="node8" class="node">
<title>DataE</title>
<path fill="none" stroke="black" d="M445,-47.6C445,-50.24 428.42,-52.38 408,-52.38 387.58,-52.38 371,-50.24 371,-47.6 371,-47.6 371,-4.65 371,-4.65 371,-2.01 387.58,0.13 408,0.13 428.42,0.13 445,-2.01 445,-4.65 445,-4.65 445,-47.6 445,-47.6"/>
<path fill="none" stroke="black" d="M445,-47.6C445,-44.97 428.42,-42.83 408,-42.83 387.58,-42.83 371,-44.97 371,-47.6"/>
<text text-anchor="middle" x="408" y="-29.93" font-family="Arial" font-size="14.00">Data for</text>
<text text-anchor="middle" x="408" y="-14.93" font-family="Arial" font-size="14.00">Module E</text>
</g>
<!-- ModuleE&#45;&gt;DataE -->
<g id="edge3" class="edge">
<title>ModuleE&#45;&gt;DataE</title>
<path fill="none" stroke="black" d="M408,-87.91C408,-80.42 408,-71.35 408,-62.54"/>
<polygon fill="black" stroke="black" points="411.5,-62.42 408,-52.42 404.5,-62.42 411.5,-62.42"/>
</g>
</g>
</svg>
