<?xml version="1.0" encoding="UTF-8" standalone="no"?>
<!DOCTYPE svg PUBLIC "-//W3C//DTD SVG 1.1//EN"
 "http://www.w3.org/Graphics/SVG/1.1/DTD/svg11.dtd">
<!-- Generated by graphviz version 2.43.0 (0)
 -->
<!-- Title: Reporting_Monolith Pages: 1 -->
<svg width="265pt" height="316pt"
 viewBox="0.00 0.00 265.00 316.00" xmlns="http://www.w3.org/2000/svg" xmlns:xlink="http://www.w3.org/1999/xlink">
<g id="graph0" class="graph" transform="scale(1 1) rotate(0) translate(4 312)">
<title>Reporting_Monolith</title>
<polygon fill="white" stroke="transparent" points="-4,4 -4,-312 261,-312 261,4 -4,4"/>
<text text-anchor="middle" x="128.5" y="-292.8" font-family="Times,serif" font-size="14.00">Reporting in a Monolithic System</text>
<!-- Monolith -->
<g id="node1" class="node">
<title>Monolith</title>
<path fill="none" stroke="black" d="M103.75,-285C103.75,-285 65.75,-285 65.75,-285 59.75,-285 53.75,-279 53.75,-273 53.75,-273 53.75,-261 53.75,-261 53.75,-255 59.75,-249 65.75,-249 65.75,-249 103.75,-249 103.75,-249 109.75,-249 115.75,-255 115.75,-261 115.75,-261 115.75,-273 115.75,-273 115.75,-279 109.75,-285 103.75,-285"/>
<text text-anchor="middle" x="84.75" y="-263.9" font-family="Arial" font-size="12.00">Monolith</text>
</g>
<!-- PrimaryDB -->
<g id="node2" class="node">
<title>PrimaryDB</title>
<path fill="none" stroke="black" d="M111.75,-202C111.75,-202 57.75,-202 57.75,-202 51.75,-202 45.75,-196 45.75,-190 45.75,-190 45.75,-178 45.75,-178 45.75,-172 51.75,-166 57.75,-166 57.75,-166 111.75,-166 111.75,-166 117.75,-166 123.75,-172 123.75,-178 123.75,-178 123.75,-190 123.75,-190 123.75,-196 117.75,-202 111.75,-202"/>
<text text-anchor="middle" x="84.75" y="-180.9" font-family="Arial" font-size="12.00">Primary DB</text>
</g>
<!-- Monolith&#45;&gt;PrimaryDB -->
<g id="edge1" class="edge">
<title>Monolith&#45;&gt;PrimaryDB</title>
<path fill="none" stroke="black" d="M84.75,-248.82C84.75,-238.19 84.75,-224.31 84.75,-212.2"/>
<polygon fill="black" stroke="black" points="88.25,-212.15 84.75,-202.15 81.25,-212.15 88.25,-212.15"/>
<text text-anchor="middle" x="106.25" y="-223" font-family="Arial" font-size="10.00">Data flow</text>
</g>
<!-- ReadReplica -->
<g id="node3" class="node">
<title>ReadReplica</title>
<path fill="none" stroke="black" d="M118.25,-119C118.25,-119 51.25,-119 51.25,-119 45.25,-119 39.25,-113 39.25,-107 39.25,-107 39.25,-95 39.25,-95 39.25,-89 45.25,-83 51.25,-83 51.25,-83 118.25,-83 118.25,-83 124.25,-83 130.25,-89 130.25,-95 130.25,-95 130.25,-107 130.25,-107 130.25,-113 124.25,-119 118.25,-119"/>
<text text-anchor="middle" x="84.75" y="-97.9" font-family="Arial" font-size="12.00">Read&#45;Replica</text>
</g>
<!-- PrimaryDB&#45;&gt;ReadReplica -->
<g id="edge2" class="edge">
<title>PrimaryDB&#45;&gt;ReadReplica</title>
<path fill="none" stroke="black" d="M84.75,-165.82C84.75,-155.19 84.75,-141.31 84.75,-129.2"/>
<polygon fill="black" stroke="black" points="88.25,-129.15 84.75,-119.15 81.25,-129.15 88.25,-129.15"/>
<text text-anchor="middle" x="153.75" y="-140" font-family="Arial" font-size="10.00">Data replicated asynchronously</text>
</g>
<!-- ReportingTools -->
<g id="node4" class="node">
<title>ReportingTools</title>
<path fill="none" stroke="black" d="M123.25,-36C123.25,-36 46.25,-36 46.25,-36 40.25,-36 34.25,-30 34.25,-24 34.25,-24 34.25,-12 34.25,-12 34.25,-6 40.25,0 46.25,0 46.25,0 123.25,0 123.25,0 129.25,0 135.25,-6 135.25,-12 135.25,-12 135.25,-24 135.25,-24 135.25,-30 129.25,-36 123.25,-36"/>
<text text-anchor="middle" x="84.75" y="-14.9" font-family="Arial" font-size="12.00">Reporting Tools</text>
</g>
<!-- ReadReplica&#45;&gt;ReportingTools -->
<g id="edge3" class="edge">
<title>ReadReplica&#45;&gt;ReportingTools</title>
<path fill="none" stroke="black" d="M84.75,-82.82C84.75,-72.19 84.75,-58.31 84.75,-46.2"/>
<polygon fill="black" stroke="black" points="88.25,-46.15 84.75,-36.15 81.25,-46.15 88.25,-46.15"/>
<text text-anchor="middle" x="116.75" y="-57" font-family="Arial" font-size="10.00">Reporting data</text>
</g>
</g>
</svg>
