<?xml version="1.0" encoding="UTF-8" standalone="no"?>
<!DOCTYPE svg PUBLIC "-//W3C//DTD SVG 1.1//EN"
 "http://www.w3.org/Graphics/SVG/1.1/DTD/svg11.dtd">
<!-- Generated by graphviz version 2.43.0 (0)
 -->
<!-- Title: TargetedScaling Pages: 1 -->
<svg width="399pt" height="748pt"
 viewBox="0.00 0.00 399.00 748.00" xmlns="http://www.w3.org/2000/svg" xmlns:xlink="http://www.w3.org/1999/xlink">
<g id="graph0" class="graph" transform="scale(1 1) rotate(0) translate(4 744)">
<title>TargetedScaling</title>
<polygon fill="white" stroke="transparent" points="-4,4 -4,-744 395,-744 395,4 -4,4"/>
<text text-anchor="middle" x="195.5" y="-720" font-family="Times,serif" font-size="20.00">Targeted Scaling with Microservices</text>
<g id="clust1" class="cluster">
<title>cluster_Posts</title>
<polygon fill="none" stroke="black" stroke-dasharray="5,2" points="97.44,-8 97.44,-198 293.56,-198 293.56,-8 97.44,-8"/>
<text text-anchor="middle" x="195.5" y="-178" font-family="Times,serif" font-size="20.00">Posts</text>
</g>
<g id="clust2" class="cluster">
<title>cluster_Friends</title>
<polygon fill="none" stroke="black" stroke-dasharray="5,2" points="84.68,-206 84.68,-342 306.32,-342 306.32,-206 84.68,-206"/>
<text text-anchor="middle" x="195.5" y="-322" font-family="Times,serif" font-size="20.00">Friends</text>
</g>
<g id="clust3" class="cluster">
<title>cluster_Pictures</title>
<polygon fill="none" stroke="black" stroke-dasharray="5,2" points="81.68,-350 81.68,-702 309.32,-702 309.32,-350 81.68,-350"/>
<text text-anchor="middle" x="195.5" y="-682" font-family="Times,serif" font-size="20.00">Pictures</text>
</g>
<!-- PostsInstance1 -->
<g id="node1" class="node">
<title>PostsInstance1</title>
<polygon fill="lightblue" stroke="lightblue" points="285.62,-142 240.56,-160 150.44,-160 105.38,-142 150.44,-124 240.56,-124 285.62,-142"/>
<text text-anchor="middle" x="195.5" y="-138.3" font-family="Times,serif" font-size="14.00">Posts Instance</text>
</g>
<!-- PostsInstance2 -->
<g id="node2" class="node">
<title>PostsInstance2</title>
<polygon fill="lightblue" stroke="lightblue" points="285.62,-88 240.56,-106 150.44,-106 105.38,-88 150.44,-70 240.56,-70 285.62,-88"/>
<text text-anchor="middle" x="195.5" y="-84.3" font-family="Times,serif" font-size="14.00">Posts Instance</text>
</g>
<!-- PostsInstance3 -->
<g id="node3" class="node">
<title>PostsInstance3</title>
<polygon fill="lightblue" stroke="lightblue" points="285.62,-34 240.56,-52 150.44,-52 105.38,-34 150.44,-16 240.56,-16 285.62,-34"/>
<text text-anchor="middle" x="195.5" y="-30.3" font-family="Times,serif" font-size="14.00">Posts Instance</text>
</g>
<!-- FriendsInstance1 -->
<g id="node4" class="node">
<title>FriendsInstance1</title>
<polygon fill="lightblue" stroke="lightblue" points="298.13,-286 246.82,-304 144.18,-304 92.87,-286 144.18,-268 246.82,-268 298.13,-286"/>
<text text-anchor="middle" x="195.5" y="-282.3" font-family="Times,serif" font-size="14.00">Friends Instance</text>
</g>
<!-- FriendsInstance2 -->
<g id="node5" class="node">
<title>FriendsInstance2</title>
<polygon fill="lightblue" stroke="lightblue" points="298.13,-232 246.82,-250 144.18,-250 92.87,-232 144.18,-214 246.82,-214 298.13,-232"/>
<text text-anchor="middle" x="195.5" y="-228.3" font-family="Times,serif" font-size="14.00">Friends Instance</text>
</g>
<!-- PicturesInstance1 -->
<g id="node6" class="node">
<title>PicturesInstance1</title>
<polygon fill="lightblue" stroke="lightblue" points="301.14,-646 248.32,-664 142.68,-664 89.86,-646 142.68,-628 248.32,-628 301.14,-646"/>
<text text-anchor="middle" x="195.5" y="-642.3" font-family="Times,serif" font-size="14.00">Pictures Instance</text>
</g>
<!-- PicturesInstance2 -->
<g id="node7" class="node">
<title>PicturesInstance2</title>
<polygon fill="lightblue" stroke="lightblue" points="301.14,-592 248.32,-610 142.68,-610 89.86,-592 142.68,-574 248.32,-574 301.14,-592"/>
<text text-anchor="middle" x="195.5" y="-588.3" font-family="Times,serif" font-size="14.00">Pictures Instance</text>
</g>
<!-- PicturesInstance3 -->
<g id="node8" class="node">
<title>PicturesInstance3</title>
<polygon fill="lightblue" stroke="lightblue" points="301.14,-538 248.32,-556 142.68,-556 89.86,-538 142.68,-520 248.32,-520 301.14,-538"/>
<text text-anchor="middle" x="195.5" y="-534.3" font-family="Times,serif" font-size="14.00">Pictures Instance</text>
</g>
<!-- PicturesInstance4 -->
<g id="node9" class="node">
<title>PicturesInstance4</title>
<polygon fill="lightblue" stroke="lightblue" points="301.14,-484 248.32,-502 142.68,-502 89.86,-484 142.68,-466 248.32,-466 301.14,-484"/>
<text text-anchor="middle" x="195.5" y="-480.3" font-family="Times,serif" font-size="14.00">Pictures Instance</text>
</g>
<!-- PicturesInstance5 -->
<g id="node10" class="node">
<title>PicturesInstance5</title>
<polygon fill="lightblue" stroke="lightblue" points="301.14,-430 248.32,-448 142.68,-448 89.86,-430 142.68,-412 248.32,-412 301.14,-430"/>
<text text-anchor="middle" x="195.5" y="-426.3" font-family="Times,serif" font-size="14.00">Pictures Instance</text>
</g>
<!-- PicturesInstance6 -->
<g id="node11" class="node">
<title>PicturesInstance6</title>
<polygon fill="lightblue" stroke="lightblue" points="301.14,-376 248.32,-394 142.68,-394 89.86,-376 142.68,-358 248.32,-358 301.14,-376"/>
<text text-anchor="middle" x="195.5" y="-372.3" font-family="Times,serif" font-size="14.00">Pictures Instance</text>
</g>
</g>
</svg>
