<?xml version="1.0" encoding="UTF-8" standalone="no"?>
<!DOCTYPE svg PUBLIC "-//W3C//DTD SVG 1.1//EN"
 "http://www.w3.org/Graphics/SVG/1.1/DTD/svg11.dtd">
<!-- Generated by graphviz version 2.43.0 (0)
 -->
<!-- Title: TechnologyHeterogeneity Pages: 1 -->
<svg width="542pt" height="188pt"
 viewBox="0.00 0.00 541.77 188.30" xmlns="http://www.w3.org/2000/svg" xmlns:xlink="http://www.w3.org/1999/xlink">
<g id="graph0" class="graph" transform="scale(1 1) rotate(0) translate(4 184.3)">
<title>TechnologyHeterogeneity</title>
<polygon fill="white" stroke="transparent" points="-4,4 -4,-184.3 537.77,-184.3 537.77,4 -4,4"/>
<text text-anchor="middle" x="266.88" y="-160.3" font-family="Times,serif" font-size="20.00">Technology Heterogeneity in Microservices</text>
<!-- Posts -->
<g id="node1" class="node">
<title>Posts</title>
<polygon fill="lightblue" stroke="lightblue" points="160.05,-119.28 120.03,-150.33 40,-150.33 -0.02,-119.28 40,-88.22 120.03,-88.22 160.05,-119.28"/>
<text text-anchor="middle" x="80.02" y="-123.08" font-family="Times,serif" font-size="14.00">Posts</text>
<text text-anchor="middle" x="80.02" y="-108.08" font-family="Times,serif" font-size="14.00">&lt;&lt;ruby&gt;&gt;</text>
</g>
<!-- DocumentStore -->
<g id="node4" class="node">
<title>DocumentStore</title>
<path fill="lightgray" stroke="lightgray" d="M124.52,-47.6C124.52,-50.24 104.57,-52.38 80.02,-52.38 55.46,-52.38 35.52,-50.24 35.52,-47.6 35.52,-47.6 35.52,-4.65 35.52,-4.65 35.52,-2.01 55.46,0.13 80.02,0.13 104.57,0.13 124.52,-2.01 124.52,-4.65 124.52,-4.65 124.52,-47.6 124.52,-47.6"/>
<path fill="none" stroke="lightgray" d="M124.52,-47.6C124.52,-44.97 104.57,-42.83 80.02,-42.83 55.46,-42.83 35.52,-44.97 35.52,-47.6"/>
<text text-anchor="middle" x="80.02" y="-29.93" font-family="Times,serif" font-size="14.00">Document</text>
<text text-anchor="middle" x="80.02" y="-14.93" font-family="Times,serif" font-size="14.00">store</text>
</g>
<!-- Posts&#45;&gt;DocumentStore -->
<g id="edge1" class="edge">
<title>Posts&#45;&gt;DocumentStore</title>
<path fill="none" stroke="black" d="M80.02,-88.18C80.02,-79.92 80.02,-70.89 80.02,-62.37"/>
<polygon fill="black" stroke="black" points="83.52,-62.32 80.02,-52.32 76.52,-62.32 83.52,-62.32"/>
</g>
<!-- Friends -->
<g id="node2" class="node">
<title>Friends</title>
<polygon fill="lightblue" stroke="lightblue" points="362.05,-119.28 316.03,-150.33 224,-150.33 177.99,-119.28 224,-88.22 316.03,-88.22 362.05,-119.28"/>
<text text-anchor="middle" x="270.02" y="-123.08" font-family="Times,serif" font-size="14.00">Friends</text>
<text text-anchor="middle" x="270.02" y="-108.08" font-family="Times,serif" font-size="14.00">&lt;&lt;golang&gt;&gt;</text>
</g>
<!-- GraphDB -->
<g id="node5" class="node">
<title>GraphDB</title>
<path fill="lightgray" stroke="lightgray" d="M300.52,-47.6C300.52,-50.24 286.85,-52.38 270.02,-52.38 253.19,-52.38 239.52,-50.24 239.52,-47.6 239.52,-47.6 239.52,-4.65 239.52,-4.65 239.52,-2.01 253.19,0.13 270.02,0.13 286.85,0.13 300.52,-2.01 300.52,-4.65 300.52,-4.65 300.52,-47.6 300.52,-47.6"/>
<path fill="none" stroke="lightgray" d="M300.52,-47.6C300.52,-44.97 286.85,-42.83 270.02,-42.83 253.19,-42.83 239.52,-44.97 239.52,-47.6"/>
<text text-anchor="middle" x="270.02" y="-29.93" font-family="Times,serif" font-size="14.00">Graph</text>
<text text-anchor="middle" x="270.02" y="-14.93" font-family="Times,serif" font-size="14.00">DB</text>
</g>
<!-- Friends&#45;&gt;GraphDB -->
<g id="edge2" class="edge">
<title>Friends&#45;&gt;GraphDB</title>
<path fill="none" stroke="black" d="M270.02,-88.18C270.02,-79.92 270.02,-70.89 270.02,-62.37"/>
<polygon fill="black" stroke="black" points="273.52,-62.32 270.02,-52.32 266.52,-62.32 273.52,-62.32"/>
</g>
<!-- Pictures -->
<g id="node3" class="node">
<title>Pictures</title>
<polygon fill="lightblue" stroke="lightblue" points="533.52,-119.28 495.27,-150.33 418.77,-150.33 380.51,-119.28 418.77,-88.22 495.27,-88.22 533.52,-119.28"/>
<text text-anchor="middle" x="457.02" y="-123.08" font-family="Times,serif" font-size="14.00">Pictures</text>
<text text-anchor="middle" x="457.02" y="-108.08" font-family="Times,serif" font-size="14.00">&lt;&lt;java&gt;&gt;</text>
</g>
<!-- BlobStore -->
<g id="node6" class="node">
<title>BlobStore</title>
<path fill="lightgray" stroke="lightgray" d="M484.02,-47.6C484.02,-50.24 471.91,-52.38 457.02,-52.38 442.12,-52.38 430.02,-50.24 430.02,-47.6 430.02,-47.6 430.02,-4.65 430.02,-4.65 430.02,-2.01 442.12,0.13 457.02,0.13 471.91,0.13 484.02,-2.01 484.02,-4.65 484.02,-4.65 484.02,-47.6 484.02,-47.6"/>
<path fill="none" stroke="lightgray" d="M484.02,-47.6C484.02,-44.97 471.91,-42.83 457.02,-42.83 442.12,-42.83 430.02,-44.97 430.02,-47.6"/>
<text text-anchor="middle" x="457.02" y="-29.93" font-family="Times,serif" font-size="14.00">Blob</text>
<text text-anchor="middle" x="457.02" y="-14.93" font-family="Times,serif" font-size="14.00">store</text>
</g>
<!-- Pictures&#45;&gt;BlobStore -->
<g id="edge3" class="edge">
<title>Pictures&#45;&gt;BlobStore</title>
<path fill="none" stroke="black" d="M457.02,-88.18C457.02,-79.92 457.02,-70.89 457.02,-62.37"/>
<polygon fill="black" stroke="black" points="460.52,-62.32 457.02,-52.32 453.52,-62.32 460.52,-62.32"/>
</g>
</g>
</svg>
