<?xml version="1.0" encoding="UTF-8" standalone="no"?>
<!DOCTYPE svg PUBLIC "-//W3C//DTD SVG 1.1//EN"
 "http://www.w3.org/Graphics/SVG/1.1/DTD/svg11.dtd">
<!-- Generated by graphviz version 2.43.0 (0)
 -->
<!-- Title: ThreeTierArchitectureUpdate Pages: 1 -->
<svg width="494pt" height="368pt"
 viewBox="0.00 0.00 493.54 368.25" xmlns="http://www.w3.org/2000/svg" xmlns:xlink="http://www.w3.org/1999/xlink">
<g id="graph0" class="graph" transform="scale(1 1) rotate(0) translate(4 364.25)">
<title>ThreeTierArchitectureUpdate</title>
<polygon fill="white" stroke="transparent" points="-4,4 -4,-364.25 489.54,-364.25 489.54,4 -4,4"/>
<text text-anchor="middle" x="242.77" y="-341.85" font-family="Times,serif" font-size="18.00">Making a Change Across All Three Tiers</text>
<!-- WebUI -->
<g id="node1" class="node">
<title>WebUI</title>
<path fill="none" stroke="black" d="M331.04,-245.25C331.04,-245.25 230.04,-245.25 230.04,-245.25 224.04,-245.25 218.04,-239.25 218.04,-233.25 218.04,-233.25 218.04,-219.25 218.04,-219.25 218.04,-213.25 224.04,-207.25 230.04,-207.25 230.04,-207.25 331.04,-207.25 331.04,-207.25 337.04,-207.25 343.04,-213.25 343.04,-219.25 343.04,-219.25 343.04,-233.25 343.04,-233.25 343.04,-239.25 337.04,-245.25 331.04,-245.25"/>
<text text-anchor="middle" x="280.54" y="-230.05" font-family="Arial" font-size="14.00">Web UI</text>
<text text-anchor="middle" x="280.54" y="-215.05" font-family="Arial" font-size="14.00">&lt;&lt;Presentation&gt;&gt;</text>
</g>
<!-- Backend -->
<g id="node2" class="node">
<title>Backend</title>
<path fill="none" stroke="black" d="M215.54,-141.25C215.54,-141.25 99.54,-141.25 99.54,-141.25 93.54,-141.25 87.54,-135.25 87.54,-129.25 87.54,-129.25 87.54,-115.25 87.54,-115.25 87.54,-109.25 93.54,-103.25 99.54,-103.25 99.54,-103.25 215.54,-103.25 215.54,-103.25 221.54,-103.25 227.54,-109.25 227.54,-115.25 227.54,-115.25 227.54,-129.25 227.54,-129.25 227.54,-135.25 221.54,-141.25 215.54,-141.25"/>
<text text-anchor="middle" x="157.54" y="-126.05" font-family="Arial" font-size="14.00">Backend</text>
<text text-anchor="middle" x="157.54" y="-111.05" font-family="Arial" font-size="14.00">&lt;&lt;Business Logic&gt;&gt;</text>
</g>
<!-- WebUI&#45;&gt;Backend -->
<g id="edge4" class="edge">
<title>WebUI&#45;&gt;Backend</title>
<path fill="none" stroke="black" d="M217.92,-221.72C195.61,-217.09 172.57,-207.72 158.54,-189.25 150.53,-178.7 149.55,-164.21 150.89,-151.5"/>
<polygon fill="black" stroke="black" points="154.39,-151.78 152.45,-141.37 147.47,-150.72 154.39,-151.78"/>
<text text-anchor="middle" x="239.54" y="-170.55" font-family="Times,serif" font-size="14.00">Show genre UI control</text>
</g>
<!-- Backend&#45;&gt;WebUI -->
<g id="edge6" class="edge">
<title>Backend&#45;&gt;WebUI</title>
<path fill="none" stroke="black" d="M227.68,-130.03C266.25,-135.37 308.66,-144.45 320.54,-159.25 328.89,-169.65 325.97,-177.07 320.54,-189.25 318.92,-192.89 316.73,-196.32 314.2,-199.5"/>
<polygon fill="black" stroke="black" points="311.59,-197.18 307.37,-206.89 316.73,-201.93 311.59,-197.18"/>
<text text-anchor="middle" x="405.54" y="-178.05" font-family="Times,serif" font-size="14.00">Expose current genre,</text>
<text text-anchor="middle" x="405.54" y="-163.05" font-family="Times,serif" font-size="14.00">change genre API</text>
</g>
<!-- Database -->
<g id="node3" class="node">
<title>Database</title>
<path fill="none" stroke="black" d="M119.54,-47.6C119.54,-50.24 102.06,-52.38 80.54,-52.38 59.02,-52.38 41.54,-50.24 41.54,-47.6 41.54,-47.6 41.54,-4.65 41.54,-4.65 41.54,-2.01 59.02,0.13 80.54,0.13 102.06,0.13 119.54,-2.01 119.54,-4.65 119.54,-4.65 119.54,-47.6 119.54,-47.6"/>
<path fill="none" stroke="black" d="M119.54,-47.6C119.54,-44.97 102.06,-42.83 80.54,-42.83 59.02,-42.83 41.54,-44.97 41.54,-47.6"/>
<text text-anchor="middle" x="80.54" y="-29.93" font-family="Arial" font-size="14.00">Database</text>
<text text-anchor="middle" x="80.54" y="-14.93" font-family="Arial" font-size="14.00">&lt;&lt;Data&gt;&gt;</text>
</g>
<!-- Backend&#45;&gt;Database -->
<g id="edge5" class="edge">
<title>Backend&#45;&gt;Database</title>
<path fill="none" stroke="black" d="M144.13,-103.07C136.74,-93.23 127.32,-80.93 118.54,-70.25 115.84,-66.95 112.97,-63.56 110.08,-60.18"/>
<polygon fill="black" stroke="black" points="112.54,-57.67 103.35,-52.41 107.25,-62.26 112.54,-57.67"/>
<text text-anchor="middle" x="198.04" y="-74.05" font-family="Times,serif" font-size="14.00">Store genre choice</text>
</g>
<!-- FrontendTeam -->
<g id="node4" class="node">
<title>FrontendTeam</title>
<ellipse fill="none" stroke="black" cx="280.54" cy="-314.25" rx="70.39" ry="18"/>
<text text-anchor="middle" x="280.54" y="-310.55" font-family="Arial" font-size="14.00">Frontend Team</text>
</g>
<!-- FrontendTeam&#45;&gt;WebUI -->
<g id="edge1" class="edge">
<title>FrontendTeam&#45;&gt;WebUI</title>
<path fill="none" stroke="black" d="M280.54,-295.85C280.54,-284.31 280.54,-268.9 280.54,-255.61"/>
<polygon fill="black" stroke="black" points="284.04,-255.52 280.54,-245.52 277.04,-255.52 284.04,-255.52"/>
<text text-anchor="middle" x="313.04" y="-267.05" font-family="Times,serif" font-size="14.00">Manages</text>
</g>
<!-- BackendTeam -->
<g id="node5" class="node">
<title>BackendTeam</title>
<ellipse fill="none" stroke="black" cx="69.54" cy="-226.25" rx="69.59" ry="18"/>
<text text-anchor="middle" x="69.54" y="-222.55" font-family="Arial" font-size="14.00">Backend Team</text>
</g>
<!-- BackendTeam&#45;&gt;Backend -->
<g id="edge2" class="edge">
<title>BackendTeam&#45;&gt;Backend</title>
<path fill="none" stroke="black" d="M65,-208.27C62.22,-193.95 60.82,-173.56 70.54,-159.25 73.57,-154.8 77.25,-150.9 81.37,-147.48"/>
<polygon fill="black" stroke="black" points="83.68,-150.14 89.79,-141.48 79.62,-144.44 83.68,-150.14"/>
<text text-anchor="middle" x="103.04" y="-170.55" font-family="Times,serif" font-size="14.00">Manages</text>
</g>
<!-- DBAs -->
<g id="node6" class="node">
<title>DBAs</title>
<ellipse fill="none" stroke="black" cx="36.54" cy="-122.25" rx="33.29" ry="18"/>
<text text-anchor="middle" x="36.54" y="-118.55" font-family="Arial" font-size="14.00">DBAs</text>
</g>
<!-- DBAs&#45;&gt;Database -->
<g id="edge3" class="edge">
<title>DBAs&#45;&gt;Database</title>
<path fill="none" stroke="black" d="M41.08,-104.32C44.07,-94.2 48.37,-81.22 53.54,-70.25 54.94,-67.29 56.49,-64.29 58.13,-61.32"/>
<polygon fill="black" stroke="black" points="61.23,-62.96 63.23,-52.56 55.18,-59.44 61.23,-62.96"/>
<text text-anchor="middle" x="86.04" y="-74.05" font-family="Times,serif" font-size="14.00">Manages</text>
</g>
</g>
</svg>
