<?xml version="1.0" encoding="UTF-8" standalone="no"?>
<!DOCTYPE svg PUBLIC "-//W3C//DTD SVG 1.1//EN"
 "http://www.w3.org/Graphics/SVG/1.1/DTD/svg11.dtd">
<!-- Generated by graphviz version 2.43.0 (0)
 -->
<!-- Title: Asynchronous_Communication Pages: 1 -->
<svg width="681pt" height="107pt"
 viewBox="0.00 0.00 681.00 107.00" xmlns="http://www.w3.org/2000/svg" xmlns:xlink="http://www.w3.org/1999/xlink">
<g id="graph0" class="graph" transform="scale(1 1) rotate(0) translate(4 103)">
<title>Asynchronous_Communication</title>
<polygon fill="white" stroke="transparent" points="-4,4 -4,-103 677,-103 677,4 -4,4"/>
<text text-anchor="middle" x="336.5" y="-80.6" font-family="Times,serif" font-size="18.00">Asynchronous Communication Between Order Processor and Warehouse</text>
<!-- OrderProcessor -->
<g id="node1" class="node">
<title>OrderProcessor</title>
<polygon fill="lightblue" stroke="black" points="193.91,-30 156.98,-48 83.13,-48 46.21,-30 83.13,-12 156.98,-12 193.91,-30"/>
<text text-anchor="middle" x="120.06" y="-26.9" font-family="Arial" font-size="12.00">Order Processor</text>
</g>
<!-- Request -->
<g id="node3" class="node">
<title>Request</title>
<path fill="none" stroke="black" d="M311.98,-71C311.98,-71 241.98,-71 241.98,-71 235.98,-71 229.98,-65 229.98,-59 229.98,-59 229.98,-47 229.98,-47 229.98,-41 235.98,-35 241.98,-35 241.98,-35 311.98,-35 311.98,-35 317.98,-35 323.98,-41 323.98,-47 323.98,-47 323.98,-59 323.98,-59 323.98,-65 317.98,-71 311.98,-71"/>
<text text-anchor="middle" x="276.98" y="-56.4" font-family="Arial" font-size="12.00">Send package</text>
<text text-anchor="middle" x="276.98" y="-43.4" font-family="Arial" font-size="12.00">&lt;&lt;request&gt;&gt;</text>
</g>
<!-- OrderProcessor&#45;&gt;Request -->
<g id="edge1" class="edge">
<title>OrderProcessor&#45;&gt;Request</title>
<path fill="none" stroke="black" stroke-dasharray="5,2" d="M176.99,-38.3C190.94,-40.37 205.9,-42.6 219.86,-44.67"/>
<polygon fill="black" stroke="black" points="219.41,-48.14 229.81,-46.15 220.44,-41.22 219.41,-48.14"/>
</g>
<!-- Warehouse -->
<g id="node2" class="node">
<title>Warehouse</title>
<polygon fill="lightblue" stroke="black" points="470.81,-53 443.12,-71 387.73,-71 360.04,-53 387.73,-35 443.12,-35 470.81,-53"/>
<text text-anchor="middle" x="415.43" y="-49.9" font-family="Arial" font-size="12.00">Warehouse</text>
</g>
<!-- Response -->
<g id="node4" class="node">
<title>Response</title>
<path fill="none" stroke="black" d="M614.87,-60C614.87,-60 518.87,-60 518.87,-60 512.87,-60 506.87,-54 506.87,-48 506.87,-48 506.87,-12 506.87,-12 506.87,-6 512.87,0 518.87,0 518.87,0 614.87,0 614.87,0 620.87,0 626.87,-6 626.87,-12 626.87,-12 626.87,-48 626.87,-48 626.87,-54 620.87,-60 614.87,-60"/>
<text text-anchor="middle" x="566.87" y="-46.4" font-family="Arial" font-size="12.00">Package sent</text>
<text text-anchor="middle" x="566.87" y="-33.4" font-family="Arial" font-size="12.00">&lt;&lt;response&gt;&gt;</text>
<text text-anchor="middle" x="566.87" y="-20.4" font-family="Arial" font-size="12.00">Response received</text>
<text text-anchor="middle" x="566.87" y="-7.4" font-family="Arial" font-size="12.00">hours or days later</text>
</g>
<!-- Warehouse&#45;&gt;Response -->
<g id="edge3" class="edge">
<title>Warehouse&#45;&gt;Response</title>
<path fill="none" stroke="black" stroke-dasharray="5,2" d="M460.45,-46.22C471.76,-44.48 484.19,-42.57 496.43,-40.69"/>
<polygon fill="black" stroke="black" points="497.29,-44.1 506.64,-39.11 496.23,-37.18 497.29,-44.1"/>
</g>
<!-- Request&#45;&gt;Warehouse -->
<g id="edge2" class="edge">
<title>Request&#45;&gt;Warehouse</title>
<path fill="none" stroke="black" stroke-dasharray="5,2" d="M324.17,-53C332.4,-53 341.1,-53 349.73,-53"/>
<polygon fill="black" stroke="black" points="349.79,-56.5 359.79,-53 349.79,-49.5 349.79,-56.5"/>
</g>
<!-- Response&#45;&gt;OrderProcessor -->
<g id="edge4" class="edge">
<title>Response&#45;&gt;OrderProcessor</title>
<path fill="none" stroke="black" stroke-dasharray="5,2" d="M506.84,-27.13C494.94,-26.66 482.5,-26.24 470.87,-26 363.83,-23.75 337.02,-24.04 229.98,-26 219.73,-26.19 208.94,-26.48 198.29,-26.81"/>
<polygon fill="black" stroke="black" points="198.04,-23.32 188.16,-27.15 198.27,-30.32 198.04,-23.32"/>
</g>
</g>
</svg>
