<?xml version="1.0" encoding="UTF-8" standalone="no"?>
<!DOCTYPE svg PUBLIC "-//W3C//DTD SVG 1.1//EN"
 "http://www.w3.org/Graphics/SVG/1.1/DTD/svg11.dtd">
<!-- Generated by graphviz version 2.43.0 (0)
 -->
<!-- Title: Common_Coupling Pages: 1 -->
<svg width="465pt" height="179pt"
 viewBox="0.00 0.00 464.93 179.00" xmlns="http://www.w3.org/2000/svg" xmlns:xlink="http://www.w3.org/1999/xlink">
<g id="graph0" class="graph" transform="scale(1 1) rotate(0) translate(4 175)">
<title>Common_Coupling</title>
<polygon fill="white" stroke="transparent" points="-4,4 -4,-175 460.93,-175 460.93,4 -4,4"/>
<text text-anchor="middle" x="228.46" y="-152.6" font-family="Times,serif" font-size="18.00">An Example of Common Coupling</text>
<!-- OrderProcessor -->
<g id="node1" class="node">
<title>OrderProcessor</title>
<polygon fill="lightblue" stroke="black" points="147.78,-125 110.85,-143 37,-143 0.07,-125 37,-107 110.85,-107 147.78,-125"/>
<text text-anchor="middle" x="73.93" y="-121.9" font-family="Arial" font-size="12.00">Order Processor</text>
</g>
<!-- OrderTable -->
<g id="node3" class="node">
<title>OrderTable</title>
<polygon fill="lightblue" stroke="black" points="235.93,-60 135.93,-60 135.93,0 235.93,0 235.93,-60"/>
<text text-anchor="middle" x="185.93" y="-46.4" font-family="Arial" font-size="12.00">Order Table</text>
<text text-anchor="middle" x="185.93" y="-33.4" font-family="Arial" font-size="12.00">ID &#160;&#160;&#160;| Status</text>
<text text-anchor="middle" x="185.93" y="-20.4" font-family="Arial" font-size="12.00">123 | PLACED</text>
<text text-anchor="middle" x="185.93" y="-7.4" font-family="Arial" font-size="12.00">456 | SHIPPED</text>
</g>
<!-- OrderProcessor&#45;&gt;OrderTable -->
<g id="edge1" class="edge">
<title>OrderProcessor&#45;&gt;OrderTable</title>
<path fill="none" stroke="black" d="M70.07,-106.9C68.94,-97.6 69.28,-86.33 74.93,-78 86.79,-60.51 106.56,-49.51 126.16,-42.59"/>
<polygon fill="black" stroke="black" points="127.28,-45.91 135.73,-39.52 125.14,-39.24 127.28,-45.91"/>
<text text-anchor="middle" x="175.93" y="-81" font-family="Arial" font-size="10.00">Sets PLACED, PAID, COMPLETED statuses</text>
</g>
<!-- Warehouse -->
<g id="node2" class="node">
<title>Warehouse</title>
<polygon fill="lightblue" stroke="black" points="354.31,-125 326.62,-143 271.23,-143 243.54,-125 271.23,-107 326.62,-107 354.31,-125"/>
<text text-anchor="middle" x="298.93" y="-121.9" font-family="Arial" font-size="12.00">Warehouse</text>
</g>
<!-- Warehouse&#45;&gt;OrderTable -->
<g id="edge2" class="edge">
<title>Warehouse&#45;&gt;OrderTable</title>
<path fill="none" stroke="black" d="M293.67,-106.66C290.14,-97.28 284.69,-86.01 276.93,-78 267.85,-68.64 256.51,-60.79 244.95,-54.35"/>
<polygon fill="black" stroke="black" points="246.57,-51.25 236.09,-49.69 243.32,-57.44 246.57,-51.25"/>
<text text-anchor="middle" x="370.43" y="-81" font-family="Arial" font-size="10.00">Sets PICKING and SHIPPED statuses</text>
</g>
</g>
</svg>
