<?xml version="1.0" encoding="UTF-8" standalone="no"?>
<!DOCTYPE svg PUBLIC "-//W3C//DTD SVG 1.1//EN"
 "http://www.w3.org/Graphics/SVG/1.1/DTD/svg11.dtd">
<!-- Generated by graphviz version 2.43.0 (0)
 -->
<!-- Title: Communication_Through_Common_Data Pages: 1 -->
<svg width="384pt" height="238pt"
 viewBox="0.00 0.00 384.00 238.00" xmlns="http://www.w3.org/2000/svg" xmlns:xlink="http://www.w3.org/1999/xlink">
<g id="graph0" class="graph" transform="scale(1 1) rotate(0) translate(4 234)">
<title>Communication_Through_Common_Data</title>
<polygon fill="white" stroke="transparent" points="-4,4 -4,-234 380,-234 380,4 -4,4"/>
<text text-anchor="middle" x="188" y="-211.6" font-family="Times,serif" font-size="18.00">Communication Through Common Data</text>
<!-- NewProductImporter -->
<g id="node1" class="node">
<title>NewProductImporter</title>
<polygon fill="lightblue" stroke="black" points="279.52,-184 232.7,-202 139.04,-202 92.21,-184 139.04,-166 232.7,-166 279.52,-184"/>
<text text-anchor="middle" x="185.87" y="-180.9" font-family="Arial" font-size="12.00">New Product Importer</text>
</g>
<!-- NewProductFile -->
<g id="node4" class="node">
<title>NewProductFile</title>
<path fill="none" stroke="black" d="M225.37,-119C225.37,-119 146.37,-119 146.37,-119 140.37,-119 134.37,-113 134.37,-107 134.37,-107 134.37,-95 134.37,-95 134.37,-89 140.37,-83 146.37,-83 146.37,-83 225.37,-83 225.37,-83 231.37,-83 237.37,-89 237.37,-95 237.37,-95 237.37,-107 237.37,-107 237.37,-113 231.37,-119 225.37,-119"/>
<text text-anchor="middle" x="185.87" y="-97.9" font-family="Arial" font-size="12.00">New product file</text>
</g>
<!-- NewProductImporter&#45;&gt;NewProductFile -->
<g id="edge1" class="edge">
<title>NewProductImporter&#45;&gt;NewProductFile</title>
<path fill="none" stroke="black" stroke-dasharray="5,2" d="M185.87,-165.82C185.87,-155.19 185.87,-141.31 185.87,-129.2"/>
<polygon fill="black" stroke="black" points="189.37,-129.15 185.87,-119.15 182.37,-129.15 189.37,-129.15"/>
<text text-anchor="middle" x="207.87" y="-140" font-family="Arial" font-size="10.00">Writes file</text>
</g>
<!-- Catalog -->
<g id="node2" class="node">
<title>Catalog</title>
<polygon fill="lightblue" stroke="black" points="174.74,-18 153.81,-36 111.93,-36 90.99,-18 111.93,0 153.81,0 174.74,-18"/>
<text text-anchor="middle" x="132.87" y="-14.9" font-family="Arial" font-size="12.00">Catalog</text>
</g>
<!-- Inventory -->
<g id="node3" class="node">
<title>Inventory</title>
<polygon fill="lightblue" stroke="black" points="285.27,-18 262.07,-36 215.66,-36 192.46,-18 215.66,0 262.07,0 285.27,-18"/>
<text text-anchor="middle" x="238.87" y="-14.9" font-family="Arial" font-size="12.00">Inventory</text>
</g>
<!-- NewProductFile&#45;&gt;Catalog -->
<g id="edge2" class="edge">
<title>NewProductFile&#45;&gt;Catalog</title>
<path fill="none" stroke="black" stroke-dasharray="5,2" d="M174.63,-82.82C167.39,-71.76 157.85,-57.18 149.71,-44.75"/>
<polygon fill="black" stroke="black" points="152.5,-42.6 144.09,-36.15 146.64,-46.44 152.5,-42.6"/>
<text text-anchor="middle" x="185.37" y="-57" font-family="Arial" font-size="10.00">Reads file</text>
</g>
<!-- NewProductFile&#45;&gt;Inventory -->
<g id="edge3" class="edge">
<title>NewProductFile&#45;&gt;Inventory</title>
<path fill="none" stroke="black" stroke-dasharray="5,2" d="M199.21,-82.82C203.39,-77.23 207.94,-70.93 211.87,-65 216.09,-58.63 220.39,-51.59 224.28,-44.97"/>
<polygon fill="black" stroke="black" points="227.32,-46.72 229.3,-36.31 221.26,-43.21 227.32,-46.72"/>
<text text-anchor="middle" x="240.37" y="-57" font-family="Arial" font-size="10.00">Reads file</text>
</g>
</g>
</svg>
