<?xml version="1.0" encoding="UTF-8" standalone="no"?>
<!DOCTYPE svg PUBLIC "-//W3C//DTD SVG 1.1//EN"
 "http://www.w3.org/Graphics/SVG/1.1/DTD/svg11.dtd">
<!-- Generated by graphviz version 2.43.0 (0)
 -->
<!-- Title: DetailedEventExample Pages: 1 -->
<svg width="618pt" height="126pt"
 viewBox="0.00 0.00 617.67 126.00" xmlns="http://www.w3.org/2000/svg" xmlns:xlink="http://www.w3.org/1999/xlink">
<g id="graph0" class="graph" transform="scale(1 1) rotate(0) translate(4 122)">
<title>DetailedEventExample</title>
<polygon fill="white" stroke="transparent" points="-4,4 -4,-122 613.67,-122 613.67,4 -4,4"/>
<text text-anchor="middle" x="304.83" y="-99.6" font-family="Times,serif" font-size="18.00">Detailed Event Example for Customer Registration</text>
<!-- Customer -->
<g id="node1" class="node">
<title>Customer</title>
<polygon fill="lightblue" stroke="black" points="96.51,-45 72.42,-63 24.25,-63 0.16,-45 24.25,-27 72.42,-27 96.51,-45"/>
<text text-anchor="middle" x="48.34" y="-41.9" font-family="Arial" font-size="12.00">Customer</text>
</g>
<!-- Event -->
<g id="node4" class="node">
<title>Event</title>
<path fill="none" stroke="black" d="M363.67,-75C363.67,-75 203.67,-75 203.67,-75 197.67,-75 191.67,-69 191.67,-63 191.67,-63 191.67,-27 191.67,-27 191.67,-21 197.67,-15 203.67,-15 203.67,-15 363.67,-15 363.67,-15 369.67,-15 375.67,-21 375.67,-27 375.67,-27 375.67,-63 375.67,-63 375.67,-69 369.67,-75 363.67,-75"/>
<text text-anchor="middle" x="283.67" y="-61.4" font-family="Arial" font-size="12.00">Customer registered &lt;&lt;event&gt;&gt;</text>
<text text-anchor="middle" x="283.67" y="-48.4" font-family="Arial" font-size="12.00">Customer ID: 2321</text>
<text text-anchor="middle" x="283.67" y="-35.4" font-family="Arial" font-size="12.00">Name: Sam</text>
<text text-anchor="middle" x="283.67" y="-22.4" font-family="Arial" font-size="12.00">Email: sam@xyz.com</text>
</g>
<!-- Customer&#45;&gt;Event -->
<g id="edge1" class="edge">
<title>Customer&#45;&gt;Event</title>
<path fill="none" stroke="black" stroke-dasharray="5,2" d="M96.55,-45C120.97,-45 151.78,-45 181.26,-45"/>
<polygon fill="black" stroke="black" points="181.62,-48.5 191.62,-45 181.62,-41.5 181.62,-48.5"/>
<text text-anchor="middle" x="144.17" y="-48" font-family="Arial" font-size="10.00">1. Event fired</text>
</g>
<!-- Notifications -->
<g id="node2" class="node">
<title>Notifications</title>
<polygon fill="lightblue" stroke="black" points="609.67,-72 580.17,-90 521.17,-90 491.67,-72 521.17,-54 580.17,-54 609.67,-72"/>
<text text-anchor="middle" x="550.67" y="-68.9" font-family="Arial" font-size="12.00">Notifications</text>
</g>
<!-- Loyalty -->
<g id="node3" class="node">
<title>Loyalty</title>
<polygon fill="lightblue" stroke="black" points="589.86,-18 570.26,-36 531.07,-36 511.48,-18 531.07,0 570.26,0 589.86,-18"/>
<text text-anchor="middle" x="550.67" y="-14.9" font-family="Arial" font-size="12.00">Loyalty</text>
</g>
<!-- Event&#45;&gt;Notifications -->
<g id="edge2" class="edge">
<title>Event&#45;&gt;Notifications</title>
<path fill="none" stroke="black" stroke-dasharray="5,2" d="M375.87,-54.29C413.45,-58.12 455.96,-62.45 489.53,-65.87"/>
<polygon fill="black" stroke="black" points="489.34,-69.37 499.65,-66.9 490.05,-62.41 489.34,-69.37"/>
<text text-anchor="middle" x="433.67" y="-67" font-family="Arial" font-size="10.00">2. Receives event</text>
</g>
<!-- Event&#45;&gt;Loyalty -->
<g id="edge3" class="edge">
<title>Event&#45;&gt;Loyalty</title>
<path fill="none" stroke="black" stroke-dasharray="5,2" d="M375.87,-35.71C419.61,-31.25 470.02,-26.11 505.25,-22.53"/>
<polygon fill="black" stroke="black" points="505.62,-26.01 515.22,-21.51 504.92,-19.04 505.62,-26.01"/>
<text text-anchor="middle" x="433.67" y="-36" font-family="Arial" font-size="10.00">2. Receives event</text>
</g>
</g>
</svg>
