<?xml version="1.0" encoding="UTF-8" standalone="no"?>
<!DOCTYPE svg PUBLIC "-//W3C//DTD SVG 1.1//EN"
 "http://www.w3.org/Graphics/SVG/1.1/DTD/svg11.dtd">
<!-- Generated by graphviz version 2.43.0 (0)
 -->
<!-- Title: EventDrivenCommunication Pages: 1 -->
<svg width="667pt" height="126pt"
 viewBox="0.00 0.00 667.00 126.00" xmlns="http://www.w3.org/2000/svg" xmlns:xlink="http://www.w3.org/1999/xlink">
<g id="graph0" class="graph" transform="scale(1 1) rotate(0) translate(4 122)">
<title>EventDrivenCommunication</title>
<polygon fill="white" stroke="transparent" points="-4,4 -4,-122 663,-122 663,4 -4,4"/>
<text text-anchor="middle" x="329.5" y="-99.6" font-family="Times,serif" font-size="18.00">Event&#45;Driven Communication for Order Status Updates at StreamTech</text>
<!-- Warehouse -->
<g id="node1" class="node">
<title>Warehouse</title>
<polygon fill="lightblue" stroke="black" points="129.89,-45 102.2,-63 46.81,-63 19.11,-45 46.81,-27 102.2,-27 129.89,-45"/>
<text text-anchor="middle" x="74.5" y="-41.9" font-family="Arial" font-size="12.00">Warehouse</text>
</g>
<!-- OrderStatusTopic -->
<g id="node4" class="node">
<title>OrderStatusTopic</title>
<path fill="none" stroke="black" d="M380.95,-63C380.95,-63 235.95,-63 235.95,-63 229.95,-63 223.95,-57 223.95,-51 223.95,-51 223.95,-39 223.95,-39 223.95,-33 229.95,-27 235.95,-27 235.95,-27 380.95,-27 380.95,-27 386.95,-27 392.95,-33 392.95,-39 392.95,-39 392.95,-51 392.95,-51 392.95,-57 386.95,-63 380.95,-63"/>
<text text-anchor="middle" x="308.45" y="-48.4" font-family="Arial" font-size="12.00">Order status topic</text>
<text text-anchor="middle" x="308.45" y="-35.4" font-family="Arial" font-size="12.00">(Order packaged &lt;&lt;event&gt;&gt;)</text>
</g>
<!-- Warehouse&#45;&gt;OrderStatusTopic -->
<g id="edge1" class="edge">
<title>Warehouse&#45;&gt;OrderStatusTopic</title>
<path fill="none" stroke="black" stroke-dasharray="5,2" d="M130.18,-45C154.99,-45 185.05,-45 213.32,-45"/>
<polygon fill="black" stroke="black" points="213.64,-48.5 223.64,-45 213.64,-41.5 213.64,-48.5"/>
<text text-anchor="middle" x="176.95" y="-48" font-family="Arial" font-size="10.00">Emits events</text>
</g>
<!-- Notifications -->
<g id="node2" class="node">
<title>Notifications</title>
<polygon fill="lightblue" stroke="black" points="639.94,-72 610.44,-90 551.45,-90 521.95,-72 551.45,-54 610.44,-54 639.94,-72"/>
<text text-anchor="middle" x="580.94" y="-68.9" font-family="Arial" font-size="12.00">Notifications</text>
</g>
<!-- Inventory -->
<g id="node3" class="node">
<title>Inventory</title>
<polygon fill="lightblue" stroke="black" points="627.35,-18 604.15,-36 557.74,-36 534.54,-18 557.74,0 604.15,0 627.35,-18"/>
<text text-anchor="middle" x="580.94" y="-14.9" font-family="Arial" font-size="12.00">Inventory</text>
</g>
<!-- OrderStatusTopic&#45;&gt;Notifications -->
<g id="edge2" class="edge">
<title>OrderStatusTopic&#45;&gt;Notifications</title>
<path fill="none" stroke="black" stroke-dasharray="5,2" d="M393.18,-53.36C434.17,-57.45 482.58,-62.28 519.84,-66"/>
<polygon fill="black" stroke="black" points="519.74,-69.51 530.04,-67.02 520.44,-62.54 519.74,-69.51"/>
<text text-anchor="middle" x="457.45" y="-67" font-family="Arial" font-size="10.00">Subscribed to events</text>
</g>
<!-- OrderStatusTopic&#45;&gt;Inventory -->
<g id="edge3" class="edge">
<title>OrderStatusTopic&#45;&gt;Inventory</title>
<path fill="none" stroke="black" stroke-dasharray="5,2" d="M393.18,-36.64C437.71,-32.2 491.01,-26.88 529.25,-23.06"/>
<polygon fill="black" stroke="black" points="530.01,-26.5 539.61,-22.03 529.31,-19.54 530.01,-26.5"/>
<text text-anchor="middle" x="457.45" y="-37" font-family="Arial" font-size="10.00">Subscribed to events</text>
</g>
</g>
</svg>
