<?xml version="1.0" encoding="UTF-8" standalone="no"?>
<!DOCTYPE svg PUBLIC "-//W3C//DTD SVG 1.1//EN"
 "http://www.w3.org/Graphics/SVG/1.1/DTD/svg11.dtd">
<!-- Generated by graphviz version 2.43.0 (0)
 -->
<!-- Title: Fraud_Detection_Background Pages: 1 -->
<svg width="693pt" height="126pt"
 viewBox="0.00 0.00 692.84 126.00" xmlns="http://www.w3.org/2000/svg" xmlns:xlink="http://www.w3.org/1999/xlink">
<g id="graph0" class="graph" transform="scale(1 1) rotate(0) translate(4 122)">
<title>Fraud_Detection_Background</title>
<polygon fill="white" stroke="transparent" points="-4,4 -4,-122 688.84,-122 688.84,4 -4,4"/>
<text text-anchor="middle" x="342.42" y="-99.6" font-family="Times,serif" font-size="18.00">Fraud Detection Moved to Background Process</text>
<!-- FraudDetection -->
<g id="node1" class="node">
<title>FraudDetection</title>
<polygon fill="lightblue" stroke="black" points="145.01,-45 108.76,-63 36.25,-63 -0,-45 36.25,-27 108.76,-27 145.01,-45"/>
<text text-anchor="middle" x="72.5" y="-41.9" font-family="Arial" font-size="12.00">Fraud Detection</text>
</g>
<!-- Customer -->
<g id="node2" class="node">
<title>Customer</title>
<polygon fill="lightblue" stroke="black" points="470.1,-72 446.02,-90 397.85,-90 373.76,-72 397.85,-54 446.02,-54 470.1,-72"/>
<text text-anchor="middle" x="421.93" y="-68.9" font-family="Arial" font-size="12.00">Customer</text>
</g>
<!-- FraudDetection&#45;&gt;Customer -->
<g id="edge1" class="edge">
<title>FraudDetection&#45;&gt;Customer</title>
<path fill="none" stroke="black" stroke-dasharray="5,2" d="M135.62,-49.83C201.81,-54.97 305.48,-63.03 367.95,-67.88"/>
<polygon fill="black" stroke="black" points="367.75,-71.38 377.99,-68.66 368.29,-64.4 367.75,-71.38"/>
<text text-anchor="middle" x="246.51" y="-67" font-family="Arial" font-size="10.00">Fraud check carried out in background</text>
</g>
<!-- OrderProcessor -->
<g id="node3" class="node">
<title>OrderProcessor</title>
<polygon fill="lightblue" stroke="black" points="495.78,-18 458.86,-36 385.01,-36 348.08,-18 385.01,0 458.86,0 495.78,-18"/>
<text text-anchor="middle" x="421.93" y="-14.9" font-family="Arial" font-size="12.00">Order Processor</text>
</g>
<!-- FraudDetection&#45;&gt;OrderProcessor -->
<g id="edge2" class="edge">
<title>FraudDetection&#45;&gt;OrderProcessor</title>
<path fill="none" stroke="black" d="M134.16,-39.45C143.8,-38.6 153.68,-37.76 163.01,-37 224.99,-31.95 295.41,-26.8 346.99,-23.14"/>
<polygon fill="black" stroke="black" points="347.32,-26.62 357.05,-22.43 346.83,-19.64 347.32,-26.62"/>
<text text-anchor="middle" x="246.51" y="-40" font-family="Arial" font-size="10.00">Flag customer as fraudulent</text>
</g>
<!-- Payment -->
<g id="node4" class="node">
<title>Payment</title>
<polygon fill="lightblue" stroke="black" points="684.83,-18 662.09,-36 616.61,-36 593.86,-18 616.61,0 662.09,0 684.83,-18"/>
<text text-anchor="middle" x="639.35" y="-14.9" font-family="Arial" font-size="12.00">Payment</text>
</g>
<!-- OrderProcessor&#45;&gt;Payment -->
<g id="edge3" class="edge">
<title>OrderProcessor&#45;&gt;Payment</title>
<path fill="none" stroke="black" d="M495.86,-18C524.53,-18 556.87,-18 583.49,-18"/>
<polygon fill="black" stroke="black" points="583.76,-21.5 593.76,-18 583.76,-14.5 583.76,-21.5"/>
<text text-anchor="middle" x="544.86" y="-21" font-family="Arial" font-size="10.00">Take payment</text>
</g>
</g>
</svg>
