<?xml version="1.0" encoding="UTF-8" standalone="no"?>
<!DOCTYPE svg PUBLIC "-//W3C//DTD SVG 1.1//EN"
 "http://www.w3.org/Graphics/SVG/1.1/DTD/svg11.dtd">
<!-- Generated by graphviz version 2.43.0 (0)
 -->
<!-- Title: Fraudulent_Behavior_Flow Pages: 1 -->
<svg width="828pt" height="72pt"
 viewBox="0.00 0.00 827.51 72.00" xmlns="http://www.w3.org/2000/svg" xmlns:xlink="http://www.w3.org/1999/xlink">
<g id="graph0" class="graph" transform="scale(1 1) rotate(0) translate(4 68)">
<title>Fraudulent_Behavior_Flow</title>
<polygon fill="white" stroke="transparent" points="-4,4 -4,-68 823.51,-68 823.51,4 -4,4"/>
<text text-anchor="middle" x="409.76" y="-45.6" font-family="Times,serif" font-size="18.00">Fraudulent Behavior Check in Order Processing</text>
<!-- OrderProcessor -->
<g id="node1" class="node">
<title>OrderProcessor</title>
<polygon fill="lightblue" stroke="black" points="147.78,-18 110.85,-36 37,-36 0.07,-18 37,0 110.85,0 147.78,-18"/>
<text text-anchor="middle" x="73.93" y="-14.9" font-family="Arial" font-size="12.00">Order Processor</text>
</g>
<!-- Payment -->
<g id="node2" class="node">
<title>Payment</title>
<polygon fill="lightblue" stroke="black" points="338.83,-18 316.09,-36 270.6,-36 247.86,-18 270.6,0 316.09,0 338.83,-18"/>
<text text-anchor="middle" x="293.34" y="-14.9" font-family="Arial" font-size="12.00">Payment</text>
</g>
<!-- OrderProcessor&#45;&gt;Payment -->
<g id="edge1" class="edge">
<title>OrderProcessor&#45;&gt;Payment</title>
<path fill="none" stroke="black" d="M147.93,-18C177.24,-18 210.46,-18 237.63,-18"/>
<polygon fill="black" stroke="black" points="237.73,-21.5 247.73,-18 237.73,-14.5 237.73,-21.5"/>
<text text-anchor="middle" x="197.85" y="-21" font-family="Arial" font-size="10.00">Take Payment</text>
</g>
<!-- FraudDetection -->
<g id="node3" class="node">
<title>FraudDetection</title>
<polygon fill="lightblue" stroke="black" points="587.85,-18 551.59,-36 479.09,-36 442.83,-18 479.09,0 551.59,0 587.85,-18"/>
<text text-anchor="middle" x="515.34" y="-14.9" font-family="Arial" font-size="12.00">Fraud Detection</text>
</g>
<!-- Payment&#45;&gt;FraudDetection -->
<g id="edge2" class="edge">
<title>Payment&#45;&gt;FraudDetection</title>
<path fill="none" stroke="black" d="M338.86,-18C365.71,-18 400.75,-18 432.44,-18"/>
<polygon fill="black" stroke="black" points="432.6,-21.5 442.6,-18 432.6,-14.5 432.6,-21.5"/>
<text text-anchor="middle" x="390.84" y="-21" font-family="Arial" font-size="10.00">Check for fraud</text>
</g>
<!-- Customer -->
<g id="node4" class="node">
<title>Customer</title>
<polygon fill="lightblue" stroke="black" points="819.35,-18 795.26,-36 747.09,-36 723.01,-18 747.09,0 795.26,0 819.35,-18"/>
<text text-anchor="middle" x="771.18" y="-14.9" font-family="Arial" font-size="12.00">Customer</text>
</g>
<!-- FraudDetection&#45;&gt;Customer -->
<g id="edge3" class="edge">
<title>FraudDetection&#45;&gt;Customer</title>
<path fill="none" stroke="black" d="M588.06,-18C627.46,-18 675.67,-18 712.59,-18"/>
<polygon fill="black" stroke="black" points="712.69,-21.5 722.69,-18 712.69,-14.5 712.69,-21.5"/>
<text text-anchor="middle" x="655.34" y="-21" font-family="Arial" font-size="10.00">Fetch customer record</text>
</g>
</g>
</svg>
