<?xml version="1.0" encoding="UTF-8" standalone="no"?>
<!DOCTYPE svg PUBLIC "-//W3C//DTD SVG 1.1//EN"
 "http://www.w3.org/Graphics/SVG/1.1/DTD/svg11.dtd">
<!-- Generated by graphviz version 2.43.0 (0)
 -->
<!-- Title: License_Reservation Pages: 1 -->
<svg width="475pt" height="133pt"
 viewBox="0.00 0.00 474.61 133.00" xmlns="http://www.w3.org/2000/svg" xmlns:xlink="http://www.w3.org/1999/xlink">
<g id="graph0" class="graph" transform="scale(1 1) rotate(0) translate(4 129)">
<title>License_Reservation</title>
<polygon fill="white" stroke="transparent" points="-4,4 -4,-129 470.61,-129 470.61,4 -4,4"/>
<text text-anchor="middle" x="233.31" y="-106.6" font-family="Times,serif" font-size="18.00">Order Processing Ensures License Reservation</text>
<!-- OrderProcessing -->
<g id="node1" class="node">
<title>OrderProcessing</title>
<polygon fill="lightblue" stroke="black" points="156.57,-52 117.38,-70 39,-70 -0.19,-52 39,-34 117.38,-34 156.57,-52"/>
<text text-anchor="middle" x="78.19" y="-48.9" font-family="Arial" font-size="12.00">Order Processing</text>
</g>
<!-- LicenseManagement -->
<g id="node2" class="node">
<title>LicenseManagement</title>
<polygon fill="lightblue" stroke="black" points="466.73,-79 420.11,-97 326.88,-97 280.26,-79 326.88,-61 420.11,-61 466.73,-79"/>
<text text-anchor="middle" x="373.5" y="-75.9" font-family="Arial" font-size="12.00">License Management</text>
</g>
<!-- OrderProcessing&#45;&gt;LicenseManagement -->
<g id="edge1" class="edge">
<title>OrderProcessing&#45;&gt;LicenseManagement</title>
<path fill="none" stroke="black" d="M139.31,-60.04C150.94,-61.46 163.03,-62.86 174.38,-64 209.84,-67.57 248.94,-70.71 282.98,-73.17"/>
<polygon fill="black" stroke="black" points="283.14,-76.69 293.37,-73.92 283.64,-69.71 283.14,-76.69"/>
<text text-anchor="middle" x="218.38" y="-74" font-family="Arial" font-size="10.00">1. Reserve license</text>
</g>
<!-- PaymentGateway -->
<g id="node3" class="node">
<title>PaymentGateway</title>
<polygon fill="lightblue" stroke="black" points="454.56,-18 414.03,-36 332.96,-36 292.43,-18 332.96,0 414.03,0 454.56,-18"/>
<text text-anchor="middle" x="373.5" y="-14.9" font-family="Arial" font-size="12.00">Payment Gateway</text>
</g>
<!-- OrderProcessing&#45;&gt;PaymentGateway -->
<g id="edge3" class="edge">
<title>OrderProcessing&#45;&gt;PaymentGateway</title>
<path fill="none" stroke="black" d="M131.37,-40.4C145.29,-37.63 160.36,-34.92 174.38,-33 212.02,-27.84 253.93,-24.34 289.49,-22.03"/>
<polygon fill="black" stroke="black" points="290.06,-25.5 299.82,-21.38 289.62,-18.52 290.06,-25.5"/>
<text text-anchor="middle" x="218.38" y="-36" font-family="Arial" font-size="10.00">3. Process payment</text>
</g>
<!-- LicenseManagement&#45;&gt;OrderProcessing -->
<g id="edge2" class="edge">
<title>LicenseManagement&#45;&gt;OrderProcessing</title>
<path fill="none" stroke="black" d="M321.19,-63.13C302.83,-58.21 281.86,-53.44 262.38,-51 223.57,-46.14 213.49,-50.79 174.38,-51 171.3,-51.02 168.16,-51.04 164.99,-51.06"/>
<polygon fill="black" stroke="black" points="164.76,-47.56 154.79,-51.13 164.82,-54.56 164.76,-47.56"/>
<text text-anchor="middle" x="218.38" y="-54" font-family="Arial" font-size="10.00">2. License reserved</text>
</g>
</g>
</svg>
