<?xml version="1.0" encoding="UTF-8" standalone="no"?>
<!DOCTYPE svg PUBLIC "-//W3C//DTD SVG 1.1//EN"
 "http://www.w3.org/Graphics/SVG/1.1/DTD/svg11.dtd">
<!-- Generated by graphviz version 2.43.0 (0)
 -->
<!-- Title: Microservice_Communication Pages: 1 -->
<svg width="964pt" height="204pt"
 viewBox="0.00 0.00 964.00 204.00" xmlns="http://www.w3.org/2000/svg" xmlns:xlink="http://www.w3.org/1999/xlink">
<g id="graph0" class="graph" transform="scale(1 1) rotate(0) translate(4 200)">
<title>Microservice_Communication</title>
<polygon fill="white" stroke="transparent" points="-4,4 -4,-200 960,-200 960,4 -4,4"/>
<text text-anchor="middle" x="478" y="-177.6" font-family="Times,serif" font-size="18.00">Different Styles of Inter&#45;Microservice Communication</text>
<g id="clust1" class="cluster">
<title>cluster_synchronous_blocking</title>
<polygon fill="none" stroke="black" stroke-dasharray="5,2" points="8,-8 8,-160 226,-160 226,-8 8,-8"/>
<text text-anchor="middle" x="117" y="-141.6" font-family="Times,serif" font-size="18.00">Synchronous Blocking</text>
</g>
<g id="clust2" class="cluster">
<title>cluster_asynchronous_nonblocking</title>
<polygon fill="none" stroke="black" stroke-dasharray="5,2" points="234,-8 234,-160 764,-160 764,-8 234,-8"/>
<text text-anchor="middle" x="499" y="-141.6" font-family="Times,serif" font-size="18.00">Asynchronous Nonblocking</text>
</g>
<g id="clust3" class="cluster">
<title>cluster_common_data</title>
<polygon fill="none" stroke="black" stroke-dasharray="5,2" points="772,-8 772,-160 948,-160 948,-8 772,-8"/>
<text text-anchor="middle" x="860" y="-141.6" font-family="Times,serif" font-size="18.00">Common Data</text>
</g>
<!-- RequestResponseSync -->
<g id="node1" class="node">
<title>RequestResponseSync</title>
<polygon fill="lightpink" stroke="black" points="174.5,-124 59.5,-124 59.5,-88 174.5,-88 174.5,-124"/>
<text text-anchor="middle" x="117" y="-102.9" font-family="Arial" font-size="12.00">Request&#45;response</text>
</g>
<!-- RestHTTPSync -->
<g id="node2" class="node">
<title>RestHTTPSync</title>
<polygon fill="lightpink" stroke="black" points="136,-52 26,-52 26,-16 136,-16 136,-52"/>
<text text-anchor="middle" x="81" y="-30.9" font-family="Arial" font-size="12.00">REST over HTTP</text>
</g>
<!-- RequestResponseSync&#45;&gt;RestHTTPSync -->
<g id="edge1" class="edge">
<title>RequestResponseSync&#45;&gt;RestHTTPSync</title>
<path fill="none" stroke="black" d="M108.1,-87.7C104,-79.73 99.05,-70.1 94.51,-61.26"/>
<polygon fill="black" stroke="black" points="97.48,-59.4 89.8,-52.1 91.26,-62.6 97.48,-59.4"/>
</g>
<!-- RPCSync -->
<g id="node3" class="node">
<title>RPCSync</title>
<polygon fill="lightpink" stroke="black" points="208,-52 154,-52 154,-16 208,-16 208,-52"/>
<text text-anchor="middle" x="181" y="-30.9" font-family="Arial" font-size="12.00">RPC</text>
</g>
<!-- RequestResponseSync&#45;&gt;RPCSync -->
<g id="edge2" class="edge">
<title>RequestResponseSync&#45;&gt;RPCSync</title>
<path fill="none" stroke="black" d="M132.82,-87.7C140.57,-79.22 150.04,-68.86 158.52,-59.58"/>
<polygon fill="black" stroke="black" points="161.2,-61.85 165.36,-52.1 156.03,-57.12 161.2,-61.85"/>
</g>
<!-- RequestResponseAsync -->
<g id="node4" class="node">
<title>RequestResponseAsync</title>
<polygon fill="lightpink" stroke="black" points="715.5,-124 600.5,-124 600.5,-88 715.5,-88 715.5,-124"/>
<text text-anchor="middle" x="658" y="-102.9" font-family="Arial" font-size="12.00">Request&#45;response</text>
</g>
<!-- QueueBrokers -->
<g id="node5" class="node">
<title>QueueBrokers</title>
<polygon fill="lightpink" stroke="black" points="684,-52 552,-52 552,-16 684,-16 684,-52"/>
<text text-anchor="middle" x="618" y="-30.9" font-family="Arial" font-size="12.00">Queue&#45;based brokers</text>
</g>
<!-- RequestResponseAsync&#45;&gt;QueueBrokers -->
<g id="edge3" class="edge">
<title>RequestResponseAsync&#45;&gt;QueueBrokers</title>
<path fill="none" stroke="black" d="M648.11,-87.7C643.51,-79.64 637.94,-69.89 632.85,-60.98"/>
<polygon fill="black" stroke="black" points="635.77,-59.05 627.77,-52.1 629.7,-62.52 635.77,-59.05"/>
</g>
<!-- RPCAsync -->
<g id="node6" class="node">
<title>RPCAsync</title>
<polygon fill="lightpink" stroke="black" points="756,-52 702,-52 702,-16 756,-16 756,-52"/>
<text text-anchor="middle" x="729" y="-30.9" font-family="Arial" font-size="12.00">RPC</text>
</g>
<!-- RequestResponseAsync&#45;&gt;RPCAsync -->
<g id="edge4" class="edge">
<title>RequestResponseAsync&#45;&gt;RPCAsync</title>
<path fill="none" stroke="black" d="M675.55,-87.7C684.23,-79.14 694.86,-68.66 704.35,-59.3"/>
<polygon fill="black" stroke="black" points="706.99,-61.62 711.65,-52.1 702.07,-56.63 706.99,-61.62"/>
</g>
<!-- EventDriven -->
<g id="node7" class="node">
<title>EventDriven</title>
<polygon fill="lightpink" stroke="black" points="424,-124 340,-124 340,-88 424,-88 424,-124"/>
<text text-anchor="middle" x="382" y="-102.9" font-family="Arial" font-size="12.00">Event&#45;driven</text>
</g>
<!-- TopicBrokers -->
<g id="node8" class="node">
<title>TopicBrokers</title>
<polygon fill="lightpink" stroke="black" points="367.5,-52 242.5,-52 242.5,-16 367.5,-16 367.5,-52"/>
<text text-anchor="middle" x="305" y="-30.9" font-family="Arial" font-size="12.00">Topic&#45;based brokers</text>
</g>
<!-- EventDriven&#45;&gt;TopicBrokers -->
<g id="edge5" class="edge">
<title>EventDriven&#45;&gt;TopicBrokers</title>
<path fill="none" stroke="black" d="M362.97,-87.7C353.46,-79.05 341.79,-68.45 331.43,-59.03"/>
<polygon fill="black" stroke="black" points="333.57,-56.24 323.81,-52.1 328.86,-61.42 333.57,-56.24"/>
</g>
<!-- RestHTTPAsync -->
<g id="node9" class="node">
<title>RestHTTPAsync</title>
<polygon fill="lightpink" stroke="black" points="534,-52 386,-52 386,-16 534,-16 534,-52"/>
<text text-anchor="middle" x="460" y="-30.9" font-family="Arial" font-size="12.00">REST over HTTP (Atom)</text>
</g>
<!-- EventDriven&#45;&gt;RestHTTPAsync -->
<g id="edge6" class="edge">
<title>EventDriven&#45;&gt;RestHTTPAsync</title>
<path fill="none" stroke="black" d="M401.28,-87.7C410.92,-79.05 422.73,-68.45 433.23,-59.03"/>
<polygon fill="black" stroke="black" points="435.84,-61.39 440.94,-52.1 431.16,-56.18 435.84,-61.39"/>
</g>
<!-- CommonData -->
<g id="node10" class="node">
<title>CommonData</title>
<polygon fill="lightpink" stroke="black" points="906,-124 814,-124 814,-88 906,-88 906,-124"/>
<text text-anchor="middle" x="860" y="-102.9" font-family="Arial" font-size="12.00">Common data</text>
</g>
<!-- Database -->
<g id="node11" class="node">
<title>Database</title>
<polygon fill="lightpink" stroke="black" points="848,-52 780,-52 780,-16 848,-16 848,-52"/>
<text text-anchor="middle" x="814" y="-30.9" font-family="Arial" font-size="12.00">Database</text>
</g>
<!-- CommonData&#45;&gt;Database -->
<g id="edge7" class="edge">
<title>CommonData&#45;&gt;Database</title>
<path fill="none" stroke="black" d="M848.63,-87.7C843.28,-79.56 836.8,-69.69 830.89,-60.7"/>
<polygon fill="black" stroke="black" points="833.66,-58.54 825.24,-52.1 827.81,-62.38 833.66,-58.54"/>
</g>
<!-- Filesystem -->
<g id="node12" class="node">
<title>Filesystem</title>
<polygon fill="lightpink" stroke="black" points="940,-52 866,-52 866,-16 940,-16 940,-52"/>
<text text-anchor="middle" x="903" y="-30.9" font-family="Arial" font-size="12.00">Filesystem</text>
</g>
<!-- CommonData&#45;&gt;Filesystem -->
<g id="edge8" class="edge">
<title>CommonData&#45;&gt;Filesystem</title>
<path fill="none" stroke="black" d="M870.63,-87.7C875.63,-79.56 881.69,-69.69 887.21,-60.7"/>
<polygon fill="black" stroke="black" points="890.24,-62.46 892.49,-52.1 884.28,-58.79 890.24,-62.46"/>
</g>
</g>
</svg>
