<?xml version="1.0" encoding="UTF-8" standalone="no"?>
<!DOCTYPE svg PUBLIC "-//W3C//DTD SVG 1.1//EN"
 "http://www.w3.org/Graphics/SVG/1.1/DTD/svg11.dtd">
<!-- Generated by graphviz version 2.43.0 (0)
 -->
<!-- Title: MinimalEventExample Pages: 1 -->
<svg width="618pt" height="114pt"
 viewBox="0.00 0.00 617.67 114.00" xmlns="http://www.w3.org/2000/svg" xmlns:xlink="http://www.w3.org/1999/xlink">
<g id="graph0" class="graph" transform="scale(1 1) rotate(0) translate(4 110)">
<title>MinimalEventExample</title>
<polygon fill="white" stroke="transparent" points="-4,4 -4,-110 613.67,-110 613.67,4 -4,4"/>
<text text-anchor="middle" x="304.83" y="-87.6" font-family="Times,serif" font-size="18.00">Minimal Event Example for Customer Registration</text>
<!-- Customer -->
<g id="node1" class="node">
<title>Customer</title>
<polygon fill="lightblue" stroke="black" points="96.51,-18 72.42,-36 24.25,-36 0.16,-18 24.25,0 72.42,0 96.51,-18"/>
<text text-anchor="middle" x="48.34" y="-14.9" font-family="Arial" font-size="12.00">Customer</text>
</g>
<!-- Event -->
<g id="node3" class="node">
<title>Event</title>
<path fill="none" stroke="black" d="M363.67,-78C363.67,-78 203.67,-78 203.67,-78 197.67,-78 191.67,-72 191.67,-66 191.67,-66 191.67,-54 191.67,-54 191.67,-48 197.67,-42 203.67,-42 203.67,-42 363.67,-42 363.67,-42 369.67,-42 375.67,-48 375.67,-54 375.67,-54 375.67,-66 375.67,-66 375.67,-72 369.67,-78 363.67,-78"/>
<text text-anchor="middle" x="283.67" y="-63.4" font-family="Arial" font-size="12.00">Customer registered &lt;&lt;event&gt;&gt;</text>
<text text-anchor="middle" x="283.67" y="-50.4" font-family="Arial" font-size="12.00">Customer ID: 2321</text>
</g>
<!-- Customer&#45;&gt;Event -->
<g id="edge1" class="edge">
<title>Customer&#45;&gt;Event</title>
<path fill="none" stroke="black" stroke-dasharray="5,2" d="M87.61,-24.89C113.15,-29.49 148.02,-35.76 181.22,-41.74"/>
<polygon fill="black" stroke="black" points="181,-45.26 191.46,-43.58 182.24,-38.37 181,-45.26"/>
<text text-anchor="middle" x="144.17" y="-43" font-family="Arial" font-size="10.00">1. Event fired</text>
</g>
<!-- Notifications -->
<g id="node2" class="node">
<title>Notifications</title>
<polygon fill="lightblue" stroke="black" points="609.67,-18 580.17,-36 521.17,-36 491.67,-18 521.17,0 580.17,0 609.67,-18"/>
<text text-anchor="middle" x="550.67" y="-14.9" font-family="Arial" font-size="12.00">Notifications</text>
</g>
<!-- Notifications&#45;&gt;Customer -->
<g id="edge3" class="edge">
<title>Notifications&#45;&gt;Customer</title>
<path fill="none" stroke="black" d="M495.99,-15.28C461.61,-13.68 416.02,-11.81 375.67,-11 293.91,-9.36 273.42,-8.99 191.67,-11 162.41,-11.72 129.8,-13.27 103.18,-14.73"/>
<polygon fill="black" stroke="black" points="102.71,-11.25 92.92,-15.3 103.1,-18.24 102.71,-11.25"/>
<text text-anchor="middle" x="283.67" y="-25" font-family="Arial" font-size="10.00">3. Requests customer</text>
<text text-anchor="middle" x="283.67" y="-14" font-family="Arial" font-size="10.00">details (email, name)</text>
</g>
<!-- Event&#45;&gt;Notifications -->
<g id="edge2" class="edge">
<title>Event&#45;&gt;Notifications</title>
<path fill="none" stroke="black" stroke-dasharray="5,2" d="M375.87,-45.55C414.81,-39.37 459.04,-32.36 493.13,-26.96"/>
<polygon fill="black" stroke="black" points="494.04,-30.36 503.37,-25.34 492.95,-23.45 494.04,-30.36"/>
<text text-anchor="middle" x="433.67" y="-44" font-family="Arial" font-size="10.00">2. Receives event</text>
</g>
</g>
</svg>
