<?xml version="1.0" encoding="UTF-8" standalone="no"?>
<!DOCTYPE svg PUBLIC "-//W3C//DTD SVG 1.1//EN"
 "http://www.w3.org/Graphics/SVG/1.1/DTD/svg11.dtd">
<!-- Generated by graphviz version 2.43.0 (0)
 -->
<!-- Title: QueueBasedCommunication Pages: 1 -->
<svg width="1146pt" height="102pt"
 viewBox="0.00 0.00 1145.61 102.00" xmlns="http://www.w3.org/2000/svg" xmlns:xlink="http://www.w3.org/1999/xlink">
<g id="graph0" class="graph" transform="scale(1 1) rotate(0) translate(4 98)">
<title>QueueBasedCommunication</title>
<polygon fill="white" stroke="transparent" points="-4,4 -4,-98 1141.61,-98 1141.61,4 -4,4"/>
<text text-anchor="middle" x="568.81" y="-75.6" font-family="Times,serif" font-size="18.00">Using Queues for Movie License Reservation at StreamTech</text>
<!-- OrderProcessing -->
<g id="node1" class="node">
<title>OrderProcessing</title>
<polygon fill="lightblue" stroke="black" points="156.57,-18 117.38,-36 39,-36 -0.19,-18 39,0 117.38,0 156.57,-18"/>
<text text-anchor="middle" x="78.19" y="-14.9" font-family="Arial" font-size="12.00">Order Processing</text>
</g>
<!-- RequestQueue -->
<g id="node3" class="node">
<title>RequestQueue</title>
<path fill="none" stroke="black" d="M470.38,-66C470.38,-66 321.38,-66 321.38,-66 315.38,-66 309.38,-60 309.38,-54 309.38,-54 309.38,-42 309.38,-42 309.38,-36 315.38,-30 321.38,-30 321.38,-30 470.38,-30 470.38,-30 476.38,-30 482.38,-36 482.38,-42 482.38,-42 482.38,-54 482.38,-54 482.38,-60 476.38,-66 470.38,-66"/>
<text text-anchor="middle" x="395.88" y="-51.4" font-family="Arial" font-size="12.00">Queue</text>
<text text-anchor="middle" x="395.88" y="-38.4" font-family="Arial" font-size="12.00">Reserve license &lt;&lt;request&gt;&gt;</text>
</g>
<!-- OrderProcessing&#45;&gt;RequestQueue -->
<g id="edge1" class="edge">
<title>OrderProcessing&#45;&gt;RequestQueue</title>
<path fill="none" stroke="black" stroke-dasharray="5,2" d="M143.46,-24.11C188.15,-28.35 248.51,-34.09 298.89,-38.88"/>
<polygon fill="black" stroke="black" points="298.86,-42.39 309.15,-39.85 299.53,-35.42 298.86,-42.39"/>
<text text-anchor="middle" x="232.88" y="-40" font-family="Arial" font-size="10.00">Places reservation request</text>
</g>
<!-- LicenseManagement -->
<g id="node2" class="node">
<title>LicenseManagement</title>
<polygon fill="lightblue" stroke="black" points="789.73,-48 743.11,-66 649.88,-66 603.26,-48 649.88,-30 743.11,-30 789.73,-48"/>
<text text-anchor="middle" x="696.5" y="-44.9" font-family="Arial" font-size="12.00">License Management</text>
</g>
<!-- ResponseQueue -->
<g id="node4" class="node">
<title>ResponseQueue</title>
<path fill="none" stroke="black" d="M1125.61,-36C1125.61,-36 961.61,-36 961.61,-36 955.61,-36 949.61,-30 949.61,-24 949.61,-24 949.61,-12 949.61,-12 949.61,-6 955.61,0 961.61,0 961.61,0 1125.61,0 1125.61,0 1131.61,0 1137.61,-6 1137.61,-12 1137.61,-12 1137.61,-24 1137.61,-24 1137.61,-30 1131.61,-36 1125.61,-36"/>
<text text-anchor="middle" x="1043.61" y="-21.4" font-family="Arial" font-size="12.00">Queue</text>
<text text-anchor="middle" x="1043.61" y="-8.4" font-family="Arial" font-size="12.00">License reserved &lt;&lt;response&gt;&gt;</text>
</g>
<!-- LicenseManagement&#45;&gt;ResponseQueue -->
<g id="edge3" class="edge">
<title>LicenseManagement&#45;&gt;ResponseQueue</title>
<path fill="none" stroke="black" stroke-dasharray="5,2" d="M772.81,-41.45C821.53,-37.22 885.62,-31.65 939.1,-27"/>
<polygon fill="black" stroke="black" points="939.64,-30.46 949.3,-26.11 939.04,-23.49 939.64,-30.46"/>
<text text-anchor="middle" x="869.61" y="-41" font-family="Arial" font-size="10.00">Places reservation response</text>
</g>
<!-- RequestQueue&#45;&gt;LicenseManagement -->
<g id="edge2" class="edge">
<title>RequestQueue&#45;&gt;LicenseManagement</title>
<path fill="none" stroke="black" stroke-dasharray="5,2" d="M482.45,-48C516.95,-48 557.04,-48 593.08,-48"/>
<polygon fill="black" stroke="black" points="593.12,-51.5 603.12,-48 593.12,-44.5 593.12,-51.5"/>
<text text-anchor="middle" x="542.88" y="-51" font-family="Arial" font-size="10.00">Request retrieved</text>
</g>
<!-- ResponseQueue&#45;&gt;OrderProcessing -->
<g id="edge4" class="edge">
<title>ResponseQueue&#45;&gt;OrderProcessing</title>
<path fill="none" stroke="black" stroke-dasharray="5,2" d="M949.33,-18C763.09,-18 347.57,-18 166.42,-18"/>
<polygon fill="black" stroke="black" points="166.4,-14.5 156.4,-18 166.4,-21.5 166.4,-14.5"/>
<text text-anchor="middle" x="542.88" y="-21" font-family="Arial" font-size="10.00">Response retrieved</text>
</g>
</g>
</svg>
