<?xml version="1.0" encoding="UTF-8" standalone="no"?>
<!DOCTYPE svg PUBLIC "-//W3C//DTD SVG 1.1//EN"
 "http://www.w3.org/Graphics/SVG/1.1/DTD/svg11.dtd">
<!-- Generated by graphviz version 2.43.0 (0)
 -->
<!-- Title: Recommendation_Request Pages: 1 -->
<svg width="487pt" height="73pt"
 viewBox="0.00 0.00 487.00 73.13" xmlns="http://www.w3.org/2000/svg" xmlns:xlink="http://www.w3.org/1999/xlink">
<g id="graph0" class="graph" transform="scale(1 1) rotate(0) translate(4 69.13)">
<title>Recommendation_Request</title>
<polygon fill="white" stroke="transparent" points="-4,4 -4,-69.13 483,-69.13 483,4 -4,4"/>
<text text-anchor="middle" x="239.5" y="-46.73" font-family="Times,serif" font-size="18.00">Recommendation Microservice Requests Metadata</text>
<!-- Recommendation -->
<g id="node1" class="node">
<title>Recommendation</title>
<polygon fill="lightblue" stroke="black" points="192.89,-19.13 153.49,-37.13 74.69,-37.13 35.28,-19.13 74.69,-1.13 153.49,-1.13 192.89,-19.13"/>
<text text-anchor="middle" x="114.09" y="-16.03" font-family="Arial" font-size="12.00">Recommendation</text>
</g>
<!-- Metadata -->
<g id="node2" class="node">
<title>Metadata</title>
<polygon fill="lightblue" stroke="black" points="443.73,-19.13 420.31,-37.13 373.49,-37.13 350.07,-19.13 373.49,-1.13 420.31,-1.13 443.73,-19.13"/>
<text text-anchor="middle" x="396.9" y="-16.03" font-family="Arial" font-size="12.00">Metadata</text>
</g>
<!-- Recommendation&#45;&gt;Metadata -->
<g id="edge1" class="edge">
<title>Recommendation&#45;&gt;Metadata</title>
<path fill="none" stroke="black" d="M192.94,-19.13C239.57,-19.13 297.78,-19.13 339.89,-19.13"/>
<polygon fill="black" stroke="black" points="339.96,-22.63 349.96,-19.13 339.96,-15.63 339.96,-22.63"/>
<text text-anchor="middle" x="271.49" y="-22.13" font-family="Arial" font-size="10.00">1. Request movie metadata</text>
</g>
<!-- Metadata&#45;&gt;Recommendation -->
<g id="edge2" class="edge">
<title>Metadata&#45;&gt;Recommendation</title>
<path fill="none" stroke="black" d="M361.99,-9.64C352.37,-7.37 341.84,-5.27 331.99,-4.13 278.57,2.05 264.6,0.03 210.99,-4.13 201.16,-4.9 190.81,-6.1 180.7,-7.49"/>
<polygon fill="black" stroke="black" points="180.09,-4.04 170.7,-8.94 181.09,-10.97 180.09,-4.04"/>
<text text-anchor="middle" x="271.49" y="-7.13" font-family="Arial" font-size="10.00">2. Metadata returned</text>
</g>
</g>
</svg>
