<?xml version="1.0" encoding="UTF-8" standalone="no"?>
<!DOCTYPE svg PUBLIC "-//W3C//DTD SVG 1.1//EN"
 "http://www.w3.org/Graphics/SVG/1.1/DTD/svg11.dtd">
<!-- Generated by graphviz version 2.43.0 (0)
 -->
<!-- Title: Synchronous_Blocking Pages: 1 -->
<svg width="391pt" height="74pt"
 viewBox="0.00 0.00 391.04 73.60" xmlns="http://www.w3.org/2000/svg" xmlns:xlink="http://www.w3.org/1999/xlink">
<g id="graph0" class="graph" transform="scale(1 1) rotate(0) translate(4 69.6)">
<title>Synchronous_Blocking</title>
<polygon fill="white" stroke="transparent" points="-4,4 -4,-69.6 387.04,-69.6 387.04,4 -4,4"/>
<text text-anchor="middle" x="191.52" y="-47.2" font-family="Times,serif" font-size="18.00">Synchronous Blocking Communication</text>
<!-- OrderProcessor -->
<g id="node1" class="node">
<title>OrderProcessor</title>
<polygon fill="lightblue" stroke="black" points="147.78,-19.6 110.85,-37.6 37,-37.6 0.07,-19.6 37,-1.6 110.85,-1.6 147.78,-19.6"/>
<text text-anchor="middle" x="73.93" y="-16.5" font-family="Arial" font-size="12.00">Order Processor</text>
</g>
<!-- LoyaltyService -->
<g id="node2" class="node">
<title>LoyaltyService</title>
<polygon fill="lightblue" stroke="black" points="383.14,-19.6 363.54,-37.6 324.35,-37.6 304.76,-19.6 324.35,-1.6 363.54,-1.6 383.14,-19.6"/>
<text text-anchor="middle" x="343.95" y="-16.5" font-family="Arial" font-size="12.00">Loyalty</text>
</g>
<!-- OrderProcessor&#45;&gt;LoyaltyService -->
<g id="edge1" class="edge">
<title>OrderProcessor&#45;&gt;LoyaltyService</title>
<path fill="none" stroke="black" d="M147.81,-19.6C194.44,-19.6 253.63,-19.6 294.54,-19.6"/>
<polygon fill="black" stroke="black" points="294.78,-23.1 304.78,-19.6 294.78,-16.1 294.78,-23.1"/>
<text text-anchor="middle" x="226.35" y="-22.6" font-family="Arial" font-size="10.00">Award points</text>
</g>
<!-- LoyaltyService&#45;&gt;OrderProcessor -->
<g id="edge2" class="edge">
<title>LoyaltyService&#45;&gt;OrderProcessor</title>
<path fill="none" stroke="black" d="M314.41,-10.43C305.66,-8.04 295.95,-5.8 286.85,-4.6 233.53,2.41 219.45,-0.21 165.85,-4.6 156.5,-5.37 146.66,-6.57 137.05,-7.97"/>
<polygon fill="black" stroke="black" points="136.51,-4.51 127.15,-9.48 137.57,-11.43 136.51,-4.51"/>
<text text-anchor="middle" x="226.35" y="-7.6" font-family="Arial" font-size="10.00">Blocks waiting for response</text>
</g>
</g>
</svg>
