<?xml version="1.0" encoding="UTF-8" standalone="no"?>
<!DOCTYPE svg PUBLIC "-//W3C//DTD SVG 1.1//EN"
 "http://www.w3.org/Graphics/SVG/1.1/DTD/svg11.dtd">
<!-- Generated by graphviz version 2.43.0 (0)
 -->
<!-- Title: DedicatedCustomerMicroservice Pages: 1 -->
<svg width="776pt" height="72pt"
 viewBox="0.00 0.00 775.76 72.00" xmlns="http://www.w3.org/2000/svg" xmlns:xlink="http://www.w3.org/1999/xlink">
<g id="graph0" class="graph" transform="scale(1 1) rotate(0) translate(4 68)">
<title>DedicatedCustomerMicroservice</title>
<polygon fill="white" stroke="transparent" points="-4,4 -4,-68 771.76,-68 771.76,4 -4,4"/>
<text text-anchor="middle" x="383.88" y="-45.6" font-family="Times,serif" font-size="18.00">Dedicated Customer Microservice</text>
<!-- Catalog -->
<g id="node1" class="node">
<title>Catalog</title>
<path fill="none" stroke="black" d="M86.5,-24C86.5,-24 78.66,-30 78.66,-30 74.73,-33 65.87,-36 60.94,-36 60.94,-36 33.62,-36 33.62,-36 28.69,-36 19.83,-33 15.91,-30 15.91,-30 8.06,-24 8.06,-24 4.14,-21 4.14,-15 8.06,-12 8.06,-12 15.91,-6 15.91,-6 19.83,-3 28.69,0 33.62,0 33.62,0 60.94,0 60.94,0 65.87,0 74.73,-3 78.66,-6 78.66,-6 86.5,-12 86.5,-12 90.42,-15 90.42,-21 86.5,-24"/>
<text text-anchor="middle" x="47.28" y="-14.3" font-family="Arial" font-size="14.00">Catalog</text>
</g>
<!-- Customer -->
<g id="node2" class="node">
<title>Customer</title>
<polygon fill="lightgray" stroke="black" points="373.67,-18 345.14,-36 288.06,-36 259.52,-18 288.06,0 345.14,0 373.67,-18"/>
<text text-anchor="middle" x="316.6" y="-14.3" font-family="Arial" font-size="14.00">Customer</text>
</g>
<!-- Catalog&#45;&gt;Customer -->
<g id="edge1" class="edge">
<title>Catalog&#45;&gt;Customer</title>
<path fill="none" stroke="black" d="M94.54,-18C137.23,-18 201.1,-18 249.23,-18"/>
<polygon fill="black" stroke="black" points="249.25,-21.5 259.25,-18 249.25,-14.5 249.25,-21.5"/>
<text text-anchor="middle" x="177.06" y="-21.8" font-family="Times,serif" font-size="14.00">Get genre options</text>
</g>
<!-- Recommendation -->
<g id="node3" class="node">
<title>Recommendation</title>
<path fill="none" stroke="black" d="M756.63,-22.33C756.63,-22.33 732.45,-31.67 732.45,-31.67 726.85,-33.84 715.26,-36 709.26,-36 709.26,-36 640.14,-36 640.14,-36 634.14,-36 622.54,-33.84 616.94,-31.67 616.94,-31.67 592.77,-22.33 592.77,-22.33 587.17,-20.16 587.17,-15.84 592.77,-13.67 592.77,-13.67 616.94,-4.33 616.94,-4.33 622.54,-2.16 634.14,0 640.14,0 640.14,0 709.26,0 709.26,0 715.26,0 726.85,-2.16 732.45,-4.33 732.45,-4.33 756.63,-13.67 756.63,-13.67 762.22,-15.84 762.22,-20.16 756.63,-22.33"/>
<text text-anchor="middle" x="674.7" y="-14.3" font-family="Arial" font-size="14.00">Recommendation</text>
</g>
<!-- Customer&#45;&gt;Recommendation -->
<g id="edge2" class="edge">
<title>Customer&#45;&gt;Recommendation</title>
<path fill="none" stroke="black" d="M374.02,-18C426.89,-18 507.16,-18 571.33,-18"/>
<polygon fill="black" stroke="black" points="571.48,-21.5 581.48,-18 571.48,-14.5 571.48,-21.5"/>
<text text-anchor="middle" x="477.64" y="-21.8" font-family="Times,serif" font-size="14.00">Fetch recommendations</text>
</g>
</g>
</svg>
