<?xml version="1.0" encoding="UTF-8" standalone="no"?>
<!DOCTYPE svg PUBLIC "-//W3C//DTD SVG 1.1//EN"
 "http://www.w3.org/Graphics/SVG/1.1/DTD/svg11.dtd">
<!-- Generated by graphviz version 2.43.0 (0)
 -->
<!-- Title: MicroservicesArchitecture Pages: 1 -->
<svg width="692pt" height="234pt"
 viewBox="0.00 0.00 691.57 233.89" xmlns="http://www.w3.org/2000/svg" xmlns:xlink="http://www.w3.org/1999/xlink">
<g id="graph0" class="graph" transform="scale(1 1) rotate(0) translate(4 229.89)">
<title>MicroservicesArchitecture</title>
<polygon fill="white" stroke="transparent" points="-4,4 -4,-229.89 687.57,-229.89 687.57,4 -4,4"/>
<text text-anchor="middle" x="341.78" y="-207.49" font-family="Times,serif" font-size="18.00">Microservice Exposing Functionality via REST API and Events</text>
<g id="clust1" class="cluster">
<title>cluster_0</title>
<polygon fill="none" stroke="black" stroke-dasharray="5,2" points="8,-83.89 8,-189.89 428.07,-189.89 428.07,-83.89 8,-83.89"/>
<text text-anchor="middle" x="218.03" y="-171.49" font-family="Times,serif" font-size="18.00">Shipping Microservice</text>
</g>
<!-- Topic -->
<g id="node1" class="node">
<title>Topic</title>
<path fill="none" stroke="black" d="M423.57,-75.89C423.57,-75.89 324.57,-75.89 324.57,-75.89 318.57,-75.89 312.57,-69.89 312.57,-63.89 312.57,-63.89 312.57,-49.89 312.57,-49.89 312.57,-43.89 318.57,-37.89 324.57,-37.89 324.57,-37.89 423.57,-37.89 423.57,-37.89 429.57,-37.89 435.57,-43.89 435.57,-49.89 435.57,-49.89 435.57,-63.89 435.57,-63.89 435.57,-69.89 429.57,-75.89 423.57,-75.89"/>
<text text-anchor="middle" x="374.07" y="-60.69" font-family="Arial" font-size="14.00">Topic</text>
<text text-anchor="middle" x="374.07" y="-45.69" font-family="Arial" font-size="14.00">(Shipping Events)</text>
</g>
<!-- Consumers -->
<g id="node4" class="node">
<title>Consumers</title>
<path fill="none" stroke="black" d="M671.57,-38.89C671.57,-38.89 609.57,-38.89 609.57,-38.89 603.57,-38.89 597.57,-32.89 597.57,-26.89 597.57,-26.89 597.57,-14.89 597.57,-14.89 597.57,-8.89 603.57,-2.89 609.57,-2.89 609.57,-2.89 671.57,-2.89 671.57,-2.89 677.57,-2.89 683.57,-8.89 683.57,-14.89 683.57,-14.89 683.57,-26.89 683.57,-26.89 683.57,-32.89 677.57,-38.89 671.57,-38.89"/>
<text text-anchor="middle" x="640.57" y="-17.19" font-family="Arial" font-size="14.00">Consumers</text>
</g>
<!-- Topic&#45;&gt;Consumers -->
<g id="edge3" class="edge">
<title>Topic&#45;&gt;Consumers</title>
<path fill="none" stroke="black" d="M435.75,-48.63C481.5,-42.41 543.59,-33.96 587.18,-28.02"/>
<polygon fill="black" stroke="black" points="587.86,-31.46 597.29,-26.65 586.91,-24.53 587.86,-31.46"/>
<text text-anchor="middle" x="516.57" y="-49.69" font-family="Times,serif" font-size="14.00">Consumes events</text>
</g>
<!-- Shipping -->
<g id="node2" class="node">
<title>Shipping</title>
<path fill="none" stroke="black" d="M172.74,-130.08C172.74,-130.08 150.43,-146.76 150.43,-146.76 145.62,-150.35 134.82,-153.95 128.82,-153.95 128.82,-153.95 69.75,-153.95 69.75,-153.95 63.75,-153.95 52.94,-150.35 48.14,-146.76 48.14,-146.76 25.83,-130.08 25.83,-130.08 21.02,-126.49 21.02,-119.3 25.83,-115.71 25.83,-115.71 48.14,-99.03 48.14,-99.03 52.94,-95.43 63.75,-91.84 69.75,-91.84 69.75,-91.84 128.82,-91.84 128.82,-91.84 134.82,-91.84 145.62,-95.43 150.43,-99.03 150.43,-99.03 172.74,-115.71 172.74,-115.71 177.54,-119.3 177.54,-126.49 172.74,-130.08"/>
<text text-anchor="middle" x="99.28" y="-126.69" font-family="Arial" font-size="14.00">Shipping</text>
<text text-anchor="middle" x="99.28" y="-111.69" font-family="Arial" font-size="14.00">(Microservice)</text>
</g>
<!-- Shipping&#45;&gt;Topic -->
<g id="edge2" class="edge">
<title>Shipping&#45;&gt;Topic</title>
<path fill="none" stroke="black" d="M162.52,-107.83C204.24,-97.74 259.27,-84.43 302.6,-73.94"/>
<polygon fill="black" stroke="black" points="303.6,-77.3 312.5,-71.55 301.96,-70.5 303.6,-77.3"/>
<text text-anchor="middle" x="247.57" y="-100.69" font-family="Times,serif" font-size="14.00">Emits events</text>
</g>
<!-- ShippingDB -->
<g id="node3" class="node">
<title>ShippingDB</title>
<path fill="none" stroke="black" d="M420.07,-137.62C420.07,-139.43 399.45,-140.89 374.07,-140.89 348.68,-140.89 328.07,-139.43 328.07,-137.62 328.07,-137.62 328.07,-108.17 328.07,-108.17 328.07,-106.36 348.68,-104.89 374.07,-104.89 399.45,-104.89 420.07,-106.36 420.07,-108.17 420.07,-108.17 420.07,-137.62 420.07,-137.62"/>
<path fill="none" stroke="black" d="M420.07,-137.62C420.07,-135.81 399.45,-134.35 374.07,-134.35 348.68,-134.35 328.07,-135.81 328.07,-137.62"/>
<text text-anchor="middle" x="374.07" y="-119.19" font-family="Arial" font-size="14.00">Shipping DB</text>
</g>
<!-- Shipping&#45;&gt;ShippingDB -->
<g id="edge1" class="edge">
<title>Shipping&#45;&gt;ShippingDB</title>
<path fill="none" stroke="black" d="M182.5,-122.89C226.27,-122.89 278.94,-122.89 317.81,-122.89"/>
<polygon fill="black" stroke="black" points="317.88,-126.39 327.88,-122.89 317.88,-119.39 317.88,-126.39"/>
<text text-anchor="middle" x="247.57" y="-126.69" font-family="Times,serif" font-size="14.00">Stores data</text>
</g>
<!-- Shipping&#45;&gt;Consumers -->
<g id="edge4" class="edge">
<title>Shipping&#45;&gt;Consumers</title>
<path fill="none" stroke="black" d="M143,-93.2C184.24,-66.47 249.54,-29.13 312.57,-13.89 407.39,9.03 522.22,-1.97 587.49,-11.68"/>
<polygon fill="black" stroke="black" points="587.12,-15.17 597.53,-13.22 588.18,-8.25 587.12,-15.17"/>
<text text-anchor="middle" x="374.07" y="-17.69" font-family="Times,serif" font-size="14.00">REST API</text>
</g>
</g>
</svg>
