<?xml version="1.0" encoding="UTF-8" standalone="no"?>
<!DOCTYPE svg PUBLIC "-//W3C//DTD SVG 1.1//EN"
 "http://www.w3.org/Graphics/SVG/1.1/DTD/svg11.dtd">
<!-- Generated by graphviz version 2.43.0 (0)
 -->
<!-- Title: ModularMonolith Pages: 1 -->
<svg width="453pt" height="144pt"
 viewBox="0.00 0.00 453.00 144.00" xmlns="http://www.w3.org/2000/svg" xmlns:xlink="http://www.w3.org/1999/xlink">
<g id="graph0" class="graph" transform="scale(1 1) rotate(0) translate(4 140)">
<title>ModularMonolith</title>
<polygon fill="white" stroke="transparent" points="-4,4 -4,-140 449,-140 449,4 -4,4"/>
<text text-anchor="middle" x="222.5" y="-117.6" font-family="Times,serif" font-size="18.00">Modular Monolith</text>
<!-- ModuleA -->
<g id="node1" class="node">
<title>ModuleA</title>
<path fill="none" stroke="black" d="M62,-108C62,-108 12,-108 12,-108 6,-108 0,-102 0,-96 0,-96 0,-84 0,-84 0,-78 6,-72 12,-72 12,-72 62,-72 62,-72 68,-72 74,-78 74,-84 74,-84 74,-96 74,-96 74,-102 68,-108 62,-108"/>
<text text-anchor="middle" x="37" y="-86.3" font-family="Arial" font-size="14.00">Module A</text>
</g>
<!-- Database -->
<g id="node6" class="node">
<title>Database</title>
<path fill="none" stroke="black" d="M259,-32.73C259,-34.53 242.42,-36 222,-36 201.58,-36 185,-34.53 185,-32.73 185,-32.73 185,-3.27 185,-3.27 185,-1.47 201.58,0 222,0 242.42,0 259,-1.47 259,-3.27 259,-3.27 259,-32.73 259,-32.73"/>
<path fill="none" stroke="black" d="M259,-32.73C259,-30.92 242.42,-29.45 222,-29.45 201.58,-29.45 185,-30.92 185,-32.73"/>
<text text-anchor="middle" x="222" y="-14.3" font-family="Arial" font-size="14.00">Database</text>
</g>
<!-- ModuleA&#45;&gt;Database -->
<g id="edge1" class="edge">
<title>ModuleA&#45;&gt;Database</title>
<path fill="none" stroke="black" d="M74.44,-74.83C103.62,-63.79 144.3,-48.4 175.56,-36.57"/>
<polygon fill="black" stroke="black" points="176.82,-39.84 184.93,-33.02 174.34,-33.29 176.82,-39.84"/>
</g>
<!-- ModuleB -->
<g id="node2" class="node">
<title>ModuleB</title>
<path fill="none" stroke="black" d="M154,-108C154,-108 104,-108 104,-108 98,-108 92,-102 92,-96 92,-96 92,-84 92,-84 92,-78 98,-72 104,-72 104,-72 154,-72 154,-72 160,-72 166,-78 166,-84 166,-84 166,-96 166,-96 166,-102 160,-108 154,-108"/>
<text text-anchor="middle" x="129" y="-86.3" font-family="Arial" font-size="14.00">Module B</text>
</g>
<!-- ModuleB&#45;&gt;Database -->
<g id="edge2" class="edge">
<title>ModuleB&#45;&gt;Database</title>
<path fill="none" stroke="black" d="M151.99,-71.7C163.9,-62.73 178.61,-51.66 191.46,-41.98"/>
<polygon fill="black" stroke="black" points="193.71,-44.67 199.6,-35.86 189.5,-39.08 193.71,-44.67"/>
</g>
<!-- ModuleC -->
<g id="node3" class="node">
<title>ModuleC</title>
<path fill="none" stroke="black" d="M247.5,-108C247.5,-108 196.5,-108 196.5,-108 190.5,-108 184.5,-102 184.5,-96 184.5,-96 184.5,-84 184.5,-84 184.5,-78 190.5,-72 196.5,-72 196.5,-72 247.5,-72 247.5,-72 253.5,-72 259.5,-78 259.5,-84 259.5,-84 259.5,-96 259.5,-96 259.5,-102 253.5,-108 247.5,-108"/>
<text text-anchor="middle" x="222" y="-86.3" font-family="Arial" font-size="14.00">Module C</text>
</g>
<!-- ModuleC&#45;&gt;Database -->
<g id="edge3" class="edge">
<title>ModuleC&#45;&gt;Database</title>
<path fill="none" stroke="black" d="M222,-71.7C222,-63.98 222,-54.71 222,-46.11"/>
<polygon fill="black" stroke="black" points="225.5,-46.1 222,-36.1 218.5,-46.1 225.5,-46.1"/>
</g>
<!-- ModuleD -->
<g id="node4" class="node">
<title>ModuleD</title>
<path fill="none" stroke="black" d="M340.5,-108C340.5,-108 289.5,-108 289.5,-108 283.5,-108 277.5,-102 277.5,-96 277.5,-96 277.5,-84 277.5,-84 277.5,-78 283.5,-72 289.5,-72 289.5,-72 340.5,-72 340.5,-72 346.5,-72 352.5,-78 352.5,-84 352.5,-84 352.5,-96 352.5,-96 352.5,-102 346.5,-108 340.5,-108"/>
<text text-anchor="middle" x="315" y="-86.3" font-family="Arial" font-size="14.00">Module D</text>
</g>
<!-- ModuleD&#45;&gt;Database -->
<g id="edge4" class="edge">
<title>ModuleD&#45;&gt;Database</title>
<path fill="none" stroke="black" d="M292.01,-71.7C280.1,-62.73 265.39,-51.66 252.54,-41.98"/>
<polygon fill="black" stroke="black" points="254.5,-39.08 244.4,-35.86 250.29,-44.67 254.5,-39.08"/>
</g>
<!-- ModuleE -->
<g id="node5" class="node">
<title>ModuleE</title>
<path fill="none" stroke="black" d="M433,-108C433,-108 383,-108 383,-108 377,-108 371,-102 371,-96 371,-96 371,-84 371,-84 371,-78 377,-72 383,-72 383,-72 433,-72 433,-72 439,-72 445,-78 445,-84 445,-84 445,-96 445,-96 445,-102 439,-108 433,-108"/>
<text text-anchor="middle" x="408" y="-86.3" font-family="Arial" font-size="14.00">Module E</text>
</g>
<!-- ModuleE&#45;&gt;Database -->
<g id="edge5" class="edge">
<title>ModuleE&#45;&gt;Database</title>
<path fill="none" stroke="black" d="M370.81,-75C341.41,-63.94 300.2,-48.43 268.6,-36.54"/>
<polygon fill="black" stroke="black" points="269.72,-33.22 259.13,-32.97 267.25,-39.77 269.72,-33.22"/>
</g>
</g>
</svg>
