<?xml version="1.0" encoding="UTF-8" standalone="no"?>
<!DOCTYPE svg PUBLIC "-//W3C//DTD SVG 1.1//EN"
 "http://www.w3.org/Graphics/SVG/1.1/DTD/svg11.dtd">
<!-- Generated by graphviz version 2.43.0 (0)
 -->
<!-- Title: SingleProcessMonolith Pages: 1 -->
<svg width="244pt" height="159pt"
 viewBox="0.00 0.00 244.00 159.00" xmlns="http://www.w3.org/2000/svg" xmlns:xlink="http://www.w3.org/1999/xlink">
<g id="graph0" class="graph" transform="scale(1 1) rotate(0) translate(4 155)">
<title>SingleProcessMonolith</title>
<polygon fill="white" stroke="transparent" points="-4,4 -4,-155 240,-155 240,4 -4,4"/>
<text text-anchor="middle" x="118" y="-132.6" font-family="Times,serif" font-size="18.00">Single&#45;Process Monolith</text>
<!-- Monolith -->
<g id="node1" class="node">
<title>Monolith</title>
<path fill="none" stroke="black" d="M93,-123C93,-123 49,-123 49,-123 43,-123 37,-117 37,-111 37,-111 37,-99 37,-99 37,-93 43,-87 49,-87 49,-87 93,-87 93,-87 99,-87 105,-93 105,-99 105,-99 105,-111 105,-111 105,-117 99,-123 93,-123"/>
<text text-anchor="middle" x="71" y="-101.3" font-family="Arial" font-size="14.00">Monolith</text>
</g>
<!-- Database -->
<g id="node2" class="node">
<title>Database</title>
<path fill="none" stroke="black" d="M108,-32.73C108,-34.53 91.42,-36 71,-36 50.58,-36 34,-34.53 34,-32.73 34,-32.73 34,-3.27 34,-3.27 34,-1.47 50.58,0 71,0 91.42,0 108,-1.47 108,-3.27 108,-3.27 108,-32.73 108,-32.73"/>
<path fill="none" stroke="black" d="M108,-32.73C108,-30.92 91.42,-29.45 71,-29.45 50.58,-29.45 34,-30.92 34,-32.73"/>
<text text-anchor="middle" x="71" y="-14.3" font-family="Arial" font-size="14.00">Database</text>
</g>
<!-- Monolith&#45;&gt;Database -->
<g id="edge1" class="edge">
<title>Monolith&#45;&gt;Database</title>
<path fill="none" stroke="black" d="M71,-86.8C71,-75.16 71,-59.55 71,-46.24"/>
<polygon fill="black" stroke="black" points="74.5,-46.18 71,-36.18 67.5,-46.18 74.5,-46.18"/>
<text text-anchor="middle" x="136.5" y="-57.8" font-family="Times,serif" font-size="14.00">Reads/Writes data</text>
</g>
</g>
</svg>
