<?xml version="1.0" encoding="UTF-8" standalone="no"?>
<!DOCTYPE svg PUBLIC "-//W3C//DTD SVG 1.1//EN"
 "http://www.w3.org/Graphics/SVG/1.1/DTD/svg11.dtd">
<!-- Generated by graphviz version 2.43.0 (0)
 -->
<!-- Title: ThreeTierArchitecture Pages: 1 -->
<svg width="385pt" height="353pt"
 viewBox="0.00 0.00 385.00 353.25" xmlns="http://www.w3.org/2000/svg" xmlns:xlink="http://www.w3.org/1999/xlink">
<g id="graph0" class="graph" transform="scale(1 1) rotate(0) translate(4 349.25)">
<title>ThreeTierArchitecture</title>
<polygon fill="white" stroke="transparent" points="-4,4 -4,-349.25 381,-349.25 381,4 -4,4"/>
<text text-anchor="middle" x="188.5" y="-326.85" font-family="Times,serif" font-size="18.00">A Traditional Three&#45;Tiered Architecture</text>
<!-- WebUI -->
<g id="node1" class="node">
<title>WebUI</title>
<path fill="none" stroke="black" d="M310.07,-230.25C310.07,-230.25 209.07,-230.25 209.07,-230.25 203.07,-230.25 197.07,-224.25 197.07,-218.25 197.07,-218.25 197.07,-204.25 197.07,-204.25 197.07,-198.25 203.07,-192.25 209.07,-192.25 209.07,-192.25 310.07,-192.25 310.07,-192.25 316.07,-192.25 322.07,-198.25 322.07,-204.25 322.07,-204.25 322.07,-218.25 322.07,-218.25 322.07,-224.25 316.07,-230.25 310.07,-230.25"/>
<text text-anchor="middle" x="259.57" y="-215.05" font-family="Arial" font-size="14.00">Web UI</text>
<text text-anchor="middle" x="259.57" y="-200.05" font-family="Arial" font-size="14.00">&lt;&lt;Presentation&gt;&gt;</text>
</g>
<!-- Backend -->
<g id="node2" class="node">
<title>Backend</title>
<path fill="none" stroke="black" d="M227.57,-141.25C227.57,-141.25 111.57,-141.25 111.57,-141.25 105.57,-141.25 99.57,-135.25 99.57,-129.25 99.57,-129.25 99.57,-115.25 99.57,-115.25 99.57,-109.25 105.57,-103.25 111.57,-103.25 111.57,-103.25 227.57,-103.25 227.57,-103.25 233.57,-103.25 239.57,-109.25 239.57,-115.25 239.57,-115.25 239.57,-129.25 239.57,-129.25 239.57,-135.25 233.57,-141.25 227.57,-141.25"/>
<text text-anchor="middle" x="169.57" y="-126.05" font-family="Arial" font-size="14.00">Backend</text>
<text text-anchor="middle" x="169.57" y="-111.05" font-family="Arial" font-size="14.00">&lt;&lt;Business Logic&gt;&gt;</text>
</g>
<!-- WebUI&#45;&gt;Backend -->
<g id="edge4" class="edge">
<title>WebUI&#45;&gt;Backend</title>
<path fill="none" stroke="black" d="M240.93,-192.22C227.77,-179.51 209.98,-162.31 195.45,-148.27"/>
<polygon fill="black" stroke="black" points="197.82,-145.69 188.2,-141.25 192.96,-150.72 197.82,-145.69"/>
<text text-anchor="middle" x="290.57" y="-163.05" font-family="Times,serif" font-size="14.00">Communicates with</text>
</g>
<!-- Database -->
<g id="node3" class="node">
<title>Database</title>
<path fill="none" stroke="black" d="M131.57,-47.6C131.57,-50.24 114.09,-52.38 92.57,-52.38 71.05,-52.38 53.57,-50.24 53.57,-47.6 53.57,-47.6 53.57,-4.65 53.57,-4.65 53.57,-2.01 71.05,0.13 92.57,0.13 114.09,0.13 131.57,-2.01 131.57,-4.65 131.57,-4.65 131.57,-47.6 131.57,-47.6"/>
<path fill="none" stroke="black" d="M131.57,-47.6C131.57,-44.97 114.09,-42.83 92.57,-42.83 71.05,-42.83 53.57,-44.97 53.57,-47.6"/>
<text text-anchor="middle" x="92.57" y="-29.93" font-family="Arial" font-size="14.00">Database</text>
<text text-anchor="middle" x="92.57" y="-14.93" font-family="Arial" font-size="14.00">&lt;&lt;Data&gt;&gt;</text>
</g>
<!-- Backend&#45;&gt;Database -->
<g id="edge5" class="edge">
<title>Backend&#45;&gt;Database</title>
<path fill="none" stroke="black" d="M156.16,-103.07C148.77,-93.23 139.35,-80.93 130.57,-70.25 127.87,-66.95 125,-63.56 122.11,-60.18"/>
<polygon fill="black" stroke="black" points="124.57,-57.67 115.38,-52.41 119.28,-62.26 124.57,-57.67"/>
<text text-anchor="middle" x="192.07" y="-74.05" font-family="Times,serif" font-size="14.00">Interacts with</text>
</g>
<!-- FrontendTeam -->
<g id="node4" class="node">
<title>FrontendTeam</title>
<ellipse fill="none" stroke="black" cx="259.57" cy="-299.25" rx="70.39" ry="18"/>
<text text-anchor="middle" x="259.57" y="-295.55" font-family="Arial" font-size="14.00">Frontend Team</text>
</g>
<!-- FrontendTeam&#45;&gt;WebUI -->
<g id="edge1" class="edge">
<title>FrontendTeam&#45;&gt;WebUI</title>
<path fill="none" stroke="black" d="M259.57,-280.85C259.57,-269.31 259.57,-253.9 259.57,-240.61"/>
<polygon fill="black" stroke="black" points="263.07,-240.52 259.57,-230.52 256.07,-240.52 263.07,-240.52"/>
<text text-anchor="middle" x="292.07" y="-252.05" font-family="Times,serif" font-size="14.00">Manages</text>
</g>
<!-- BackendTeam -->
<g id="node5" class="node">
<title>BackendTeam</title>
<ellipse fill="none" stroke="black" cx="109.57" cy="-211.25" rx="69.59" ry="18"/>
<text text-anchor="middle" x="109.57" y="-207.55" font-family="Arial" font-size="14.00">Backend Team</text>
</g>
<!-- BackendTeam&#45;&gt;Backend -->
<g id="edge2" class="edge">
<title>BackendTeam&#45;&gt;Backend</title>
<path fill="none" stroke="black" d="M119.82,-192.97C125.9,-182.96 133.9,-170.21 141.57,-159.25 143.86,-155.99 146.33,-152.62 148.82,-149.3"/>
<polygon fill="black" stroke="black" points="151.65,-151.36 154.97,-141.3 146.1,-147.1 151.65,-151.36"/>
<text text-anchor="middle" x="174.07" y="-163.05" font-family="Times,serif" font-size="14.00">Manages</text>
</g>
<!-- DBAs -->
<g id="node6" class="node">
<title>DBAs</title>
<ellipse fill="none" stroke="black" cx="48.57" cy="-122.25" rx="33.29" ry="18"/>
<text text-anchor="middle" x="48.57" y="-118.55" font-family="Arial" font-size="14.00">DBAs</text>
</g>
<!-- DBAs&#45;&gt;Database -->
<g id="edge3" class="edge">
<title>DBAs&#45;&gt;Database</title>
<path fill="none" stroke="black" d="M53.11,-104.32C56.1,-94.2 60.4,-81.22 65.57,-70.25 66.97,-67.29 68.52,-64.29 70.16,-61.32"/>
<polygon fill="black" stroke="black" points="73.26,-62.96 75.26,-52.56 67.21,-59.44 73.26,-62.96"/>
<text text-anchor="middle" x="98.07" y="-74.05" font-family="Times,serif" font-size="14.00">Manages</text>
</g>
</g>
</svg>
