<?xml version="1.0" encoding="UTF-8" standalone="no"?>
<!DOCTYPE svg PUBLIC "-//W3C//DTD SVG 1.1//EN"
 "http://www.w3.org/Graphics/SVG/1.1/DTD/svg11.dtd">
<!-- Generated by graphviz version 2.43.0 (0)
 -->
<!-- Title: ThreeFunctionalityScope Pages: 1 -->
<svg width="1048pt" height="176pt"
 viewBox="0.00 0.00 1048.14 176.00" xmlns="http://www.w3.org/2000/svg" xmlns:xlink="http://www.w3.org/1999/xlink">
<g id="graph0" class="graph" transform="scale(1 1) rotate(0) translate(4 172)">
<title>ThreeFunctionalityScope</title>
<polygon fill="white" stroke="transparent" points="-4,4 -4,-172 1044.14,-172 1044.14,4 -4,4"/>
<text text-anchor="middle" x="520.07" y="-149.6" font-family="Times,serif" font-size="18.00">Scope of Change in Three Functionalities</text>
<!-- StockFunctionality -->
<g id="node1" class="node">
<title>StockFunctionality</title>
<path fill="none" stroke="black" d="M222.19,-38C222.19,-38 154.19,-38 154.19,-38 148.19,-38 142.19,-32 142.19,-26 142.19,-26 142.19,-12 142.19,-12 142.19,-6 148.19,0 154.19,0 154.19,0 222.19,0 222.19,0 228.19,0 234.19,-6 234.19,-12 234.19,-12 234.19,-26 234.19,-26 234.19,-32 228.19,-38 222.19,-38"/>
<text text-anchor="middle" x="188.19" y="-22.8" font-family="Arial" font-size="14.00">Stock</text>
<text text-anchor="middle" x="188.19" y="-7.8" font-family="Arial" font-size="14.00">Functionality</text>
</g>
<!-- PurchaseFunctionality -->
<g id="node2" class="node">
<title>PurchaseFunctionality</title>
<path fill="none" stroke="black" d="M856.19,-38C856.19,-38 788.19,-38 788.19,-38 782.19,-38 776.19,-32 776.19,-26 776.19,-26 776.19,-12 776.19,-12 776.19,-6 782.19,0 788.19,0 788.19,0 856.19,0 856.19,0 862.19,0 868.19,-6 868.19,-12 868.19,-12 868.19,-26 868.19,-26 868.19,-32 862.19,-38 856.19,-38"/>
<text text-anchor="middle" x="822.19" y="-22.8" font-family="Arial" font-size="14.00">Purchase</text>
<text text-anchor="middle" x="822.19" y="-7.8" font-family="Arial" font-size="14.00">Functionality</text>
</g>
<!-- ProfileFunctionality -->
<g id="node3" class="node">
<title>ProfileFunctionality</title>
<polygon fill="lightgray" stroke="black" points="458.19,-38 366.19,-38 366.19,0 458.19,0 458.19,-38"/>
<text text-anchor="middle" x="412.19" y="-22.8" font-family="Arial" font-size="14.00">Profile</text>
<text text-anchor="middle" x="412.19" y="-7.8" font-family="Arial" font-size="14.00">Functionality</text>
</g>
<!-- Frontend -->
<g id="node4" class="node">
<title>Frontend</title>
<text text-anchor="middle" x="512.19" y="-118.3" font-family="Arial" font-size="14.00">Frontend</text>
</g>
<!-- Frontend&#45;&gt;StockFunctionality -->
<g id="edge1" class="edge">
<title>Frontend&#45;&gt;StockFunctionality</title>
<path fill="none" stroke="black" stroke-dasharray="5,2" d="M476.61,-106.51C473.46,-105.55 470.29,-104.69 467.19,-104 415.85,-92.59 276.45,-112.8 231.19,-86 216.57,-77.34 206.01,-61.52 199.01,-47.55"/>
<polygon fill="black" stroke="black" points="202.1,-45.89 194.73,-38.28 195.75,-48.82 202.1,-45.89"/>
</g>
<!-- Frontend&#45;&gt;PurchaseFunctionality -->
<g id="edge2" class="edge">
<title>Frontend&#45;&gt;PurchaseFunctionality</title>
<path fill="none" stroke="black" stroke-dasharray="5,2" d="M547.76,-121.67C590.5,-121.01 663.17,-115.13 717.19,-86 733.25,-77.34 730.44,-66.72 745.19,-56 751.97,-51.07 759.53,-46.56 767.19,-42.52"/>
<polygon fill="black" stroke="black" points="768.83,-45.62 776.19,-38 765.68,-39.36 768.83,-45.62"/>
</g>
<!-- Frontend&#45;&gt;ProfileFunctionality -->
<g id="edge3" class="edge">
<title>Frontend&#45;&gt;ProfileFunctionality</title>
<path fill="none" stroke="black" stroke-dasharray="5,2" d="M507.66,-103.72C503.18,-89.46 495.09,-69.46 482.19,-56 477.73,-51.34 472.52,-47.17 467.01,-43.47"/>
<polygon fill="black" stroke="black" points="468.5,-40.28 458.15,-38.05 464.85,-46.26 468.5,-40.28"/>
<text text-anchor="middle" x="582.19" y="-67.3" font-family="Times,serif" font-size="14.00">Show genre UI control</text>
</g>
<!-- BusinessLogic -->
<g id="node5" class="node">
<title>BusinessLogic</title>
<text text-anchor="middle" x="405.19" y="-118.3" font-family="Arial" font-size="14.00">Business Logic</text>
</g>
<!-- BusinessLogic&#45;&gt;StockFunctionality -->
<g id="edge4" class="edge">
<title>BusinessLogic&#45;&gt;StockFunctionality</title>
<path fill="none" stroke="black" stroke-dasharray="5,2" d="M351.54,-105.76C348.73,-105.12 345.93,-104.53 343.19,-104 309.37,-97.43 212.29,-111.56 189.19,-86 180.1,-75.94 179.2,-61.07 180.87,-47.99"/>
<polygon fill="black" stroke="black" points="184.33,-48.47 182.64,-38.02 177.44,-47.25 184.33,-48.47"/>
</g>
<!-- BusinessLogic&#45;&gt;PurchaseFunctionality -->
<g id="edge5" class="edge">
<title>BusinessLogic&#45;&gt;PurchaseFunctionality</title>
<path fill="none" stroke="black" stroke-dasharray="5,2" d="M458.83,-105.67C461.65,-105.06 464.45,-104.5 467.19,-104 555.02,-88.14 582,-112.58 667.19,-86 693.03,-77.94 695.56,-67.21 720.19,-56 734.85,-49.33 751.12,-43.09 766.29,-37.74"/>
<polygon fill="black" stroke="black" points="767.77,-40.94 776.07,-34.36 765.48,-34.32 767.77,-40.94"/>
</g>
<!-- BusinessLogic&#45;&gt;ProfileFunctionality -->
<g id="edge6" class="edge">
<title>BusinessLogic&#45;&gt;ProfileFunctionality</title>
<path fill="none" stroke="black" stroke-dasharray="5,2" d="M351.99,-103.87C338.27,-98.34 326.22,-92.06 322.19,-86 314.82,-74.89 314.72,-67.04 322.19,-56 330.24,-44.11 342.92,-36.15 356.25,-30.82"/>
<polygon fill="black" stroke="black" points="357.74,-34 366.01,-27.38 355.41,-27.4 357.74,-34"/>
<text text-anchor="middle" x="402.19" y="-74.8" font-family="Times,serif" font-size="14.00">Expose current genre,</text>
<text text-anchor="middle" x="402.19" y="-59.8" font-family="Times,serif" font-size="14.00">change genre API</text>
</g>
<!-- Data -->
<g id="node6" class="node">
<title>Data</title>
<text text-anchor="middle" x="764.19" y="-118.3" font-family="Arial" font-size="14.00">Data</text>
</g>
<!-- Data&#45;&gt;StockFunctionality -->
<g id="edge7" class="edge">
<title>Data&#45;&gt;StockFunctionality</title>
<path fill="none" stroke="black" stroke-dasharray="5,2" d="M737.04,-109.91C723.78,-103.84 707.97,-95.61 695.19,-86 680.62,-75.04 683.7,-63.75 667.19,-56 604.73,-26.67 425.97,-43.66 357.19,-38 319.65,-34.91 277.51,-30.43 244.71,-26.71"/>
<polygon fill="black" stroke="black" points="244.74,-23.19 234.4,-25.53 243.94,-30.14 244.74,-23.19"/>
</g>
<!-- Data&#45;&gt;PurchaseFunctionality -->
<g id="edge8" class="edge">
<title>Data&#45;&gt;PurchaseFunctionality</title>
<path fill="none" stroke="black" stroke-dasharray="5,2" d="M791.5,-114.87C830.23,-106.05 896.82,-90.36 900.19,-86 908.36,-75.46 907.38,-67.23 900.19,-56 894.71,-47.43 886.6,-40.86 877.67,-35.85"/>
<polygon fill="black" stroke="black" points="879.03,-32.62 868.52,-31.34 875.94,-38.9 879.03,-32.62"/>
</g>
<!-- Data&#45;&gt;ProfileFunctionality -->
<g id="edge9" class="edge">
<title>Data&#45;&gt;ProfileFunctionality</title>
<path fill="none" stroke="black" stroke-dasharray="5,2" d="M751.22,-103.72C738.69,-88.42 718.26,-66.89 695.19,-56 656.19,-37.59 539.25,-27.56 468.48,-23.04"/>
<polygon fill="black" stroke="black" points="468.59,-19.54 458.39,-22.41 468.16,-26.53 468.59,-19.54"/>
<text text-anchor="middle" x="801.69" y="-67.3" font-family="Times,serif" font-size="14.00">Store genre choice</text>
</g>
<!-- StockTeam -->
<g id="node7" class="node">
<title>StockTeam</title>
<ellipse fill="none" stroke="black" cx="57.19" cy="-122" rx="57.39" ry="18"/>
<text text-anchor="middle" x="57.19" y="-118.3" font-family="Arial" font-size="14.00">Stock Team</text>
</g>
<!-- StockTeam&#45;&gt;StockFunctionality -->
<g id="edge10" class="edge">
<title>StockTeam&#45;&gt;StockFunctionality</title>
<path fill="none" stroke="black" d="M63.71,-103.93C70.03,-89.41 80.92,-68.91 96.19,-56 106.63,-47.18 119.49,-40.36 132.24,-35.15"/>
<polygon fill="black" stroke="black" points="133.82,-38.3 141.94,-31.48 131.34,-31.75 133.82,-38.3"/>
<text text-anchor="middle" x="128.69" y="-67.3" font-family="Times,serif" font-size="14.00">Manages</text>
</g>
<!-- PurchaseFlowTeam -->
<g id="node8" class="node">
<title>PurchaseFlowTeam</title>
<ellipse fill="none" stroke="black" cx="947.19" cy="-122" rx="92.88" ry="18"/>
<text text-anchor="middle" x="947.19" y="-118.3" font-family="Arial" font-size="14.00">Purchase Flow Team</text>
</g>
<!-- PurchaseFlowTeam&#45;&gt;PurchaseFunctionality -->
<g id="edge11" class="edge">
<title>PurchaseFlowTeam&#45;&gt;PurchaseFunctionality</title>
<path fill="none" stroke="black" d="M942.91,-103.92C938.47,-89.39 930.15,-68.89 916.19,-56 905.56,-46.17 891.95,-38.93 878.42,-33.64"/>
<polygon fill="black" stroke="black" points="879.22,-30.21 868.62,-30.12 876.85,-36.79 879.22,-30.21"/>
<text text-anchor="middle" x="967.69" y="-67.3" font-family="Times,serif" font-size="14.00">Manages</text>
</g>
<!-- CustomerProfileTeam -->
<g id="node9" class="node">
<title>CustomerProfileTeam</title>
<ellipse fill="none" stroke="black" cx="233.19" cy="-122" rx="100.98" ry="18"/>
<text text-anchor="middle" x="233.19" y="-118.3" font-family="Arial" font-size="14.00">Customer Profile Team</text>
</g>
<!-- CustomerProfileTeam&#45;&gt;ProfileFunctionality -->
<g id="edge12" class="edge">
<title>CustomerProfileTeam&#45;&gt;ProfileFunctionality</title>
<path fill="none" stroke="black" d="M232.41,-103.95C232.7,-89.25 235.6,-68.46 248.19,-56 263.37,-40.99 314.84,-31.37 356.12,-25.89"/>
<polygon fill="black" stroke="black" points="356.62,-29.36 366.1,-24.62 355.73,-22.41 356.62,-29.36"/>
<text text-anchor="middle" x="280.69" y="-67.3" font-family="Times,serif" font-size="14.00">Manages</text>
</g>
</g>
</svg>
