<?xml version="1.0" encoding="UTF-8" standalone="no"?>
<!DOCTYPE svg PUBLIC "-//W3C//DTD SVG 1.1//EN"
 "http://www.w3.org/Graphics/SVG/1.1/DTD/svg11.dtd">
<!-- Generated by graphviz version 2.43.0 (0)
 -->
<!-- Title: ServiceMesh Pages: 1 -->
<svg width="1078pt" height="205pt"
 viewBox="0.00 0.00 1077.71 205.00" xmlns="http://www.w3.org/2000/svg" xmlns:xlink="http://www.w3.org/1999/xlink">
<g id="graph0" class="graph" transform="scale(1 1) rotate(0) translate(4 201)">
<title>ServiceMesh</title>
<polygon fill="white" stroke="transparent" points="-4,4 -4,-201 1073.71,-201 1073.71,4 -4,4"/>
<text text-anchor="middle" x="534.85" y="-181.8" font-family="Times,serif" font-size="14.00">A Service Mesh for Direct Inter&#45;Microservice Communication</text>
<g id="clust1" class="cluster">
<title>cluster_control_plane</title>
<polygon fill="none" stroke="black" stroke-dasharray="5,2" points="9.47,-91 9.47,-166 223.66,-166 223.66,-91 9.47,-91"/>
<text text-anchor="middle" x="116.57" y="-150.8" font-family="Times,serif" font-size="14.00">Service Mesh Control Plane</text>
</g>
<g id="clust2" class="cluster">
<title>cluster_order_processor</title>
<polygon fill="none" stroke="black" stroke-dasharray="5,2" points="8,-8 8,-83 583.13,-83 583.13,-8 8,-8"/>
<text text-anchor="middle" x="295.57" y="-67.8" font-family="Times,serif" font-size="14.00">Local Machine</text>
</g>
<g id="clust3" class="cluster">
<title>cluster_payment</title>
<polygon fill="none" stroke="black" stroke-dasharray="5,2" points="789.13,-48 789.13,-123 1061.71,-123 1061.71,-48 789.13,-48"/>
<text text-anchor="middle" x="925.42" y="-107.8" font-family="Times,serif" font-size="14.00">Local Machine</text>
</g>
<!-- Control Plane -->
<g id="node1" class="node">
<title>Control Plane</title>
<ellipse fill="none" stroke="black" cx="116.57" cy="-117" rx="74.19" ry="18"/>
<text text-anchor="middle" x="116.57" y="-113.3" font-family="Times,serif" font-size="14.00">Control Plane</text>
</g>
<!-- Mesh Proxy A -->
<g id="node3" class="node">
<title>Mesh Proxy A</title>
<polygon fill="none" stroke="black" points="575.13,-52 474.13,-52 474.13,-16 575.13,-16 575.13,-52"/>
<text text-anchor="middle" x="524.63" y="-30.3" font-family="Times,serif" font-size="14.00">Mesh proxy</text>
</g>
<!-- Control Plane&#45;&gt;Mesh Proxy A -->
<g id="edge4" class="edge">
<title>Control Plane&#45;&gt;Mesh Proxy A</title>
<path fill="none" stroke="black" stroke-dasharray="1,5" d="M165.15,-103.27C188.02,-96.93 215.88,-89.6 241.13,-84 317.62,-67.05 406.78,-52.05 464.15,-43.01"/>
<polygon fill="black" stroke="black" points="464.79,-46.45 474.13,-41.44 463.71,-39.53 464.79,-46.45"/>
<text text-anchor="middle" x="329.63" y="-87.8" font-family="Times,serif" font-size="14.00">Manages proxy behavior</text>
</g>
<!-- Mesh Proxy B -->
<g id="node5" class="node">
<title>Mesh Proxy B</title>
<polygon fill="none" stroke="black" points="898.13,-92 797.13,-92 797.13,-56 898.13,-56 898.13,-92"/>
<text text-anchor="middle" x="847.63" y="-70.3" font-family="Times,serif" font-size="14.00">Mesh proxy</text>
</g>
<!-- Control Plane&#45;&gt;Mesh Proxy B -->
<g id="edge5" class="edge">
<title>Control Plane&#45;&gt;Mesh Proxy B</title>
<path fill="none" stroke="black" stroke-dasharray="1,5" d="M190.7,-116.16C312.89,-114.16 566.14,-107.43 779.13,-85 781.66,-84.73 784.24,-84.43 786.85,-84.11"/>
<polygon fill="black" stroke="black" points="787.51,-87.55 796.95,-82.75 786.57,-80.62 787.51,-87.55"/>
<text text-anchor="middle" x="524.63" y="-111.8" font-family="Times,serif" font-size="14.00">Manages proxy behavior</text>
</g>
<!-- Order Processor -->
<g id="node2" class="node">
<title>Order Processor</title>
<polygon fill="none" stroke="black" points="217.2,-34 166.88,-52 66.25,-52 15.93,-34 66.25,-16 166.88,-16 217.2,-34"/>
<text text-anchor="middle" x="116.57" y="-30.3" font-family="Times,serif" font-size="14.00">Order Processor</text>
</g>
<!-- Order Processor&#45;&gt;Mesh Proxy A -->
<g id="edge1" class="edge">
<title>Order Processor&#45;&gt;Mesh Proxy A</title>
<path fill="none" stroke="black" d="M217.16,-34C294.5,-34 399.17,-34 463.99,-34"/>
<polygon fill="black" stroke="black" points="464.05,-37.5 474.05,-34 464.05,-30.5 464.05,-37.5"/>
</g>
<!-- Mesh Proxy A&#45;&gt;Mesh Proxy B -->
<g id="edge3" class="edge">
<title>Mesh Proxy A&#45;&gt;Mesh Proxy B</title>
<path fill="none" stroke="black" d="M575.44,-40.21C632.45,-47.31 725.8,-58.94 786.74,-66.54"/>
<polygon fill="black" stroke="black" points="786.62,-70.05 796.97,-67.81 787.48,-63.1 786.62,-70.05"/>
<text text-anchor="middle" x="705.13" y="-69.8" font-family="Times,serif" font-size="14.00">Remote network call</text>
</g>
<!-- Payment -->
<g id="node4" class="node">
<title>Payment</title>
<polygon fill="none" stroke="black" points="1053.5,-74 1023.96,-92 964.88,-92 935.34,-74 964.88,-56 1023.96,-56 1053.5,-74"/>
<text text-anchor="middle" x="994.42" y="-70.3" font-family="Times,serif" font-size="14.00">Payment</text>
</g>
<!-- Mesh Proxy B&#45;&gt;Payment -->
<g id="edge2" class="edge">
<title>Mesh Proxy B&#45;&gt;Payment</title>
<path fill="none" stroke="black" d="M898.46,-74C907.08,-74 916.17,-74 925.17,-74"/>
<polygon fill="black" stroke="black" points="925.28,-77.5 935.28,-74 925.28,-70.5 925.28,-77.5"/>
</g>
</g>
</svg>
