<?xml version="1.0" encoding="UTF-8" standalone="no"?>
<!DOCTYPE svg PUBLIC "-//W3C//DTD SVG 1.1//EN"
 "http://www.w3.org/Graphics/SVG/1.1/DTD/svg11.dtd">
<!-- Generated by graphviz version 2.43.0 (0)
 -->
<!-- Title: ServiceMeshesAndAPIGateways Pages: 1 -->
<svg width="687pt" height="182pt"
 viewBox="0.00 0.00 687.16 182.00" xmlns="http://www.w3.org/2000/svg" xmlns:xlink="http://www.w3.org/1999/xlink">
<g id="graph0" class="graph" transform="scale(1 1) rotate(0) translate(4 178)">
<title>ServiceMeshesAndAPIGateways</title>
<polygon fill="white" stroke="transparent" points="-4,4 -4,-178 683.16,-178 683.16,4 -4,4"/>
<text text-anchor="middle" x="339.58" y="-158.8" font-family="Times,serif" font-size="14.00">API Gateways and Service Meshes Overview</text>
<g id="clust1" class="cluster">
<title>cluster_perimeter</title>
<polygon fill="none" stroke="black" stroke-dasharray="5,2" points="179,-8 179,-142 671.16,-142 671.16,-8 179,-8"/>
<text text-anchor="middle" x="425.08" y="-126.8" font-family="Times,serif" font-size="14.00">System Perimeter</text>
</g>
<g id="clust2" class="cluster">
<title>cluster_service_mesh</title>
<polygon fill="none" stroke="black" stroke-dasharray="5,2" points="323,-16 323,-111 663.16,-111 663.16,-16 323,-16"/>
<text text-anchor="middle" x="493.08" y="-95.8" font-family="Times,serif" font-size="14.00">Service Mesh</text>
</g>
<!-- API Gateway -->
<g id="node1" class="node">
<title>API Gateway</title>
<polygon fill="lightblue" stroke="black" points="295,-97 187,-97 187,-61 295,-61 295,-97"/>
<text text-anchor="middle" x="241" y="-75.3" font-family="Times,serif" font-size="14.00">API Gateway</text>
</g>
<!-- Mesh1 -->
<g id="node2" class="node">
<title>Mesh1</title>
<polygon fill="lightblue" stroke="black" points="415.08,-42 394.05,-60 352,-60 330.97,-42 352,-24 394.05,-24 415.08,-42"/>
<text text-anchor="middle" x="373.03" y="-38.3" font-family="Times,serif" font-size="14.00">Mesh</text>
</g>
<!-- API Gateway&#45;&gt;Mesh1 -->
<g id="edge4" class="edge">
<title>API Gateway&#45;&gt;Mesh1</title>
<path fill="none" stroke="black" d="M295.26,-63.84C307.3,-60.42 319.9,-56.83 331.33,-53.58"/>
<polygon fill="black" stroke="black" points="332.37,-56.92 341.03,-50.82 330.45,-50.19 332.37,-56.92"/>
</g>
<!-- Mesh2 -->
<g id="node3" class="node">
<title>Mesh2</title>
<polygon fill="lightblue" stroke="black" points="535.14,-62 514.11,-80 472.05,-80 451.03,-62 472.05,-44 514.11,-44 535.14,-62"/>
<text text-anchor="middle" x="493.08" y="-58.3" font-family="Times,serif" font-size="14.00">Mesh</text>
</g>
<!-- API Gateway&#45;&gt;Mesh2 -->
<g id="edge5" class="edge">
<title>API Gateway&#45;&gt;Mesh2</title>
<path fill="none" stroke="black" d="M295.05,-76.39C329.31,-74.59 374.84,-71.99 415.05,-69 424.7,-68.28 435.01,-67.42 444.85,-66.54"/>
<polygon fill="black" stroke="black" points="445.24,-70.02 454.88,-65.63 444.61,-63.05 445.24,-70.02"/>
</g>
<!-- Mesh3 -->
<g id="node4" class="node">
<title>Mesh3</title>
<polygon fill="lightblue" stroke="black" points="655.19,-62 634.16,-80 592.11,-80 571.08,-62 592.11,-44 634.16,-44 655.19,-62"/>
<text text-anchor="middle" x="613.14" y="-58.3" font-family="Times,serif" font-size="14.00">Mesh</text>
</g>
<!-- API Gateway&#45;&gt;Mesh3 -->
<g id="edge6" class="edge">
<title>API Gateway&#45;&gt;Mesh3</title>
<path fill="none" stroke="black" d="M295.12,-87.2C354.17,-94.84 452.16,-103.12 535.11,-89 548.56,-86.71 562.78,-82.33 575.3,-77.74"/>
<polygon fill="black" stroke="black" points="576.84,-80.91 584.93,-74.06 574.34,-74.37 576.84,-80.91"/>
</g>
<!-- Mesh1&#45;&gt;Mesh2 -->
<g id="edge7" class="edge">
<title>Mesh1&#45;&gt;Mesh2</title>
<path fill="none" stroke="black" d="M408.49,-47.84C420.74,-49.91 434.7,-52.28 447.65,-54.47"/>
<polygon fill="black" stroke="black" points="447.34,-57.97 457.78,-56.19 448.5,-51.07 447.34,-57.97"/>
</g>
<!-- Mesh2&#45;&gt;Mesh3 -->
<g id="edge8" class="edge">
<title>Mesh2&#45;&gt;Mesh3</title>
<path fill="none" stroke="black" d="M535.37,-62C543.6,-62 552.33,-62 560.84,-62"/>
<polygon fill="black" stroke="black" points="561.07,-65.5 571.07,-62 561.07,-58.5 561.07,-65.5"/>
</g>
<!-- Mesh3&#45;&gt;Mesh1 -->
<g id="edge9" class="edge">
<title>Mesh3&#45;&gt;Mesh1</title>
<path fill="none" stroke="black" d="M584.93,-49.94C570.45,-44.17 552.15,-37.9 535.11,-35 496.14,-28.37 451.15,-31.18 418.64,-35.04"/>
<polygon fill="black" stroke="black" points="418.02,-31.59 408.54,-36.32 418.9,-38.53 418.02,-31.59"/>
</g>
<!-- External System A -->
<g id="node5" class="node">
<title>External System A</title>
<polygon fill="none" stroke="black" stroke-dasharray="5,2" points="150.5,-151 0.5,-151 0.5,-115 150.5,-115 150.5,-151"/>
<text text-anchor="middle" x="75.5" y="-129.3" font-family="Times,serif" font-size="14.00">External System A</text>
</g>
<!-- External System A&#45;&gt;API Gateway -->
<g id="edge1" class="edge">
<title>External System A&#45;&gt;API Gateway</title>
<path fill="none" stroke="black" d="M131.4,-114.87C146.09,-110.02 162.07,-104.74 177.15,-99.76"/>
<polygon fill="black" stroke="black" points="178.51,-102.99 186.91,-96.53 176.32,-96.35 178.51,-102.99"/>
</g>
<!-- External System B -->
<g id="node6" class="node">
<title>External System B</title>
<polygon fill="none" stroke="black" stroke-dasharray="5,2" points="151,-97 0,-97 0,-61 151,-61 151,-97"/>
<text text-anchor="middle" x="75.5" y="-75.3" font-family="Times,serif" font-size="14.00">External System B</text>
</g>
<!-- External System B&#45;&gt;API Gateway -->
<g id="edge2" class="edge">
<title>External System B&#45;&gt;API Gateway</title>
<path fill="none" stroke="black" d="M151.07,-79C159.58,-79 168.18,-79 176.52,-79"/>
<polygon fill="black" stroke="black" points="176.54,-82.5 186.54,-79 176.54,-75.5 176.54,-82.5"/>
</g>
<!-- External System C -->
<g id="node7" class="node">
<title>External System C</title>
<polygon fill="none" stroke="black" stroke-dasharray="5,2" points="151,-43 0,-43 0,-7 151,-7 151,-43"/>
<text text-anchor="middle" x="75.5" y="-21.3" font-family="Times,serif" font-size="14.00">External System C</text>
</g>
<!-- External System C&#45;&gt;API Gateway -->
<g id="edge3" class="edge">
<title>External System C&#45;&gt;API Gateway</title>
<path fill="none" stroke="black" d="M131.4,-43.13C146.09,-47.98 162.07,-53.26 177.15,-58.24"/>
<polygon fill="black" stroke="black" points="176.32,-61.65 186.91,-61.47 178.51,-55.01 176.32,-61.65"/>
</g>
</g>
</svg>
