<?xml version="1.0" encoding="UTF-8" standalone="no"?>
<!DOCTYPE svg PUBLIC "-//W3C//DTD SVG 1.1//EN"
 "http://www.w3.org/Graphics/SVG/1.1/DTD/svg11.dtd">
<!-- Generated by graphviz version 2.43.0 (0)
 -->
<!-- Title: MultiVersionService Pages: 1 -->
<svg width="550pt" height="257pt"
 viewBox="0.00 0.00 550.00 257.00" xmlns="http://www.w3.org/2000/svg" xmlns:xlink="http://www.w3.org/1999/xlink">
<g id="graph0" class="graph" transform="scale(1 1) rotate(0) translate(4 253)">
<title>MultiVersionService</title>
<polygon fill="white" stroke="transparent" points="-4,4 -4,-253 546,-253 546,4 -4,4"/>
<text text-anchor="middle" x="271" y="-233.8" font-family="Times,serif" font-size="14.00">Running Multiple Versions of the Same Service to Support Old Endpoints</text>
<g id="clust1" class="cluster">
<title>cluster_0</title>
<polygon fill="lightblue" stroke="lightblue" points="34.56,-117 34.56,-218 404.44,-218 404.44,-117 34.56,-117"/>
<text text-anchor="middle" x="219.5" y="-202.8" font-family="Times,serif" font-size="14.00">Customer Service v65</text>
</g>
<g id="clust2" class="cluster">
<title>cluster_1</title>
<polygon fill="lightblue" stroke="lightblue" points="46.56,-8 46.56,-109 404.44,-109 404.44,-8 46.56,-8"/>
<text text-anchor="middle" x="225.5" y="-93.8" font-family="Times,serif" font-size="14.00">Customer Service v50</text>
</g>
<!-- WebShop -->
<g id="node1" class="node">
<title>WebShop</title>
<polygon fill="white" stroke="white" points="128.56,-174 42.56,-174 42.56,-138 128.56,-138 128.56,-174"/>
<text text-anchor="middle" x="85.56" y="-152.3" font-family="Times,serif" font-size="14.00">Web shop</text>
</g>
<!-- ServiceV65 -->
<g id="node2" class="node">
<title>ServiceV65</title>
<polygon fill="white" stroke="white" points="396.39,-156 338.44,-187.05 222.56,-187.05 164.61,-156 222.56,-124.95 338.44,-124.95 396.39,-156"/>
<text text-anchor="middle" x="280.5" y="-159.8" font-family="Times,serif" font-size="14.00">Customer service</text>
<text text-anchor="middle" x="280.5" y="-144.8" font-family="Times,serif" font-size="14.00">v65</text>
</g>
<!-- WebShop&#45;&gt;ServiceV65 -->
<g id="edge1" class="edge">
<title>WebShop&#45;&gt;ServiceV65</title>
<path fill="none" stroke="black" d="M128.9,-156C136.72,-156 145.24,-156 154.12,-156"/>
<polygon fill="black" stroke="black" points="154.28,-159.5 164.28,-156 154.28,-152.5 154.28,-159.5"/>
</g>
<!-- Database -->
<g id="node5" class="node">
<title>Database</title>
<path fill="lightblue" stroke="lightblue" d="M515.44,-115.73C515.44,-117.53 496.84,-119 473.94,-119 451.04,-119 432.44,-117.53 432.44,-115.73 432.44,-115.73 432.44,-86.27 432.44,-86.27 432.44,-84.47 451.04,-83 473.94,-83 496.84,-83 515.44,-84.47 515.44,-86.27 515.44,-86.27 515.44,-115.73 515.44,-115.73"/>
<path fill="none" stroke="lightblue" d="M515.44,-115.73C515.44,-113.92 496.84,-112.45 473.94,-112.45 451.04,-112.45 432.44,-113.92 432.44,-115.73"/>
<text text-anchor="middle" x="473.94" y="-97.3" font-family="Times,serif" font-size="14.00">Database</text>
</g>
<!-- ServiceV65&#45;&gt;Database -->
<g id="edge3" class="edge">
<title>ServiceV65&#45;&gt;Database</title>
<path fill="none" stroke="black" d="M356.34,-134.5C378.6,-128.1 402.44,-121.25 422.73,-115.42"/>
<polygon fill="black" stroke="black" points="423.74,-118.78 432.39,-112.65 421.81,-112.05 423.74,-118.78"/>
</g>
<!-- Admin -->
<g id="node3" class="node">
<title>Admin</title>
<polygon fill="white" stroke="white" points="116.56,-65 54.56,-65 54.56,-29 116.56,-29 116.56,-65"/>
<text text-anchor="middle" x="85.56" y="-43.3" font-family="Times,serif" font-size="14.00">Admin</text>
</g>
<!-- ServiceV50 -->
<g id="node4" class="node">
<title>ServiceV50</title>
<polygon fill="white" stroke="white" points="396.39,-47 338.44,-78.05 222.56,-78.05 164.61,-47 222.56,-15.95 338.44,-15.95 396.39,-47"/>
<text text-anchor="middle" x="280.5" y="-50.8" font-family="Times,serif" font-size="14.00">Customer service</text>
<text text-anchor="middle" x="280.5" y="-35.8" font-family="Times,serif" font-size="14.00">v50</text>
</g>
<!-- Admin&#45;&gt;ServiceV50 -->
<g id="edge2" class="edge">
<title>Admin&#45;&gt;ServiceV50</title>
<path fill="none" stroke="black" d="M116.7,-47C127.45,-47 140.32,-47 154.06,-47"/>
<polygon fill="black" stroke="black" points="154.2,-50.5 164.2,-47 154.2,-43.5 154.2,-50.5"/>
</g>
<!-- ServiceV50&#45;&gt;Database -->
<g id="edge4" class="edge">
<title>ServiceV50&#45;&gt;Database</title>
<path fill="none" stroke="black" d="M356.89,-68.26C378.91,-74.48 402.43,-81.11 422.51,-86.77"/>
<polygon fill="black" stroke="black" points="421.79,-90.21 432.36,-89.55 423.69,-83.47 421.79,-90.21"/>
</g>
</g>
</svg>
