<?xml version="1.0" encoding="UTF-8" standalone="no"?>
<!DOCTYPE svg PUBLIC "-//W3C//DTD SVG 1.1//EN"
 "http://www.w3.org/Graphics/SVG/1.1/DTD/svg11.dtd">
<!-- Generated by graphviz version 2.43.0 (0)
 -->
<!-- Title: QueueModel Pages: 1 -->
<svg width="701pt" height="262pt"
 viewBox="0.00 0.00 700.82 262.05" xmlns="http://www.w3.org/2000/svg" xmlns:xlink="http://www.w3.org/1999/xlink">
<g id="graph0" class="graph" transform="scale(1 1) rotate(0) translate(4 258.05)">
<title>QueueModel</title>
<polygon fill="white" stroke="transparent" points="-4,4 -4,-258.05 696.82,-258.05 696.82,4 -4,4"/>
<text text-anchor="middle" x="346.41" y="-234.05" font-family="Times,serif" font-size="20.00">Queue Model</text>
<!-- queue -->
<g id="node1" class="node">
<title>queue</title>
<polygon fill="lightgrey" stroke="lightgrey" points="452.91,-224.05 449.91,-228.05 428.91,-228.05 425.91,-224.05 239.91,-224.05 239.91,-186.05 452.91,-186.05 452.91,-224.05"/>
<text text-anchor="middle" x="346.41" y="-208.85" font-family="Times,serif" font-size="14.00">Order Queue</text>
<text text-anchor="middle" x="346.41" y="-193.85" font-family="Times,serif" font-size="14.00">(New Order &lt;&lt;request&gt;&gt;)</text>
</g>
<!-- consumer_group -->
<g id="node2" class="node">
<title>consumer_group</title>
<polygon fill="none" stroke="black" stroke-dasharray="5,2" points="415.41,-135.05 277.41,-135.05 277.41,-99.05 415.41,-99.05 415.41,-135.05"/>
<text text-anchor="middle" x="346.41" y="-113.35" font-family="Times,serif" font-size="14.00">Consumer Group</text>
</g>
<!-- queue&#45;&gt;consumer_group -->
<g id="edge4" class="edge">
<title>queue&#45;&gt;consumer_group</title>
<path fill="none" stroke="black" d="M346.41,-185.82C346.41,-173.99 346.41,-158.37 346.41,-145.11"/>
<polygon fill="black" stroke="black" points="349.91,-145.1 346.41,-135.1 342.91,-145.1 349.91,-145.1"/>
<text text-anchor="middle" x="432.91" y="-156.85" font-family="Times,serif" font-size="14.00">Delivers to one instance</text>
</g>
<!-- instance_A -->
<g id="node3" class="node">
<title>instance_A</title>
<polygon fill="lightblue" stroke="lightblue" points="218.73,-31.03 164.07,-62.08 54.75,-62.08 0.09,-31.03 54.75,0.03 164.07,0.03 218.73,-31.03"/>
<text text-anchor="middle" x="109.41" y="-34.83" font-family="Times,serif" font-size="14.00">Order Processor</text>
<text text-anchor="middle" x="109.41" y="-19.83" font-family="Times,serif" font-size="14.00">Instance A</text>
</g>
<!-- consumer_group&#45;&gt;instance_A -->
<g id="edge1" class="edge">
<title>consumer_group&#45;&gt;instance_A</title>
<path fill="none" stroke="black" d="M298.45,-99.05C266.04,-87.56 222.57,-72.15 185.49,-59"/>
<polygon fill="black" stroke="black" points="186.3,-55.58 175.71,-55.53 183.96,-62.17 186.3,-55.58"/>
</g>
<!-- instance_B -->
<g id="node4" class="node">
<title>instance_B</title>
<polygon fill="lightblue" stroke="lightblue" points="455.73,-31.03 401.07,-62.08 291.75,-62.08 237.09,-31.03 291.75,0.03 401.07,0.03 455.73,-31.03"/>
<text text-anchor="middle" x="346.41" y="-34.83" font-family="Times,serif" font-size="14.00">Order Processor</text>
<text text-anchor="middle" x="346.41" y="-19.83" font-family="Times,serif" font-size="14.00">Instance B</text>
</g>
<!-- consumer_group&#45;&gt;instance_B -->
<g id="edge2" class="edge">
<title>consumer_group&#45;&gt;instance_B</title>
<path fill="none" stroke="black" d="M346.41,-99.05C346.41,-91.3 346.41,-81.77 346.41,-72.35"/>
<polygon fill="black" stroke="black" points="349.91,-72.27 346.41,-62.27 342.91,-72.27 349.91,-72.27"/>
</g>
<!-- instance_C -->
<g id="node5" class="node">
<title>instance_C</title>
<polygon fill="lightblue" stroke="lightblue" points="692.73,-31.03 638.07,-62.08 528.75,-62.08 474.09,-31.03 528.75,0.03 638.07,0.03 692.73,-31.03"/>
<text text-anchor="middle" x="583.41" y="-34.83" font-family="Times,serif" font-size="14.00">Order Processor</text>
<text text-anchor="middle" x="583.41" y="-19.83" font-family="Times,serif" font-size="14.00">Instance C</text>
</g>
<!-- consumer_group&#45;&gt;instance_C -->
<g id="edge3" class="edge">
<title>consumer_group&#45;&gt;instance_C</title>
<path fill="none" stroke="black" d="M394.37,-99.05C426.78,-87.56 470.25,-72.15 507.34,-59"/>
<polygon fill="black" stroke="black" points="508.86,-62.17 517.11,-55.53 506.52,-55.58 508.86,-62.17"/>
</g>
</g>
</svg>
