<?xml version="1.0" encoding="UTF-8" standalone="no"?>
<!DOCTYPE svg PUBLIC "-//W3C//DTD SVG 1.1//EN"
 "http://www.w3.org/Graphics/SVG/1.1/DTD/svg11.dtd">
<!-- Generated by graphviz version 2.43.0 (0)
 -->
<!-- Title: TopicModel Pages: 1 -->
<svg width="737pt" height="262pt"
 viewBox="0.00 0.00 736.93 262.05" xmlns="http://www.w3.org/2000/svg" xmlns:xlink="http://www.w3.org/1999/xlink">
<g id="graph0" class="graph" transform="scale(1 1) rotate(0) translate(4 258.05)">
<title>TopicModel</title>
<polygon fill="white" stroke="transparent" points="-4,4 -4,-258.05 732.93,-258.05 732.93,4 -4,4"/>
<text text-anchor="middle" x="364.47" y="-234.05" font-family="Times,serif" font-size="20.00">Topic Model</text>
<!-- topic -->
<g id="node1" class="node">
<title>topic</title>
<polygon fill="lightgrey" stroke="lightgrey" points="440.07,-224.05 437.07,-228.05 416.07,-228.05 413.07,-224.05 243.07,-224.05 243.07,-186.05 440.07,-186.05 440.07,-224.05"/>
<text text-anchor="middle" x="341.57" y="-208.85" font-family="Times,serif" font-size="14.00">Order Status Topic</text>
<text text-anchor="middle" x="341.57" y="-193.85" font-family="Times,serif" font-size="14.00">(Order Paid &lt;&lt;event&gt;&gt;)</text>
</g>
<!-- warehouse_group -->
<g id="node2" class="node">
<title>warehouse_group</title>
<polygon fill="none" stroke="black" stroke-dasharray="5,2" points="330.07,-135.05 109.07,-135.05 109.07,-99.05 330.07,-99.05 330.07,-135.05"/>
<text text-anchor="middle" x="219.57" y="-113.35" font-family="Times,serif" font-size="14.00">Warehouse Consumer Group</text>
</g>
<!-- topic&#45;&gt;warehouse_group -->
<g id="edge5" class="edge">
<title>topic&#45;&gt;warehouse_group</title>
<path fill="none" stroke="black" d="M315.99,-186.03C297.41,-172.92 272.11,-155.09 252.08,-140.98"/>
<polygon fill="black" stroke="black" points="254.05,-138.08 243.86,-135.18 250.02,-143.8 254.05,-138.08"/>
<text text-anchor="middle" x="350.57" y="-156.85" font-family="Times,serif" font-size="14.00">Broadcasts event</text>
</g>
<!-- notifications_group -->
<g id="node5" class="node">
<title>notifications_group</title>
<polygon fill="none" stroke="black" stroke-dasharray="5,2" points="581.07,-135.05 348.07,-135.05 348.07,-99.05 581.07,-99.05 581.07,-135.05"/>
<text text-anchor="middle" x="464.57" y="-113.35" font-family="Times,serif" font-size="14.00">Notifications Consumer Group</text>
</g>
<!-- topic&#45;&gt;notifications_group -->
<g id="edge6" class="edge">
<title>topic&#45;&gt;notifications_group</title>
<path fill="none" stroke="black" d="M385.9,-186.01C396.37,-180.89 407.21,-174.83 416.57,-168.05 426.42,-160.92 435.97,-151.63 443.93,-142.99"/>
<polygon fill="black" stroke="black" points="446.72,-145.12 450.75,-135.33 441.49,-140.47 446.72,-145.12"/>
<text text-anchor="middle" x="496.57" y="-156.85" font-family="Times,serif" font-size="14.00">Broadcasts event</text>
</g>
<!-- warehouse_A -->
<g id="node3" class="node">
<title>warehouse_A</title>
<polygon fill="lightblue" stroke="lightblue" points="155.2,-31.03 116.38,-62.08 38.75,-62.08 -0.07,-31.03 38.75,0.03 116.38,0.03 155.2,-31.03"/>
<text text-anchor="middle" x="77.57" y="-34.83" font-family="Times,serif" font-size="14.00">Warehouse</text>
<text text-anchor="middle" x="77.57" y="-19.83" font-family="Times,serif" font-size="14.00">Instance A</text>
</g>
<!-- warehouse_group&#45;&gt;warehouse_A -->
<g id="edge1" class="edge">
<title>warehouse_group&#45;&gt;warehouse_A</title>
<path fill="none" stroke="black" d="M190.83,-99.05C173.46,-88.77 150.78,-75.35 130.28,-63.22"/>
<polygon fill="black" stroke="black" points="132.04,-60.19 121.65,-58.11 128.47,-66.22 132.04,-60.19"/>
</g>
<!-- warehouse_B -->
<g id="node4" class="node">
<title>warehouse_B</title>
<polygon fill="lightblue" stroke="lightblue" points="328.2,-31.03 289.38,-62.08 211.75,-62.08 172.93,-31.03 211.75,0.03 289.38,0.03 328.2,-31.03"/>
<text text-anchor="middle" x="250.57" y="-34.83" font-family="Times,serif" font-size="14.00">Warehouse</text>
<text text-anchor="middle" x="250.57" y="-19.83" font-family="Times,serif" font-size="14.00">Instance B</text>
</g>
<!-- warehouse_group&#45;&gt;warehouse_B -->
<g id="edge2" class="edge">
<title>warehouse_group&#45;&gt;warehouse_B</title>
<path fill="none" stroke="black" d="M225.84,-99.05C228.76,-91.14 232.37,-81.36 235.91,-71.75"/>
<polygon fill="black" stroke="black" points="239.23,-72.86 239.41,-62.27 232.67,-70.44 239.23,-72.86"/>
</g>
<!-- notifications_A -->
<g id="node6" class="node">
<title>notifications_A</title>
<polygon fill="lightblue" stroke="lightblue" points="535.8,-31.03 492.18,-62.08 404.95,-62.08 361.34,-31.03 404.95,0.03 492.18,0.03 535.8,-31.03"/>
<text text-anchor="middle" x="448.57" y="-34.83" font-family="Times,serif" font-size="14.00">Notifications</text>
<text text-anchor="middle" x="448.57" y="-19.83" font-family="Times,serif" font-size="14.00">Instance A</text>
</g>
<!-- notifications_group&#45;&gt;notifications_A -->
<g id="edge3" class="edge">
<title>notifications_group&#45;&gt;notifications_A</title>
<path fill="none" stroke="black" d="M461.33,-99.05C459.85,-91.3 458.04,-81.77 456.25,-72.35"/>
<polygon fill="black" stroke="black" points="459.63,-71.43 454.33,-62.27 452.76,-72.74 459.63,-71.43"/>
</g>
<!-- notifications_B -->
<g id="node7" class="node">
<title>notifications_B</title>
<polygon fill="lightblue" stroke="lightblue" points="728.8,-31.03 685.18,-62.08 597.95,-62.08 554.34,-31.03 597.95,0.03 685.18,0.03 728.8,-31.03"/>
<text text-anchor="middle" x="641.57" y="-34.83" font-family="Times,serif" font-size="14.00">Notifications</text>
<text text-anchor="middle" x="641.57" y="-19.83" font-family="Times,serif" font-size="14.00">Instance B</text>
</g>
<!-- notifications_group&#45;&gt;notifications_B -->
<g id="edge4" class="edge">
<title>notifications_group&#45;&gt;notifications_B</title>
<path fill="none" stroke="black" d="M500.39,-99.05C523.43,-88.11 553.96,-73.62 580.74,-60.9"/>
<polygon fill="black" stroke="black" points="582.5,-63.94 590.03,-56.49 579.5,-57.62 582.5,-63.94"/>
</g>
</g>
</svg>
