<?xml version="1.0" encoding="UTF-8" standalone="no"?>
<!DOCTYPE svg PUBLIC "-//W3C//DTD SVG 1.1//EN"
 "http://www.w3.org/Graphics/SVG/1.1/DTD/svg11.dtd">
<!-- Generated by graphviz version 2.43.0 (0)
 -->
<!-- Title: MonolithicJoin Pages: 1 -->
<svg width="611pt" height="323pt"
 viewBox="0.00 0.00 611.00 323.00" xmlns="http://www.w3.org/2000/svg" xmlns:xlink="http://www.w3.org/1999/xlink">
<g id="graph0" class="graph" transform="scale(1 1) rotate(0) translate(4 319)">
<title>MonolithicJoin</title>
<polygon fill="white" stroke="transparent" points="-4,4 -4,-319 607,-319 607,4 -4,4"/>
<text text-anchor="middle" x="301.5" y="-299.8" font-family="Times,serif" font-size="14.00">A Join Operation in the Monolithic Database</text>
<g id="clust1" class="cluster">
<title>cluster_monolith</title>
<polygon fill="lightblue" stroke="lightblue" points="196,-209 196,-284 508,-284 508,-209 196,-209"/>
<text text-anchor="middle" x="352" y="-268.8" font-family="Times,serif" font-size="14.00">Monolith</text>
</g>
<g id="clust2" class="cluster">
<title>cluster_db</title>
<polygon fill="lightblue" stroke="lightblue" points="8,-8 8,-176 218,-176 218,-8 8,-8"/>
<text text-anchor="middle" x="113" y="-160.8" font-family="Times,serif" font-size="14.00">Monolithic Database</text>
</g>
<!-- Catalog -->
<g id="node1" class="node">
<title>Catalog</title>
<polygon fill="lightblue" stroke="black" points="500,-253 362,-253 362,-217 500,-217 500,-253"/>
<text text-anchor="middle" x="431" y="-231.3" font-family="Arial" font-size="14.00">Catalog functionality</text>
</g>
<!-- Albums -->
<g id="node3" class="node">
<title>Albums</title>
<polygon fill="lightblue" stroke="black" points="71.5,-16.5 71.5,-54.5 154.5,-54.5 154.5,-16.5 71.5,-16.5"/>
<text text-anchor="middle" x="113" y="-39.3" font-family="Arial" font-size="14.00">Albums</text>
<text text-anchor="middle" x="113" y="-24.3" font-family="Arial" font-size="14.00">(ID, Name)</text>
</g>
<!-- Catalog&#45;&gt;Albums -->
<g id="edge1" class="edge">
<title>Catalog&#45;&gt;Albums</title>
<path fill="none" stroke="black" d="M457.99,-216.81C468.83,-207.64 477.42,-195.82 471,-184 426.53,-102.06 380.3,-105.73 293,-73 251.24,-57.35 201.39,-47.9 164.75,-42.56"/>
<polygon fill="black" stroke="black" points="165.17,-39.08 154.78,-41.15 164.2,-46.01 165.17,-39.08"/>
<text text-anchor="middle" x="534" y="-121.8" font-family="Times,serif" font-size="14.00">Read album details</text>
</g>
<!-- Finance -->
<g id="node2" class="node">
<title>Finance</title>
<polygon fill="lightblue" stroke="black" points="344,-253 204,-253 204,-217 344,-217 344,-253"/>
<text text-anchor="middle" x="274" y="-231.3" font-family="Arial" font-size="14.00">Finance functionality</text>
</g>
<!-- Ledger -->
<g id="node4" class="node">
<title>Ledger</title>
<polygon fill="lightblue" stroke="black" points="52,-106.5 52,-144.5 170,-144.5 170,-106.5 52,-106.5"/>
<text text-anchor="middle" x="111" y="-129.3" font-family="Arial" font-size="14.00">Ledger</text>
<text text-anchor="middle" x="111" y="-114.3" font-family="Arial" font-size="14.00">(SKU, Date sold)</text>
</g>
<!-- Finance&#45;&gt;Ledger -->
<g id="edge2" class="edge">
<title>Finance&#45;&gt;Ledger</title>
<path fill="none" stroke="black" d="M203.98,-221.45C187.83,-216.32 171.45,-209.11 158,-199 142.51,-187.36 130.68,-169.01 122.77,-153.68"/>
<polygon fill="black" stroke="black" points="125.88,-152.07 118.35,-144.61 119.58,-155.13 125.88,-152.07"/>
<text text-anchor="middle" x="214.5" y="-187.8" font-family="Times,serif" font-size="14.00">Read sales data</text>
</g>
<!-- BestsellerReport -->
<g id="node5" class="node">
<title>BestsellerReport</title>
<polygon fill="lightblue" stroke="black" points="342,-143.5 226,-143.5 226,-107.5 342,-107.5 342,-143.5"/>
<text text-anchor="middle" x="284" y="-121.8" font-family="Arial" font-size="14.00">BestsellerReport</text>
</g>
<!-- Finance&#45;&gt;BestsellerReport -->
<g id="edge4" class="edge">
<title>Finance&#45;&gt;BestsellerReport</title>
<path fill="none" stroke="black" d="M273.77,-216.84C273.79,-207.18 274.04,-194.9 275,-184 275.87,-174.05 277.41,-163.22 278.98,-153.66"/>
<polygon fill="white" stroke="black" points="282.47,-153.98 280.71,-143.53 275.57,-152.8 282.47,-153.98"/>
<text text-anchor="middle" x="373" y="-187.8" font-family="Times,serif" font-size="14.00">Generate Bestseller Report</text>
</g>
<!-- Ledger&#45;&gt;Albums -->
<g id="edge3" class="edge">
<title>Ledger&#45;&gt;Albums</title>
<path fill="none" stroke="black" d="M111.41,-106.27C111.69,-94.35 112.04,-78.54 112.35,-64.98"/>
<polygon fill="black" stroke="black" points="115.86,-64.79 112.59,-54.71 108.86,-64.63 115.86,-64.79"/>
<text text-anchor="middle" x="201" y="-76.8" font-family="Times,serif" font-size="14.00">Join: Fetch album names</text>
</g>
</g>
</svg>
