<?xml version="1.0" encoding="UTF-8" standalone="no"?>
<!DOCTYPE svg PUBLIC "-//W3C//DTD SVG 1.1//EN"
 "http://www.w3.org/Graphics/SVG/1.1/DTD/svg11.dtd">
<!-- Generated by graphviz version 2.43.0 (0)
 -->
<!-- Title: ReportingDatabasePattern Pages: 1 -->
<svg width="524pt" height="209pt"
 viewBox="0.00 0.00 524.00 209.00" xmlns="http://www.w3.org/2000/svg" xmlns:xlink="http://www.w3.org/1999/xlink">
<g id="graph0" class="graph" transform="scale(1 1) rotate(0) translate(4 205)">
<title>ReportingDatabasePattern</title>
<polygon fill="white" stroke="transparent" points="-4,4 -4,-205 520,-205 520,4 -4,4"/>
<text text-anchor="middle" x="258" y="-185.8" font-family="Times,serif" font-size="14.00">An Overview of the Reporting Database Pattern</text>
<g id="clust1" class="cluster">
<title>cluster_microservice</title>
<polygon fill="none" stroke="gray" stroke-dasharray="5,2" points="8,-8 8,-170 186,-170 186,-8 8,-8"/>
<text text-anchor="middle" x="97" y="-154.8" font-family="Times,serif" font-size="14.00">Microservice</text>
</g>
<!-- InternalDB -->
<g id="node1" class="node">
<title>InternalDB</title>
<path fill="lightblue" stroke="black" d="M100,-48.73C100,-50.53 81.17,-52 58,-52 34.83,-52 16,-50.53 16,-48.73 16,-48.73 16,-19.27 16,-19.27 16,-17.47 34.83,-16 58,-16 81.17,-16 100,-17.47 100,-19.27 100,-19.27 100,-48.73 100,-48.73"/>
<path fill="none" stroke="black" d="M100,-48.73C100,-46.92 81.17,-45.45 58,-45.45 34.83,-45.45 16,-46.92 16,-48.73"/>
<text text-anchor="middle" x="58" y="-30.3" font-family="Arial" font-size="14.00">Internal DB</text>
</g>
<!-- Microservice -->
<g id="node2" class="node">
<title>Microservice</title>
<polygon fill="lightblue" stroke="black" points="166.59,-121 131.8,-139 62.2,-139 27.41,-121 62.2,-103 131.8,-103 166.59,-121"/>
<text text-anchor="middle" x="97" y="-117.3" font-family="Arial" font-size="14.00">Microservice</text>
</g>
<!-- Microservice&#45;&gt;InternalDB -->
<g id="edge1" class="edge">
<title>Microservice&#45;&gt;InternalDB</title>
<path fill="none" stroke="black" d="M89.11,-102.8C83.66,-90.93 76.32,-74.93 70.14,-61.45"/>
<polygon fill="black" stroke="black" points="65.88,-52.18 74.14,-59.39 67.97,-56.72 70.05,-61.26 70.05,-61.26 70.05,-61.26 67.97,-56.72 65.96,-63.14 65.88,-52.18 65.88,-52.18"/>
<text text-anchor="middle" x="152" y="-73.8" font-family="Times,serif" font-size="14.00">Stores internal data</text>
</g>
<!-- ReportingDB -->
<g id="node3" class="node">
<title>ReportingDB</title>
<path fill="lightblue" stroke="black" d="M328,-48.73C328,-50.53 297.97,-52 261,-52 224.03,-52 194,-50.53 194,-48.73 194,-48.73 194,-19.27 194,-19.27 194,-17.47 224.03,-16 261,-16 297.97,-16 328,-17.47 328,-19.27 328,-19.27 328,-48.73 328,-48.73"/>
<path fill="none" stroke="black" d="M328,-48.73C328,-46.92 297.97,-45.45 261,-45.45 224.03,-45.45 194,-46.92 194,-48.73"/>
<text text-anchor="middle" x="261" y="-30.3" font-family="Arial" font-size="14.00">Reporting database</text>
</g>
<!-- Microservice&#45;&gt;ReportingDB -->
<g id="edge2" class="edge">
<title>Microservice&#45;&gt;ReportingDB</title>
<path fill="none" stroke="black" d="M153.43,-114.06C178.11,-109.27 206.32,-100.62 228,-85 236.52,-78.86 243.45,-69.79 248.72,-61.06"/>
<polygon fill="black" stroke="black" points="253.61,-52.21 252.71,-63.14 251.19,-56.59 248.77,-60.96 248.77,-60.96 248.77,-60.96 251.19,-56.59 244.83,-58.79 253.61,-52.21 253.61,-52.21"/>
<text text-anchor="middle" x="378.5" y="-73.8" font-family="Times,serif" font-size="14.00">Populates external reporting database</text>
</g>
</g>
</svg>
