<?xml version="1.0" encoding="UTF-8" standalone="no"?>
<!DOCTYPE svg PUBLIC "-//W3C//DTD SVG 1.1//EN"
 "http://www.w3.org/Graphics/SVG/1.1/DTD/svg11.dtd">
<!-- Generated by graphviz version 2.43.0 (0)
 -->
<!-- Title: ServiceCallJoin Pages: 1 -->
<svg width="498pt" height="305pt"
 viewBox="0.00 0.00 498.00 305.00" xmlns="http://www.w3.org/2000/svg" xmlns:xlink="http://www.w3.org/1999/xlink">
<g id="graph0" class="graph" transform="scale(1 1) rotate(0) translate(4 301)">
<title>ServiceCallJoin</title>
<polygon fill="white" stroke="transparent" points="-4,4 -4,-301 494,-301 494,4 -4,4"/>
<text text-anchor="middle" x="245" y="-281.8" font-family="Times,serif" font-size="14.00">Replacing a Database Join Operation with Service Calls</text>
<g id="clust1" class="cluster">
<title>cluster_catalog_db</title>
<polygon fill="lightblue" stroke="lightblue" points="8,-8 8,-86 151,-86 151,-8 8,-8"/>
<text text-anchor="middle" x="79.5" y="-70.8" font-family="Times,serif" font-size="14.00">Catalog Database</text>
</g>
<g id="clust2" class="cluster">
<title>cluster_finance_db</title>
<polygon fill="lightblue" stroke="lightblue" points="311,-119 311,-197 455,-197 455,-119 311,-119"/>
<text text-anchor="middle" x="383" y="-181.8" font-family="Times,serif" font-size="14.00">Finance Database</text>
</g>
<!-- Catalog -->
<g id="node1" class="node">
<title>Catalog</title>
<polygon fill="lightblue" stroke="black" points="126.06,-146.5 102.53,-164.5 55.47,-164.5 31.94,-146.5 55.47,-128.5 102.53,-128.5 126.06,-146.5"/>
<text text-anchor="middle" x="79" y="-142.8" font-family="Arial" font-size="14.00">Catalog</text>
</g>
<!-- Albums -->
<g id="node4" class="node">
<title>Albums</title>
<polygon fill="lightblue" stroke="black" points="37.5,-16.5 37.5,-54.5 120.5,-54.5 120.5,-16.5 37.5,-16.5"/>
<text text-anchor="middle" x="79" y="-39.3" font-family="Arial" font-size="14.00">Albums</text>
<text text-anchor="middle" x="79" y="-24.3" font-family="Arial" font-size="14.00">(ID, Name)</text>
</g>
<!-- Catalog&#45;&gt;Albums -->
<g id="edge3" class="edge">
<title>Catalog&#45;&gt;Albums</title>
<path fill="none" stroke="black" d="M79,-128.47C79,-111.52 79,-85.19 79,-65.04"/>
<polygon fill="black" stroke="black" points="82.5,-64.87 79,-54.87 75.5,-64.87 82.5,-64.87"/>
<text text-anchor="middle" x="151.5" y="-97.8" font-family="Times,serif" font-size="14.00">Query album details</text>
</g>
<!-- Finance -->
<g id="node2" class="node">
<title>Finance</title>
<polygon fill="lightblue" stroke="black" points="290.56,-256 266.28,-274 217.72,-274 193.44,-256 217.72,-238 266.28,-238 290.56,-256"/>
<text text-anchor="middle" x="242" y="-252.3" font-family="Arial" font-size="14.00">Finance</text>
</g>
<!-- Finance&#45;&gt;Catalog -->
<g id="edge2" class="edge">
<title>Finance&#45;&gt;Catalog</title>
<path fill="none" stroke="black" d="M201.58,-249.85C164.28,-244.3 112.55,-234.29 98,-220 86.01,-208.22 81.28,-189.87 79.54,-174.57"/>
<polygon fill="black" stroke="black" points="83.03,-174.29 78.76,-164.59 76.05,-174.84 83.03,-174.29"/>
<text text-anchor="middle" x="168" y="-208.8" font-family="Times,serif" font-size="14.00">Fetch album names</text>
</g>
<!-- BestsellerReport -->
<g id="node3" class="node">
<title>BestsellerReport</title>
<polygon fill="white" stroke="black" points="293.5,-164.5 184.5,-164.5 184.5,-128.5 299.5,-128.5 299.5,-158.5 293.5,-164.5"/>
<polyline fill="none" stroke="black" points="293.5,-164.5 293.5,-158.5 "/>
<polyline fill="none" stroke="black" points="299.5,-158.5 293.5,-158.5 "/>
<text text-anchor="middle" x="242" y="-142.8" font-family="Arial" font-size="14.00">Bestseller report</text>
</g>
<!-- Finance&#45;&gt;BestsellerReport -->
<g id="edge4" class="edge">
<title>Finance&#45;&gt;BestsellerReport</title>
<path fill="none" stroke="black" d="M242,-237.73C242,-220.8 242,-194.74 242,-174.97"/>
<polygon fill="black" stroke="black" points="245.5,-174.73 242,-164.73 238.5,-174.73 245.5,-174.73"/>
<text text-anchor="middle" x="300" y="-208.8" font-family="Times,serif" font-size="14.00">Generate report</text>
</g>
<!-- Ledger -->
<g id="node5" class="node">
<title>Ledger</title>
<polygon fill="lightblue" stroke="black" points="322,-127.5 322,-165.5 440,-165.5 440,-127.5 322,-127.5"/>
<text text-anchor="middle" x="381" y="-150.3" font-family="Arial" font-size="14.00">Ledger</text>
<text text-anchor="middle" x="381" y="-135.3" font-family="Arial" font-size="14.00">(SKU, Date sold)</text>
</g>
<!-- Finance&#45;&gt;Ledger -->
<g id="edge1" class="edge">
<title>Finance&#45;&gt;Ledger</title>
<path fill="none" stroke="black" d="M285.22,-252C309.84,-248.11 339.55,-239.38 359,-220 370.62,-208.42 376.14,-190.92 378.75,-176.01"/>
<polygon fill="black" stroke="black" points="382.27,-176.12 380.17,-165.73 375.33,-175.16 382.27,-176.12"/>
<text text-anchor="middle" x="429.5" y="-208.8" font-family="Times,serif" font-size="14.00">Query sales data</text>
</g>
</g>
</svg>
