<?xml version="1.0" encoding="UTF-8" standalone="no"?>
<!DOCTYPE svg PUBLIC "-//W3C//DTD SVG 1.1//EN"
 "http://www.w3.org/Graphics/SVG/1.1/DTD/svg11.dtd">
<!-- Generated by graphviz version 2.43.0 (0)
 -->
<!-- Title: StranglerFigPattern Pages: 1 -->
<svg width="588pt" height="158pt"
 viewBox="0.00 0.00 587.50 158.00" xmlns="http://www.w3.org/2000/svg" xmlns:xlink="http://www.w3.org/1999/xlink">
<g id="graph0" class="graph" transform="scale(1 1) rotate(0) translate(4 154)">
<title>StranglerFigPattern</title>
<polygon fill="white" stroke="transparent" points="-4,4 -4,-154 583.5,-154 583.5,4 -4,4"/>
<text text-anchor="middle" x="289.75" y="-134.8" font-family="Times,serif" font-size="14.00">An Overview of the Strangler Fig Pattern</text>
<!-- InterceptionLayer -->
<g id="node1" class="node">
<title>InterceptionLayer</title>
<polygon fill="lightblue" stroke="black" points="383,-127 108,-127 108,-89 383,-89 383,-127"/>
<text text-anchor="middle" x="245.5" y="-111.8" font-family="Arial" font-size="14.00">Interception layer</text>
<text text-anchor="middle" x="245.5" y="-96.8" font-family="Arial" font-size="14.00">(Intercepts all calls and diverts accordingly)</text>
</g>
<!-- Monolith -->
<g id="node2" class="node">
<title>Monolith</title>
<polygon fill="lightblue" stroke="black" points="247,-38 0,-38 0,0 247,0 247,-38"/>
<text text-anchor="middle" x="123.5" y="-22.8" font-family="Arial" font-size="14.00">Monolith</text>
<text text-anchor="middle" x="123.5" y="-7.8" font-family="Arial" font-size="14.00">(Calls to functionality not yet migrated)</text>
</g>
<!-- InterceptionLayer&#45;&gt;Monolith -->
<g id="edge1" class="edge">
<title>InterceptionLayer&#45;&gt;Monolith</title>
<path fill="none" stroke="black" d="M152.85,-88.9C144.41,-84.22 136.71,-78.35 130.5,-71 125.28,-64.83 122.88,-56.66 121.95,-48.67"/>
<polygon fill="black" stroke="black" points="121.47,-38.45 126.43,-48.23 121.7,-43.45 121.94,-48.44 121.94,-48.44 121.94,-48.44 121.7,-43.45 117.44,-48.66 121.47,-38.45 121.47,-38.45"/>
<text text-anchor="middle" x="238.5" y="-59.8" font-family="Times,serif" font-size="14.00">Calls continue to the monolith</text>
</g>
<!-- Microservices -->
<g id="node3" class="node">
<title>Microservices</title>
<polygon fill="lightblue" stroke="black" points="472,-38 265,-38 265,0 472,0 472,-38"/>
<text text-anchor="middle" x="368.5" y="-22.8" font-family="Arial" font-size="14.00">Microservices</text>
<text text-anchor="middle" x="368.5" y="-7.8" font-family="Arial" font-size="14.00">(Calls for migrated functionality)</text>
</g>
<!-- InterceptionLayer&#45;&gt;Microservices -->
<g id="edge2" class="edge">
<title>InterceptionLayer&#45;&gt;Microservices</title>
<path fill="none" stroke="black" d="M319.16,-88.96C329.13,-84.27 338.62,-78.38 346.5,-71 353.18,-64.74 357.92,-56.12 361.26,-47.74"/>
<polygon fill="black" stroke="black" points="364.55,-38.18 365.55,-49.1 362.92,-42.91 361.3,-47.63 361.3,-47.63 361.3,-47.63 362.92,-42.91 357.04,-46.17 364.55,-38.18 364.55,-38.18"/>
<text text-anchor="middle" x="468" y="-59.8" font-family="Times,serif" font-size="14.00">Calls diverted to microservices</text>
</g>
</g>
</svg>
