<?xml version="1.0" encoding="UTF-8" standalone="no"?>
<!DOCTYPE svg PUBLIC "-//W3C//DTD SVG 1.1//EN"
 "http://www.w3.org/Graphics/SVG/1.1/DTD/svg11.dtd">
<!-- Generated by graphviz version 2.43.0 (0)
 -->
<!-- Title: WishlistDecompositionMicroservice Pages: 1 -->
<svg width="349pt" height="329pt"
 viewBox="0.00 0.00 349.07 329.05" xmlns="http://www.w3.org/2000/svg" xmlns:xlink="http://www.w3.org/1999/xlink">
<g id="graph0" class="graph" transform="scale(1 1) rotate(0) translate(4 325.05)">
<title>WishlistDecompositionMicroservice</title>
<polygon fill="white" stroke="transparent" points="-4,4 -4,-325.05 345.07,-325.05 345.07,4 -4,4"/>
<text text-anchor="middle" x="170.54" y="-305.85" font-family="Times,serif" font-size="14.00">Moving Wishlist Code to a Microservice</text>
<g id="clust1" class="cluster">
<title>cluster_monolith</title>
<polygon fill="lightblue" stroke="lightblue" points="8,-215.05 8,-290.05 164,-290.05 164,-215.05 8,-215.05"/>
<text text-anchor="middle" x="86" y="-274.85" font-family="Times,serif" font-size="14.00">Monolith</text>
</g>
<g id="clust2" class="cluster">
<title>cluster_db</title>
<polygon fill="lightblue" stroke="lightblue" points="17,-8 17,-83 127,-83 127,-8 17,-8"/>
<text text-anchor="middle" x="72" y="-67.8" font-family="Times,serif" font-size="14.00">Monolith DB</text>
</g>
<!-- MonolithWishlist -->
<g id="node1" class="node">
<title>MonolithWishlist</title>
<polygon fill="lightblue" stroke="black" points="155.5,-259.05 16.5,-259.05 16.5,-223.05 155.5,-223.05 155.5,-259.05"/>
<text text-anchor="middle" x="86" y="-237.35" font-family="Arial" font-size="14.00">Wishlist functionality</text>
</g>
<!-- WishlistData -->
<g id="node2" class="node">
<title>WishlistData</title>
<polygon fill="lightblue" stroke="black" points="119,-52 25,-52 25,-16 119,-16 119,-52"/>
<text text-anchor="middle" x="72" y="-30.3" font-family="Arial" font-size="14.00">Wishlist data</text>
</g>
<!-- MonolithWishlist&#45;&gt;WishlistData -->
<g id="edge2" class="edge">
<title>MonolithWishlist&#45;&gt;WishlistData</title>
<path fill="none" stroke="black" d="M73.17,-222.94C64.16,-209.79 52.87,-190.77 48,-172.05 38.13,-134.16 50.38,-89.31 60.7,-61.5"/>
<polygon fill="black" stroke="black" points="64.37,-52.07 64.93,-63.02 62.55,-56.73 60.74,-61.39 60.74,-61.39 60.74,-61.39 62.55,-56.73 56.55,-59.76 64.37,-52.07 64.37,-52.07"/>
</g>
<!-- WishlistService -->
<g id="node3" class="node">
<title>WishlistService</title>
<polygon fill="lightblue" stroke="black" points="341.14,-141.03 270.07,-172.08 127.93,-172.08 56.86,-141.03 127.93,-109.97 270.07,-109.97 341.14,-141.03"/>
<text text-anchor="middle" x="199" y="-144.83" font-family="Arial" font-size="14.00">Wishlist functionality</text>
<text text-anchor="middle" x="199" y="-129.83" font-family="Arial" font-size="14.00">(migrated to microservice)</text>
</g>
<!-- MonolithWishlist&#45;&gt;WishlistService -->
<g id="edge1" class="edge">
<title>MonolithWishlist&#45;&gt;WishlistService</title>
<path fill="none" stroke="black" stroke-dasharray="1,5" d="M105.68,-222.98C119.61,-210.9 138.83,-194.23 156.2,-179.15"/>
<polygon fill="black" stroke="black" points="164.03,-172.36 159.42,-182.32 160.25,-175.64 156.48,-178.92 156.48,-178.92 156.48,-178.92 160.25,-175.64 153.53,-175.52 164.03,-172.36 164.03,-172.36"/>
<text text-anchor="middle" x="228" y="-193.85" font-family="Times,serif" font-size="14.00">Migrated from monolith</text>
</g>
<!-- WishlistService&#45;&gt;WishlistData -->
<g id="edge3" class="edge">
<title>WishlistService&#45;&gt;WishlistData</title>
<path fill="none" stroke="black" d="M162.61,-109.93C142.9,-93.64 118.91,-73.79 100.57,-58.62"/>
<polygon fill="black" stroke="black" points="92.57,-52.01 103.15,-54.92 96.42,-55.2 100.28,-58.39 100.28,-58.39 100.28,-58.39 96.42,-55.2 97.41,-61.85 92.57,-52.01 92.57,-52.01"/>
</g>
</g>
</svg>
