<?xml version="1.0" encoding="UTF-8" standalone="no"?>
<!DOCTYPE svg PUBLIC "-//W3C//DTD SVG 1.1//EN"
 "http://www.w3.org/Graphics/SVG/1.1/DTD/svg11.dtd">
<!-- Generated by graphviz version 2.43.0 (0)
 -->
<!-- Title: WishlistDecomposition Pages: 1 -->
<svg width="377pt" height="205pt"
 viewBox="0.00 0.00 377.00 205.00" xmlns="http://www.w3.org/2000/svg" xmlns:xlink="http://www.w3.org/1999/xlink">
<g id="graph0" class="graph" transform="scale(1 1) rotate(0) translate(4 201)">
<title>WishlistDecomposition</title>
<polygon fill="white" stroke="transparent" points="-4,4 -4,-201 373,-201 373,4 -4,4"/>
<text text-anchor="middle" x="184.5" y="-181.8" font-family="Times,serif" font-size="14.00">Wishlist Functionality in a Monolithic Application</text>
<g id="clust1" class="cluster">
<title>cluster_monolith</title>
<polygon fill="lightblue" stroke="lightblue" points="106.5,-91 106.5,-166 262.5,-166 262.5,-91 106.5,-91"/>
<text text-anchor="middle" x="184.5" y="-150.8" font-family="Times,serif" font-size="14.00">Monolith</text>
</g>
<g id="clust2" class="cluster">
<title>cluster_db</title>
<polygon fill="lightblue" stroke="lightblue" points="129.5,-8 129.5,-83 239.5,-83 239.5,-8 129.5,-8"/>
<text text-anchor="middle" x="184.5" y="-67.8" font-family="Times,serif" font-size="14.00">Monolith DB</text>
</g>
<!-- WishlistFunctionality -->
<g id="node1" class="node">
<title>WishlistFunctionality</title>
<polygon fill="lightblue" stroke="black" points="254,-135 115,-135 115,-99 254,-99 254,-135"/>
<text text-anchor="middle" x="184.5" y="-113.3" font-family="Arial" font-size="14.00">Wishlist functionality</text>
</g>
<!-- WishlistData -->
<g id="node2" class="node">
<title>WishlistData</title>
<polygon fill="lightblue" stroke="black" points="231.5,-52 137.5,-52 137.5,-16 231.5,-16 231.5,-52"/>
<text text-anchor="middle" x="184.5" y="-30.3" font-family="Arial" font-size="14.00">Wishlist data</text>
</g>
<!-- WishlistFunctionality&#45;&gt;WishlistData -->
<g id="edge1" class="edge">
<title>WishlistFunctionality&#45;&gt;WishlistData</title>
<path fill="none" stroke="black" d="M184.5,-98.82C184.5,-88.19 184.5,-74.31 184.5,-62.2"/>
<polygon fill="black" stroke="black" points="184.5,-52.15 189,-62.15 184.5,-57.15 184.5,-62.15 184.5,-62.15 184.5,-62.15 184.5,-57.15 180,-62.15 184.5,-52.15 184.5,-52.15"/>
</g>
</g>
</svg>
