<?xml version="1.0" encoding="UTF-8" standalone="no"?>
<!DOCTYPE svg PUBLIC "-//W3C//DTD SVG 1.1//EN"
 "http://www.w3.org/Graphics/SVG/1.1/DTD/svg11.dtd">
<!-- Generated by graphviz version 2.43.0 (0)
 -->
<!-- Title: WishlistDataDecomposition Pages: 1 -->
<svg width="340pt" height="310pt"
 viewBox="0.00 0.00 340.00 310.00" xmlns="http://www.w3.org/2000/svg" xmlns:xlink="http://www.w3.org/1999/xlink">
<g id="graph0" class="graph" transform="scale(1 1) rotate(0) translate(4 306)">
<title>WishlistDataDecomposition</title>
<polygon fill="white" stroke="transparent" points="-4,4 -4,-306 336,-306 336,4 -4,4"/>
<text text-anchor="middle" x="166" y="-286.8" font-family="Times,serif" font-size="14.00">Extracting Wishlist Data to a New Database</text>
<g id="clust1" class="cluster">
<title>cluster_monolith</title>
<polygon fill="lightblue" stroke="lightblue" points="76,-196 76,-271 232,-271 232,-196 76,-196"/>
<text text-anchor="middle" x="154" y="-255.8" font-family="Times,serif" font-size="14.00">Monolith</text>
</g>
<g id="clust2" class="cluster">
<title>cluster_monolith_db</title>
<polygon fill="lightblue" stroke="lightblue" points="37,-102 37,-177 144,-177 144,-102 37,-102"/>
<text text-anchor="middle" x="90.5" y="-161.8" font-family="Times,serif" font-size="14.00">Monolith DB</text>
</g>
<g id="clust3" class="cluster">
<title>cluster_wishlist_db</title>
<polygon fill="lightblue" stroke="lightblue" points="104,-8 104,-83 214,-83 214,-8 104,-8"/>
<text text-anchor="middle" x="159" y="-67.8" font-family="Times,serif" font-size="14.00">Wishlist DB</text>
</g>
<!-- WishlistFunctionality -->
<g id="node1" class="node">
<title>WishlistFunctionality</title>
<polygon fill="lightblue" stroke="black" points="223.5,-240 84.5,-240 84.5,-204 223.5,-204 223.5,-240"/>
<text text-anchor="middle" x="154" y="-218.3" font-family="Arial" font-size="14.00">Wishlist functionality</text>
</g>
<!-- OtherData -->
<g id="node2" class="node">
<title>OtherData</title>
<polygon fill="lightblue" stroke="black" points="134.5,-146 53.5,-146 53.5,-110 134.5,-110 134.5,-146"/>
<text text-anchor="middle" x="94" y="-124.3" font-family="Arial" font-size="14.00">Other data</text>
</g>
<!-- WishlistFunctionality&#45;&gt;OtherData -->
<g id="edge1" class="edge">
<title>WishlistFunctionality&#45;&gt;OtherData</title>
<path fill="none" stroke="black" d="M142.71,-203.7C133.75,-189.95 121.07,-170.5 110.89,-154.9"/>
<polygon fill="black" stroke="black" points="105.23,-146.23 114.47,-152.14 107.97,-150.41 110.7,-154.6 110.7,-154.6 110.7,-154.6 107.97,-150.41 106.93,-157.06 105.23,-146.23 105.23,-146.23"/>
</g>
<!-- WishlistData -->
<g id="node3" class="node">
<title>WishlistData</title>
<polygon fill="lightblue" stroke="black" points="206,-52 112,-52 112,-16 206,-16 206,-52"/>
<text text-anchor="middle" x="159" y="-30.3" font-family="Arial" font-size="14.00">Wishlist data</text>
</g>
<!-- WishlistFunctionality&#45;&gt;WishlistData -->
<g id="edge2" class="edge">
<title>WishlistFunctionality&#45;&gt;WishlistData</title>
<path fill="none" stroke="black" stroke-dasharray="1,5" d="M154.46,-203.83C155.33,-171.45 157.22,-101.09 158.27,-62.2"/>
<polygon fill="black" stroke="black" points="158.54,-52.12 162.77,-62.24 158.41,-57.12 158.27,-62.12 158.27,-62.12 158.27,-62.12 158.41,-57.12 153.77,-62 158.54,-52.12 158.54,-52.12"/>
<text text-anchor="middle" x="230" y="-131.8" font-family="Times,serif" font-size="14.00">Wishlist data moved</text>
<text text-anchor="middle" x="230" y="-116.8" font-family="Times,serif" font-size="14.00">from monolith DB</text>
</g>
<!-- OtherData&#45;&gt;WishlistData -->
<g id="edge3" class="edge">
<title>OtherData&#45;&gt;WishlistData</title>
<path fill="none" stroke="black" stroke-dasharray="1,5" d="M106.23,-109.7C116.03,-95.82 129.94,-76.14 141.01,-60.46"/>
<polygon fill="black" stroke="black" points="146.83,-52.23 144.73,-62.99 143.94,-56.31 141.06,-60.39 141.06,-60.39 141.06,-60.39 143.94,-56.31 137.38,-57.8 146.83,-52.23 146.83,-52.23"/>
</g>
</g>
</svg>
