<?xml version="1.0" encoding="UTF-8" standalone="no"?>
<!DOCTYPE svg PUBLIC "-//W3C//DTD SVG 1.1//EN"
 "http://www.w3.org/Graphics/SVG/1.1/DTD/svg11.dtd">
<!-- Generated by graphviz version 2.43.0 (0)
 -->
<!-- Title: ApplicationContainer Pages: 1 -->
<svg width="433pt" height="322pt"
 viewBox="0.00 0.00 433.00 322.00" xmlns="http://www.w3.org/2000/svg" xmlns:xlink="http://www.w3.org/1999/xlink">
<g id="graph0" class="graph" transform="scale(1 1) rotate(0) translate(4 318)">
<title>ApplicationContainer</title>
<polygon fill="white" stroke="transparent" points="-4,4 -4,-318 429,-318 429,4 -4,4"/>
<text text-anchor="middle" x="212.5" y="-297.2" font-family="Times,serif" font-size="16.00">Multiple Microservices per Application Container</text>
<g id="clust1" class="cluster">
<title>cluster_host</title>
<polygon fill="none" stroke="#000000" points="130.21,-8 130.21,-280 294.79,-280 294.79,-8 130.21,-8"/>
<text text-anchor="middle" x="212.5" y="-266.4" font-family="Times,serif" font-size="12.00">Host</text>
</g>
<g id="clust2" class="cluster">
<title>cluster_app_container</title>
<polygon fill="#fde9e9" stroke="#f5c6c6" points="138.21,-16 138.21,-251 286.79,-251 286.79,-16 138.21,-16"/>
<text text-anchor="middle" x="212.5" y="-237.4" font-family="Times,serif" font-size="12.00">Application Container</text>
</g>
<!-- instance1 -->
<g id="node1" class="node">
<title>instance1</title>
<polygon fill="#a7c7e7" stroke="black" points="269.58,-204 240.79,-222 183.21,-222 154.42,-204 183.21,-186 240.79,-186 269.58,-204"/>
<text text-anchor="middle" x="212" y="-200.3" font-family="Times,serif" font-size="14.00">Instance</text>
</g>
<!-- instance2 -->
<g id="node2" class="node">
<title>instance2</title>
<polygon fill="#a7c7e7" stroke="black" points="269.58,-150 240.79,-168 183.21,-168 154.42,-150 183.21,-132 240.79,-132 269.58,-150"/>
<text text-anchor="middle" x="212" y="-146.3" font-family="Times,serif" font-size="14.00">Instance</text>
</g>
<!-- instance3 -->
<g id="node3" class="node">
<title>instance3</title>
<polygon fill="#a7c7e7" stroke="black" points="269.58,-96 240.79,-114 183.21,-114 154.42,-96 183.21,-78 240.79,-78 269.58,-96"/>
<text text-anchor="middle" x="212" y="-92.3" font-family="Times,serif" font-size="14.00">Instance</text>
</g>
<!-- instance4 -->
<g id="node4" class="node">
<title>instance4</title>
<polygon fill="#a7c7e7" stroke="black" points="269.58,-42 240.79,-60 183.21,-60 154.42,-42 183.21,-24 240.79,-24 269.58,-42"/>
<text text-anchor="middle" x="212" y="-38.3" font-family="Times,serif" font-size="14.00">Instance</text>
</g>
</g>
</svg>
