<?xml version="1.0" encoding="UTF-8" standalone="no"?>
<!DOCTYPE svg PUBLIC "-//W3C//DTD SVG 1.1//EN"
 "http://www.w3.org/Graphics/SVG/1.1/DTD/svg11.dtd">
<!-- Generated by graphviz version 2.43.0 (0)
 -->
<!-- Title: ContainerVirtualization Pages: 1 -->
<svg width="551pt" height="284pt"
 viewBox="0.00 0.00 551.00 284.00" xmlns="http://www.w3.org/2000/svg" xmlns:xlink="http://www.w3.org/1999/xlink">
<g id="graph0" class="graph" transform="scale(1 1) rotate(0) translate(4 280)">
<title>ContainerVirtualization</title>
<polygon fill="white" stroke="transparent" points="-4,4 -4,-280 547,-280 547,4 -4,4"/>
<text text-anchor="middle" x="271.5" y="-260.8" font-family="Times,serif" font-size="14.00">Container&#45;Based Virtualization</text>
<!-- Container1 -->
<g id="node1" class="node">
<title>Container1</title>
<polygon fill="lightblue" stroke="black" points="0,-216.5 0,-252.5 169,-252.5 169,-216.5 0,-216.5"/>
<text text-anchor="middle" x="22" y="-230.8" font-family="Times,serif" font-size="14.00">App</text>
<polyline fill="none" stroke="black" points="44,-216.5 44,-252.5 "/>
<text text-anchor="middle" x="63" y="-230.8" font-family="Times,serif" font-size="14.00">OS</text>
<polyline fill="none" stroke="black" points="82,-216.5 82,-252.5 "/>
<text text-anchor="middle" x="125.5" y="-230.8" font-family="Times,serif" font-size="14.00">Container</text>
</g>
<!-- HostOS -->
<g id="node4" class="node">
<title>HostOS</title>
<polygon fill="pink" stroke="black" points="364,-180 179,-180 179,-144 364,-144 364,-180"/>
<text text-anchor="middle" x="271.5" y="-158.3" font-family="Times,serif" font-size="14.00">Host Operating System</text>
</g>
<!-- Container1&#45;&gt;HostOS -->
<g id="edge1" class="edge">
<title>Container1&#45;&gt;HostOS</title>
<path fill="none" stroke="black" d="M129.77,-216.43C155.97,-206.56 189.13,-194.05 216.79,-183.62"/>
<polygon fill="black" stroke="black" points="218.2,-186.83 226.33,-180.03 215.73,-180.28 218.2,-186.83"/>
</g>
<!-- Container2 -->
<g id="node2" class="node">
<title>Container2</title>
<polygon fill="lightblue" stroke="black" points="187,-216.5 187,-252.5 356,-252.5 356,-216.5 187,-216.5"/>
<text text-anchor="middle" x="209" y="-230.8" font-family="Times,serif" font-size="14.00">App</text>
<polyline fill="none" stroke="black" points="231,-216.5 231,-252.5 "/>
<text text-anchor="middle" x="250" y="-230.8" font-family="Times,serif" font-size="14.00">OS</text>
<polyline fill="none" stroke="black" points="269,-216.5 269,-252.5 "/>
<text text-anchor="middle" x="312.5" y="-230.8" font-family="Times,serif" font-size="14.00">Container</text>
</g>
<!-- Container2&#45;&gt;HostOS -->
<g id="edge2" class="edge">
<title>Container2&#45;&gt;HostOS</title>
<path fill="none" stroke="black" d="M271.5,-216.43C271.5,-208.67 271.5,-199.28 271.5,-190.56"/>
<polygon fill="black" stroke="black" points="275,-190.4 271.5,-180.4 268,-190.4 275,-190.4"/>
</g>
<!-- Container3 -->
<g id="node3" class="node">
<title>Container3</title>
<polygon fill="lightblue" stroke="black" points="374,-216.5 374,-252.5 543,-252.5 543,-216.5 374,-216.5"/>
<text text-anchor="middle" x="396" y="-230.8" font-family="Times,serif" font-size="14.00">App</text>
<polyline fill="none" stroke="black" points="418,-216.5 418,-252.5 "/>
<text text-anchor="middle" x="437" y="-230.8" font-family="Times,serif" font-size="14.00">OS</text>
<polyline fill="none" stroke="black" points="456,-216.5 456,-252.5 "/>
<text text-anchor="middle" x="499.5" y="-230.8" font-family="Times,serif" font-size="14.00">Container</text>
</g>
<!-- Container3&#45;&gt;HostOS -->
<g id="edge3" class="edge">
<title>Container3&#45;&gt;HostOS</title>
<path fill="none" stroke="black" d="M413.23,-216.43C387.03,-206.56 353.87,-194.05 326.21,-183.62"/>
<polygon fill="black" stroke="black" points="327.27,-180.28 316.67,-180.03 324.8,-186.83 327.27,-180.28"/>
</g>
<!-- Kernel -->
<g id="node5" class="node">
<title>Kernel</title>
<polygon fill="pink" stroke="black" points="303,-108 240,-108 240,-72 303,-72 303,-108"/>
<text text-anchor="middle" x="271.5" y="-86.3" font-family="Times,serif" font-size="14.00">Kernel</text>
</g>
<!-- HostOS&#45;&gt;Kernel -->
<g id="edge4" class="edge">
<title>HostOS&#45;&gt;Kernel</title>
<path fill="none" stroke="black" d="M271.5,-143.7C271.5,-135.98 271.5,-126.71 271.5,-118.11"/>
<polygon fill="black" stroke="black" points="275,-118.1 271.5,-108.1 268,-118.1 275,-118.1"/>
</g>
<!-- Machine -->
<g id="node6" class="node">
<title>Machine</title>
<polygon fill="pink" stroke="black" points="310,-36 233,-36 233,0 310,0 310,-36"/>
<text text-anchor="middle" x="271.5" y="-14.3" font-family="Times,serif" font-size="14.00">Machine</text>
</g>
<!-- Kernel&#45;&gt;Machine -->
<g id="edge5" class="edge">
<title>Kernel&#45;&gt;Machine</title>
<path fill="none" stroke="black" d="M271.5,-71.7C271.5,-63.98 271.5,-54.71 271.5,-46.11"/>
<polygon fill="black" stroke="black" points="275,-46.1 271.5,-36.1 268,-46.1 275,-46.1"/>
</g>
</g>
</svg>
