<?xml version="1.0" encoding="UTF-8" standalone="no"?>
<!DOCTYPE svg PUBLIC "-//W3C//DTD SVG 1.1//EN"
 "http://www.w3.org/Graphics/SVG/1.1/DTD/svg11.dtd">
<!-- Generated by graphviz version 2.43.0 (0)
 -->
<!-- Title: DedicatedInfra Pages: 1 -->
<svg width="474pt" height="158pt"
 viewBox="0.00 0.00 474.00 158.00" xmlns="http://www.w3.org/2000/svg" xmlns:xlink="http://www.w3.org/1999/xlink">
<g id="graph0" class="graph" transform="scale(1 1) rotate(0) translate(4 154)">
<title>DedicatedInfra</title>
<polygon fill="white" stroke="transparent" points="-4,4 -4,-154 470,-154 470,4 -4,4"/>
<text text-anchor="middle" x="233" y="-134.8" font-family="Times,serif" font-size="14.00">Dedicated database infrastructure for each microservice</text>
<g id="clust1" class="cluster">
<title>cluster_InvoiceInfra</title>
<polygon fill="none" stroke="lightpink" points="8,-8 8,-83 229,-83 229,-8 8,-8"/>
<text text-anchor="middle" x="118.5" y="-67.8" font-family="Times,serif" font-size="14.00">Dedicated DB Infrastructure</text>
</g>
<g id="clust2" class="cluster">
<title>cluster_OrderInfra</title>
<polygon fill="none" stroke="lightpink" points="237,-8 237,-83 458,-83 458,-8 237,-8"/>
<text text-anchor="middle" x="347.5" y="-67.8" font-family="Times,serif" font-size="14.00">Dedicated DB Infrastructure</text>
</g>
<!-- Invoice -->
<g id="node1" class="node">
<title>Invoice</title>
<polygon fill="lightblue" stroke="lightblue" points="158.19,-109 138.6,-127 99.4,-127 79.81,-109 99.4,-91 138.6,-91 158.19,-109"/>
<text text-anchor="middle" x="119" y="-105.9" font-family="Arial" font-size="12.00">Invoice</text>
</g>
<!-- InvoiceDB -->
<g id="node3" class="node">
<title>InvoiceDB</title>
<path fill="lightblue" stroke="lightblue" d="M172.5,-48.73C172.5,-50.53 148.52,-52 119,-52 89.48,-52 65.5,-50.53 65.5,-48.73 65.5,-48.73 65.5,-19.27 65.5,-19.27 65.5,-17.47 89.48,-16 119,-16 148.52,-16 172.5,-17.47 172.5,-19.27 172.5,-19.27 172.5,-48.73 172.5,-48.73"/>
<path fill="none" stroke="lightblue" d="M172.5,-48.73C172.5,-46.92 148.52,-45.45 119,-45.45 89.48,-45.45 65.5,-46.92 65.5,-48.73"/>
<text text-anchor="middle" x="119" y="-30.9" font-family="Arial" font-size="12.00">Invoice database</text>
</g>
<!-- Invoice&#45;&gt;InvoiceDB -->
<g id="edge1" class="edge">
<title>Invoice&#45;&gt;InvoiceDB</title>
<path fill="none" stroke="black" stroke-width="1.5" d="M119,-90.7C119,-82.25 119,-71.87 119,-62.37"/>
<polygon fill="black" stroke="black" stroke-width="1.5" points="122.5,-62.18 119,-52.18 115.5,-62.18 122.5,-62.18"/>
</g>
<!-- Order -->
<g id="node2" class="node">
<title>Order</title>
<polygon fill="lightblue" stroke="lightblue" points="380.32,-109 363.66,-127 330.34,-127 313.68,-109 330.34,-91 363.66,-91 380.32,-109"/>
<text text-anchor="middle" x="347" y="-105.9" font-family="Arial" font-size="12.00">Order</text>
</g>
<!-- OrderDB -->
<g id="node4" class="node">
<title>OrderDB</title>
<path fill="lightblue" stroke="lightblue" d="M396.5,-48.73C396.5,-50.53 374.31,-52 347,-52 319.69,-52 297.5,-50.53 297.5,-48.73 297.5,-48.73 297.5,-19.27 297.5,-19.27 297.5,-17.47 319.69,-16 347,-16 374.31,-16 396.5,-17.47 396.5,-19.27 396.5,-19.27 396.5,-48.73 396.5,-48.73"/>
<path fill="none" stroke="lightblue" d="M396.5,-48.73C396.5,-46.92 374.31,-45.45 347,-45.45 319.69,-45.45 297.5,-46.92 297.5,-48.73"/>
<text text-anchor="middle" x="347" y="-30.9" font-family="Arial" font-size="12.00">Order database</text>
</g>
<!-- Order&#45;&gt;OrderDB -->
<g id="edge2" class="edge">
<title>Order&#45;&gt;OrderDB</title>
<path fill="none" stroke="black" stroke-width="1.5" d="M347,-90.7C347,-82.25 347,-71.87 347,-62.37"/>
<polygon fill="black" stroke="black" stroke-width="1.5" points="350.5,-62.18 347,-52.18 343.5,-62.18 350.5,-62.18"/>
</g>
</g>
</svg>
