<?xml version="1.0" encoding="UTF-8" standalone="no"?>
<!DOCTYPE svg PUBLIC "-//W3C//DTD SVG 1.1//EN"
 "http://www.w3.org/Graphics/SVG/1.1/DTD/svg11.dtd">
<!-- Generated by graphviz version 2.43.0 (0)
 -->
<!-- Title: DesiredStateRecovery Pages: 1 -->
<svg width="261pt" height="191pt"
 viewBox="0.00 0.00 261.00 191.00" xmlns="http://www.w3.org/2000/svg" xmlns:xlink="http://www.w3.org/1999/xlink">
<g id="graph0" class="graph" transform="scale(1 1) rotate(0) translate(4 187)">
<title>DesiredStateRecovery</title>
<polygon fill="white" stroke="transparent" points="-4,4 -4,-187 257,-187 257,4 -4,4"/>
<text text-anchor="middle" x="126.5" y="-167.8" font-family="Times,serif" font-size="14.00">Platform Launches New Instance</text>
<g id="clust1" class="cluster">
<title>cluster_Recovery</title>
<polygon fill="none" stroke="lightgray" points="9.5,-8 9.5,-83 243.5,-83 243.5,-8 9.5,-8"/>
<text text-anchor="middle" x="126.5" y="-67.8" font-family="Times,serif" font-size="14.00">Desired State: 3 Instances</text>
</g>
<!-- Platform -->
<g id="node1" class="node">
<title>Platform</title>
<polygon fill="lightblue" stroke="lightblue" points="94,-160 15,-160 15,-124 94,-124 94,-160"/>
<text text-anchor="middle" x="54.5" y="-138.3" font-family="Times,serif" font-size="14.00">Platform</text>
</g>
<!-- Instance3 -->
<g id="node4" class="node">
<title>Instance3</title>
<polygon fill="none" stroke="lightblue" stroke-dasharray="5,2" points="91.05,-34 72.77,-52 36.23,-52 17.95,-34 36.23,-16 72.77,-16 91.05,-34"/>
<text text-anchor="middle" x="54.5" y="-30.3" font-family="Times,serif" font-size="14.00">New</text>
</g>
<!-- Platform&#45;&gt;Instance3 -->
<g id="edge1" class="edge">
<title>Platform&#45;&gt;Instance3</title>
<path fill="none" stroke="black" stroke-dasharray="5,2" d="M54.5,-123.97C54.5,-107.38 54.5,-81.88 54.5,-62.43"/>
<polygon fill="black" stroke="black" points="58,-62.34 54.5,-52.34 51,-62.34 58,-62.34"/>
<text text-anchor="middle" x="139.5" y="-94.8" font-family="Times,serif" font-size="14.00">Launches New Instance</text>
</g>
<!-- Instance1 -->
<g id="node2" class="node">
<title>Instance1</title>
<polygon fill="lightblue" stroke="lightblue" points="235.5,-34 222,-52 195,-52 181.5,-34 195,-16 222,-16 235.5,-34"/>
</g>
<!-- Instance2 -->
<g id="node3" class="node">
<title>Instance2</title>
<polygon fill="lightblue" stroke="lightblue" points="163.5,-34 150,-52 123,-52 109.5,-34 123,-16 150,-16 163.5,-34"/>
</g>
</g>
</svg>
