<?xml version="1.0" encoding="UTF-8" standalone="no"?>
<!DOCTYPE svg PUBLIC "-//W3C//DTD SVG 1.1//EN"
 "http://www.w3.org/Graphics/SVG/1.1/DTD/svg11.dtd">
<!-- Generated by graphviz version 2.43.0 (0)
 -->
<!-- Title: DesiredStateMonitor Pages: 1 -->
<svg width="274pt" height="191pt"
 viewBox="0.00 0.00 274.00 191.00" xmlns="http://www.w3.org/2000/svg" xmlns:xlink="http://www.w3.org/1999/xlink">
<g id="graph0" class="graph" transform="scale(1 1) rotate(0) translate(4 187)">
<title>DesiredStateMonitor</title>
<polygon fill="white" stroke="transparent" points="-4,4 -4,-187 270,-187 270,4 -4,4"/>
<text text-anchor="middle" x="133" y="-167.8" font-family="Times,serif" font-size="14.00">Platform Monitoring Desired State</text>
<g id="clust2" class="cluster">
<title>cluster_Desired</title>
<polygon fill="none" stroke="lightgray" points="15,-8 15,-83 229,-83 229,-8 15,-8"/>
<text text-anchor="middle" x="122" y="-67.8" font-family="Times,serif" font-size="14.00">Desired State: 3 Instances</text>
</g>
<!-- Platform -->
<g id="node1" class="node">
<title>Platform</title>
<polygon fill="lightblue" stroke="lightblue" points="161.5,-160 82.5,-160 82.5,-124 161.5,-124 161.5,-160"/>
<text text-anchor="middle" x="122" y="-138.3" font-family="Times,serif" font-size="14.00">Platform</text>
</g>
<!-- Instance1 -->
<g id="node2" class="node">
<title>Instance1</title>
<polygon fill="lightblue" stroke="lightblue" points="77,-34 63.5,-52 36.5,-52 23,-34 36.5,-16 63.5,-16 77,-34"/>
</g>
<!-- Platform&#45;&gt;Instance1 -->
<g id="edge1" class="edge">
<title>Platform&#45;&gt;Instance1</title>
<path fill="none" stroke="black" stroke-dasharray="5,2" d="M82.29,-129.45C70.95,-124.16 59.83,-116.62 53,-106 44.81,-93.27 43.78,-76.43 44.93,-62.34"/>
<polygon fill="black" stroke="black" points="48.43,-62.57 46.15,-52.22 41.48,-61.73 48.43,-62.57"/>
<text text-anchor="middle" x="85.5" y="-94.8" font-family="Times,serif" font-size="14.00">Monitors</text>
</g>
<!-- Instance2 -->
<g id="node3" class="node">
<title>Instance2</title>
<polygon fill="lightblue" stroke="lightblue" points="149,-34 135.5,-52 108.5,-52 95,-34 108.5,-16 135.5,-16 149,-34"/>
</g>
<!-- Platform&#45;&gt;Instance2 -->
<g id="edge2" class="edge">
<title>Platform&#45;&gt;Instance2</title>
<path fill="none" stroke="black" stroke-dasharray="5,2" d="M122,-123.97C122,-107.38 122,-81.88 122,-62.43"/>
<polygon fill="black" stroke="black" points="125.5,-62.34 122,-52.34 118.5,-62.34 125.5,-62.34"/>
<text text-anchor="middle" x="154.5" y="-94.8" font-family="Times,serif" font-size="14.00">Monitors</text>
</g>
<!-- Instance3 -->
<g id="node4" class="node">
<title>Instance3</title>
<polygon fill="lightblue" stroke="lightblue" points="221,-34 207.5,-52 180.5,-52 167,-34 180.5,-16 207.5,-16 221,-34"/>
</g>
<!-- Platform&#45;&gt;Instance3 -->
<g id="edge3" class="edge">
<title>Platform&#45;&gt;Instance3</title>
<path fill="none" stroke="black" stroke-dasharray="5,2" d="M161.84,-127.87C171.94,-122.64 181.71,-115.52 188,-106 196.37,-93.33 198.09,-76.5 197.62,-62.4"/>
<polygon fill="black" stroke="black" points="201.1,-61.99 196.9,-52.26 194.12,-62.48 201.1,-61.99"/>
<text text-anchor="middle" x="226.5" y="-94.8" font-family="Times,serif" font-size="14.00">Monitors</text>
</g>
</g>
</svg>
