<?xml version="1.0" encoding="UTF-8" standalone="no"?>
<!DOCTYPE svg PUBLIC "-//W3C//DTD SVG 1.1//EN"
 "http://www.w3.org/Graphics/SVG/1.1/DTD/svg11.dtd">
<!-- Generated by graphviz version 2.43.0 (0)
 -->
<!-- Title: DesiredStateIssue Pages: 1 -->
<svg width="238pt" height="191pt"
 viewBox="0.00 0.00 238.00 191.00" xmlns="http://www.w3.org/2000/svg" xmlns:xlink="http://www.w3.org/1999/xlink">
<g id="graph0" class="graph" transform="scale(1 1) rotate(0) translate(4 187)">
<title>DesiredStateIssue</title>
<polygon fill="white" stroke="transparent" points="-4,4 -4,-187 234,-187 234,4 -4,4"/>
<text text-anchor="middle" x="115" y="-167.8" font-family="Times,serif" font-size="14.00">Platform Detects an Issue</text>
<g id="clust1" class="cluster">
<title>cluster_Current</title>
<polygon fill="none" stroke="lightgray" points="8,-8 8,-83 222,-83 222,-8 8,-8"/>
<text text-anchor="middle" x="115" y="-67.8" font-family="Times,serif" font-size="14.00">Current State: 2 Instances</text>
</g>
<!-- Platform -->
<g id="node1" class="node">
<title>Platform</title>
<polygon fill="lightblue" stroke="lightblue" points="82.5,-160 3.5,-160 3.5,-124 82.5,-124 82.5,-160"/>
<text text-anchor="middle" x="43" y="-138.3" font-family="Times,serif" font-size="14.00">Platform</text>
</g>
<!-- Instance3 -->
<g id="node4" class="node">
<title>Instance3</title>
<polygon fill="red" stroke="red" points="70,-34 56.5,-52 29.5,-52 16,-34 29.5,-16 56.5,-16 70,-34"/>
<text text-anchor="middle" x="43" y="-30.3" font-family="Times,serif" font-size="14.00" fill="red">X</text>
</g>
<!-- Platform&#45;&gt;Instance3 -->
<g id="edge1" class="edge">
<title>Platform&#45;&gt;Instance3</title>
<path fill="none" stroke="black" stroke-dasharray="5,2" d="M43,-123.97C43,-107.38 43,-81.88 43,-62.43"/>
<polygon fill="black" stroke="black" points="46.5,-62.34 43,-52.34 39.5,-62.34 46.5,-62.34"/>
<text text-anchor="middle" x="91.5" y="-94.8" font-family="Times,serif" font-size="14.00">Detects Issue</text>
</g>
<!-- Instance1 -->
<g id="node2" class="node">
<title>Instance1</title>
<polygon fill="lightblue" stroke="lightblue" points="214,-34 200.5,-52 173.5,-52 160,-34 173.5,-16 200.5,-16 214,-34"/>
</g>
<!-- Instance2 -->
<g id="node3" class="node">
<title>Instance2</title>
<polygon fill="lightblue" stroke="lightblue" points="142,-34 128.5,-52 101.5,-52 88,-34 101.5,-16 128.5,-16 142,-34"/>
</g>
</g>
</svg>
