<?xml version="1.0" encoding="UTF-8" standalone="no"?>
<!DOCTYPE svg PUBLIC "-//W3C//DTD SVG 1.1//EN"
 "http://www.w3.org/Graphics/SVG/1.1/DTD/svg11.dtd">
<!-- Generated by graphviz version 2.43.0 (0)
 -->
<!-- Title: DistributedInstances Pages: 1 -->
<svg width="515pt" height="339pt"
 viewBox="0.00 0.00 515.00 339.00" xmlns="http://www.w3.org/2000/svg" xmlns:xlink="http://www.w3.org/1999/xlink">
<g id="graph0" class="graph" transform="scale(1 1) rotate(0) translate(4 335)">
<title>DistributedInstances</title>
<polygon fill="white" stroke="transparent" points="-4,4 -4,-335 511,-335 511,4 -4,4"/>
<text text-anchor="middle" x="253.5" y="-315.8" font-family="Times,serif" font-size="14.00">Distributing Instances Across Data Centers</text>
<g id="clust1" class="cluster">
<title>cluster_DC1</title>
<polygon fill="none" stroke="lightcoral" points="161,-186 161,-300 499,-300 499,-186 161,-186"/>
<text text-anchor="middle" x="330" y="-284.8" font-family="Times,serif" font-size="14.00">DC 1</text>
</g>
<g id="clust2" class="cluster">
<title>cluster_InvoiceService_DC1</title>
<polygon fill="none" stroke="lightcoral" points="329,-194 329,-269 491,-269 491,-194 329,-194"/>
<text text-anchor="middle" x="410" y="-253.8" font-family="Times,serif" font-size="14.00">Invoice service</text>
</g>
<g id="clust3" class="cluster">
<title>cluster_OrderService_DC1</title>
<polygon fill="none" stroke="lightcoral" points="169,-194 169,-269 321,-269 321,-194 169,-194"/>
<text text-anchor="middle" x="245" y="-253.8" font-family="Times,serif" font-size="14.00">Order service</text>
</g>
<g id="clust4" class="cluster">
<title>cluster_DC2</title>
<polygon fill="none" stroke="lightgreen" points="8,-8 8,-122 499,-122 499,-8 8,-8"/>
<text text-anchor="middle" x="253.5" y="-106.8" font-family="Times,serif" font-size="14.00">DC 2</text>
</g>
<g id="clust5" class="cluster">
<title>cluster_InvoiceService_DC2</title>
<polygon fill="none" stroke="lightgreen" points="329,-16 329,-91 491,-91 491,-16 329,-16"/>
<text text-anchor="middle" x="410" y="-75.8" font-family="Times,serif" font-size="14.00">Invoice service</text>
</g>
<g id="clust6" class="cluster">
<title>cluster_OrderService_DC2</title>
<polygon fill="none" stroke="lightgreen" points="16,-16 16,-91 321,-91 321,-16 16,-16"/>
<text text-anchor="middle" x="168.5" y="-75.8" font-family="Times,serif" font-size="14.00">Order service</text>
</g>
<!-- Invoice1_DC1 -->
<g id="node1" class="node">
<title>Invoice1_DC1</title>
<polygon fill="lightblue" stroke="lightblue" points="483.43,-220 446.71,-238 373.29,-238 336.57,-220 373.29,-202 446.71,-202 483.43,-220"/>
<text text-anchor="middle" x="410" y="-216.9" font-family="Arial" font-size="12.00">Invoice instance</text>
</g>
<!-- LoadBalancer -->
<g id="node6" class="node">
<title>LoadBalancer</title>
<polygon fill="lightblue" stroke="lightblue" points="291.5,-166 198.5,-166 198.5,-130 291.5,-130 291.5,-166"/>
<text text-anchor="middle" x="245" y="-144.9" font-family="Arial" font-size="12.00">Load balancer</text>
</g>
<!-- Invoice1_DC1&#45;&gt;LoadBalancer -->
<g id="edge1" class="edge">
<title>Invoice1_DC1&#45;&gt;LoadBalancer</title>
<path fill="none" stroke="black" stroke-width="1.5" d="M371.31,-202.59C348.44,-192.88 319.24,-180.5 294.68,-170.08"/>
<polygon fill="black" stroke="black" stroke-width="1.5" points="295.74,-166.72 285.17,-166.04 293,-173.17 295.74,-166.72"/>
</g>
<!-- Order1_DC1 -->
<g id="node2" class="node">
<title>Order1_DC1</title>
<polygon fill="lightblue" stroke="lightblue" points="312.56,-220 278.78,-238 211.22,-238 177.44,-220 211.22,-202 278.78,-202 312.56,-220"/>
<text text-anchor="middle" x="245" y="-216.9" font-family="Arial" font-size="12.00">Order instance</text>
</g>
<!-- Invoice2_DC2 -->
<g id="node3" class="node">
<title>Invoice2_DC2</title>
<polygon fill="lightblue" stroke="lightblue" points="483.43,-42 446.71,-60 373.29,-60 336.57,-42 373.29,-24 446.71,-24 483.43,-42"/>
<text text-anchor="middle" x="410" y="-38.9" font-family="Arial" font-size="12.00">Invoice instance</text>
</g>
<!-- Invoice2_DC2&#45;&gt;LoadBalancer -->
<g id="edge2" class="edge">
<title>Invoice2_DC2&#45;&gt;LoadBalancer</title>
<path fill="none" stroke="black" stroke-width="1.5" d="M395.74,-60.18C380.1,-78 353.4,-105.52 325,-122 317.67,-126.25 309.54,-129.86 301.35,-132.91"/>
<polygon fill="black" stroke="black" stroke-width="1.5" points="300.06,-129.65 291.75,-136.22 302.34,-136.26 300.06,-129.65"/>
</g>
<!-- Order2_DC2 -->
<g id="node4" class="node">
<title>Order2_DC2</title>
<polygon fill="lightblue" stroke="lightblue" points="312.56,-42 278.78,-60 211.22,-60 177.44,-42 211.22,-24 278.78,-24 312.56,-42"/>
<text text-anchor="middle" x="245" y="-38.9" font-family="Arial" font-size="12.00">Order instance</text>
</g>
<!-- Order3_DC2 -->
<g id="node5" class="node">
<title>Order3_DC2</title>
<polygon fill="lightblue" stroke="lightblue" points="159.56,-42 125.78,-60 58.22,-60 24.44,-42 58.22,-24 125.78,-24 159.56,-42"/>
<text text-anchor="middle" x="92" y="-38.9" font-family="Arial" font-size="12.00">Order instance</text>
</g>
<!-- LoadBalancer&#45;&gt;Order1_DC1 -->
<g id="edge3" class="edge">
<title>LoadBalancer&#45;&gt;Order1_DC1</title>
<path fill="none" stroke="black" stroke-width="1.5" d="M245,-166.1C245,-173.79 245,-183.05 245,-191.67"/>
<polygon fill="black" stroke="black" stroke-width="1.5" points="241.5,-191.7 245,-201.7 248.5,-191.7 241.5,-191.7"/>
</g>
<!-- LoadBalancer&#45;&gt;Order2_DC2 -->
<g id="edge4" class="edge">
<title>LoadBalancer&#45;&gt;Order2_DC2</title>
<path fill="none" stroke="black" stroke-width="1.5" d="M245,-129.83C245,-113.64 245,-89.13 245,-70.27"/>
<polygon fill="black" stroke="black" stroke-width="1.5" points="248.5,-70.2 245,-60.2 241.5,-70.2 248.5,-70.2"/>
</g>
<!-- LoadBalancer&#45;&gt;Order3_DC2 -->
<g id="edge5" class="edge">
<title>LoadBalancer&#45;&gt;Order3_DC2</title>
<path fill="none" stroke="black" stroke-width="1.5" d="M198.16,-135.85C187.79,-132.29 177.17,-127.74 168,-122 145.4,-107.85 124.78,-85.54 110.74,-68.22"/>
<polygon fill="black" stroke="black" stroke-width="1.5" points="113.34,-65.87 104.39,-60.19 107.84,-70.2 113.34,-65.87"/>
</g>
</g>
</svg>
