<?xml version="1.0" encoding="UTF-8" standalone="no"?>
<!DOCTYPE svg PUBLIC "-//W3C//DTD SVG 1.1//EN"
 "http://www.w3.org/Graphics/SVG/1.1/DTD/svg11.dtd">
<!-- Generated by graphviz version 2.43.0 (0)
 -->
<!-- Title: EnvironmentsPipeline Pages: 1 -->
<svg width="1295pt" height="122pt"
 viewBox="0.00 0.00 1295.00 122.00" xmlns="http://www.w3.org/2000/svg" xmlns:xlink="http://www.w3.org/1999/xlink">
<g id="graph0" class="graph" transform="scale(1 1) rotate(0) translate(4 118)">
<title>EnvironmentsPipeline</title>
<polygon fill="white" stroke="transparent" points="-4,4 -4,-118 1291,-118 1291,4 -4,4"/>
<text text-anchor="middle" x="643.5" y="-98.8" font-family="Times,serif" font-size="14.00">Different environments used for different parts of the pipeline</text>
<g id="clust1" class="cluster">
<title>cluster_LocalDev</title>
<polygon fill="none" stroke="gray" points="0,-8 0,-83 246,-83 246,-8 0,-8"/>
<text text-anchor="middle" x="123" y="-67.8" font-family="Times,serif" font-size="14.00">Local development environment</text>
</g>
<g id="clust2" class="cluster">
<title>cluster_CI</title>
<polygon fill="none" stroke="gray" points="583,-8 583,-83 841,-83 841,-8 583,-8"/>
<text text-anchor="middle" x="712" y="-67.8" font-family="Times,serif" font-size="14.00">CI environment</text>
</g>
<g id="clust3" class="cluster">
<title>cluster_Preprod</title>
<polygon fill="none" stroke="gray" points="862,-8 862,-83 1076,-83 1076,-8 862,-8"/>
<text text-anchor="middle" x="969" y="-67.8" font-family="Times,serif" font-size="14.00">Preproduction environment</text>
</g>
<g id="clust4" class="cluster">
<title>cluster_Prod</title>
<polygon fill="none" stroke="gray" points="1097,-8 1097,-83 1287,-83 1287,-8 1097,-8"/>
<text text-anchor="middle" x="1192" y="-67.8" font-family="Times,serif" font-size="14.00">Production environment</text>
</g>
<!-- LocalDev -->
<g id="node1" class="node">
<title>LocalDev</title>
<polygon fill="lightblue" stroke="lightblue" points="182,-52 64,-52 64,-16 182,-16 182,-52"/>
<text text-anchor="middle" x="123" y="-30.9" font-family="Arial" font-size="12.00">Local development</text>
</g>
<!-- SourceControl -->
<g id="node2" class="node">
<title>SourceControl</title>
<polygon fill="none" stroke="lightblue" stroke-dasharray="5,2" points="554,-52 460,-52 460,-16 554,-16 554,-52"/>
<text text-anchor="middle" x="507" y="-30.9" font-family="Arial" font-size="12.00">Source control</text>
</g>
<!-- LocalDev&#45;&gt;SourceControl -->
<g id="edge1" class="edge">
<title>LocalDev&#45;&gt;SourceControl</title>
<path fill="none" stroke="black" stroke-width="1.5" d="M182.02,-34C254.53,-34 377.8,-34 449.57,-34"/>
<polygon fill="black" stroke="black" stroke-width="1.5" points="449.77,-37.5 459.77,-34 449.77,-30.5 449.77,-37.5"/>
<text text-anchor="middle" x="349" y="-37.8" font-family="Times,serif" font-size="14.00">Check&#45;in triggers pipeline</text>
</g>
<!-- CompileFastTests -->
<g id="node3" class="node">
<title>CompileFastTests</title>
<polygon fill="lightblue" stroke="lightblue" points="725,-52 591,-52 591,-16 725,-16 725,-52"/>
<text text-anchor="middle" x="658" y="-30.9" font-family="Arial" font-size="12.00">Compile and fast tests</text>
</g>
<!-- SourceControl&#45;&gt;CompileFastTests -->
<g id="edge2" class="edge">
<title>SourceControl&#45;&gt;CompileFastTests</title>
<path fill="none" stroke="black" stroke-width="1.5" d="M554.33,-34C562.71,-34 571.64,-34 580.62,-34"/>
<polygon fill="black" stroke="black" stroke-width="1.5" points="580.74,-37.5 590.74,-34 580.74,-30.5 580.74,-37.5"/>
</g>
<!-- SlowTests -->
<g id="node4" class="node">
<title>SlowTests</title>
<polygon fill="lightblue" stroke="lightblue" points="833,-52 762,-52 762,-16 833,-16 833,-52"/>
<text text-anchor="middle" x="797.5" y="-30.9" font-family="Arial" font-size="12.00">Slow tests</text>
</g>
<!-- CompileFastTests&#45;&gt;SlowTests -->
<g id="edge3" class="edge">
<title>CompileFastTests&#45;&gt;SlowTests</title>
<path fill="none" stroke="black" stroke-width="1.5" d="M725.33,-34C734.32,-34 743.36,-34 751.83,-34"/>
<polygon fill="black" stroke="black" stroke-width="1.5" points="751.86,-37.5 761.86,-34 751.86,-30.5 751.86,-37.5"/>
</g>
<!-- Preprod -->
<g id="node5" class="node">
<title>Preprod</title>
<polygon fill="lightblue" stroke="lightblue" points="1015,-52 923,-52 923,-16 1015,-16 1015,-52"/>
<text text-anchor="middle" x="969" y="-30.9" font-family="Arial" font-size="12.00">Preproduction</text>
</g>
<!-- SlowTests&#45;&gt;Preprod -->
<g id="edge4" class="edge">
<title>SlowTests&#45;&gt;Preprod</title>
<path fill="none" stroke="black" stroke-width="1.5" d="M833.21,-34C856.04,-34 886.42,-34 912.55,-34"/>
<polygon fill="black" stroke="black" stroke-width="1.5" points="912.71,-37.5 922.71,-34 912.71,-30.5 912.71,-37.5"/>
</g>
<!-- Prod -->
<g id="node6" class="node">
<title>Prod</title>
<polygon fill="lightblue" stroke="lightblue" points="1229,-52 1155,-52 1155,-16 1229,-16 1229,-52"/>
<text text-anchor="middle" x="1192" y="-30.9" font-family="Arial" font-size="12.00">Production</text>
</g>
<!-- Preprod&#45;&gt;Prod -->
<g id="edge5" class="edge">
<title>Preprod&#45;&gt;Prod</title>
<path fill="none" stroke="black" stroke-width="1.5" d="M1015.26,-34C1053,-34 1106.57,-34 1144.63,-34"/>
<polygon fill="black" stroke="black" stroke-width="1.5" points="1144.92,-37.5 1154.92,-34 1144.92,-30.5 1144.92,-37.5"/>
</g>
</g>
</svg>
