<?xml version="1.0" encoding="UTF-8" standalone="no"?>
<!DOCTYPE svg PUBLIC "-//W3C//DTD SVG 1.1//EN"
 "http://www.w3.org/Graphics/SVG/1.1/DTD/svg11.dtd">
<!-- Generated by graphviz version 2.43.0 (0)
 -->
<!-- Title: FaaSSharedDatabase Pages: 1 -->
<svg width="416pt" height="175pt"
 viewBox="0.00 0.00 416.00 175.00" xmlns="http://www.w3.org/2000/svg" xmlns:xlink="http://www.w3.org/1999/xlink">
<g id="graph0" class="graph" transform="scale(1 1) rotate(0) translate(4 171)">
<title>FaaSSharedDatabase</title>
<polygon fill="white" stroke="transparent" points="-4,4 -4,-171 412,-171 412,4 -4,4"/>
<text text-anchor="middle" x="204" y="-151.8" font-family="Times,serif" font-size="14.00">Functions Using a Shared Database: Expenses Service</text>
<!-- receipts -->
<g id="node1" class="node">
<title>receipts</title>
<polygon fill="lightblue" stroke="lightblue" points="228.13,-126 179.31,-144 81.69,-144 32.87,-126 81.69,-108 179.31,-108 228.13,-126"/>
<text text-anchor="middle" x="130.5" y="-122.3" font-family="Times,serif" font-size="14.00">def receipts(...):</text>
</g>
<!-- expenses_db -->
<g id="node4" class="node">
<title>expenses_db</title>
<path fill="lightblue" stroke="lightblue" d="M375.06,-86.73C375.06,-88.53 350.19,-90 319.56,-90 288.94,-90 264.06,-88.53 264.06,-86.73 264.06,-86.73 264.06,-57.27 264.06,-57.27 264.06,-55.47 288.94,-54 319.56,-54 350.19,-54 375.06,-55.47 375.06,-57.27 375.06,-57.27 375.06,-86.73 375.06,-86.73"/>
<path fill="none" stroke="lightblue" d="M375.06,-86.73C375.06,-84.92 350.19,-83.45 319.56,-83.45 288.94,-83.45 264.06,-84.92 264.06,-86.73"/>
<text text-anchor="middle" x="319.56" y="-68.3" font-family="Times,serif" font-size="14.00">Expenses DB</text>
</g>
<!-- receipts&#45;&gt;expenses_db -->
<g id="edge1" class="edge">
<title>receipts&#45;&gt;expenses_db</title>
<path fill="none" stroke="black" d="M186.95,-110.67C200.42,-106.9 214.77,-102.84 228.06,-99 236.53,-96.55 245.44,-93.94 254.22,-91.35"/>
<polygon fill="black" stroke="black" points="255.46,-94.63 264.05,-88.43 253.47,-87.92 255.46,-94.63"/>
</g>
<!-- claim -->
<g id="node2" class="node">
<title>claim</title>
<polygon fill="lightblue" stroke="lightblue" points="213.11,-72 171.8,-90 89.2,-90 47.89,-72 89.2,-54 171.8,-54 213.11,-72"/>
<text text-anchor="middle" x="130.5" y="-68.3" font-family="Times,serif" font-size="14.00">def claim(...):</text>
</g>
<!-- claim&#45;&gt;expenses_db -->
<g id="edge2" class="edge">
<title>claim&#45;&gt;expenses_db</title>
<path fill="none" stroke="black" d="M213.28,-72C226.77,-72 240.6,-72 253.62,-72"/>
<polygon fill="black" stroke="black" points="253.86,-75.5 263.86,-72 253.86,-68.5 253.86,-75.5"/>
</g>
<!-- report -->
<g id="node3" class="node">
<title>report</title>
<polygon fill="lightblue" stroke="lightblue" points="218.11,-18 174.31,-36 86.69,-36 42.89,-18 86.69,0 174.31,0 218.11,-18"/>
<text text-anchor="middle" x="130.5" y="-14.3" font-family="Times,serif" font-size="14.00">def report(...):</text>
</g>
<!-- report&#45;&gt;expenses_db -->
<g id="edge3" class="edge">
<title>report&#45;&gt;expenses_db</title>
<path fill="none" stroke="black" d="M183.41,-32.34C197.88,-36.38 213.6,-40.82 228.06,-45 236.53,-47.45 245.44,-50.06 254.22,-52.65"/>
<polygon fill="black" stroke="black" points="253.47,-56.08 264.05,-55.57 255.46,-49.37 253.47,-56.08"/>
</g>
</g>
</svg>
