<?xml version="1.0" encoding="UTF-8" standalone="no"?>
<!DOCTYPE svg PUBLIC "-//W3C//DTD SVG 1.1//EN"
 "http://www.w3.org/Graphics/SVG/1.1/DTD/svg11.dtd">
<!-- Generated by graphviz version 2.43.0 (0)
 -->
<!-- Title: IsolationTradeoffs Pages: 1 -->
<svg width="655pt" height="67pt"
 viewBox="0.00 0.00 655.00 67.00" xmlns="http://www.w3.org/2000/svg" xmlns:xlink="http://www.w3.org/1999/xlink">
<g id="graph0" class="graph" transform="scale(1 1) rotate(0) translate(4 63)">
<title>IsolationTradeoffs</title>
<polygon fill="white" stroke="transparent" points="-4,4 -4,-63 651,-63 651,4 -4,4"/>
<text text-anchor="middle" x="323.5" y="-43.8" font-family="Times,serif" font-size="14.00">Different trade&#45;offs around isolation models</text>
<!-- Physical -->
<g id="node1" class="node">
<title>Physical</title>
<polygon fill="lightblue" stroke="lightblue" points="257,-36 146,-36 146,0 257,0 257,-36"/>
<text text-anchor="middle" x="201.5" y="-14.9" font-family="Arial" font-size="12.00">Physical machine</text>
</g>
<!-- Virtual -->
<g id="node2" class="node">
<title>Virtual</title>
<polygon fill="lightblue" stroke="lightblue" points="392,-36 293,-36 293,0 392,0 392,-36"/>
<text text-anchor="middle" x="342.5" y="-14.9" font-family="Arial" font-size="12.00">Virtual machine</text>
</g>
<!-- Physical&#45;&gt;Virtual -->
<g id="edge2" class="edge">
<title>Physical&#45;&gt;Virtual</title>
<path fill="none" stroke="black" d="M257.04,-18C265.47,-18 274.22,-18 282.74,-18"/>
<polygon fill="black" stroke="black" points="282.99,-21.5 292.99,-18 282.99,-14.5 282.99,-21.5"/>
</g>
<!-- Container -->
<g id="node3" class="node">
<title>Container</title>
<polygon fill="lightblue" stroke="lightblue" points="497,-36 428,-36 428,0 497,0 497,-36"/>
<text text-anchor="middle" x="462.5" y="-14.9" font-family="Arial" font-size="12.00">Container</text>
</g>
<!-- Virtual&#45;&gt;Container -->
<g id="edge3" class="edge">
<title>Virtual&#45;&gt;Container</title>
<path fill="none" stroke="black" d="M392.18,-18C400.57,-18 409.25,-18 417.51,-18"/>
<polygon fill="black" stroke="black" points="417.69,-21.5 427.69,-18 417.69,-14.5 417.69,-21.5"/>
</g>
<!-- CostProvision -->
<g id="node5" class="node">
<title>CostProvision</title>
<polygon fill="lightblue" stroke="transparent" points="647,-36 533,-36 533,0 647,0 647,-36"/>
<text text-anchor="middle" x="590" y="-21.4" font-family="Arial" font-size="12.00">Lower cost, </text>
<text text-anchor="middle" x="590" y="-8.4" font-family="Arial" font-size="12.00">faster provisioning</text>
</g>
<!-- Container&#45;&gt;CostProvision -->
<g id="edge4" class="edge">
<title>Container&#45;&gt;CostProvision</title>
<path fill="none" stroke="black" d="M497.13,-18C505.15,-18 513.98,-18 522.91,-18"/>
<polygon fill="black" stroke="black" points="522.98,-21.5 532.98,-18 522.98,-14.5 522.98,-21.5"/>
</g>
<!-- StrongIsolation -->
<g id="node4" class="node">
<title>StrongIsolation</title>
<polygon fill="lightblue" stroke="transparent" points="110,-36 0,-36 0,0 110,0 110,-36"/>
<text text-anchor="middle" x="55" y="-14.9" font-family="Arial" font-size="12.00">Stronger isolation</text>
</g>
<!-- StrongIsolation&#45;&gt;Physical -->
<g id="edge1" class="edge">
<title>StrongIsolation&#45;&gt;Physical</title>
<path fill="none" stroke="black" d="M110.22,-18C118.62,-18 127.37,-18 135.98,-18"/>
<polygon fill="black" stroke="black" points="135.98,-21.5 145.98,-18 135.98,-14.5 135.98,-21.5"/>
</g>
</g>
</svg>
