<?xml version="1.0" encoding="UTF-8" standalone="no"?>
<!DOCTYPE svg PUBLIC "-//W3C//DTD SVG 1.1//EN"
 "http://www.w3.org/Graphics/SVG/1.1/DTD/svg11.dtd">
<!-- Generated by graphviz version 2.43.0 (0)
 -->
<!-- Title: Kubernetes_Service Pages: 1 -->
<svg width="377pt" height="388pt"
 viewBox="0.00 0.00 377.00 388.00" xmlns="http://www.w3.org/2000/svg" xmlns:xlink="http://www.w3.org/1999/xlink">
<g id="graph0" class="graph" transform="scale(1 1) rotate(0) translate(4 384)">
<title>Kubernetes_Service</title>
<polygon fill="white" stroke="transparent" points="-4,4 -4,-384 373,-384 373,4 -4,4"/>
<text text-anchor="middle" x="184.5" y="-360" font-family="Times,serif" font-size="20.00">Pods, Service, and Deployment</text>
<!-- Pod1 -->
<g id="node1" class="node">
<title>Pod1</title>
<polygon fill="lightblue" stroke="transparent" points="8,-180 8,-242 92,-242 92,-180 8,-180"/>
<polygon fill="none" stroke="black" points="9,-208 9,-241 91,-241 91,-208 9,-208"/>
<text text-anchor="start" x="37" y="-221.8" font-family="Arial" font-weight="bold" font-size="14.00">Pod</text>
<polygon fill="white" stroke="transparent" points="9,-181 9,-208 91,-208 91,-181 9,-181"/>
<polygon fill="none" stroke="black" points="9,-181 9,-208 91,-208 91,-181 9,-181"/>
<text text-anchor="start" x="15" y="-190.8" font-family="Arial" font-size="14.00">Container 1</text>
<polygon fill="none" stroke="black" points="8,-180 8,-242 92,-242 92,-180 8,-180"/>
</g>
<!-- Service -->
<g id="node4" class="node">
<title>Service</title>
<polygon fill="lightblue" stroke="lightblue" points="200,-125 136,-125 136,-87 200,-87 200,-125"/>
<text text-anchor="middle" x="168" y="-109.8" font-family="Arial" font-size="14.00">Service</text>
<text text-anchor="middle" x="168" y="-94.8" font-family="Arial" font-size="14.00">Port: 80</text>
</g>
<!-- Pod1&#45;&gt;Service -->
<g id="edge1" class="edge">
<title>Pod1&#45;&gt;Service</title>
<path fill="none" stroke="black" d="M50,-175.74C50,-145.24 50,-106 50,-106 50,-106 125.76,-106 125.76,-106"/>
<polygon fill="black" stroke="black" points="125.76,-109.5 135.76,-106 125.76,-102.5 125.76,-109.5"/>
<text text-anchor="middle" x="88" y="-146.8" font-family="Times,serif" font-size="14.00">Port: 1234</text>
</g>
<!-- Pod2 -->
<g id="node2" class="node">
<title>Pod2</title>
<polygon fill="lightblue" stroke="transparent" points="126,-180 126,-242 210,-242 210,-180 126,-180"/>
<polygon fill="none" stroke="black" points="127,-208 127,-241 209,-241 209,-208 127,-208"/>
<text text-anchor="start" x="155" y="-221.8" font-family="Arial" font-weight="bold" font-size="14.00">Pod</text>
<polygon fill="white" stroke="transparent" points="127,-181 127,-208 209,-208 209,-181 127,-181"/>
<polygon fill="none" stroke="black" points="127,-181 127,-208 209,-208 209,-181 127,-181"/>
<text text-anchor="start" x="133" y="-190.8" font-family="Arial" font-size="14.00">Container 2</text>
<polygon fill="none" stroke="black" points="126,-180 126,-242 210,-242 210,-180 126,-180"/>
</g>
<!-- Pod2&#45;&gt;Service -->
<g id="edge2" class="edge">
<title>Pod2&#45;&gt;Service</title>
<path fill="none" stroke="black" d="M168,-175.74C168,-175.74 168,-135.11 168,-135.11"/>
<polygon fill="black" stroke="black" points="171.5,-135.11 168,-125.11 164.5,-135.11 171.5,-135.11"/>
<text text-anchor="middle" x="206" y="-146.8" font-family="Times,serif" font-size="14.00">Port: 1234</text>
</g>
<!-- Pod3 -->
<g id="node3" class="node">
<title>Pod3</title>
<polygon fill="lightblue" stroke="transparent" points="244,-180 244,-242 328,-242 328,-180 244,-180"/>
<polygon fill="none" stroke="black" points="245,-208 245,-241 327,-241 327,-208 245,-208"/>
<text text-anchor="start" x="273" y="-221.8" font-family="Arial" font-weight="bold" font-size="14.00">Pod</text>
<polygon fill="white" stroke="transparent" points="245,-181 245,-208 327,-208 327,-181 245,-181"/>
<polygon fill="none" stroke="black" points="245,-181 245,-208 327,-208 327,-181 245,-181"/>
<text text-anchor="start" x="251" y="-190.8" font-family="Arial" font-size="14.00">Container 3</text>
<polygon fill="none" stroke="black" stroke-dasharray="5,2" points="244,-180 244,-242 328,-242 328,-180 244,-180"/>
</g>
<!-- Pod3&#45;&gt;Service -->
<g id="edge3" class="edge">
<title>Pod3&#45;&gt;Service</title>
<path fill="none" stroke="black" d="M286,-175.74C286,-145.24 286,-106 286,-106 286,-106 210.24,-106 210.24,-106"/>
<polygon fill="black" stroke="black" points="210.24,-102.5 200.24,-106 210.24,-109.5 210.24,-102.5"/>
<text text-anchor="middle" x="314" y="-146.8" font-family="Times,serif" font-size="14.00">Port: 1234</text>
</g>
<!-- ClusterPort -->
<g id="node5" class="node">
<title>ClusterPort</title>
<polygon fill="lightgrey" stroke="lightgrey" points="212,-36 124,-36 124,0 212,0 212,-36"/>
<text text-anchor="middle" x="168" y="-14.3" font-family="Arial" font-size="14.00">Cluster Port</text>
</g>
<!-- Service&#45;&gt;ClusterPort -->
<g id="edge4" class="edge">
<title>Service&#45;&gt;ClusterPort</title>
<path fill="none" stroke="black" stroke-dasharray="1,5" d="M168,-86.91C168,-86.91 168,-46.16 168,-46.16"/>
<polygon fill="black" stroke="black" points="171.5,-46.16 168,-36.16 164.5,-46.16 171.5,-46.16"/>
<text text-anchor="middle" x="197" y="-57.8" font-family="Times,serif" font-size="14.00">Port: 80</text>
</g>
<!-- Deployment -->
<g id="node6" class="node">
<title>Deployment</title>
<polygon fill="lightblue" stroke="lightblue" points="369,-350 203,-350 203,-297 369,-297 369,-350"/>
<text text-anchor="middle" x="286" y="-334.8" font-family="Arial" font-size="14.00">Deployment</text>
<text text-anchor="middle" x="286" y="-319.8" font-family="Arial" font-size="14.00">Deploys new versions,</text>
<text text-anchor="middle" x="286" y="-304.8" font-family="Arial" font-size="14.00">changes number of pods</text>
</g>
<!-- Deployment&#45;&gt;Pod3 -->
<g id="edge5" class="edge">
<title>Deployment&#45;&gt;Pod3</title>
<path fill="none" stroke="black" stroke-dasharray="5,2" d="M286,-296.84C286,-296.84 286,-256.41 286,-256.41"/>
<polygon fill="black" stroke="black" points="289.5,-256.41 286,-246.41 282.5,-256.41 289.5,-256.41"/>
<text text-anchor="middle" x="318.5" y="-267.8" font-family="Times,serif" font-size="14.00">Manages</text>
</g>
</g>
</svg>
