<?xml version="1.0" encoding="UTF-8" standalone="no"?>
<!DOCTYPE svg PUBLIC "-//W3C//DTD SVG 1.1//EN"
 "http://www.w3.org/Graphics/SVG/1.1/DTD/svg11.dtd">
<!-- Generated by graphviz version 2.43.0 (0)
 -->
<!-- Title: KubernetesFederation Pages: 1 -->
<svg width="942pt" height="209pt"
 viewBox="0.00 0.00 942.00 209.00" xmlns="http://www.w3.org/2000/svg" xmlns:xlink="http://www.w3.org/1999/xlink">
<g id="graph0" class="graph" transform="scale(1 1) rotate(0) translate(4 205)">
<title>KubernetesFederation</title>
<polygon fill="white" stroke="transparent" points="-4,4 -4,-205 938,-205 938,4 -4,4"/>
<g id="clust1" class="cluster">
<title>cluster_ClusterA</title>
<polygon fill="none" stroke="black" stroke-dasharray="5,2" points="8,-8 8,-157 438,-157 438,-8 8,-8"/>
<text text-anchor="middle" x="223" y="-141.8" font-family="Times,serif" font-size="14.00">Cluster A</text>
</g>
<g id="clust6" class="cluster">
<title>cluster_ClusterB</title>
<polygon fill="none" stroke="black" stroke-dasharray="5,2" points="446,-8 446,-157 926,-157 926,-8 446,-8"/>
<text text-anchor="middle" x="686" y="-141.8" font-family="Times,serif" font-size="14.00">Cluster B</text>
</g>
<!-- FederationSoftware -->
<g id="node1" class="node">
<title>FederationSoftware</title>
<polygon fill="lightblue" stroke="lightblue" points="572.5,-201 311.5,-201 311.5,-165 572.5,-165 572.5,-201"/>
<text text-anchor="middle" x="442" y="-179.3" font-family="Times,serif" font-size="14.00">Federation Management Software</text>
</g>
<!-- ClusterAControl -->
<g id="node2" class="node">
<title>ClusterAControl</title>
<polygon fill="lightblue" stroke="lightblue" points="314,-126 204,-126 204,-88 314,-88 314,-126"/>
<text text-anchor="middle" x="259" y="-110.8" font-family="Times,serif" font-size="14.00">Cluster A</text>
<text text-anchor="middle" x="259" y="-95.8" font-family="Times,serif" font-size="14.00">control plane</text>
</g>
<!-- FederationSoftware&#45;&gt;ClusterAControl -->
<g id="edge1" class="edge">
<title>FederationSoftware&#45;&gt;ClusterAControl</title>
<path fill="none" stroke="black" d="M336,-164.96C336,-143.34 336,-110 336,-110 336,-110 324.14,-110 324.14,-110"/>
<polygon fill="black" stroke="black" points="324.14,-106.5 314.14,-110 324.14,-113.5 324.14,-106.5"/>
</g>
<!-- ClusterBControl -->
<g id="node9" class="node">
<title>ClusterBControl</title>
<polygon fill="lightblue" stroke="lightblue" points="680,-126 570,-126 570,-88 680,-88 680,-126"/>
<text text-anchor="middle" x="625" y="-110.8" font-family="Times,serif" font-size="14.00">Cluster B</text>
<text text-anchor="middle" x="625" y="-95.8" font-family="Times,serif" font-size="14.00">control plane</text>
</g>
<!-- FederationSoftware&#45;&gt;ClusterBControl -->
<g id="edge2" class="edge">
<title>FederationSoftware&#45;&gt;ClusterBControl</title>
<path fill="none" stroke="black" d="M548,-164.89C548,-145.66 548,-118 548,-118 548,-118 559.86,-118 559.86,-118"/>
<polygon fill="black" stroke="black" points="559.86,-121.5 569.86,-118 559.86,-114.5 559.86,-121.5"/>
</g>
<!-- PodA1 -->
<g id="node3" class="node">
<title>PodA1</title>
<polygon fill="lightblue" stroke="lightblue" points="70,-52 16,-52 16,-16 70,-16 70,-52"/>
<text text-anchor="middle" x="43" y="-30.3" font-family="Times,serif" font-size="14.00">Pod</text>
</g>
<!-- ClusterAControl&#45;&gt;PodA1 -->
<!-- PodA2 -->
<g id="node4" class="node">
<title>PodA2</title>
<polygon fill="lightblue" stroke="lightblue" points="142,-52 88,-52 88,-16 142,-16 142,-52"/>
<text text-anchor="middle" x="115" y="-30.3" font-family="Times,serif" font-size="14.00">Pod</text>
</g>
<!-- ClusterAControl&#45;&gt;PodA2 -->
<!-- PodA3 -->
<g id="node5" class="node">
<title>PodA3</title>
<polygon fill="lightblue" stroke="lightblue" points="214,-52 160,-52 160,-16 214,-16 214,-52"/>
<text text-anchor="middle" x="187" y="-30.3" font-family="Times,serif" font-size="14.00">Pod</text>
</g>
<!-- ClusterAControl&#45;&gt;PodA3 -->
<!-- PodA4 -->
<g id="node6" class="node">
<title>PodA4</title>
<polygon fill="lightblue" stroke="lightblue" points="286,-52 232,-52 232,-16 286,-16 286,-52"/>
<text text-anchor="middle" x="259" y="-30.3" font-family="Times,serif" font-size="14.00">Pod</text>
</g>
<!-- ClusterAControl&#45;&gt;PodA4 -->
<!-- PodA5 -->
<g id="node7" class="node">
<title>PodA5</title>
<polygon fill="lightblue" stroke="lightblue" points="358,-52 304,-52 304,-16 358,-16 358,-52"/>
<text text-anchor="middle" x="331" y="-30.3" font-family="Times,serif" font-size="14.00">Pod</text>
</g>
<!-- ClusterAControl&#45;&gt;PodA5 -->
<!-- PodA6 -->
<g id="node8" class="node">
<title>PodA6</title>
<polygon fill="lightblue" stroke="lightblue" points="430,-52 376,-52 376,-16 430,-16 430,-52"/>
<text text-anchor="middle" x="403" y="-30.3" font-family="Times,serif" font-size="14.00">Pod</text>
</g>
<!-- ClusterAControl&#45;&gt;PodA6 -->
<!-- PodB1 -->
<g id="node10" class="node">
<title>PodB1</title>
<polygon fill="lightblue" stroke="lightblue" points="508,-52 454,-52 454,-16 508,-16 508,-52"/>
<text text-anchor="middle" x="481" y="-30.3" font-family="Times,serif" font-size="14.00">Pod</text>
</g>
<!-- ClusterBControl&#45;&gt;PodB1 -->
<!-- PodB2 -->
<g id="node11" class="node">
<title>PodB2</title>
<polygon fill="lightblue" stroke="lightblue" points="580,-52 526,-52 526,-16 580,-16 580,-52"/>
<text text-anchor="middle" x="553" y="-30.3" font-family="Times,serif" font-size="14.00">Pod</text>
</g>
<!-- ClusterBControl&#45;&gt;PodB2 -->
<!-- PodB3 -->
<g id="node12" class="node">
<title>PodB3</title>
<polygon fill="lightblue" stroke="lightblue" points="652,-52 598,-52 598,-16 652,-16 652,-52"/>
<text text-anchor="middle" x="625" y="-30.3" font-family="Times,serif" font-size="14.00">Pod</text>
</g>
<!-- ClusterBControl&#45;&gt;PodB3 -->
<!-- PodB4 -->
<g id="node13" class="node">
<title>PodB4</title>
<polygon fill="lightblue" stroke="lightblue" points="724,-52 670,-52 670,-16 724,-16 724,-52"/>
<text text-anchor="middle" x="697" y="-30.3" font-family="Times,serif" font-size="14.00">Pod</text>
</g>
<!-- ClusterBControl&#45;&gt;PodB4 -->
<!-- PodB5 -->
<g id="node14" class="node">
<title>PodB5</title>
<polygon fill="lightblue" stroke="lightblue" points="796,-52 742,-52 742,-16 796,-16 796,-52"/>
<text text-anchor="middle" x="769" y="-30.3" font-family="Times,serif" font-size="14.00">Pod</text>
</g>
<!-- ClusterBControl&#45;&gt;PodB5 -->
<!-- EmptyNode -->
<g id="node15" class="node">
<title>EmptyNode</title>
<polygon fill="white" stroke="white" points="917.5,-52 814.5,-52 814.5,-16 917.5,-16 917.5,-52"/>
<text text-anchor="middle" x="866" y="-30.3" font-family="Times,serif" font-size="14.00">Empty node</text>
</g>
<!-- ClusterBControl&#45;&gt;EmptyNode -->
</g>
</svg>
