<?xml version="1.0" encoding="UTF-8" standalone="no"?>
<!DOCTYPE svg PUBLIC "-//W3C//DTD SVG 1.1//EN"
 "http://www.w3.org/Graphics/SVG/1.1/DTD/svg11.dtd">
<!-- Generated by graphviz version 2.43.0 (0)
 -->
<!-- Title: Kubernetes_Topology Pages: 1 -->
<svg width="998pt" height="251pt"
 viewBox="0.00 0.00 998.00 251.00" xmlns="http://www.w3.org/2000/svg" xmlns:xlink="http://www.w3.org/1999/xlink">
<g id="graph0" class="graph" transform="scale(1 1) rotate(0) translate(4 247)">
<title>Kubernetes_Topology</title>
<polygon fill="white" stroke="transparent" points="-4,4 -4,-247 994,-247 994,4 -4,4"/>
<text text-anchor="middle" x="495" y="-223" font-family="Times,serif" font-size="20.00">Kubernetes Cluster Topology</text>
<g id="clust1" class="cluster">
<title>cluster_Node1</title>
<polygon fill="none" stroke="grey" stroke-dasharray="5,2" points="8,-8 8,-136 488,-136 488,-8 8,-8"/>
<text text-anchor="middle" x="248" y="-116" font-family="Times,serif" font-size="20.00">Kubernetes Node 1</text>
</g>
<g id="clust2" class="cluster">
<title>cluster_Pod1</title>
<polygon fill="lightcyan" stroke="lightcyan" points="378,-16 378,-98 480,-98 480,-16 378,-16"/>
<text text-anchor="middle" x="429" y="-78" font-family="Times,serif" font-size="20.00">Pod 1</text>
</g>
<g id="clust3" class="cluster">
<title>cluster_Pod2</title>
<polygon fill="lightcyan" stroke="lightcyan" points="164,-16 164,-98 370,-98 370,-16 164,-16"/>
<text text-anchor="middle" x="267" y="-78" font-family="Times,serif" font-size="20.00">Pod 2</text>
</g>
<g id="clust4" class="cluster">
<title>cluster_Node2</title>
<polygon fill="none" stroke="grey" stroke-dasharray="5,2" points="496,-8 496,-136 982,-136 982,-8 496,-8"/>
<text text-anchor="middle" x="739" y="-116" font-family="Times,serif" font-size="20.00">Kubernetes Node 2</text>
</g>
<g id="clust5" class="cluster">
<title>cluster_Pod3</title>
<polygon fill="lightcyan" stroke="lightcyan" points="872,-16 872,-98 974,-98 974,-16 872,-16"/>
<text text-anchor="middle" x="923" y="-78" font-family="Times,serif" font-size="20.00">Pod 3</text>
</g>
<g id="clust6" class="cluster">
<title>cluster_Pod4</title>
<polygon fill="lightcyan" stroke="lightcyan" points="762,-16 762,-98 864,-98 864,-16 762,-16"/>
<text text-anchor="middle" x="813" y="-78" font-family="Times,serif" font-size="20.00">Pod 4</text>
</g>
<g id="clust7" class="cluster">
<title>cluster_Pod5</title>
<polygon fill="lightcyan" stroke="lightcyan" points="652,-16 652,-98 754,-98 754,-16 652,-16"/>
<text text-anchor="middle" x="703" y="-78" font-family="Times,serif" font-size="20.00">Pod 5</text>
</g>
<!-- Kubernetes Control Plane -->
<g id="node1" class="node">
<title>Kubernetes Control Plane</title>
<polygon fill="lightblue" stroke="lightblue" points="414.5,-213 247.5,-213 243.5,-209 243.5,-177 410.5,-177 414.5,-181 414.5,-213"/>
<polyline fill="none" stroke="lightblue" points="410.5,-209 243.5,-209 "/>
<polyline fill="none" stroke="lightblue" points="410.5,-209 410.5,-177 "/>
<polyline fill="none" stroke="lightblue" points="410.5,-209 414.5,-213 "/>
<text text-anchor="middle" x="329" y="-191.3" font-family="Arial" font-size="14.00">Kubernetes Control Plane</text>
</g>
<!-- EdgeAnchor_Node1 -->
<g id="node2" class="node">
<title>EdgeAnchor_Node1</title>
</g>
<!-- Kubernetes Control Plane&#45;&gt;EdgeAnchor_Node1 -->
<g id="edge1" class="edge">
<title>Kubernetes Control Plane&#45;&gt;EdgeAnchor_Node1</title>
<path fill="none" stroke="black" d="M243.32,-195C173.01,-195 85,-195 85,-195 85,-195 85,-64.01 85,-64.01"/>
<polygon fill="black" stroke="black" points="88.5,-64.01 85,-54.01 81.5,-64.01 88.5,-64.01"/>
<text text-anchor="middle" x="317.5" y="-147.8" font-family="Times,serif" font-size="14.00">Manages</text>
</g>
<!-- EdgeAnchor_Node2 -->
<g id="node6" class="node">
<title>EdgeAnchor_Node2</title>
</g>
<!-- Kubernetes Control Plane&#45;&gt;EdgeAnchor_Node2 -->
<g id="edge2" class="edge">
<title>Kubernetes Control Plane&#45;&gt;EdgeAnchor_Node2</title>
<path fill="none" stroke="black" d="M414.68,-195C484.99,-195 573,-195 573,-195 573,-195 573,-64.01 573,-64.01"/>
<polygon fill="black" stroke="black" points="576.5,-64.01 573,-54.01 569.5,-64.01 576.5,-64.01"/>
<text text-anchor="middle" x="505.5" y="-147.8" font-family="Times,serif" font-size="14.00">Manages</text>
</g>
<!-- Container 1 -->
<g id="node3" class="node">
<title>Container 1</title>
<polygon fill="lightblue" stroke="lightblue" points="472,-60 386,-60 386,-24 472,-24 472,-60"/>
<text text-anchor="middle" x="429" y="-38.3" font-family="Arial" font-size="14.00">Container 1</text>
</g>
<!-- Container 2 -->
<g id="node4" class="node">
<title>Container 2</title>
<polygon fill="lightblue" stroke="lightblue" points="362,-60 276,-60 276,-24 362,-24 362,-60"/>
<text text-anchor="middle" x="319" y="-38.3" font-family="Arial" font-size="14.00">Container 2</text>
</g>
<!-- Container 3 -->
<g id="node5" class="node">
<title>Container 3</title>
<polygon fill="lightblue" stroke="lightblue" points="258,-60 172,-60 172,-24 258,-24 258,-60"/>
<text text-anchor="middle" x="215" y="-38.3" font-family="Arial" font-size="14.00">Container 3</text>
</g>
<!-- Container 4 -->
<g id="node7" class="node">
<title>Container 4</title>
<polygon fill="lightblue" stroke="lightblue" points="966,-60 880,-60 880,-24 966,-24 966,-60"/>
<text text-anchor="middle" x="923" y="-38.3" font-family="Arial" font-size="14.00">Container 4</text>
</g>
<!-- Container 5 -->
<g id="node8" class="node">
<title>Container 5</title>
<polygon fill="lightblue" stroke="lightblue" points="856,-60 770,-60 770,-24 856,-24 856,-60"/>
<text text-anchor="middle" x="813" y="-38.3" font-family="Arial" font-size="14.00">Container 5</text>
</g>
<!-- Container 6 -->
<g id="node9" class="node">
<title>Container 6</title>
<polygon fill="lightblue" stroke="lightblue" points="746,-60 660,-60 660,-24 746,-24 746,-60"/>
<text text-anchor="middle" x="703" y="-38.3" font-family="Arial" font-size="14.00">Container 6</text>
</g>
</g>
</svg>
