<?xml version="1.0" encoding="UTF-8" standalone="no"?>
<!DOCTYPE svg PUBLIC "-//W3C//DTD SVG 1.1//EN"
 "http://www.w3.org/Graphics/SVG/1.1/DTD/svg11.dtd">
<!-- Generated by graphviz version 2.43.0 (0)
 -->
<!-- Title: LoadBalancer Pages: 1 -->
<svg width="490pt" height="269pt"
 viewBox="0.00 0.00 490.00 269.00" xmlns="http://www.w3.org/2000/svg" xmlns:xlink="http://www.w3.org/1999/xlink">
<g id="graph0" class="graph" transform="scale(1 1) rotate(0) translate(4 265)">
<title>LoadBalancer</title>
<polygon fill="white" stroke="transparent" points="-4,4 -4,-265 486,-265 486,4 -4,4"/>
<text text-anchor="middle" x="241" y="-245.8" font-family="Times,serif" font-size="14.00">Load Balancer Routing Requests to Order Service Instances</text>
<g id="clust1" class="cluster">
<title>cluster_InvoiceService</title>
<polygon fill="none" stroke="gray" points="148,-155 148,-230 474,-230 474,-155 148,-155"/>
<text text-anchor="middle" x="311" y="-214.8" font-family="Times,serif" font-size="14.00">Invoice service</text>
</g>
<g id="clust2" class="cluster">
<title>cluster_OrderService</title>
<polygon fill="none" stroke="gray" points="8,-8 8,-83 466,-83 466,-8 8,-8"/>
<text text-anchor="middle" x="237" y="-67.8" font-family="Times,serif" font-size="14.00">Order service</text>
</g>
<!-- Invoice1 -->
<g id="node1" class="node">
<title>Invoice1</title>
<polygon fill="lightblue" stroke="lightblue" points="466.43,-181 429.71,-199 356.29,-199 319.57,-181 356.29,-163 429.71,-163 466.43,-181"/>
<text text-anchor="middle" x="393" y="-177.9" font-family="Arial" font-size="12.00">Invoice instance</text>
</g>
<!-- LoadBalancer -->
<g id="node3" class="node">
<title>LoadBalancer</title>
<polygon fill="lightblue" stroke="lightblue" points="283.5,-127 190.5,-127 190.5,-91 283.5,-91 283.5,-127"/>
<text text-anchor="middle" x="237" y="-105.9" font-family="Arial" font-size="12.00">Load balancer</text>
</g>
<!-- Invoice1&#45;&gt;LoadBalancer -->
<g id="edge1" class="edge">
<title>Invoice1&#45;&gt;LoadBalancer</title>
<path fill="none" stroke="black" stroke-width="1.5" d="M355.63,-163.23C334.24,-153.63 307.2,-141.5 284.33,-131.24"/>
<polygon fill="black" stroke="black" stroke-width="1.5" points="285.7,-128.02 275.14,-127.12 282.84,-134.4 285.7,-128.02"/>
</g>
<!-- Invoice2 -->
<g id="node2" class="node">
<title>Invoice2</title>
<polygon fill="lightblue" stroke="lightblue" points="302.43,-181 265.71,-199 192.29,-199 155.57,-181 192.29,-163 265.71,-163 302.43,-181"/>
<text text-anchor="middle" x="229" y="-177.9" font-family="Arial" font-size="12.00">Invoice instance</text>
</g>
<!-- Invoice2&#45;&gt;LoadBalancer -->
<g id="edge2" class="edge">
<title>Invoice2&#45;&gt;LoadBalancer</title>
<path fill="none" stroke="black" stroke-width="1.5" d="M230.98,-162.7C231.86,-154.98 232.92,-145.71 233.9,-137.11"/>
<polygon fill="black" stroke="black" stroke-width="1.5" points="237.39,-137.44 235.05,-127.1 230.43,-136.64 237.39,-137.44"/>
</g>
<!-- Order1 -->
<g id="node4" class="node">
<title>Order1</title>
<polygon fill="lightblue" stroke="lightblue" points="457.56,-34 423.78,-52 356.22,-52 322.44,-34 356.22,-16 423.78,-16 457.56,-34"/>
<text text-anchor="middle" x="390" y="-30.9" font-family="Arial" font-size="12.00">Order instance</text>
</g>
<!-- LoadBalancer&#45;&gt;Order1 -->
<g id="edge3" class="edge">
<title>LoadBalancer&#45;&gt;Order1</title>
<path fill="none" stroke="black" stroke-width="1.5" d="M283.73,-94.89C293.9,-91.48 304.46,-87.48 314,-83 328.92,-76 344.47,-66.6 357.58,-57.98"/>
<polygon fill="black" stroke="black" stroke-width="1.5" points="359.88,-60.65 366.24,-52.18 355.98,-54.84 359.88,-60.65"/>
</g>
<!-- Order2 -->
<g id="node5" class="node">
<title>Order2</title>
<polygon fill="lightblue" stroke="lightblue" points="304.56,-34 270.78,-52 203.22,-52 169.44,-34 203.22,-16 270.78,-16 304.56,-34"/>
<text text-anchor="middle" x="237" y="-30.9" font-family="Arial" font-size="12.00">Order instance</text>
</g>
<!-- LoadBalancer&#45;&gt;Order2 -->
<g id="edge4" class="edge">
<title>LoadBalancer&#45;&gt;Order2</title>
<path fill="none" stroke="black" stroke-width="1.5" d="M237,-90.7C237,-82.25 237,-71.87 237,-62.37"/>
<polygon fill="black" stroke="black" stroke-width="1.5" points="240.5,-62.18 237,-52.18 233.5,-62.18 240.5,-62.18"/>
</g>
<!-- Order3 -->
<g id="node6" class="node">
<title>Order3</title>
<polygon fill="lightblue" stroke="lightblue" points="151.56,-34 117.78,-52 50.22,-52 16.44,-34 50.22,-16 117.78,-16 151.56,-34"/>
<text text-anchor="middle" x="84" y="-30.9" font-family="Arial" font-size="12.00">Order instance</text>
</g>
<!-- LoadBalancer&#45;&gt;Order3 -->
<g id="edge5" class="edge">
<title>LoadBalancer&#45;&gt;Order3</title>
<path fill="none" stroke="black" stroke-width="1.5" d="M190.27,-94.89C180.1,-91.48 169.54,-87.48 160,-83 145.08,-76 129.53,-66.6 116.42,-57.98"/>
<polygon fill="black" stroke="black" stroke-width="1.5" points="118.02,-54.84 107.76,-52.18 114.12,-60.65 118.02,-54.84"/>
</g>
</g>
</svg>
