<?xml version="1.0" encoding="UTF-8" standalone="no"?>
<!DOCTYPE svg PUBLIC "-//W3C//DTD SVG 1.1//EN"
 "http://www.w3.org/Graphics/SVG/1.1/DTD/svg11.dtd">
<!-- Generated by graphviz version 2.43.0 (0)
 -->
<!-- Title: MicroserviceDeployment Pages: 1 -->
<svg width="616pt" height="324pt"
 viewBox="0.00 0.00 615.50 324.00" xmlns="http://www.w3.org/2000/svg" xmlns:xlink="http://www.w3.org/1999/xlink">
<g id="graph0" class="graph" transform="scale(1 1) rotate(0) translate(4 320)">
<title>MicroserviceDeployment</title>
<polygon fill="white" stroke="transparent" points="-4,4 -4,-320 611.5,-320 611.5,4 -4,4"/>
<text text-anchor="middle" x="303.75" y="-300.8" font-family="Times,serif" font-size="14.00">Microservice deployment across environments</text>
<g id="clust1" class="cluster">
<title>cluster_DevSubEnv</title>
<polygon fill="none" stroke="lightpink" points="294,-174 294,-249 436,-249 436,-174 294,-174"/>
<text text-anchor="middle" x="365" y="-233.8" font-family="Times,serif" font-size="14.00">Dev Environment</text>
</g>
<g id="clust2" class="cluster">
<title>cluster_CIInstances</title>
<polygon fill="none" stroke="lightpink" points="201,-91 201,-166 343,-166 343,-91 201,-91"/>
<text text-anchor="middle" x="272" y="-150.8" font-family="Times,serif" font-size="14.00">CI environment</text>
</g>
<g id="clust3" class="cluster">
<title>cluster_DC1</title>
<polygon fill="none" stroke="lightpink" points="8,-8 8,-83 150,-83 150,-8 8,-8"/>
<text text-anchor="middle" x="79" y="-67.8" font-family="Times,serif" font-size="14.00">DC1</text>
</g>
<g id="clust4" class="cluster">
<title>cluster_DC2</title>
<polygon fill="none" stroke="lightpink" points="158,-8 158,-83 300,-83 300,-8 158,-8"/>
<text text-anchor="middle" x="229" y="-67.8" font-family="Times,serif" font-size="14.00">DC2</text>
</g>
<!-- DevLaptop -->
<g id="node1" class="node">
<title>DevLaptop</title>
<polygon fill="lightblue" stroke="lightblue" points="337,-293 229,-293 229,-257 337,-257 337,-293"/>
<text text-anchor="middle" x="283" y="-271.9" font-family="Arial" font-size="12.00">Developer laptop</text>
</g>
<!-- CIEnv -->
<g id="node2" class="node">
<title>CIEnv</title>
<polygon fill="lightblue" stroke="lightblue" points="285,-218 187,-218 187,-182 285,-182 285,-218"/>
<text text-anchor="middle" x="236" y="-196.9" font-family="Arial" font-size="12.00">CI environment</text>
</g>
<!-- DevLaptop&#45;&gt;CIEnv -->
<g id="edge2" class="edge">
<title>DevLaptop&#45;&gt;CIEnv</title>
<path fill="none" stroke="black" stroke-width="1.5" d="M271.86,-256.7C266.13,-247.79 259.02,-236.75 252.64,-226.85"/>
<polygon fill="black" stroke="black" stroke-width="1.5" points="255.41,-224.69 247.06,-218.18 249.53,-228.48 255.41,-224.69"/>
</g>
<!-- DevInstance1 -->
<g id="node4" class="node">
<title>DevInstance1</title>
<polygon fill="lightblue" stroke="lightblue" points="357,-200 343.5,-218 316.5,-218 303,-200 316.5,-182 343.5,-182 357,-200"/>
</g>
<!-- DevLaptop&#45;&gt;DevInstance1 -->
<g id="edge1" class="edge">
<title>DevLaptop&#45;&gt;DevInstance1</title>
<path fill="none" stroke="black" stroke-width="1.5" d="M294.14,-256.7C299.87,-247.79 306.98,-236.75 313.36,-226.85"/>
<polygon fill="black" stroke="black" stroke-width="1.5" points="316.47,-228.48 318.94,-218.18 310.59,-224.69 316.47,-228.48"/>
</g>
<!-- ProdEnv -->
<g id="node3" class="node">
<title>ProdEnv</title>
<polygon fill="lightblue" stroke="lightblue" points="191,-135 117,-135 117,-99 191,-99 191,-135"/>
<text text-anchor="middle" x="154" y="-113.9" font-family="Arial" font-size="12.00">Production</text>
</g>
<!-- CIEnv&#45;&gt;ProdEnv -->
<g id="edge3" class="edge">
<title>CIEnv&#45;&gt;ProdEnv</title>
<path fill="none" stroke="black" stroke-width="1.5" d="M214.48,-181.7C208.67,-176.79 202.47,-171.32 197,-166 189.69,-158.9 182.15,-150.78 175.45,-143.26"/>
<polygon fill="black" stroke="black" stroke-width="1.5" points="177.8,-140.62 168.57,-135.41 172.53,-145.24 177.8,-140.62"/>
</g>
<!-- CIService1 -->
<g id="node5" class="node">
<title>CIService1</title>
<polygon fill="lightblue" stroke="lightblue" points="335,-117 321.5,-135 294.5,-135 281,-117 294.5,-99 321.5,-99 335,-117"/>
</g>
<!-- CIEnv&#45;&gt;CIService1 -->
<g id="edge4" class="edge">
<title>CIEnv&#45;&gt;CIService1</title>
<path fill="none" stroke="black" stroke-width="1.5" d="M256.06,-181.82C261.43,-176.9 267.1,-171.4 272,-166 278.33,-159.01 284.69,-150.96 290.26,-143.47"/>
<polygon fill="black" stroke="black" stroke-width="1.5" points="293.35,-145.18 296.4,-135.04 287.68,-141.07 293.35,-145.18"/>
</g>
<!-- CIService2 -->
<g id="node6" class="node">
<title>CIService2</title>
<polygon fill="lightblue" stroke="lightblue" points="263,-117 249.5,-135 222.5,-135 209,-117 222.5,-99 249.5,-99 263,-117"/>
</g>
<!-- CIEnv&#45;&gt;CIService2 -->
<g id="edge5" class="edge">
<title>CIEnv&#45;&gt;CIService2</title>
<path fill="none" stroke="black" stroke-width="1.5" d="M236,-181.82C236,-171.19 236,-157.31 236,-145.2"/>
<polygon fill="black" stroke="black" stroke-width="1.5" points="239.5,-145.15 236,-135.15 232.5,-145.15 239.5,-145.15"/>
</g>
<!-- Service1_DC1 -->
<g id="node7" class="node">
<title>Service1_DC1</title>
<polygon fill="lightblue" stroke="lightblue" points="142,-34 128.5,-52 101.5,-52 88,-34 101.5,-16 128.5,-16 142,-34"/>
</g>
<!-- ProdEnv&#45;&gt;Service1_DC1 -->
<g id="edge6" class="edge">
<title>ProdEnv&#45;&gt;Service1_DC1</title>
<path fill="none" stroke="black" stroke-width="1.5" d="M145.73,-98.82C140.51,-87.98 133.65,-73.74 127.75,-61.47"/>
<polygon fill="black" stroke="black" stroke-width="1.5" points="130.75,-59.64 123.26,-52.15 124.44,-62.68 130.75,-59.64"/>
</g>
<!-- Service2_DC1 -->
<g id="node8" class="node">
<title>Service2_DC1</title>
<polygon fill="lightblue" stroke="lightblue" points="70,-34 56.5,-52 29.5,-52 16,-34 29.5,-16 56.5,-16 70,-34"/>
</g>
<!-- ProdEnv&#45;&gt;Service2_DC1 -->
<g id="edge7" class="edge">
<title>ProdEnv&#45;&gt;Service2_DC1</title>
<path fill="none" stroke="black" stroke-width="1.5" d="M116.8,-104.02C104.02,-98.81 90.14,-91.84 79,-83 71.21,-76.82 64.22,-68.57 58.53,-60.66"/>
<polygon fill="black" stroke="black" stroke-width="1.5" points="61.38,-58.63 52.87,-52.32 55.59,-62.56 61.38,-58.63"/>
</g>
<!-- Service1_DC2 -->
<g id="node9" class="node">
<title>Service1_DC2</title>
<polygon fill="lightblue" stroke="lightblue" points="292,-34 278.5,-52 251.5,-52 238,-34 251.5,-16 278.5,-16 292,-34"/>
</g>
<!-- ProdEnv&#45;&gt;Service1_DC2 -->
<g id="edge8" class="edge">
<title>ProdEnv&#45;&gt;Service1_DC2</title>
<path fill="none" stroke="black" stroke-width="1.5" d="M180.71,-98.93C185.98,-96.01 191.56,-93.21 197,-91 210.58,-85.48 216.79,-91.11 229,-83 237.63,-77.27 244.99,-68.75 250.76,-60.47"/>
<polygon fill="black" stroke="black" stroke-width="1.5" points="253.71,-62.35 256.19,-52.05 247.83,-58.56 253.71,-62.35"/>
</g>
<!-- Service2_DC2 -->
<g id="node10" class="node">
<title>Service2_DC2</title>
<polygon fill="lightblue" stroke="lightblue" points="220,-34 206.5,-52 179.5,-52 166,-34 179.5,-16 206.5,-16 220,-34"/>
</g>
<!-- ProdEnv&#45;&gt;Service2_DC2 -->
<g id="edge9" class="edge">
<title>ProdEnv&#45;&gt;Service2_DC2</title>
<path fill="none" stroke="black" stroke-width="1.5" d="M162.27,-98.82C167.49,-87.98 174.35,-73.74 180.25,-61.47"/>
<polygon fill="black" stroke="black" stroke-width="1.5" points="183.56,-62.68 184.74,-52.15 177.25,-59.64 183.56,-62.68"/>
</g>
<!-- FasterFeedback -->
<g id="node11" class="node">
<title>FasterFeedback</title>
<polygon fill="none" stroke="lightblue" stroke-dasharray="5,2" points="577,-293 475,-293 475,-257 577,-257 577,-293"/>
<text text-anchor="middle" x="526" y="-271.9" font-family="Arial" font-size="12.00">Faster feedback</text>
</g>
<!-- MoreProductionLike -->
<g id="node12" class="node">
<title>MoreProductionLike</title>
<polygon fill="none" stroke="lightblue" stroke-dasharray="5,2" points="607.5,-218 444.5,-218 444.5,-182 607.5,-182 607.5,-218"/>
<text text-anchor="middle" x="526" y="-196.9" font-family="Arial" font-size="12.00">Increasingly production&#45;like</text>
</g>
<!-- FasterFeedback&#45;&gt;MoreProductionLike -->
<g id="edge10" class="edge">
<title>FasterFeedback&#45;&gt;MoreProductionLike</title>
<path fill="none" stroke="black" stroke-width="1.5" stroke-dasharray="1,5" d="M526,-256.7C526,-248.25 526,-237.87 526,-228.37"/>
<polygon fill="black" stroke="black" stroke-width="1.5" points="529.5,-228.18 526,-218.18 522.5,-228.18 529.5,-228.18"/>
</g>
</g>
</svg>
