<?xml version="1.0" encoding="UTF-8" standalone="no"?>
<!DOCTYPE svg PUBLIC "-//W3C//DTD SVG 1.1//EN"
 "http://www.w3.org/Graphics/SVG/1.1/DTD/svg11.dtd">
<!-- Generated by graphviz version 2.43.0 (0)
 -->
<!-- Title: Microservices Pages: 1 -->
<svg width="331pt" height="67pt"
 viewBox="0.00 0.00 331.00 67.00" xmlns="http://www.w3.org/2000/svg" xmlns:xlink="http://www.w3.org/1999/xlink">
<g id="graph0" class="graph" transform="scale(1 1) rotate(0) translate(4 63)">
<title>Microservices</title>
<polygon fill="white" stroke="transparent" points="-4,4 -4,-63 327,-63 327,4 -4,4"/>
<text text-anchor="middle" x="161.5" y="-43.8" font-family="Times,serif" font-size="14.00">A simple, logical view of two microservices</text>
<!-- Invoice -->
<g id="node1" class="node">
<title>Invoice</title>
<polygon fill="lightblue" stroke="lightblue" points="149.28,-18 129.69,-36 90.5,-36 70.9,-18 90.5,0 129.69,0 149.28,-18"/>
<text text-anchor="middle" x="110.09" y="-14.9" font-family="Arial" font-size="12.00">Invoice</text>
</g>
<!-- Order -->
<g id="node2" class="node">
<title>Order</title>
<polygon fill="lightblue" stroke="lightblue" points="251.91,-18 235.25,-36 201.94,-36 185.28,-18 201.94,0 235.25,0 251.91,-18"/>
<text text-anchor="middle" x="218.6" y="-14.9" font-family="Arial" font-size="12.00">Order</text>
</g>
<!-- Invoice&#45;&gt;Order -->
<g id="edge1" class="edge">
<title>Invoice&#45;&gt;Order</title>
<path fill="none" stroke="black" stroke-width="1.5" d="M149.24,-18C157.56,-18 166.41,-18 174.89,-18"/>
<polygon fill="black" stroke="black" stroke-width="1.5" points="174.99,-21.5 184.99,-18 174.99,-14.5 174.99,-21.5"/>
</g>
</g>
</svg>
