<?xml version="1.0" encoding="UTF-8" standalone="no"?>
<!DOCTYPE svg PUBLIC "-//W3C//DTD SVG 1.1//EN"
 "http://www.w3.org/Graphics/SVG/1.1/DTD/svg11.dtd">
<!-- Generated by graphviz version 2.43.0 (0)
 -->
<!-- Title: MultipleFunctionsDeployment Pages: 1 -->
<svg width="385pt" height="175pt"
 viewBox="0.00 0.00 385.00 175.00" xmlns="http://www.w3.org/2000/svg" xmlns:xlink="http://www.w3.org/1999/xlink">
<g id="graph0" class="graph" transform="scale(1 1) rotate(0) translate(4 171)">
<title>MultipleFunctionsDeployment</title>
<polygon fill="white" stroke="transparent" points="-4,4 -4,-171 381,-171 381,4 -4,4"/>
<text text-anchor="middle" x="188.5" y="-151.8" font-family="Times,serif" font-size="14.00">Multiple Functions Deployment: Expenses Service</text>
<!-- path1 -->
<g id="node1" class="node">
<title>path1</title>
<polygon fill="deepskyblue" stroke="transparent" points="108.44,-36 37.44,-36 37.44,0 108.44,0 108.44,-36"/>
<text text-anchor="middle" x="72.94" y="-14.3" font-family="Times,serif" font-size="14.00">/receipt</text>
</g>
<!-- receipts -->
<g id="node4" class="node">
<title>receipts</title>
<polygon fill="lightgreen" stroke="deepskyblue" points="339.63,-18 290.81,-36 193.19,-36 144.37,-18 193.19,0 290.81,0 339.63,-18"/>
<text text-anchor="middle" x="242" y="-14.3" font-family="Times,serif" font-size="14.00">def receipts(...):</text>
</g>
<!-- path1&#45;&gt;receipts -->
<g id="edge1" class="edge">
<title>path1&#45;&gt;receipts</title>
<path fill="none" stroke="gray" d="M108.55,-18C116.41,-18 125.17,-18 134.32,-18"/>
<polygon fill="gray" stroke="gray" points="134.39,-21.5 144.39,-18 134.39,-14.5 134.39,-21.5"/>
</g>
<!-- path2 -->
<g id="node2" class="node">
<title>path2</title>
<polygon fill="deepskyblue" stroke="transparent" points="102.44,-90 43.44,-90 43.44,-54 102.44,-54 102.44,-90"/>
<text text-anchor="middle" x="72.94" y="-68.3" font-family="Times,serif" font-size="14.00">/claim</text>
</g>
<!-- claim -->
<g id="node5" class="node">
<title>claim</title>
<polygon fill="lightcoral" stroke="deepskyblue" points="324.61,-72 283.3,-90 200.7,-90 159.39,-72 200.7,-54 283.3,-54 324.61,-72"/>
<text text-anchor="middle" x="242" y="-68.3" font-family="Times,serif" font-size="14.00">def claim(...):</text>
</g>
<!-- path2&#45;&gt;claim -->
<g id="edge2" class="edge">
<title>path2&#45;&gt;claim</title>
<path fill="none" stroke="gray" d="M102.66,-72C115.71,-72 131.97,-72 148.7,-72"/>
<polygon fill="gray" stroke="gray" points="149.15,-75.5 159.15,-72 149.15,-68.5 149.15,-75.5"/>
</g>
<!-- path3 -->
<g id="node3" class="node">
<title>path3</title>
<polygon fill="deepskyblue" stroke="transparent" points="105.94,-144 39.94,-144 39.94,-108 105.94,-108 105.94,-144"/>
<text text-anchor="middle" x="72.94" y="-122.3" font-family="Times,serif" font-size="14.00">/report</text>
</g>
<!-- report -->
<g id="node6" class="node">
<title>report</title>
<polygon fill="lightgoldenrodyellow" stroke="deepskyblue" points="329.61,-126 285.81,-144 198.19,-144 154.39,-126 198.19,-108 285.81,-108 329.61,-126"/>
<text text-anchor="middle" x="242" y="-122.3" font-family="Times,serif" font-size="14.00">def report(...):</text>
</g>
<!-- path3&#45;&gt;report -->
<g id="edge3" class="edge">
<title>path3&#45;&gt;report</title>
<path fill="none" stroke="gray" d="M106.15,-126C117.36,-126 130.6,-126 144.31,-126"/>
<polygon fill="gray" stroke="gray" points="144.36,-129.5 154.36,-126 144.36,-122.5 144.36,-129.5"/>
</g>
</g>
</svg>
