<?xml version="1.0" encoding="UTF-8" standalone="no"?>
<!DOCTYPE svg PUBLIC "-//W3C//DTD SVG 1.1//EN"
 "http://www.w3.org/Graphics/SVG/1.1/DTD/svg11.dtd">
<!-- Generated by graphviz version 2.43.0 (0)
 -->
<!-- Title: MultipleInstances Pages: 1 -->
<svg width="446pt" height="122pt"
 viewBox="0.00 0.00 446.00 122.00" xmlns="http://www.w3.org/2000/svg" xmlns:xlink="http://www.w3.org/1999/xlink">
<g id="graph0" class="graph" transform="scale(1 1) rotate(0) translate(4 118)">
<title>MultipleInstances</title>
<polygon fill="white" stroke="transparent" points="-4,4 -4,-118 442,-118 442,4 -4,4"/>
<text text-anchor="middle" x="219" y="-98.8" font-family="Times,serif" font-size="14.00">Multiple microservices per host</text>
<g id="clust1" class="cluster">
<title>cluster_Host</title>
<polygon fill="none" stroke="black" points="8,-8 8,-83 430,-83 430,-8 8,-8"/>
<text text-anchor="middle" x="219" y="-67.8" font-family="Times,serif" font-size="14.00">Host</text>
</g>
<!-- Instance1 -->
<g id="node1" class="node">
<title>Instance1</title>
<polygon fill="lightblue" stroke="lightblue" points="422.14,-34 400.07,-52 355.93,-52 333.86,-34 355.93,-16 400.07,-16 422.14,-34"/>
<text text-anchor="middle" x="378" y="-30.9" font-family="Arial" font-size="12.00">Instance</text>
</g>
<!-- Instance2 -->
<g id="node2" class="node">
<title>Instance2</title>
<polygon fill="lightblue" stroke="lightblue" points="316.14,-34 294.07,-52 249.93,-52 227.86,-34 249.93,-16 294.07,-16 316.14,-34"/>
<text text-anchor="middle" x="272" y="-30.9" font-family="Arial" font-size="12.00">Instance</text>
</g>
<!-- Instance3 -->
<g id="node3" class="node">
<title>Instance3</title>
<polygon fill="lightblue" stroke="lightblue" points="210.14,-34 188.07,-52 143.93,-52 121.86,-34 143.93,-16 188.07,-16 210.14,-34"/>
<text text-anchor="middle" x="166" y="-30.9" font-family="Arial" font-size="12.00">Instance</text>
</g>
<!-- Instance4 -->
<g id="node4" class="node">
<title>Instance4</title>
<polygon fill="lightblue" stroke="lightblue" points="104.14,-34 82.07,-52 37.93,-52 15.86,-34 37.93,-16 82.07,-16 104.14,-34"/>
<text text-anchor="middle" x="60" y="-30.9" font-family="Arial" font-size="12.00">Instance</text>
</g>
</g>
</svg>
