<?xml version="1.0" encoding="UTF-8" standalone="no"?>
<!DOCTYPE svg PUBLIC "-//W3C//DTD SVG 1.1//EN"
 "http://www.w3.org/Graphics/SVG/1.1/DTD/svg11.dtd">
<!-- Generated by graphviz version 2.43.0 (0)
 -->
<!-- Title: ReadReplicas Pages: 1 -->
<svg width="463pt" height="314pt"
 viewBox="0.00 0.00 462.50 314.00" xmlns="http://www.w3.org/2000/svg" xmlns:xlink="http://www.w3.org/1999/xlink">
<g id="graph0" class="graph" transform="scale(1 1) rotate(0) translate(4 310)">
<title>ReadReplicas</title>
<polygon fill="white" stroke="transparent" points="-4,4 -4,-310 458.5,-310 458.5,4 -4,4"/>
<text text-anchor="middle" x="227.25" y="-290.8" font-family="Times,serif" font-size="14.00">Using read replicas to distribute load</text>
<!-- LoadBalancer -->
<g id="node1" class="node">
<title>LoadBalancer</title>
<polygon fill="lightblue" stroke="lightblue" points="300,-283 207,-283 207,-247 300,-247 300,-283"/>
<text text-anchor="middle" x="253.5" y="-261.9" font-family="Arial" font-size="12.00">Load balancer</text>
</g>
<!-- Order1 -->
<g id="node2" class="node">
<title>Order1</title>
<polygon fill="lightblue" stroke="lightblue" points="245.06,-192 211.28,-210 143.72,-210 109.94,-192 143.72,-174 211.28,-174 245.06,-192"/>
<text text-anchor="middle" x="177.5" y="-188.9" font-family="Arial" font-size="12.00">Order instance</text>
</g>
<!-- LoadBalancer&#45;&gt;Order1 -->
<g id="edge1" class="edge">
<title>LoadBalancer&#45;&gt;Order1</title>
<path fill="none" stroke="black" stroke-width="1.5" d="M235.1,-246.81C225.49,-237.83 213.57,-226.69 203.07,-216.89"/>
<polygon fill="black" stroke="black" stroke-width="1.5" points="205.42,-214.3 195.73,-210.03 200.65,-219.41 205.42,-214.3"/>
</g>
<!-- Order2 -->
<g id="node3" class="node">
<title>Order2</title>
<polygon fill="lightblue" stroke="lightblue" points="398.06,-192 364.28,-210 296.72,-210 262.94,-192 296.72,-174 364.28,-174 398.06,-192"/>
<text text-anchor="middle" x="330.5" y="-188.9" font-family="Arial" font-size="12.00">Order instance</text>
</g>
<!-- LoadBalancer&#45;&gt;Order2 -->
<g id="edge2" class="edge">
<title>LoadBalancer&#45;&gt;Order2</title>
<path fill="none" stroke="black" stroke-width="1.5" d="M272.14,-246.81C281.88,-237.83 293.96,-226.69 304.6,-216.89"/>
<polygon fill="black" stroke="black" stroke-width="1.5" points="307.05,-219.38 312.03,-210.03 302.31,-214.23 307.05,-219.38"/>
</g>
<!-- PrimaryDB -->
<g id="node4" class="node">
<title>PrimaryDB</title>
<path fill="lightblue" stroke="lightblue" d="M275.5,-119.73C275.5,-121.53 251.3,-123 221.5,-123 191.7,-123 167.5,-121.53 167.5,-119.73 167.5,-119.73 167.5,-90.27 167.5,-90.27 167.5,-88.47 191.7,-87 221.5,-87 251.3,-87 275.5,-88.47 275.5,-90.27 275.5,-90.27 275.5,-119.73 275.5,-119.73"/>
<path fill="none" stroke="lightblue" d="M275.5,-119.73C275.5,-117.92 251.3,-116.45 221.5,-116.45 191.7,-116.45 167.5,-117.92 167.5,-119.73"/>
<text text-anchor="middle" x="221.5" y="-101.9" font-family="Arial" font-size="12.00">Primary DB node</text>
</g>
<!-- Order1&#45;&gt;PrimaryDB -->
<g id="edge5" class="edge">
<title>Order1&#45;&gt;PrimaryDB</title>
<path fill="none" stroke="black" stroke-width="1.5" d="M186.4,-173.8C192.61,-161.82 200.99,-145.62 208.01,-132.06"/>
<polygon fill="black" stroke="black" stroke-width="1.5" points="211.12,-133.67 212.61,-123.18 204.9,-130.45 211.12,-133.67"/>
<text text-anchor="middle" x="237" y="-144.8" font-family="Times,serif" font-size="14.00">All writes</text>
</g>
<!-- ReadReplica1 -->
<g id="node5" class="node">
<title>ReadReplica1</title>
<path fill="lightblue" stroke="lightblue" d="M85,-32.73C85,-34.53 65.95,-36 42.5,-36 19.05,-36 0,-34.53 0,-32.73 0,-32.73 0,-3.27 0,-3.27 0,-1.47 19.05,0 42.5,0 65.95,0 85,-1.47 85,-3.27 85,-3.27 85,-32.73 85,-32.73"/>
<path fill="none" stroke="lightblue" d="M85,-32.73C85,-30.92 65.95,-29.45 42.5,-29.45 19.05,-29.45 0,-30.92 0,-32.73"/>
<text text-anchor="middle" x="42.5" y="-14.9" font-family="Arial" font-size="12.00">Read replica</text>
</g>
<!-- Order1&#45;&gt;ReadReplica1 -->
<g id="edge3" class="edge">
<title>Order1&#45;&gt;ReadReplica1</title>
<path fill="none" stroke="black" stroke-width="1.5" d="M151.5,-173.98C121.85,-153.06 74.38,-114.65 50.5,-69 46.86,-62.04 44.78,-53.84 43.63,-46.12"/>
<polygon fill="black" stroke="black" stroke-width="1.5" points="47.09,-45.63 42.56,-36.06 40.13,-46.37 47.09,-45.63"/>
<text text-anchor="middle" x="112.5" y="-101.3" font-family="Times,serif" font-size="14.00">Reads</text>
</g>
<!-- Order2&#45;&gt;PrimaryDB -->
<g id="edge6" class="edge">
<title>Order2&#45;&gt;PrimaryDB</title>
<path fill="none" stroke="black" stroke-width="1.5" d="M312.81,-173.56C302.33,-163.58 288.58,-151.08 275.5,-141 270.09,-136.83 264.18,-132.66 258.33,-128.72"/>
<polygon fill="black" stroke="black" stroke-width="1.5" points="260.12,-125.71 249.84,-123.14 256.28,-131.56 260.12,-125.71"/>
<text text-anchor="middle" x="327" y="-144.8" font-family="Times,serif" font-size="14.00">All writes</text>
</g>
<!-- ReadReplica2 -->
<g id="node6" class="node">
<title>ReadReplica2</title>
<path fill="lightblue" stroke="lightblue" d="M382,-32.73C382,-34.53 362.95,-36 339.5,-36 316.05,-36 297,-34.53 297,-32.73 297,-32.73 297,-3.27 297,-3.27 297,-1.47 316.05,0 339.5,0 362.95,0 382,-1.47 382,-3.27 382,-3.27 382,-32.73 382,-32.73"/>
<path fill="none" stroke="lightblue" d="M382,-32.73C382,-30.92 362.95,-29.45 339.5,-29.45 316.05,-29.45 297,-30.92 297,-32.73"/>
<text text-anchor="middle" x="339.5" y="-14.9" font-family="Arial" font-size="12.00">Read replica</text>
</g>
<!-- Order2&#45;&gt;ReadReplica2 -->
<g id="edge4" class="edge">
<title>Order2&#45;&gt;ReadReplica2</title>
<path fill="none" stroke="black" stroke-width="1.5" d="M349.6,-173.66C355.04,-168.26 360.77,-162.12 365.5,-156 392.9,-120.53 404.76,-112.25 416.5,-69 418.25,-62.57 420.11,-59.61 416.5,-54 410.54,-44.74 401.45,-37.9 391.59,-32.86"/>
<polygon fill="black" stroke="black" stroke-width="1.5" points="392.94,-29.62 382.38,-28.71 390.07,-36.01 392.94,-29.62"/>
<text text-anchor="middle" x="432.5" y="-101.3" font-family="Times,serif" font-size="14.00">Reads</text>
</g>
<!-- PrimaryDB&#45;&gt;ReadReplica1 -->
<g id="edge7" class="edge">
<title>PrimaryDB&#45;&gt;ReadReplica1</title>
<path fill="none" stroke="black" stroke-width="1.5" stroke-dasharray="5,2" d="M167.31,-103.26C135,-100.22 94.87,-91.6 66.5,-69 59.06,-63.07 53.79,-54.27 50.12,-45.7"/>
<polygon fill="black" stroke="black" stroke-width="1.5" points="53.38,-44.44 46.62,-36.28 46.82,-46.87 53.38,-44.44"/>
<text text-anchor="middle" x="150" y="-57.8" font-family="Times,serif" font-size="14.00">Background replication</text>
</g>
<!-- PrimaryDB&#45;&gt;ReadReplica2 -->
<g id="edge8" class="edge">
<title>PrimaryDB&#45;&gt;ReadReplica2</title>
<path fill="none" stroke="black" stroke-width="1.5" stroke-dasharray="5,2" d="M227.66,-86.72C232.24,-76.04 239.44,-62.75 249.5,-54 260.29,-44.62 273.88,-37.6 287.21,-32.42"/>
<polygon fill="black" stroke="black" stroke-width="1.5" points="288.6,-35.64 296.83,-28.96 286.23,-29.05 288.6,-35.64"/>
<text text-anchor="middle" x="333" y="-57.8" font-family="Times,serif" font-size="14.00">Background replication</text>
</g>
</g>
</svg>
