<?xml version="1.0" encoding="UTF-8" standalone="no"?>
<!DOCTYPE svg PUBLIC "-//W3C//DTD SVG 1.1//EN"
 "http://www.w3.org/Graphics/SVG/1.1/DTD/svg11.dtd">
<!-- Generated by graphviz version 2.43.0 (0)
 -->
<!-- Title: SeparateDatabases Pages: 1 -->
<svg width="424pt" height="175pt"
 viewBox="0.00 0.00 424.00 175.00" xmlns="http://www.w3.org/2000/svg" xmlns:xlink="http://www.w3.org/1999/xlink">
<g id="graph0" class="graph" transform="scale(1 1) rotate(0) translate(4 171)">
<title>SeparateDatabases</title>
<polygon fill="white" stroke="transparent" points="-4,4 -4,-171 420,-171 420,4 -4,4"/>
<text text-anchor="middle" x="208" y="-151.8" font-family="Times,serif" font-size="14.00">Functions Using Separate Databases: Expenses Service</text>
<!-- receipts -->
<g id="node1" class="node">
<title>receipts</title>
<polygon fill="lightblue" stroke="lightblue" points="239.13,-18 190.31,-36 92.69,-36 43.87,-18 92.69,0 190.31,0 239.13,-18"/>
<text text-anchor="middle" x="141.5" y="-14.3" font-family="Times,serif" font-size="14.00">def receipts(...):</text>
</g>
<!-- receipt_db -->
<g id="node4" class="node">
<title>receipt_db</title>
<path fill="lightblue" stroke="lightblue" d="M372.06,-32.73C372.06,-34.53 350.33,-36 323.56,-36 296.8,-36 275.06,-34.53 275.06,-32.73 275.06,-32.73 275.06,-3.27 275.06,-3.27 275.06,-1.47 296.8,0 323.56,0 350.33,0 372.06,-1.47 372.06,-3.27 372.06,-3.27 372.06,-32.73 372.06,-32.73"/>
<path fill="none" stroke="lightblue" d="M372.06,-32.73C372.06,-30.92 350.33,-29.45 323.56,-29.45 296.8,-29.45 275.06,-30.92 275.06,-32.73"/>
<text text-anchor="middle" x="323.56" y="-14.3" font-family="Times,serif" font-size="14.00">Receipt DB</text>
</g>
<!-- receipts&#45;&gt;receipt_db -->
<g id="edge1" class="edge">
<title>receipts&#45;&gt;receipt_db</title>
<path fill="none" stroke="black" d="M239.12,-18C247.8,-18 256.4,-18 264.59,-18"/>
<polygon fill="black" stroke="black" points="264.73,-21.5 274.73,-18 264.73,-14.5 264.73,-21.5"/>
</g>
<!-- claim -->
<g id="node2" class="node">
<title>claim</title>
<polygon fill="lightblue" stroke="lightblue" points="224.11,-72 182.8,-90 100.2,-90 58.89,-72 100.2,-54 182.8,-54 224.11,-72"/>
<text text-anchor="middle" x="141.5" y="-68.3" font-family="Times,serif" font-size="14.00">def claim(...):</text>
</g>
<!-- claim_db -->
<g id="node5" class="node">
<title>claim_db</title>
<path fill="lightblue" stroke="lightblue" d="M365.56,-86.73C365.56,-88.53 346.74,-90 323.56,-90 300.39,-90 281.56,-88.53 281.56,-86.73 281.56,-86.73 281.56,-57.27 281.56,-57.27 281.56,-55.47 300.39,-54 323.56,-54 346.74,-54 365.56,-55.47 365.56,-57.27 365.56,-57.27 365.56,-86.73 365.56,-86.73"/>
<path fill="none" stroke="lightblue" d="M365.56,-86.73C365.56,-84.92 346.74,-83.45 323.56,-83.45 300.39,-83.45 281.56,-84.92 281.56,-86.73"/>
<text text-anchor="middle" x="323.56" y="-68.3" font-family="Times,serif" font-size="14.00">Claim DB</text>
</g>
<!-- claim&#45;&gt;claim_db -->
<g id="edge2" class="edge">
<title>claim&#45;&gt;claim_db</title>
<path fill="none" stroke="black" d="M224.1,-72C239.98,-72 256.2,-72 270.79,-72"/>
<polygon fill="black" stroke="black" points="271.08,-75.5 281.08,-72 271.08,-68.5 271.08,-75.5"/>
</g>
<!-- report -->
<g id="node3" class="node">
<title>report</title>
<polygon fill="lightblue" stroke="lightblue" points="229.11,-126 185.31,-144 97.69,-144 53.89,-126 97.69,-108 185.31,-108 229.11,-126"/>
<text text-anchor="middle" x="141.5" y="-122.3" font-family="Times,serif" font-size="14.00">def report(...):</text>
</g>
<!-- report_db -->
<g id="node6" class="node">
<title>report_db</title>
<path fill="lightblue" stroke="lightblue" d="M369.56,-140.73C369.56,-142.53 348.95,-144 323.56,-144 298.18,-144 277.56,-142.53 277.56,-140.73 277.56,-140.73 277.56,-111.27 277.56,-111.27 277.56,-109.47 298.18,-108 323.56,-108 348.95,-108 369.56,-109.47 369.56,-111.27 369.56,-111.27 369.56,-140.73 369.56,-140.73"/>
<path fill="none" stroke="lightblue" d="M369.56,-140.73C369.56,-138.92 348.95,-137.45 323.56,-137.45 298.18,-137.45 277.56,-138.92 277.56,-140.73"/>
<text text-anchor="middle" x="323.56" y="-122.3" font-family="Times,serif" font-size="14.00">Report DB</text>
</g>
<!-- report&#45;&gt;report_db -->
<g id="edge3" class="edge">
<title>report&#45;&gt;report_db</title>
<path fill="none" stroke="black" d="M229.37,-126C242.17,-126 255.05,-126 266.98,-126"/>
<polygon fill="black" stroke="black" points="267.2,-129.5 277.2,-126 267.2,-122.5 267.2,-129.5"/>
</g>
</g>
</svg>
