<?xml version="1.0" encoding="UTF-8" standalone="no"?>
<!DOCTYPE svg PUBLIC "-//W3C//DTD SVG 1.1//EN"
 "http://www.w3.org/Graphics/SVG/1.1/DTD/svg11.dtd">
<!-- Generated by graphviz version 2.43.0 (0)
 -->
<!-- Title: SeparateContainers Pages: 1 -->
<svg width="536pt" height="182pt"
 viewBox="0.00 0.00 536.00 182.00" xmlns="http://www.w3.org/2000/svg" xmlns:xlink="http://www.w3.org/1999/xlink">
<g id="graph0" class="graph" transform="scale(1 1) rotate(0) translate(4 178)">
<title>SeparateContainers</title>
<polygon fill="white" stroke="transparent" points="-4,4 -4,-178 532,-178 532,4 -4,4"/>
<text text-anchor="middle" x="264" y="-154" font-family="Times,serif" font-size="20.00">Running Services in Separate Containers</text>
<g id="clust1" class="cluster">
<title>cluster_host</title>
<polygon fill="none" stroke="black" points="8,-8 8,-136 520,-136 520,-8 8,-8"/>
<text text-anchor="middle" x="264" y="-116" font-family="Times,serif" font-size="20.00">Host</text>
</g>
<g id="clust2" class="cluster">
<title>cluster_container1</title>
<polygon fill="none" stroke="black" points="394,-16 394,-98 512,-98 512,-16 394,-16"/>
<text text-anchor="middle" x="453" y="-78" font-family="Times,serif" font-size="20.00">Container</text>
</g>
<g id="clust3" class="cluster">
<title>cluster_container2</title>
<polygon fill="none" stroke="black" points="268,-16 268,-98 386,-98 386,-16 268,-16"/>
<text text-anchor="middle" x="327" y="-78" font-family="Times,serif" font-size="20.00">Container</text>
</g>
<g id="clust4" class="cluster">
<title>cluster_container3</title>
<polygon fill="none" stroke="black" points="142,-16 142,-98 260,-98 260,-16 142,-16"/>
<text text-anchor="middle" x="201" y="-78" font-family="Times,serif" font-size="20.00">Container</text>
</g>
<g id="clust5" class="cluster">
<title>cluster_container4</title>
<polygon fill="none" stroke="black" points="16,-16 16,-98 134,-98 134,-16 16,-16"/>
<text text-anchor="middle" x="75" y="-78" font-family="Times,serif" font-size="20.00">Container</text>
</g>
<!-- Instance1 -->
<g id="node1" class="node">
<title>Instance1</title>
<polygon fill="lightblue" stroke="lightblue" points="484,-60 422,-60 422,-24 484,-24 484,-60"/>
<text text-anchor="middle" x="453" y="-38.9" font-family="Arial" font-size="12.00">Instance</text>
</g>
<!-- Instance2 -->
<g id="node2" class="node">
<title>Instance2</title>
<polygon fill="lightblue" stroke="lightblue" points="358,-60 296,-60 296,-24 358,-24 358,-60"/>
<text text-anchor="middle" x="327" y="-38.9" font-family="Arial" font-size="12.00">Instance</text>
</g>
<!-- Instance3 -->
<g id="node3" class="node">
<title>Instance3</title>
<polygon fill="lightblue" stroke="lightblue" points="232,-60 170,-60 170,-24 232,-24 232,-60"/>
<text text-anchor="middle" x="201" y="-38.9" font-family="Arial" font-size="12.00">Instance</text>
</g>
<!-- Instance4 -->
<g id="node4" class="node">
<title>Instance4</title>
<polygon fill="lightblue" stroke="lightblue" points="106,-60 44,-60 44,-24 106,-24 106,-60"/>
<text text-anchor="middle" x="75" y="-38.9" font-family="Arial" font-size="12.00">Instance</text>
</g>
</g>
</svg>
