<?xml version="1.0" encoding="UTF-8" standalone="no"?>
<!DOCTYPE svg PUBLIC "-//W3C//DTD SVG 1.1//EN"
 "http://www.w3.org/Graphics/SVG/1.1/DTD/svg11.dtd">
<!-- Generated by graphviz version 2.43.0 (0)
 -->
<!-- Title: SharedDatabase Pages: 1 -->
<svg width="449pt" height="211pt"
 viewBox="0.00 0.00 449.06 211.00" xmlns="http://www.w3.org/2000/svg" xmlns:xlink="http://www.w3.org/1999/xlink">
<g id="graph0" class="graph" transform="scale(1 1) rotate(0) translate(4 207)">
<title>SharedDatabase</title>
<polygon fill="white" stroke="transparent" points="-4,4 -4,-207 445.06,-207 445.06,4 -4,4"/>
<text text-anchor="middle" x="220.53" y="-187.8" font-family="Times,serif" font-size="14.00">Multiple instances sharing a single database</text>
<!-- LoadBalancer -->
<g id="node1" class="node">
<title>LoadBalancer</title>
<polygon fill="lightblue" stroke="lightblue" points="267.03,-180 174.03,-180 174.03,-144 267.03,-144 267.03,-180"/>
<text text-anchor="middle" x="220.53" y="-158.9" font-family="Arial" font-size="12.00">Load balancer</text>
</g>
<!-- Order1 -->
<g id="node2" class="node">
<title>Order1</title>
<polygon fill="lightblue" stroke="lightblue" points="135.08,-90 101.31,-108 33.75,-108 -0.03,-90 33.75,-72 101.31,-72 135.08,-90"/>
<text text-anchor="middle" x="67.53" y="-86.9" font-family="Arial" font-size="12.00">Order instance</text>
</g>
<!-- LoadBalancer&#45;&gt;Order1 -->
<g id="edge1" class="edge">
<title>LoadBalancer&#45;&gt;Order1</title>
<path fill="none" stroke="black" stroke-width="1.5" d="M183.1,-143.88C161.73,-134.1 134.81,-121.78 112.33,-111.5"/>
<polygon fill="black" stroke="black" stroke-width="1.5" points="113.54,-108.2 102.99,-107.23 110.63,-114.57 113.54,-108.2"/>
</g>
<!-- Order2 -->
<g id="node3" class="node">
<title>Order2</title>
<polygon fill="lightblue" stroke="lightblue" points="288.08,-90 254.31,-108 186.75,-108 152.97,-90 186.75,-72 254.31,-72 288.08,-90"/>
<text text-anchor="middle" x="220.53" y="-86.9" font-family="Arial" font-size="12.00">Order instance</text>
</g>
<!-- LoadBalancer&#45;&gt;Order2 -->
<g id="edge2" class="edge">
<title>LoadBalancer&#45;&gt;Order2</title>
<path fill="none" stroke="black" stroke-width="1.5" d="M220.53,-143.7C220.53,-135.98 220.53,-126.71 220.53,-118.11"/>
<polygon fill="black" stroke="black" stroke-width="1.5" points="224.03,-118.1 220.53,-108.1 217.03,-118.1 224.03,-118.1"/>
</g>
<!-- Order3 -->
<g id="node4" class="node">
<title>Order3</title>
<polygon fill="lightblue" stroke="lightblue" points="441.08,-90 407.31,-108 339.75,-108 305.97,-90 339.75,-72 407.31,-72 441.08,-90"/>
<text text-anchor="middle" x="373.53" y="-86.9" font-family="Arial" font-size="12.00">Order instance</text>
</g>
<!-- LoadBalancer&#45;&gt;Order3 -->
<g id="edge3" class="edge">
<title>LoadBalancer&#45;&gt;Order3</title>
<path fill="none" stroke="black" stroke-width="1.5" d="M257.96,-143.88C279.32,-134.1 306.24,-121.78 328.73,-111.5"/>
<polygon fill="black" stroke="black" stroke-width="1.5" points="330.43,-114.57 338.06,-107.23 327.51,-108.2 330.43,-114.57"/>
</g>
<!-- PrimaryDB -->
<g id="node5" class="node">
<title>PrimaryDB</title>
<path fill="lightblue" stroke="lightblue" d="M274.53,-32.73C274.53,-34.53 250.32,-36 220.53,-36 190.73,-36 166.53,-34.53 166.53,-32.73 166.53,-32.73 166.53,-3.27 166.53,-3.27 166.53,-1.47 190.73,0 220.53,0 250.32,0 274.53,-1.47 274.53,-3.27 274.53,-3.27 274.53,-32.73 274.53,-32.73"/>
<path fill="none" stroke="lightblue" d="M274.53,-32.73C274.53,-30.92 250.32,-29.45 220.53,-29.45 190.73,-29.45 166.53,-30.92 166.53,-32.73"/>
<text text-anchor="middle" x="220.53" y="-14.9" font-family="Arial" font-size="12.00">Primary DB node</text>
</g>
<!-- Order1&#45;&gt;PrimaryDB -->
<g id="edge4" class="edge">
<title>Order1&#45;&gt;PrimaryDB</title>
<path fill="none" stroke="black" stroke-width="1.5" d="M103.01,-72.76C124.43,-62.97 151.93,-50.39 174.94,-39.86"/>
<polygon fill="black" stroke="black" stroke-width="1.5" points="176.53,-42.98 184.17,-35.63 173.62,-36.61 176.53,-42.98"/>
</g>
<!-- Order2&#45;&gt;PrimaryDB -->
<g id="edge5" class="edge">
<title>Order2&#45;&gt;PrimaryDB</title>
<path fill="none" stroke="black" stroke-width="1.5" d="M220.53,-71.7C220.53,-63.98 220.53,-54.71 220.53,-46.11"/>
<polygon fill="black" stroke="black" stroke-width="1.5" points="224.03,-46.1 220.53,-36.1 217.03,-46.1 224.03,-46.1"/>
</g>
<!-- Order3&#45;&gt;PrimaryDB -->
<g id="edge6" class="edge">
<title>Order3&#45;&gt;PrimaryDB</title>
<path fill="none" stroke="black" stroke-width="1.5" d="M338.04,-72.76C316.63,-62.97 289.13,-50.39 266.11,-39.86"/>
<polygon fill="black" stroke="black" stroke-width="1.5" points="267.43,-36.61 256.88,-35.63 264.52,-42.98 267.43,-36.61"/>
</g>
</g>
</svg>
