<?xml version="1.0" encoding="UTF-8" standalone="no"?>
<!DOCTYPE svg PUBLIC "-//W3C//DTD SVG 1.1//EN"
 "http://www.w3.org/Graphics/SVG/1.1/DTD/svg11.dtd">
<!-- Generated by graphviz version 2.43.0 (0)
 -->
<!-- Title: SharedKernelContainers Pages: 1 -->
<svg width="410pt" height="298pt"
 viewBox="0.00 0.00 410.00 298.00" xmlns="http://www.w3.org/2000/svg" xmlns:xlink="http://www.w3.org/1999/xlink">
<g id="graph0" class="graph" transform="scale(1 1) rotate(0) translate(4 294)">
<title>SharedKernelContainers</title>
<polygon fill="white" stroke="transparent" points="-4,4 -4,-294 406,-294 406,4 -4,4"/>
<text text-anchor="middle" x="201" y="-270" font-family="Times,serif" font-size="20.00">Containers Sharing the Same Kernel</text>
<g id="clust1" class="cluster">
<title>cluster_machine</title>
<polygon fill="none" stroke="black" stroke-dasharray="1,5" points="8,-8 8,-252 394,-252 394,-8 8,-8"/>
<text text-anchor="middle" x="201" y="-232" font-family="Times,serif" font-size="20.00">Machine</text>
</g>
<g id="clust2" class="cluster">
<title>cluster_container1</title>
<polygon fill="none" stroke="black" stroke-dasharray="5,2" points="16,-16 16,-98 134,-98 134,-16 16,-16"/>
<text text-anchor="middle" x="75" y="-78" font-family="Times,serif" font-size="20.00">Container</text>
</g>
<g id="clust3" class="cluster">
<title>cluster_container2</title>
<polygon fill="none" stroke="black" stroke-dasharray="5,2" points="142,-16 142,-98 260,-98 260,-16 142,-16"/>
<text text-anchor="middle" x="201" y="-78" font-family="Times,serif" font-size="20.00">Container</text>
</g>
<g id="clust4" class="cluster">
<title>cluster_container3</title>
<polygon fill="none" stroke="black" stroke-dasharray="5,2" points="268,-16 268,-98 386,-98 386,-16 268,-16"/>
<text text-anchor="middle" x="327" y="-78" font-family="Times,serif" font-size="20.00">Container</text>
</g>
<!-- Kernel -->
<g id="node1" class="node">
<title>Kernel</title>
<polygon fill="lightblue" stroke="lightblue" points="217,-214 163,-214 163,-178 217,-178 217,-214"/>
<text text-anchor="middle" x="190" y="-192.9" font-family="Arial" font-size="12.00">Kernel</text>
</g>
<!-- OS1 -->
<g id="node3" class="node">
<title>OS1</title>
<polygon fill="lightblue" stroke="lightblue" points="135,-142 81,-142 81,-106 135,-106 135,-142"/>
<text text-anchor="middle" x="108" y="-120.9" font-family="Arial" font-size="12.00">OS</text>
</g>
<!-- Kernel&#45;&gt;OS1 -->
<g id="edge4" class="edge">
<title>Kernel&#45;&gt;OS1</title>
<path fill="none" stroke="black" d="M169.73,-177.7C159.5,-168.97 146.94,-158.24 135.82,-148.75"/>
<polygon fill="black" stroke="black" points="137.91,-145.94 128.04,-142.1 133.37,-151.26 137.91,-145.94"/>
</g>
<!-- OS2 -->
<g id="node5" class="node">
<title>OS2</title>
<polygon fill="lightblue" stroke="lightblue" points="217,-142 163,-142 163,-106 217,-106 217,-142"/>
<text text-anchor="middle" x="190" y="-120.9" font-family="Arial" font-size="12.00">OS</text>
</g>
<!-- Kernel&#45;&gt;OS2 -->
<g id="edge5" class="edge">
<title>Kernel&#45;&gt;OS2</title>
<path fill="none" stroke="black" d="M190,-177.7C190,-169.98 190,-160.71 190,-152.11"/>
<polygon fill="black" stroke="black" points="193.5,-152.1 190,-142.1 186.5,-152.1 193.5,-152.1"/>
</g>
<!-- OS3 -->
<g id="node7" class="node">
<title>OS3</title>
<polygon fill="lightblue" stroke="lightblue" points="316,-142 262,-142 262,-106 316,-106 316,-142"/>
<text text-anchor="middle" x="289" y="-120.9" font-family="Arial" font-size="12.00">OS</text>
</g>
<!-- Kernel&#45;&gt;OS3 -->
<g id="edge6" class="edge">
<title>Kernel&#45;&gt;OS3</title>
<path fill="none" stroke="black" d="M214.22,-177.88C226.92,-168.89 242.66,-157.76 256.42,-148.03"/>
<polygon fill="black" stroke="black" points="258.54,-150.82 264.69,-142.19 254.5,-145.11 258.54,-150.82"/>
</g>
<!-- App1 -->
<g id="node2" class="node">
<title>App1</title>
<polygon fill="lightblue" stroke="lightblue" points="126,-60 72,-60 72,-24 126,-24 126,-60"/>
<text text-anchor="middle" x="99" y="-38.9" font-family="Arial" font-size="12.00">App</text>
</g>
<!-- OS1&#45;&gt;App1 -->
<!-- App2 -->
<g id="node4" class="node">
<title>App2</title>
<polygon fill="lightblue" stroke="lightblue" points="217,-60 163,-60 163,-24 217,-24 217,-60"/>
<text text-anchor="middle" x="190" y="-38.9" font-family="Arial" font-size="12.00">App</text>
</g>
<!-- OS2&#45;&gt;App2 -->
<!-- App3 -->
<g id="node6" class="node">
<title>App3</title>
<polygon fill="lightblue" stroke="lightblue" points="330,-60 276,-60 276,-24 330,-24 330,-60"/>
<text text-anchor="middle" x="303" y="-38.9" font-family="Arial" font-size="12.00">App</text>
</g>
<!-- OS3&#45;&gt;App3 -->
</g>
</svg>
