<?xml version="1.0" encoding="UTF-8" standalone="no"?>
<!DOCTYPE svg PUBLIC "-//W3C//DTD SVG 1.1//EN"
 "http://www.w3.org/Graphics/SVG/1.1/DTD/svg11.dtd">
<!-- Generated by graphviz version 2.43.0 (0)
 -->
<!-- Title: SharedInfra Pages: 1 -->
<svg width="433pt" height="158pt"
 viewBox="0.00 0.00 433.00 158.00" xmlns="http://www.w3.org/2000/svg" xmlns:xlink="http://www.w3.org/1999/xlink">
<g id="graph0" class="graph" transform="scale(1 1) rotate(0) translate(4 154)">
<title>SharedInfra</title>
<polygon fill="white" stroke="transparent" points="-4,4 -4,-154 429,-154 429,4 -4,4"/>
<text text-anchor="middle" x="212.5" y="-134.8" font-family="Times,serif" font-size="14.00">Shared DB infrastructure for logically isolated databases</text>
<g id="clust1" class="cluster">
<title>cluster_SharedInfra</title>
<polygon fill="none" stroke="lightpink" points="92.5,-8 92.5,-83 332.5,-83 332.5,-8 92.5,-8"/>
<text text-anchor="middle" x="212.5" y="-67.8" font-family="Times,serif" font-size="14.00">Dedicated DB infrastructure</text>
</g>
<!-- Invoice -->
<g id="node1" class="node">
<title>Invoice</title>
<polygon fill="lightblue" stroke="lightblue" points="192.69,-109 173.1,-127 133.9,-127 114.31,-109 133.9,-91 173.1,-91 192.69,-109"/>
<text text-anchor="middle" x="153.5" y="-105.9" font-family="Arial" font-size="12.00">Invoice</text>
</g>
<!-- InvoiceDB -->
<g id="node3" class="node">
<title>InvoiceDB</title>
<path fill="lightblue" stroke="lightblue" d="M207,-48.73C207,-50.53 183.02,-52 153.5,-52 123.98,-52 100,-50.53 100,-48.73 100,-48.73 100,-19.27 100,-19.27 100,-17.47 123.98,-16 153.5,-16 183.02,-16 207,-17.47 207,-19.27 207,-19.27 207,-48.73 207,-48.73"/>
<path fill="none" stroke="lightblue" d="M207,-48.73C207,-46.92 183.02,-45.45 153.5,-45.45 123.98,-45.45 100,-46.92 100,-48.73"/>
<text text-anchor="middle" x="153.5" y="-30.9" font-family="Arial" font-size="12.00">Invoice database</text>
</g>
<!-- Invoice&#45;&gt;InvoiceDB -->
<g id="edge1" class="edge">
<title>Invoice&#45;&gt;InvoiceDB</title>
<path fill="none" stroke="black" stroke-width="1.5" d="M153.5,-90.7C153.5,-82.25 153.5,-71.87 153.5,-62.37"/>
<polygon fill="black" stroke="black" stroke-width="1.5" points="157,-62.18 153.5,-52.18 150,-62.18 157,-62.18"/>
</g>
<!-- Order -->
<g id="node2" class="node">
<title>Order</title>
<polygon fill="lightblue" stroke="lightblue" points="307.82,-109 291.16,-127 257.84,-127 241.18,-109 257.84,-91 291.16,-91 307.82,-109"/>
<text text-anchor="middle" x="274.5" y="-105.9" font-family="Arial" font-size="12.00">Order</text>
</g>
<!-- OrderDB -->
<g id="node4" class="node">
<title>OrderDB</title>
<path fill="lightblue" stroke="lightblue" d="M324,-48.73C324,-50.53 301.81,-52 274.5,-52 247.19,-52 225,-50.53 225,-48.73 225,-48.73 225,-19.27 225,-19.27 225,-17.47 247.19,-16 274.5,-16 301.81,-16 324,-17.47 324,-19.27 324,-19.27 324,-48.73 324,-48.73"/>
<path fill="none" stroke="lightblue" d="M324,-48.73C324,-46.92 301.81,-45.45 274.5,-45.45 247.19,-45.45 225,-46.92 225,-48.73"/>
<text text-anchor="middle" x="274.5" y="-30.9" font-family="Arial" font-size="12.00">Order database</text>
</g>
<!-- Order&#45;&gt;OrderDB -->
<g id="edge2" class="edge">
<title>Order&#45;&gt;OrderDB</title>
<path fill="none" stroke="black" stroke-width="1.5" d="M274.5,-90.7C274.5,-82.25 274.5,-71.87 274.5,-62.37"/>
<polygon fill="black" stroke="black" stroke-width="1.5" points="278,-62.18 274.5,-52.18 271,-62.18 278,-62.18"/>
</g>
</g>
</svg>
