<?xml version="1.0" encoding="UTF-8" standalone="no"?>
<!DOCTYPE svg PUBLIC "-//W3C//DTD SVG 1.1//EN"
 "http://www.w3.org/Graphics/SVG/1.1/DTD/svg11.dtd">
<!-- Generated by graphviz version 2.43.0 (0)
 -->
<!-- Title: SingleFunctionDeployment Pages: 1 -->
<svg width="363pt" height="168pt"
 viewBox="0.00 0.00 363.21 168.17" xmlns="http://www.w3.org/2000/svg" xmlns:xlink="http://www.w3.org/1999/xlink">
<g id="graph0" class="graph" transform="scale(1 1) rotate(0) translate(4 164.17)">
<title>SingleFunctionDeployment</title>
<polygon fill="white" stroke="transparent" points="-4,4 -4,-164.17 359.21,-164.17 359.21,4 -4,4"/>
<text text-anchor="middle" x="177.61" y="-144.97" font-family="Times,serif" font-size="14.00">Single Function Deployment: Expenses Service</text>
<!-- path -->
<g id="node1" class="node">
<title>path</title>
<polygon fill="lightblue" stroke="transparent" points="71,-95.09 0,-95.09 0,-42.09 71,-42.09 71,-95.09"/>
<text text-anchor="middle" x="35.5" y="-79.89" font-family="Times,serif" font-size="14.00">/receipt</text>
<text text-anchor="middle" x="35.5" y="-64.89" font-family="Times,serif" font-size="14.00">/claim</text>
<text text-anchor="middle" x="35.5" y="-49.89" font-family="Times,serif" font-size="14.00">/report</text>
</g>
<!-- expenses -->
<g id="node2" class="node">
<title>expenses</title>
<polygon fill="lightblue" stroke="lightblue" points="355.32,-68.59 293.22,-137.26 169,-137.26 106.89,-68.59 169,0.09 293.22,0.09 355.32,-68.59"/>
<text text-anchor="middle" x="231.11" y="-95.39" font-family="Times,serif" font-size="14.00">Expenses</text>
<text text-anchor="middle" x="231.11" y="-64.39" font-family="Times,serif" font-size="14.00">def main_entry(...):</text>
<text text-anchor="middle" x="231.11" y="-49.39" font-family="Times,serif" font-size="14.00"> &#160;//switch based</text>
<text text-anchor="middle" x="231.11" y="-34.39" font-family="Times,serif" font-size="14.00"> &#160;//on path</text>
</g>
<!-- path&#45;&gt;expenses -->
<g id="edge1" class="edge">
<title>path&#45;&gt;expenses</title>
<path fill="none" stroke="black" d="M71.11,-68.59C78.86,-68.59 87.53,-68.59 96.72,-68.59"/>
<polygon fill="black" stroke="black" points="96.87,-72.09 106.87,-68.59 96.87,-65.09 96.87,-72.09"/>
</g>
</g>
</svg>
