<?xml version="1.0" encoding="UTF-8" standalone="no"?>
<!DOCTYPE svg PUBLIC "-//W3C//DTD SVG 1.1//EN"
 "http://www.w3.org/Graphics/SVG/1.1/DTD/svg11.dtd">
<!-- Generated by graphviz version 2.43.0 (0)
 -->
<!-- Title: SingleInstancePerHost Pages: 1 -->
<svg width="464pt" height="122pt"
 viewBox="0.00 0.00 464.00 122.00" xmlns="http://www.w3.org/2000/svg" xmlns:xlink="http://www.w3.org/1999/xlink">
<g id="graph0" class="graph" transform="scale(1 1) rotate(0) translate(4 118)">
<title>SingleInstancePerHost</title>
<polygon fill="white" stroke="transparent" points="-4,4 -4,-118 460,-118 460,4 -4,4"/>
<text text-anchor="middle" x="228" y="-98.8" font-family="Times,serif" font-size="14.00">A single microservice per host</text>
<g id="clust1" class="cluster">
<title>cluster_Host1</title>
<polygon fill="none" stroke="black" points="8,-8 8,-83 112,-83 112,-8 8,-8"/>
<text text-anchor="middle" x="60" y="-67.8" font-family="Times,serif" font-size="14.00">Host</text>
</g>
<g id="clust2" class="cluster">
<title>cluster_Host2</title>
<polygon fill="none" stroke="black" points="120,-8 120,-83 224,-83 224,-8 120,-8"/>
<text text-anchor="middle" x="172" y="-67.8" font-family="Times,serif" font-size="14.00">Host</text>
</g>
<g id="clust3" class="cluster">
<title>cluster_Host3</title>
<polygon fill="none" stroke="black" points="232,-8 232,-83 336,-83 336,-8 232,-8"/>
<text text-anchor="middle" x="284" y="-67.8" font-family="Times,serif" font-size="14.00">Host</text>
</g>
<g id="clust4" class="cluster">
<title>cluster_Host4</title>
<polygon fill="none" stroke="black" points="344,-8 344,-83 448,-83 448,-8 344,-8"/>
<text text-anchor="middle" x="396" y="-67.8" font-family="Times,serif" font-size="14.00">Host</text>
</g>
<!-- Instance1 -->
<g id="node1" class="node">
<title>Instance1</title>
<polygon fill="lightblue" stroke="lightblue" points="104.14,-34 82.07,-52 37.93,-52 15.86,-34 37.93,-16 82.07,-16 104.14,-34"/>
<text text-anchor="middle" x="60" y="-30.9" font-family="Arial" font-size="12.00">Instance</text>
</g>
<!-- Instance2 -->
<g id="node2" class="node">
<title>Instance2</title>
<polygon fill="lightblue" stroke="lightblue" points="216.14,-34 194.07,-52 149.93,-52 127.86,-34 149.93,-16 194.07,-16 216.14,-34"/>
<text text-anchor="middle" x="172" y="-30.9" font-family="Arial" font-size="12.00">Instance</text>
</g>
<!-- Instance3 -->
<g id="node3" class="node">
<title>Instance3</title>
<polygon fill="lightblue" stroke="lightblue" points="328.14,-34 306.07,-52 261.93,-52 239.86,-34 261.93,-16 306.07,-16 328.14,-34"/>
<text text-anchor="middle" x="284" y="-30.9" font-family="Arial" font-size="12.00">Instance</text>
</g>
<!-- Instance4 -->
<g id="node4" class="node">
<title>Instance4</title>
<polygon fill="lightblue" stroke="lightblue" points="440.14,-34 418.07,-52 373.93,-52 351.86,-34 373.93,-16 418.07,-16 440.14,-34"/>
<text text-anchor="middle" x="396" y="-30.9" font-family="Arial" font-size="12.00">Instance</text>
</g>
</g>
</svg>
