<?xml version="1.0" encoding="UTF-8" standalone="no"?>
<!DOCTYPE svg PUBLIC "-//W3C//DTD SVG 1.1//EN"
 "http://www.w3.org/Graphics/SVG/1.1/DTD/svg11.dtd">
<!-- Generated by graphviz version 2.43.0 (0)
 -->
<!-- Title: Type2Virtualization Pages: 1 -->
<svg width="602pt" height="356pt"
 viewBox="0.00 0.00 602.00 356.00" xmlns="http://www.w3.org/2000/svg" xmlns:xlink="http://www.w3.org/1999/xlink">
<g id="graph0" class="graph" transform="scale(1 1) rotate(0) translate(4 352)">
<title>Type2Virtualization</title>
<polygon fill="white" stroke="transparent" points="-4,4 -4,-352 598,-352 598,4 -4,4"/>
<text text-anchor="middle" x="297" y="-332.8" font-family="Times,serif" font-size="14.00">Type 2 Virtualization</text>
<!-- VM1 -->
<g id="node1" class="node">
<title>VM1</title>
<polygon fill="lightblue" stroke="black" points="0,-288.5 0,-324.5 186,-324.5 186,-288.5 0,-288.5"/>
<text text-anchor="middle" x="22" y="-302.8" font-family="Times,serif" font-size="14.00">App</text>
<polyline fill="none" stroke="black" points="44,-288.5 44,-324.5 "/>
<text text-anchor="middle" x="63" y="-302.8" font-family="Times,serif" font-size="14.00">OS</text>
<polyline fill="none" stroke="black" points="82,-288.5 82,-324.5 "/>
<text text-anchor="middle" x="113.5" y="-302.8" font-family="Times,serif" font-size="14.00">Kernel</text>
<polyline fill="none" stroke="black" points="145,-288.5 145,-324.5 "/>
<text text-anchor="middle" x="165.5" y="-302.8" font-family="Times,serif" font-size="14.00">VM</text>
</g>
<!-- Hypervisor -->
<g id="node4" class="node">
<title>Hypervisor</title>
<polygon fill="pink" stroke="black" points="345,-252 249,-252 249,-216 345,-216 345,-252"/>
<text text-anchor="middle" x="297" y="-230.3" font-family="Times,serif" font-size="14.00">Hypervisor</text>
</g>
<!-- VM1&#45;&gt;Hypervisor -->
<g id="edge1" class="edge">
<title>VM1&#45;&gt;Hypervisor</title>
<path fill="none" stroke="black" d="M142.38,-288.43C171.54,-278.36 208.59,-265.55 239.11,-255"/>
<polygon fill="black" stroke="black" points="240.47,-258.24 248.78,-251.67 238.18,-251.62 240.47,-258.24"/>
</g>
<!-- VM2 -->
<g id="node2" class="node">
<title>VM2</title>
<polygon fill="lightblue" stroke="black" points="204,-288.5 204,-324.5 390,-324.5 390,-288.5 204,-288.5"/>
<text text-anchor="middle" x="226" y="-302.8" font-family="Times,serif" font-size="14.00">App</text>
<polyline fill="none" stroke="black" points="248,-288.5 248,-324.5 "/>
<text text-anchor="middle" x="267" y="-302.8" font-family="Times,serif" font-size="14.00">OS</text>
<polyline fill="none" stroke="black" points="286,-288.5 286,-324.5 "/>
<text text-anchor="middle" x="317.5" y="-302.8" font-family="Times,serif" font-size="14.00">Kernel</text>
<polyline fill="none" stroke="black" points="349,-288.5 349,-324.5 "/>
<text text-anchor="middle" x="369.5" y="-302.8" font-family="Times,serif" font-size="14.00">VM</text>
</g>
<!-- VM2&#45;&gt;Hypervisor -->
<g id="edge2" class="edge">
<title>VM2&#45;&gt;Hypervisor</title>
<path fill="none" stroke="black" d="M297,-288.43C297,-280.67 297,-271.28 297,-262.56"/>
<polygon fill="black" stroke="black" points="300.5,-262.4 297,-252.4 293.5,-262.4 300.5,-262.4"/>
</g>
<!-- VM3 -->
<g id="node3" class="node">
<title>VM3</title>
<polygon fill="lightblue" stroke="black" points="408,-288.5 408,-324.5 594,-324.5 594,-288.5 408,-288.5"/>
<text text-anchor="middle" x="430" y="-302.8" font-family="Times,serif" font-size="14.00">App</text>
<polyline fill="none" stroke="black" points="452,-288.5 452,-324.5 "/>
<text text-anchor="middle" x="471" y="-302.8" font-family="Times,serif" font-size="14.00">OS</text>
<polyline fill="none" stroke="black" points="490,-288.5 490,-324.5 "/>
<text text-anchor="middle" x="521.5" y="-302.8" font-family="Times,serif" font-size="14.00">Kernel</text>
<polyline fill="none" stroke="black" points="553,-288.5 553,-324.5 "/>
<text text-anchor="middle" x="573.5" y="-302.8" font-family="Times,serif" font-size="14.00">VM</text>
</g>
<!-- VM3&#45;&gt;Hypervisor -->
<g id="edge3" class="edge">
<title>VM3&#45;&gt;Hypervisor</title>
<path fill="none" stroke="black" d="M451.62,-288.43C422.46,-278.36 385.41,-265.55 354.89,-255"/>
<polygon fill="black" stroke="black" points="355.82,-251.62 345.22,-251.67 353.53,-258.24 355.82,-251.62"/>
</g>
<!-- HostOS -->
<g id="node5" class="node">
<title>HostOS</title>
<polygon fill="pink" stroke="black" points="389.5,-180 204.5,-180 204.5,-144 389.5,-144 389.5,-180"/>
<text text-anchor="middle" x="297" y="-158.3" font-family="Times,serif" font-size="14.00">Host Operating System</text>
</g>
<!-- Hypervisor&#45;&gt;HostOS -->
<g id="edge4" class="edge">
<title>Hypervisor&#45;&gt;HostOS</title>
<path fill="none" stroke="black" d="M297,-215.7C297,-207.98 297,-198.71 297,-190.11"/>
<polygon fill="black" stroke="black" points="300.5,-190.1 297,-180.1 293.5,-190.1 300.5,-190.1"/>
</g>
<!-- Kernel -->
<g id="node6" class="node">
<title>Kernel</title>
<polygon fill="pink" stroke="black" points="328.5,-108 265.5,-108 265.5,-72 328.5,-72 328.5,-108"/>
<text text-anchor="middle" x="297" y="-86.3" font-family="Times,serif" font-size="14.00">Kernel</text>
</g>
<!-- HostOS&#45;&gt;Kernel -->
<g id="edge5" class="edge">
<title>HostOS&#45;&gt;Kernel</title>
<path fill="none" stroke="black" d="M297,-143.7C297,-135.98 297,-126.71 297,-118.11"/>
<polygon fill="black" stroke="black" points="300.5,-118.1 297,-108.1 293.5,-118.1 300.5,-118.1"/>
</g>
<!-- Machine -->
<g id="node7" class="node">
<title>Machine</title>
<polygon fill="pink" stroke="black" points="335.5,-36 258.5,-36 258.5,0 335.5,0 335.5,-36"/>
<text text-anchor="middle" x="297" y="-14.3" font-family="Times,serif" font-size="14.00">Machine</text>
</g>
<!-- Kernel&#45;&gt;Machine -->
<g id="edge6" class="edge">
<title>Kernel&#45;&gt;Machine</title>
<path fill="none" stroke="black" d="M297,-71.7C297,-63.98 297,-54.71 297,-46.11"/>
<polygon fill="black" stroke="black" points="300.5,-46.1 297,-36.1 293.5,-46.1 300.5,-46.1"/>
</g>
</g>
</svg>
