<?xml version="1.0" encoding="UTF-8" standalone="no"?>
<!DOCTYPE svg PUBLIC "-//W3C//DTD SVG 1.1//EN"
 "http://www.w3.org/Graphics/SVG/1.1/DTD/svg11.dtd">
<!-- Generated by graphviz version 2.43.0 (0)
 -->
<!-- Title: CorrelationID Pages: 1 -->
<svg width="524pt" height="298pt"
 viewBox="0.00 0.00 524.03 298.11" xmlns="http://www.w3.org/2000/svg" xmlns:xlink="http://www.w3.org/1999/xlink">
<g id="graph0" class="graph" transform="scale(1 1) rotate(0) translate(4 294.11)">
<title>CorrelationID</title>
<polygon fill="white" stroke="transparent" points="-4,4 -4,-294.11 520.03,-294.11 520.03,4 -4,4"/>
<text text-anchor="middle" x="258.02" y="-273.31" font-family="Times,serif" font-size="16.00">Generating a Correlation ID for a Set of Calls</text>
<!-- Gateway -->
<g id="node1" class="node">
<title>Gateway</title>
<polygon fill="lightblue" stroke="lightblue" points="351.52,-264.11 164.52,-264.11 164.52,-226.11 351.52,-226.11 351.52,-264.11"/>
<text text-anchor="middle" x="258.02" y="-248.91" font-family="Helvetica,sans-Serif" font-size="14.00">Gateway</text>
<text text-anchor="middle" x="258.02" y="-233.91" font-family="Helvetica,sans-Serif" font-size="14.00">Correlation ID generated</text>
</g>
<!-- Streaming -->
<g id="node2" class="node">
<title>Streaming</title>
<polygon fill="lightblue" stroke="lightblue" points="338.05,-144.08 298.03,-175.13 218,-175.13 177.98,-144.08 218,-113.03 298.03,-113.03 338.05,-144.08"/>
<text text-anchor="middle" x="258.02" y="-147.88" font-family="Helvetica,sans-Serif" font-size="14.00">Streaming</text>
<text text-anchor="middle" x="258.02" y="-132.88" font-family="Helvetica,sans-Serif" font-size="14.00">ID: abc&#45;123</text>
</g>
<!-- Gateway&#45;&gt;Streaming -->
<g id="edge1" class="edge">
<title>Gateway&#45;&gt;Streaming</title>
<path fill="none" stroke="black" d="M258.02,-225.94C258.02,-214.53 258.02,-199.34 258.02,-185.22"/>
<polygon fill="black" stroke="black" points="258.02,-175.18 262.52,-185.18 258.02,-180.18 258.02,-185.18 258.02,-185.18 258.02,-185.18 258.02,-180.18 253.52,-185.18 258.02,-175.18 258.02,-175.18"/>
<text text-anchor="middle" x="299.02" y="-196.91" font-family="Times,serif" font-size="14.00">ID: abc&#45;123</text>
</g>
<!-- Payment -->
<g id="node3" class="node">
<title>Payment</title>
<polygon fill="lightblue" stroke="lightblue" points="160.05,-31.03 120.03,-62.08 40,-62.08 -0.02,-31.03 40,0.03 120.03,0.03 160.05,-31.03"/>
<text text-anchor="middle" x="80.02" y="-34.83" font-family="Helvetica,sans-Serif" font-size="14.00">Payment</text>
<text text-anchor="middle" x="80.02" y="-19.83" font-family="Helvetica,sans-Serif" font-size="14.00">ID: abc&#45;123</text>
</g>
<!-- Streaming&#45;&gt;Payment -->
<g id="edge2" class="edge">
<title>Streaming&#45;&gt;Payment</title>
<path fill="none" stroke="black" d="M211.15,-117.92C198.32,-110.77 184.52,-102.8 172.02,-95.05 157.98,-86.35 143.08,-76.45 129.46,-67.12"/>
<polygon fill="black" stroke="black" points="121.16,-61.4 131.95,-63.37 125.28,-64.23 129.39,-67.07 129.39,-67.07 129.39,-67.07 125.28,-64.23 126.84,-70.78 121.16,-61.4 121.16,-61.4"/>
<text text-anchor="middle" x="213.02" y="-83.85" font-family="Times,serif" font-size="14.00">ID: abc&#45;123</text>
</g>
<!-- Customer -->
<g id="node4" class="node">
<title>Customer</title>
<polygon fill="lightblue" stroke="lightblue" points="338.05,-31.03 298.03,-62.08 218,-62.08 177.98,-31.03 218,0.03 298.03,0.03 338.05,-31.03"/>
<text text-anchor="middle" x="258.02" y="-34.83" font-family="Helvetica,sans-Serif" font-size="14.00">Customer</text>
<text text-anchor="middle" x="258.02" y="-19.83" font-family="Helvetica,sans-Serif" font-size="14.00">ID: abc&#45;123</text>
</g>
<!-- Streaming&#45;&gt;Customer -->
<g id="edge3" class="edge">
<title>Streaming&#45;&gt;Customer</title>
<path fill="none" stroke="black" d="M258.02,-113.03C258.02,-100.44 258.02,-85.61 258.02,-72.11"/>
<polygon fill="black" stroke="black" points="258.02,-62.1 262.52,-72.1 258.02,-67.1 258.02,-72.1 258.02,-72.1 258.02,-72.1 258.02,-67.1 253.52,-72.1 258.02,-62.1 258.02,-62.1"/>
<text text-anchor="middle" x="299.02" y="-83.85" font-family="Times,serif" font-size="14.00">ID: abc&#45;123</text>
</g>
<!-- Email -->
<g id="node5" class="node">
<title>Email</title>
<polygon fill="lightblue" stroke="lightblue" points="516.05,-31.03 476.03,-62.08 396,-62.08 355.98,-31.03 396,0.03 476.03,0.03 516.05,-31.03"/>
<text text-anchor="middle" x="436.02" y="-34.83" font-family="Helvetica,sans-Serif" font-size="14.00">Email</text>
<text text-anchor="middle" x="436.02" y="-19.83" font-family="Helvetica,sans-Serif" font-size="14.00">ID: abc&#45;123</text>
</g>
<!-- Streaming&#45;&gt;Email -->
<g id="edge4" class="edge">
<title>Streaming&#45;&gt;Email</title>
<path fill="none" stroke="black" d="M304.89,-117.92C317.71,-110.77 331.52,-102.8 344.02,-95.05 358.05,-86.35 372.95,-76.45 386.57,-67.12"/>
<polygon fill="black" stroke="black" points="394.87,-61.4 389.19,-70.78 390.76,-64.23 386.64,-67.07 386.64,-67.07 386.64,-67.07 390.76,-64.23 384.09,-63.37 394.87,-61.4 394.87,-61.4"/>
<text text-anchor="middle" x="408.02" y="-83.85" font-family="Times,serif" font-size="14.00">ID: abc&#45;123</text>
</g>
</g>
</svg>
