<?xml version="1.0" encoding="UTF-8" standalone="no"?>
<!DOCTYPE svg PUBLIC "-//W3C//DTD SVG 1.1//EN"
 "http://www.w3.org/Graphics/SVG/1.1/DTD/svg11.dtd">
<!-- Generated by graphviz version 2.43.0 (0)
 -->
<!-- Title: CustomerRegistration Pages: 1 -->
<svg width="706pt" height="244pt"
 viewBox="0.00 0.00 706.00 244.00" xmlns="http://www.w3.org/2000/svg" xmlns:xlink="http://www.w3.org/1999/xlink">
<g id="graph0" class="graph" transform="scale(1 1) rotate(0) translate(4 240)">
<title>CustomerRegistration</title>
<polygon fill="white" stroke="transparent" points="-4,4 -4,-240 702,-240 702,4 -4,4"/>
<text text-anchor="middle" x="349" y="-219.2" font-family="Times,serif" font-size="16.00">A Series of Calls Across Multiple Microservices Related to Registering a Customer</text>
<!-- Gateway -->
<g id="node1" class="node">
<title>Gateway</title>
<polygon fill="lightblue" stroke="lightblue" points="366.39,-210 289.39,-210 289.39,-174 366.39,-174 366.39,-210"/>
<text text-anchor="middle" x="327.89" y="-188.3" font-family="Helvetica,sans-Serif" font-size="14.00">Gateway</text>
</g>
<!-- Streaming -->
<g id="node2" class="node">
<title>Streaming</title>
<polygon fill="lightblue" stroke="lightblue" points="393.98,-105 360.94,-123 294.85,-123 261.81,-105 294.85,-87 360.94,-87 393.98,-105"/>
<text text-anchor="middle" x="327.89" y="-101.3" font-family="Helvetica,sans-Serif" font-size="14.00">Streaming</text>
</g>
<!-- Gateway&#45;&gt;Streaming -->
<g id="edge1" class="edge">
<title>Gateway&#45;&gt;Streaming</title>
<path fill="none" stroke="black" d="M327.89,-173.8C327.89,-162.16 327.89,-146.55 327.89,-133.24"/>
<polygon fill="black" stroke="black" points="327.89,-123.18 332.39,-133.18 327.89,-128.18 327.89,-133.18 327.89,-133.18 327.89,-133.18 327.89,-128.18 323.39,-133.18 327.89,-123.18 327.89,-123.18"/>
<text text-anchor="middle" x="406.39" y="-144.8" font-family="Times,serif" font-size="14.00">Sign up for streaming</text>
</g>
<!-- Payment -->
<g id="node3" class="node">
<title>Payment</title>
<polygon fill="lightblue" stroke="lightblue" points="246.47,-18 217.68,-36 160.11,-36 131.32,-18 160.11,0 217.68,0 246.47,-18"/>
<text text-anchor="middle" x="188.89" y="-14.3" font-family="Helvetica,sans-Serif" font-size="14.00">Payment</text>
</g>
<!-- Streaming&#45;&gt;Payment -->
<g id="edge2" class="edge">
<title>Streaming&#45;&gt;Payment</title>
<path fill="none" stroke="black" d="M280.32,-94.79C261.45,-89.48 240.37,-81.33 223.89,-69 215.46,-62.69 208.29,-53.73 202.69,-45.14"/>
<polygon fill="black" stroke="black" points="197.42,-36.45 206.45,-42.67 200.01,-40.72 202.6,-45 202.6,-45 202.6,-45 200.01,-40.72 198.75,-47.33 197.42,-36.45 197.42,-36.45"/>
<text text-anchor="middle" x="273.89" y="-57.8" font-family="Times,serif" font-size="14.00">Take payment</text>
</g>
<!-- Customer -->
<g id="node4" class="node">
<title>Customer</title>
<polygon fill="lightblue" stroke="lightblue" points="390.98,-18 359.43,-36 296.35,-36 264.81,-18 296.35,0 359.43,0 390.98,-18"/>
<text text-anchor="middle" x="327.89" y="-14.3" font-family="Helvetica,sans-Serif" font-size="14.00">Customer</text>
</g>
<!-- Streaming&#45;&gt;Customer -->
<g id="edge3" class="edge">
<title>Streaming&#45;&gt;Customer</title>
<path fill="none" stroke="black" d="M327.89,-86.8C327.89,-75.16 327.89,-59.55 327.89,-46.24"/>
<polygon fill="black" stroke="black" points="327.89,-36.18 332.39,-46.18 327.89,-41.18 327.89,-46.18 327.89,-46.18 327.89,-46.18 327.89,-41.18 323.39,-46.18 327.89,-36.18 327.89,-36.18"/>
<text text-anchor="middle" x="384.39" y="-57.8" font-family="Times,serif" font-size="14.00">Enable package</text>
</g>
<!-- Email -->
<g id="node5" class="node">
<title>Email</title>
<polygon fill="lightblue" stroke="lightblue" points="504.95,-18 484.42,-36 443.37,-36 422.84,-18 443.37,0 484.42,0 504.95,-18"/>
<text text-anchor="middle" x="463.89" y="-14.3" font-family="Helvetica,sans-Serif" font-size="14.00">Email</text>
</g>
<!-- Streaming&#45;&gt;Email -->
<g id="edge4" class="edge">
<title>Streaming&#45;&gt;Email</title>
<path fill="none" stroke="black" d="M380.52,-97.54C401.65,-92.65 424.96,-84.07 441.89,-69 448.82,-62.84 453.66,-54.09 457.01,-45.63"/>
<polygon fill="black" stroke="black" points="460.28,-36.01 461.32,-46.92 458.67,-40.74 457.06,-45.48 457.06,-45.48 457.06,-45.48 458.67,-40.74 452.8,-44.03 460.28,-36.01 460.28,-36.01"/>
<text text-anchor="middle" x="509.39" y="-57.8" font-family="Times,serif" font-size="14.00">Confirm sign&#45;up</text>
</g>
</g>
</svg>
