<?xml version="1.0" encoding="UTF-8" standalone="no"?>
<!DOCTYPE svg PUBLIC "-//W3C//DTD SVG 1.1//EN"
 "http://www.w3.org/Graphics/SVG/1.1/DTD/svg11.dtd">
<!-- Generated by graphviz version 2.43.0 (0)
 -->
<!-- Title: MicroserviceArchitecture Pages: 1 -->
<svg width="688pt" height="190pt"
 viewBox="0.00 0.00 688.00 190.05" xmlns="http://www.w3.org/2000/svg" xmlns:xlink="http://www.w3.org/1999/xlink">
<g id="graph0" class="graph" transform="scale(1 1) rotate(0) translate(4 186.05)">
<title>MicroserviceArchitecture</title>
<polygon fill="white" stroke="transparent" points="-4,4 -4,-186.05 684,-186.05 684,4 -4,4"/>
<text text-anchor="middle" x="340" y="-165.25" font-family="Times,serif" font-size="16.00">A Single Service Distributed Across Multiple Hosts</text>
<g id="clust1" class="cluster">
<title>cluster_Host1</title>
<polygon fill="none" stroke="lightgreen" stroke-dasharray="5,2" points="8,-8 8,-112.05 224,-112.05 224,-8 8,-8"/>
<text text-anchor="middle" x="116" y="-95.25" font-family="Times,serif" font-size="16.00">Host</text>
</g>
<g id="clust2" class="cluster">
<title>cluster_Host2</title>
<polygon fill="none" stroke="lightgreen" stroke-dasharray="5,2" points="232,-8 232,-112.05 448,-112.05 448,-8 232,-8"/>
<text text-anchor="middle" x="340" y="-95.25" font-family="Times,serif" font-size="16.00">Host</text>
</g>
<g id="clust3" class="cluster">
<title>cluster_Host3</title>
<polygon fill="none" stroke="lightgreen" stroke-dasharray="5,2" points="456,-8 456,-112.05 672,-112.05 672,-8 456,-8"/>
<text text-anchor="middle" x="564" y="-95.25" font-family="Times,serif" font-size="16.00">Host</text>
</g>
<!-- LoadBalancer -->
<g id="node1" class="node">
<title>LoadBalancer</title>
<polygon fill="lightblue" stroke="lightblue" points="397,-156.05 283,-156.05 283,-120.05 397,-120.05 397,-156.05"/>
<text text-anchor="middle" x="340" y="-134.35" font-family="Helvetica,sans-Serif" font-size="14.00">Load balancer</text>
</g>
<!-- Microservice1 -->
<g id="node2" class="node">
<title>Microservice1</title>
<polygon fill="lightblue" stroke="lightblue" points="216.36,-47.03 166.18,-78.08 65.82,-78.08 15.64,-47.03 65.82,-15.97 166.18,-15.97 216.36,-47.03"/>
<text text-anchor="middle" x="116" y="-50.83" font-family="Helvetica,sans-Serif" font-size="14.00">Shipping</text>
<text text-anchor="middle" x="116" y="-35.83" font-family="Helvetica,sans-Serif" font-size="14.00">&lt;&lt;instance&gt;&gt;</text>
</g>
<!-- LoadBalancer&#45;&gt;Microservice1 -->
<g id="edge1" class="edge">
<title>LoadBalancer&#45;&gt;Microservice1</title>
<path fill="none" stroke="black" d="M282.91,-127.75C264.99,-123.93 245.37,-118.78 228,-112.05 208.44,-104.48 188.19,-93.87 170.39,-83.47"/>
<polygon fill="black" stroke="black" points="161.32,-78.07 172.21,-79.32 165.61,-80.63 169.91,-83.18 169.91,-83.18 169.91,-83.18 165.61,-80.63 167.6,-87.05 161.32,-78.07 161.32,-78.07"/>
</g>
<!-- Microservice2 -->
<g id="node3" class="node">
<title>Microservice2</title>
<polygon fill="lightblue" stroke="lightblue" points="440.36,-47.03 390.18,-78.08 289.82,-78.08 239.64,-47.03 289.82,-15.97 390.18,-15.97 440.36,-47.03"/>
<text text-anchor="middle" x="340" y="-50.83" font-family="Helvetica,sans-Serif" font-size="14.00">Shipping</text>
<text text-anchor="middle" x="340" y="-35.83" font-family="Helvetica,sans-Serif" font-size="14.00">&lt;&lt;instance&gt;&gt;</text>
</g>
<!-- LoadBalancer&#45;&gt;Microservice2 -->
<g id="edge2" class="edge">
<title>LoadBalancer&#45;&gt;Microservice2</title>
<path fill="none" stroke="black" d="M340,-119.89C340,-110.84 340,-99.32 340,-88.17"/>
<polygon fill="black" stroke="black" points="340,-78.12 344.5,-88.12 340,-83.12 340,-88.12 340,-88.12 340,-88.12 340,-83.12 335.5,-88.12 340,-78.12 340,-78.12"/>
</g>
<!-- Microservice3 -->
<g id="node4" class="node">
<title>Microservice3</title>
<polygon fill="lightblue" stroke="lightblue" points="664.36,-47.03 614.18,-78.08 513.82,-78.08 463.64,-47.03 513.82,-15.97 614.18,-15.97 664.36,-47.03"/>
<text text-anchor="middle" x="564" y="-50.83" font-family="Helvetica,sans-Serif" font-size="14.00">Shipping</text>
<text text-anchor="middle" x="564" y="-35.83" font-family="Helvetica,sans-Serif" font-size="14.00">&lt;&lt;instance&gt;&gt;</text>
</g>
<!-- LoadBalancer&#45;&gt;Microservice3 -->
<g id="edge3" class="edge">
<title>LoadBalancer&#45;&gt;Microservice3</title>
<path fill="none" stroke="black" d="M397.09,-127.75C415.01,-123.93 434.63,-118.78 452,-112.05 471.56,-104.48 491.81,-93.87 509.61,-83.47"/>
<polygon fill="black" stroke="black" points="518.68,-78.07 512.4,-87.05 514.39,-80.63 510.09,-83.18 510.09,-83.18 510.09,-83.18 514.39,-80.63 507.79,-79.32 518.68,-78.07 518.68,-78.07"/>
</g>
</g>
</svg>
