<?xml version="1.0" encoding="UTF-8" standalone="no"?>
<!DOCTYPE svg PUBLIC "-//W3C//DTD SVG 1.1//EN"
 "http://www.w3.org/Graphics/SVG/1.1/DTD/svg11.dtd">
<!-- Generated by graphviz version 2.43.0 (0)
 -->
<!-- Title: MultiServiceArchitecture Pages: 1 -->
<svg width="678pt" height="330pt"
 viewBox="0.00 0.00 678.00 330.11" xmlns="http://www.w3.org/2000/svg" xmlns:xlink="http://www.w3.org/1999/xlink">
<g id="graph0" class="graph" transform="scale(1 1) rotate(0) translate(4 326.11)">
<title>MultiServiceArchitecture</title>
<polygon fill="white" stroke="transparent" points="-4,4 -4,-326.11 674,-326.11 674,4 -4,4"/>
<text text-anchor="middle" x="335" y="-305.31" font-family="Times,serif" font-size="16.00">Multiple Collaborating Services Distributed Across Multiple Hosts</text>
<g id="clust1" class="cluster">
<title>cluster_Warehouse</title>
<polygon fill="none" stroke="lightgreen" stroke-dasharray="5,2" points="8,-184.05 8,-288.11 662,-288.11 662,-184.05 8,-184.05"/>
<text text-anchor="middle" x="335" y="-271.31" font-family="Times,serif" font-size="16.00">Warehouse Service Hosts</text>
</g>
<g id="clust2" class="cluster">
<title>cluster_Shipping</title>
<polygon fill="none" stroke="lightgreen" stroke-dasharray="5,2" points="8,-8 8,-112.05 662,-112.05 662,-8 8,-8"/>
<text text-anchor="middle" x="335" y="-95.25" font-family="Times,serif" font-size="16.00">Shipping Service Hosts</text>
</g>
<!-- Warehouse1 -->
<g id="node1" class="node">
<title>Warehouse1</title>
<polygon fill="lightblue" stroke="lightblue" points="654.36,-223.08 604.18,-254.13 503.82,-254.13 453.64,-223.08 503.82,-192.03 604.18,-192.03 654.36,-223.08"/>
<text text-anchor="middle" x="554" y="-226.88" font-family="Helvetica,sans-Serif" font-size="14.00">Warehouse</text>
<text text-anchor="middle" x="554" y="-211.88" font-family="Helvetica,sans-Serif" font-size="14.00">&lt;&lt;instance&gt;&gt;</text>
</g>
<!-- LoadBalancer -->
<g id="node7" class="node">
<title>LoadBalancer</title>
<polygon fill="lightblue" stroke="lightblue" points="392,-156.05 278,-156.05 278,-120.05 392,-120.05 392,-156.05"/>
<text text-anchor="middle" x="335" y="-134.35" font-family="Helvetica,sans-Serif" font-size="14.00">Load balancer</text>
</g>
<!-- Warehouse1&#45;&gt;LoadBalancer -->
<g id="edge1" class="edge">
<title>Warehouse1&#45;&gt;LoadBalancer</title>
<path fill="none" stroke="black" d="M492.71,-198.84C460.25,-186.54 420.74,-171.56 389.39,-159.67"/>
<polygon fill="black" stroke="black" points="379.93,-156.09 390.88,-155.43 384.61,-157.86 389.28,-159.63 389.28,-159.63 389.28,-159.63 384.61,-157.86 387.69,-163.84 379.93,-156.09 379.93,-156.09"/>
</g>
<!-- Warehouse2 -->
<g id="node2" class="node">
<title>Warehouse2</title>
<polygon fill="lightblue" stroke="lightblue" points="435.36,-223.08 385.18,-254.13 284.82,-254.13 234.64,-223.08 284.82,-192.03 385.18,-192.03 435.36,-223.08"/>
<text text-anchor="middle" x="335" y="-226.88" font-family="Helvetica,sans-Serif" font-size="14.00">Warehouse</text>
<text text-anchor="middle" x="335" y="-211.88" font-family="Helvetica,sans-Serif" font-size="14.00">&lt;&lt;instance&gt;&gt;</text>
</g>
<!-- Warehouse2&#45;&gt;LoadBalancer -->
<g id="edge2" class="edge">
<title>Warehouse2&#45;&gt;LoadBalancer</title>
<path fill="none" stroke="black" d="M335,-191.64C335,-183.4 335,-174.53 335,-166.47"/>
<polygon fill="black" stroke="black" points="335,-156.46 339.5,-166.46 335,-161.46 335,-166.46 335,-166.46 335,-166.46 335,-161.46 330.5,-166.46 335,-156.46 335,-156.46"/>
</g>
<!-- Warehouse3 -->
<g id="node3" class="node">
<title>Warehouse3</title>
<polygon fill="lightblue" stroke="lightblue" points="216.36,-223.08 166.18,-254.13 65.82,-254.13 15.64,-223.08 65.82,-192.03 166.18,-192.03 216.36,-223.08"/>
<text text-anchor="middle" x="116" y="-226.88" font-family="Helvetica,sans-Serif" font-size="14.00">Warehouse</text>
<text text-anchor="middle" x="116" y="-211.88" font-family="Helvetica,sans-Serif" font-size="14.00">&lt;&lt;instance&gt;&gt;</text>
</g>
<!-- Warehouse3&#45;&gt;LoadBalancer -->
<g id="edge3" class="edge">
<title>Warehouse3&#45;&gt;LoadBalancer</title>
<path fill="none" stroke="black" d="M177.29,-198.84C209.75,-186.54 249.26,-171.56 280.61,-159.67"/>
<polygon fill="black" stroke="black" points="290.07,-156.09 282.31,-163.84 285.39,-157.86 280.72,-159.63 280.72,-159.63 280.72,-159.63 285.39,-157.86 279.12,-155.43 290.07,-156.09 290.07,-156.09"/>
</g>
<!-- Shipping1 -->
<g id="node4" class="node">
<title>Shipping1</title>
<polygon fill="lightblue" stroke="lightblue" points="654.36,-47.03 604.18,-78.08 503.82,-78.08 453.64,-47.03 503.82,-15.97 604.18,-15.97 654.36,-47.03"/>
<text text-anchor="middle" x="554" y="-50.83" font-family="Helvetica,sans-Serif" font-size="14.00">Shipping</text>
<text text-anchor="middle" x="554" y="-35.83" font-family="Helvetica,sans-Serif" font-size="14.00">&lt;&lt;instance&gt;&gt;</text>
</g>
<!-- Shipping2 -->
<g id="node5" class="node">
<title>Shipping2</title>
<polygon fill="lightblue" stroke="lightblue" points="435.36,-47.03 385.18,-78.08 284.82,-78.08 234.64,-47.03 284.82,-15.97 385.18,-15.97 435.36,-47.03"/>
<text text-anchor="middle" x="335" y="-50.83" font-family="Helvetica,sans-Serif" font-size="14.00">Shipping</text>
<text text-anchor="middle" x="335" y="-35.83" font-family="Helvetica,sans-Serif" font-size="14.00">&lt;&lt;instance&gt;&gt;</text>
</g>
<!-- Shipping3 -->
<g id="node6" class="node">
<title>Shipping3</title>
<polygon fill="lightblue" stroke="lightblue" points="216.36,-47.03 166.18,-78.08 65.82,-78.08 15.64,-47.03 65.82,-15.97 166.18,-15.97 216.36,-47.03"/>
<text text-anchor="middle" x="116" y="-50.83" font-family="Helvetica,sans-Serif" font-size="14.00">Shipping</text>
<text text-anchor="middle" x="116" y="-35.83" font-family="Helvetica,sans-Serif" font-size="14.00">&lt;&lt;instance&gt;&gt;</text>
</g>
<!-- LoadBalancer&#45;&gt;Shipping1 -->
<g id="edge4" class="edge">
<title>LoadBalancer&#45;&gt;Shipping1</title>
<path fill="none" stroke="black" d="M392.28,-127.31C409.25,-123.53 427.66,-118.51 444,-112.05 463.16,-104.48 482.96,-93.93 500.39,-83.58"/>
<polygon fill="black" stroke="black" points="509.27,-78.2 503.05,-87.23 504.99,-80.79 500.71,-83.38 500.71,-83.38 500.71,-83.38 504.99,-80.79 498.38,-79.53 509.27,-78.2 509.27,-78.2"/>
</g>
<!-- LoadBalancer&#45;&gt;Shipping2 -->
<g id="edge5" class="edge">
<title>LoadBalancer&#45;&gt;Shipping2</title>
<path fill="none" stroke="black" d="M335,-119.89C335,-110.84 335,-99.32 335,-88.17"/>
<polygon fill="black" stroke="black" points="335,-78.12 339.5,-88.12 335,-83.12 335,-88.12 335,-88.12 335,-88.12 335,-83.12 330.5,-88.12 335,-78.12 335,-78.12"/>
</g>
<!-- LoadBalancer&#45;&gt;Shipping3 -->
<g id="edge6" class="edge">
<title>LoadBalancer&#45;&gt;Shipping3</title>
<path fill="none" stroke="black" d="M277.72,-127.31C260.75,-123.53 242.34,-118.51 226,-112.05 206.84,-104.48 187.04,-93.93 169.61,-83.58"/>
<polygon fill="black" stroke="black" points="160.73,-78.2 171.62,-79.53 165.01,-80.79 169.29,-83.38 169.29,-83.38 169.29,-83.38 165.01,-80.79 166.95,-87.23 160.73,-78.2 160.73,-78.2"/>
</g>
</g>
</svg>
