<?xml version="1.0" encoding="UTF-8" standalone="no"?>
<!DOCTYPE svg PUBLIC "-//W3C//DTD SVG 1.1//EN"
 "http://www.w3.org/Graphics/SVG/1.1/DTD/svg11.dtd">
<!-- Generated by graphviz version 2.43.0 (0)
 -->
<!-- Title: CommitPhase Pages: 1 -->
<svg width="370pt" height="288pt"
 viewBox="0.00 0.00 370.00 288.00" xmlns="http://www.w3.org/2000/svg" xmlns:xlink="http://www.w3.org/1999/xlink">
<g id="graph0" class="graph" transform="scale(1 1) rotate(0) translate(4 284)">
<title>CommitPhase</title>
<polygon fill="white" stroke="transparent" points="-4,4 -4,-284 366,-284 366,4 -4,4"/>
<text text-anchor="middle" x="181" y="-264.8" font-family="Times,serif" font-size="14.00">Commit Phase of a Two&#45;Phase Commit</text>
<!-- Coordinator -->
<g id="node1" class="node">
<title>Coordinator</title>
<polygon fill="lightblue" stroke="black" points="214.5,-257 112.5,-257 112.5,-221 214.5,-221 214.5,-257"/>
<text text-anchor="middle" x="163.5" y="-235.3" font-family="Times,serif" font-size="14.00">Coordinator</text>
</g>
<!-- WorkerA -->
<g id="node2" class="node">
<title>WorkerA</title>
<polygon fill="lightgrey" stroke="black" points="155,-170 72,-170 72,-134 155,-134 155,-170"/>
<text text-anchor="middle" x="113.5" y="-148.3" font-family="Times,serif" font-size="14.00">Worker A</text>
</g>
<!-- Coordinator&#45;&gt;WorkerA -->
<g id="edge1" class="edge">
<title>Coordinator&#45;&gt;WorkerA</title>
<path fill="none" stroke="black" d="M140.65,-221C134.98,-215.78 129.41,-209.65 125.5,-203 121.46,-196.12 118.78,-187.95 117,-180.23"/>
<polygon fill="black" stroke="black" points="120.39,-179.32 115.09,-170.14 113.51,-180.62 120.39,-179.32"/>
<text text-anchor="middle" x="157" y="-191.8" font-family="Times,serif" font-size="14.00">Commit!</text>
</g>
<!-- WorkerB -->
<g id="node3" class="node">
<title>WorkerB</title>
<polygon fill="lightgrey" stroke="black" points="278,-170 195,-170 195,-134 278,-134 278,-170"/>
<text text-anchor="middle" x="236.5" y="-148.3" font-family="Times,serif" font-size="14.00">Worker B</text>
</g>
<!-- Coordinator&#45;&gt;WorkerB -->
<g id="edge3" class="edge">
<title>Coordinator&#45;&gt;WorkerB</title>
<path fill="none" stroke="black" d="M178.27,-220.8C188.86,-208.47 203.28,-191.68 215.12,-177.89"/>
<polygon fill="black" stroke="black" points="217.89,-180.04 221.75,-170.18 212.58,-175.48 217.89,-180.04"/>
<text text-anchor="middle" x="235" y="-191.8" font-family="Times,serif" font-size="14.00">Commit!</text>
</g>
<!-- CustomerDB -->
<g id="node4" class="node">
<title>CustomerDB</title>
<polygon fill="none" stroke="black" points="139,-68 0,-68 0,0 139,0 139,-68"/>
<text text-anchor="middle" x="69.5" y="-52.8" font-family="Times,serif" font-size="14.00">Customer Table</text>
<text text-anchor="middle" x="69.5" y="-37.8" font-family="Times,serif" font-size="14.00">Cust ID | Status</text>
<text text-anchor="middle" x="69.5" y="-22.8" font-family="Times,serif" font-size="14.00">2346 | VERIFIED</text>
<text text-anchor="middle" x="69.5" y="-7.8" font-family="Times,serif" font-size="14.00">9943 | PENDING</text>
</g>
<!-- WorkerA&#45;&gt;CustomerDB -->
<g id="edge2" class="edge">
<title>WorkerA&#45;&gt;CustomerDB</title>
<path fill="none" stroke="black" d="M107.01,-133.88C101.4,-119.11 93.07,-97.14 85.68,-77.66"/>
<polygon fill="black" stroke="black" points="88.85,-76.15 82.03,-68.04 82.31,-78.63 88.85,-76.15"/>
<text text-anchor="middle" x="152.5" y="-104.8" font-family="Times,serif" font-size="14.00">Row updated</text>
<text text-anchor="middle" x="152.5" y="-89.8" font-family="Times,serif" font-size="14.00">Locks released</text>
</g>
<!-- PendingEnrollmentsDB -->
<g id="node5" class="node">
<title>PendingEnrollmentsDB</title>
<polygon fill="none" stroke="black" points="362,-60.5 157,-60.5 157,-7.5 362,-7.5 362,-60.5"/>
<text text-anchor="middle" x="259.5" y="-45.3" font-family="Times,serif" font-size="14.00">PendingEnrollments Table</text>
<text text-anchor="middle" x="259.5" y="-30.3" font-family="Times,serif" font-size="14.00">Cust ID | Enroll start date</text>
<text text-anchor="middle" x="259.5" y="-15.3" font-family="Times,serif" font-size="14.00">9943 | 03/06/2021</text>
</g>
<!-- WorkerB&#45;&gt;PendingEnrollmentsDB -->
<g id="edge4" class="edge">
<title>WorkerB&#45;&gt;PendingEnrollmentsDB</title>
<path fill="none" stroke="black" d="M239.89,-133.88C243.18,-117.31 248.26,-91.68 252.43,-70.66"/>
<polygon fill="black" stroke="black" points="255.88,-71.27 254.39,-60.78 249.01,-69.9 255.88,-71.27"/>
<text text-anchor="middle" x="301.5" y="-104.8" font-family="Times,serif" font-size="14.00">Row deleted</text>
<text text-anchor="middle" x="301.5" y="-89.8" font-family="Times,serif" font-size="14.00">Locks released</text>
</g>
</g>
</svg>
