<?xml version="1.0" encoding="UTF-8" standalone="no"?>
<!DOCTYPE svg PUBLIC "-//W3C//DTD SVG 1.1//EN"
 "http://www.w3.org/Graphics/SVG/1.1/DTD/svg11.dtd">
<!-- Generated by graphviz version 2.43.0 (0)
 -->
<!-- Title: SeparateTransactions Pages: 1 -->
<svg width="747pt" height="224pt"
 viewBox="0.00 0.00 747.00 224.00" xmlns="http://www.w3.org/2000/svg" xmlns:xlink="http://www.w3.org/1999/xlink">
<g id="graph0" class="graph" transform="scale(1 1) rotate(0) translate(4 220)">
<title>SeparateTransactions</title>
<polygon fill="white" stroke="transparent" points="-4,4 -4,-220 743,-220 743,4 -4,4"/>
<text text-anchor="middle" x="369.5" y="-200.8" font-family="Times,serif" font-size="14.00">Changes made by the Customer and Enrollments microservices in separate transactions</text>
<g id="clust1" class="cluster">
<title>cluster_Customer</title>
<polygon fill="lightblue" stroke="lightblue" points="8,-8 8,-185 327,-185 327,-8 8,-8"/>
<text text-anchor="middle" x="167.5" y="-171.4" font-family="Times,serif" font-size="12.00">Customer Microservice (Transaction Boundary A)</text>
</g>
<g id="clust2" class="cluster">
<title>cluster_Enrollments</title>
<polygon fill="lightgreen" stroke="lightgreen" points="335,-8 335,-185 731,-185 731,-8 335,-8"/>
<text text-anchor="middle" x="533" y="-171.4" font-family="Times,serif" font-size="12.00">Enrollments Microservice (Transaction Boundary B)</text>
</g>
<!-- CustomerDB -->
<g id="node1" class="node">
<title>CustomerDB</title>
<polygon fill="none" stroke="black" points="236.5,-84 97.5,-84 97.5,-16 236.5,-16 236.5,-84"/>
<text text-anchor="middle" x="167" y="-68.8" font-family="Times,serif" font-size="14.00">Customer Table</text>
<text text-anchor="middle" x="167" y="-53.8" font-family="Times,serif" font-size="14.00">Cust ID | Status</text>
<text text-anchor="middle" x="167" y="-38.8" font-family="Times,serif" font-size="14.00">2346 | VERIFIED</text>
<text text-anchor="middle" x="167" y="-23.8" font-family="Times,serif" font-size="14.00">9943 | PENDING</text>
</g>
<!-- ChangeStatus -->
<g id="node2" class="node">
<title>ChangeStatus</title>
<ellipse fill="none" stroke="black" cx="167" cy="-138" rx="139.98" ry="18"/>
<text text-anchor="middle" x="167" y="-134.3" font-family="Times,serif" font-size="14.00">Change status to VERIFIED</text>
</g>
<!-- ChangeStatus&#45;&gt;CustomerDB -->
<g id="edge1" class="edge">
<title>ChangeStatus&#45;&gt;CustomerDB</title>
<path fill="none" stroke="black" d="M167,-119.6C167,-112.18 167,-103.16 167,-94.14"/>
<polygon fill="black" stroke="black" points="170.5,-94.03 167,-84.03 163.5,-94.03 170.5,-94.03"/>
</g>
<!-- PendingDB -->
<g id="node3" class="node">
<title>PendingDB</title>
<polygon fill="none" stroke="black" points="635.5,-84 430.5,-84 430.5,-16 635.5,-16 635.5,-84"/>
<text text-anchor="middle" x="533" y="-68.8" font-family="Times,serif" font-size="14.00">PendingEnrollments Table</text>
<text text-anchor="middle" x="533" y="-53.8" font-family="Times,serif" font-size="14.00">Cust ID | Enroll start date</text>
<text text-anchor="middle" x="533" y="-38.8" font-family="Times,serif" font-size="14.00">2346 | 04/01/2021</text>
<text text-anchor="middle" x="533" y="-23.8" font-family="Times,serif" font-size="14.00">9943 | 03/06/2021</text>
</g>
<!-- RemoveRow -->
<g id="node4" class="node">
<title>RemoveRow</title>
<ellipse fill="none" stroke="black" cx="533" cy="-138" rx="190.37" ry="18"/>
<text text-anchor="middle" x="533" y="-134.3" font-family="Times,serif" font-size="14.00">Remove row from PendingEnrollments</text>
</g>
<!-- RemoveRow&#45;&gt;PendingDB -->
<g id="edge2" class="edge">
<title>RemoveRow&#45;&gt;PendingDB</title>
<path fill="none" stroke="black" d="M533,-119.6C533,-112.18 533,-103.16 533,-94.14"/>
<polygon fill="black" stroke="black" points="536.5,-94.03 533,-84.03 529.5,-94.03 536.5,-94.03"/>
</g>
</g>
</svg>
