<?xml version="1.0" encoding="UTF-8" standalone="no"?>
<!DOCTYPE svg PUBLIC "-//W3C//DTD SVG 1.1//EN"
 "http://www.w3.org/Graphics/SVG/1.1/DTD/svg11.dtd">
<!-- Generated by graphviz version 2.43.0 (0)
 -->
<!-- Title: SimplifyRollback Pages: 1 -->
<svg width="581pt" height="430pt"
 viewBox="0.00 0.00 581.00 430.00" xmlns="http://www.w3.org/2000/svg" xmlns:xlink="http://www.w3.org/1999/xlink">
<g id="graph0" class="graph" transform="scale(1 1) rotate(0) translate(4 426)">
<title>SimplifyRollback</title>
<polygon fill="white" stroke="transparent" points="-4,4 -4,-426 577,-426 577,4 -4,4"/>
<text text-anchor="middle" x="286.5" y="-406.8" font-family="Times,serif" font-size="14.00">Moving steps later in the saga can reduce rollback requirements</text>
<g id="clust1" class="cluster">
<title>cluster_Removed</title>
<polygon fill="none" stroke="gray" stroke-dasharray="5,2" points="234.5,-136 234.5,-283 549.5,-283 549.5,-136 234.5,-136"/>
<text text-anchor="middle" x="392" y="-267.8" font-family="Times,serif" font-size="14.00">Step moved to simplify rollback scenarios</text>
</g>
<!-- OrderFulfillment -->
<g id="node1" class="node">
<title>OrderFulfillment</title>
<ellipse fill="lightblue" stroke="black" cx="134.5" cy="-381" rx="72.78" ry="18"/>
<text text-anchor="middle" x="134.5" y="-377.9" font-family="Times,serif" font-size="12.00">Order fulfillment</text>
</g>
<!-- CheckStock -->
<g id="node2" class="node">
<title>CheckStock</title>
<polygon fill="lightblue" stroke="black" points="269,-327 0,-327 0,-291 269,-291 269,-327"/>
<text text-anchor="middle" x="134.5" y="-305.9" font-family="Times,serif" font-size="12.00">Check item in stock and reserve for order</text>
</g>
<!-- OrderFulfillment&#45;&gt;CheckStock -->
<g id="edge1" class="edge">
<title>OrderFulfillment&#45;&gt;CheckStock</title>
<path fill="none" stroke="black" d="M134.5,-362.7C134.5,-354.98 134.5,-345.71 134.5,-337.11"/>
<polygon fill="black" stroke="black" points="138,-337.1 134.5,-327.1 131,-337.1 138,-337.1"/>
</g>
<!-- TakeMoney -->
<g id="node3" class="node">
<title>TakeMoney</title>
<polygon fill="lightblue" stroke="black" points="225.5,-252 43.5,-252 43.5,-216 225.5,-216 225.5,-252"/>
<text text-anchor="middle" x="134.5" y="-230.9" font-family="Times,serif" font-size="12.00">Take money from customer</text>
</g>
<!-- CheckStock&#45;&gt;TakeMoney -->
<g id="edge2" class="edge">
<title>CheckStock&#45;&gt;TakeMoney</title>
<path fill="none" stroke="black" d="M134.5,-290.7C134.5,-282.25 134.5,-271.87 134.5,-262.37"/>
<polygon fill="black" stroke="black" points="138,-262.18 134.5,-252.18 131,-262.18 138,-262.18"/>
</g>
<!-- PackageOrder -->
<g id="node5" class="node">
<title>PackageOrder</title>
<polygon fill="lightblue" stroke="black" points="409,-180 246,-180 246,-144 409,-144 409,-180"/>
<text text-anchor="middle" x="327.5" y="-158.9" font-family="Times,serif" font-size="12.00">Package and send order</text>
</g>
<!-- TakeMoney&#45;&gt;PackageOrder -->
<g id="edge3" class="edge">
<title>TakeMoney&#45;&gt;PackageOrder</title>
<path fill="none" stroke="black" d="M181.71,-215.88C208.57,-206.14 242.38,-193.87 270.68,-183.61"/>
<polygon fill="black" stroke="black" points="272.23,-186.77 280.44,-180.07 269.85,-180.19 272.23,-186.77"/>
</g>
<!-- AwardPointsOld -->
<g id="node4" class="node">
<title>AwardPointsOld</title>
<polygon fill="none" stroke="black" stroke-dasharray="1,5" points="417,-252 244,-252 244,-216 417,-216 417,-252"/>
<text text-anchor="middle" x="330.5" y="-230.9" font-family="Times,serif" font-size="12.00">Award points to customer</text>
</g>
<!-- AwardPointsOld&#45;&gt;PackageOrder -->
<g id="edge6" class="edge">
<title>AwardPointsOld&#45;&gt;PackageOrder</title>
<path fill="none" stroke="gray" stroke-dasharray="1,5" d="M329.76,-215.7C329.43,-207.98 329.03,-198.71 328.66,-190.11"/>
<polygon fill="gray" stroke="gray" points="332.16,-189.95 328.23,-180.1 325.16,-190.25 332.16,-189.95"/>
</g>
<!-- AwardPointsNew -->
<g id="node6" class="node">
<title>AwardPointsNew</title>
<polygon fill="lightblue" stroke="black" points="298,-108 125,-108 125,-72 298,-72 298,-108"/>
<text text-anchor="middle" x="211.5" y="-86.9" font-family="Times,serif" font-size="12.00">Award points to customer</text>
</g>
<!-- PackageOrder&#45;&gt;AwardPointsNew -->
<g id="edge4" class="edge">
<title>PackageOrder&#45;&gt;AwardPointsNew</title>
<path fill="none" stroke="black" d="M299.12,-143.88C283.96,-134.72 265.09,-123.34 248.76,-113.48"/>
<polygon fill="black" stroke="black" points="250.36,-110.36 239.99,-108.19 246.74,-116.35 250.36,-110.36"/>
</g>
<!-- Rollback -->
<g id="node8" class="node">
<title>Rollback</title>
<polygon fill="lightblue" stroke="transparent" points="573,-108 316,-108 316,-72 573,-72 573,-108"/>
<text text-anchor="middle" x="444.5" y="-86.9" font-family="Times,serif" font-size="12.00" fill="red">If this fails, we roll back the whole saga</text>
</g>
<!-- PackageOrder&#45;&gt;Rollback -->
<g id="edge7" class="edge">
<title>PackageOrder&#45;&gt;Rollback</title>
<path fill="none" stroke="red" stroke-dasharray="1,5" d="M356.12,-143.88C371.42,-134.72 390.44,-123.34 406.92,-113.48"/>
<polygon fill="red" stroke="red" points="408.98,-116.33 415.77,-108.19 405.39,-110.32 408.98,-116.33"/>
</g>
<!-- FulfillmentCompleted -->
<g id="node7" class="node">
<title>FulfillmentCompleted</title>
<ellipse fill="lightblue" stroke="black" cx="211.5" cy="-18" rx="91.21" ry="18"/>
<text text-anchor="middle" x="211.5" y="-14.9" font-family="Times,serif" font-size="12.00">Fulfillment completed</text>
</g>
<!-- AwardPointsNew&#45;&gt;FulfillmentCompleted -->
<g id="edge5" class="edge">
<title>AwardPointsNew&#45;&gt;FulfillmentCompleted</title>
<path fill="none" stroke="black" d="M211.5,-71.7C211.5,-63.98 211.5,-54.71 211.5,-46.11"/>
<polygon fill="black" stroke="black" points="215,-46.1 211.5,-36.1 208,-46.1 215,-46.1"/>
</g>
</g>
</svg>
