<?xml version="1.0" encoding="UTF-8" standalone="no"?>
<!DOCTYPE svg PUBLIC "-//W3C//DTD SVG 1.1//EN"
 "http://www.w3.org/Graphics/SVG/1.1/DTD/svg11.dtd">
<!-- Generated by graphviz version 2.43.0 (0)
 -->
<!-- Title: SingleTransaction Pages: 1 -->
<svg width="695pt" height="326pt"
 viewBox="0.00 0.00 695.43 326.00" xmlns="http://www.w3.org/2000/svg" xmlns:xlink="http://www.w3.org/1999/xlink">
<g id="graph0" class="graph" transform="scale(1 1) rotate(0) translate(4 322)">
<title>SingleTransaction</title>
<polygon fill="white" stroke="transparent" points="-4,4 -4,-322 691.43,-322 691.43,4 -4,4"/>
<text text-anchor="middle" x="343.72" y="-302.8" font-family="Times,serif" font-size="14.00">Updating two tables in the scope of a single ACID transaction</text>
<g id="clust1" class="cluster">
<title>cluster_Monolith</title>
<polygon fill="none" stroke="black" stroke-dasharray="1,5" points="389.43,-8 389.43,-232 639.43,-232 639.43,-8 389.43,-8"/>
<text text-anchor="middle" x="514.43" y="-218.4" font-family="Times,serif" font-size="12.00">Monolith</text>
</g>
<!-- Customer -->
<g id="node1" class="node">
<title>Customer</title>
<polygon fill="none" stroke="black" points="537.93,-203 398.93,-203 398.93,-135 537.93,-135 537.93,-203"/>
<text text-anchor="middle" x="468.43" y="-187.8" font-family="Times,serif" font-size="14.00">Customer Table</text>
<text text-anchor="middle" x="468.43" y="-172.8" font-family="Times,serif" font-size="14.00">Cust ID | Status</text>
<text text-anchor="middle" x="468.43" y="-157.8" font-family="Times,serif" font-size="14.00">2346 | VERIFIED</text>
<text text-anchor="middle" x="468.43" y="-142.8" font-family="Times,serif" font-size="14.00">9943 | PENDING</text>
</g>
<!-- PendingEnrollments -->
<g id="node2" class="node">
<title>PendingEnrollments</title>
<polygon fill="none" stroke="black" points="601.93,-84 396.93,-84 396.93,-16 601.93,-16 601.93,-84"/>
<text text-anchor="middle" x="499.43" y="-68.8" font-family="Times,serif" font-size="14.00">PendingEnrollments Table</text>
<text text-anchor="middle" x="499.43" y="-53.8" font-family="Times,serif" font-size="14.00">Cust ID | Enroll start date</text>
<text text-anchor="middle" x="499.43" y="-38.8" font-family="Times,serif" font-size="14.00">2346 | 04/01/2021</text>
<text text-anchor="middle" x="499.43" y="-23.8" font-family="Times,serif" font-size="14.00">9943 | 03/06/2021</text>
</g>
<!-- Customer&#45;&gt;PendingEnrollments -->
<g id="edge1" class="edge">
<title>Customer&#45;&gt;PendingEnrollments</title>
<path fill="none" stroke="black" d="M467.55,-124.96C468.19,-117.22 469.38,-109.29 471.43,-102 472.25,-99.08 473.27,-96.14 474.42,-93.23"/>
<polygon fill="black" stroke="black" points="464.06,-124.79 467,-134.97 471.05,-125.18 464.06,-124.79"/>
<polygon fill="black" stroke="black" points="477.62,-94.65 478.48,-84.09 471.22,-91.8 477.62,-94.65"/>
<text text-anchor="middle" x="579.43" y="-105.8" font-family="Times,serif" font-size="14.00">Single transactional boundary</text>
</g>
<!-- CustomerStatus -->
<g id="node3" class="node">
<title>CustomerStatus</title>
<ellipse fill="none" stroke="black" cx="468.43" cy="-277" rx="139.98" ry="18"/>
<text text-anchor="middle" x="468.43" y="-273.3" font-family="Times,serif" font-size="14.00">Change status to VERIFIED</text>
</g>
<!-- CustomerStatus&#45;&gt;Customer -->
<g id="edge2" class="edge">
<title>CustomerStatus&#45;&gt;Customer</title>
<path fill="none" stroke="black" d="M468.43,-258.97C468.43,-246.68 468.43,-229.5 468.43,-213.52"/>
<polygon fill="black" stroke="black" points="471.93,-213.25 468.43,-203.25 464.93,-213.25 471.93,-213.25"/>
</g>
<!-- RemoveRow -->
<g id="node4" class="node">
<title>RemoveRow</title>
<ellipse fill="none" stroke="black" cx="190.43" cy="-169" rx="190.37" ry="18"/>
<text text-anchor="middle" x="190.43" y="-165.3" font-family="Times,serif" font-size="14.00">Remove row from PendingEnrollments</text>
</g>
<!-- RemoveRow&#45;&gt;PendingEnrollments -->
<g id="edge3" class="edge">
<title>RemoveRow&#45;&gt;PendingEnrollments</title>
<path fill="none" stroke="black" d="M234.38,-151.36C277.93,-134.87 346.09,-109.06 402.39,-87.75"/>
<polygon fill="black" stroke="black" points="403.92,-90.91 412.03,-84.09 401.44,-84.36 403.92,-90.91"/>
</g>
</g>
</svg>
