<?xml version="1.0" encoding="UTF-8" standalone="no"?>
<!DOCTYPE svg PUBLIC "-//W3C//DTD SVG 1.1//EN"
 "http://www.w3.org/Graphics/SVG/1.1/DTD/svg11.dtd">
<!-- Generated by graphviz version 2.43.0 (0)
 -->
<!-- Title: VotingPhase Pages: 1 -->
<svg width="927pt" height="273pt"
 viewBox="0.00 0.00 926.69 273.00" xmlns="http://www.w3.org/2000/svg" xmlns:xlink="http://www.w3.org/1999/xlink">
<g id="graph0" class="graph" transform="scale(1 1) rotate(0) translate(4 269)">
<title>VotingPhase</title>
<polygon fill="white" stroke="transparent" points="-4,4 -4,-269 922.69,-269 922.69,4 -4,4"/>
<text text-anchor="middle" x="459.34" y="-249.8" font-family="Times,serif" font-size="14.00">Voting Phase of a Two&#45;Phase Commit</text>
<!-- Coordinator -->
<g id="node1" class="node">
<title>Coordinator</title>
<polygon fill="lightblue" stroke="black" points="549.69,-242 447.69,-242 447.69,-206 549.69,-206 549.69,-242"/>
<text text-anchor="middle" x="498.69" y="-220.3" font-family="Times,serif" font-size="14.00">Coordinator</text>
</g>
<!-- WorkerA -->
<g id="node2" class="node">
<title>WorkerA</title>
<polygon fill="lightgrey" stroke="black" points="360.19,-155 277.19,-155 277.19,-119 360.19,-119 360.19,-155"/>
<text text-anchor="middle" x="318.69" y="-133.3" font-family="Times,serif" font-size="14.00">Worker A</text>
</g>
<!-- Coordinator&#45;&gt;WorkerA -->
<g id="edge1" class="edge">
<title>Coordinator&#45;&gt;WorkerA</title>
<path fill="none" stroke="black" d="M447.31,-223.23C326.91,-223.22 34.4,-219.89 4.69,-188 -31.93,-148.7 168.59,-140.26 266.86,-138.47"/>
<polygon fill="black" stroke="black" points="266.96,-141.97 276.9,-138.3 266.84,-134.97 266.96,-141.97"/>
<text text-anchor="middle" x="222.69" y="-176.8" font-family="Times,serif" font-size="14.00">1. Can you change the state of Customer 2346 to VERIFIED?</text>
</g>
<!-- WorkerB -->
<g id="node3" class="node">
<title>WorkerB</title>
<polygon fill="lightgrey" stroke="black" points="720.19,-155 637.19,-155 637.19,-119 720.19,-119 720.19,-155"/>
<text text-anchor="middle" x="678.69" y="-133.3" font-family="Times,serif" font-size="14.00">Worker B</text>
</g>
<!-- Coordinator&#45;&gt;WorkerB -->
<g id="edge3" class="edge">
<title>Coordinator&#45;&gt;WorkerB</title>
<path fill="none" stroke="black" d="M507.39,-205.7C513.78,-194.74 523.46,-181.13 535.69,-173 562.7,-155.04 598.07,-146.28 626.88,-142.02"/>
<polygon fill="black" stroke="black" points="627.72,-145.44 637.17,-140.65 626.79,-138.5 627.72,-145.44"/>
<text text-anchor="middle" x="701.19" y="-176.8" font-family="Times,serif" font-size="14.00">1. Can you delete the row for Customer 2346?</text>
</g>
<!-- WorkerA&#45;&gt;Coordinator -->
<g id="edge2" class="edge">
<title>WorkerA&#45;&gt;Coordinator</title>
<path fill="none" stroke="black" d="M360.23,-145.26C384.66,-150.64 415.58,-159.43 440.69,-173 453.05,-179.68 465.1,-189.37 474.98,-198.45"/>
<polygon fill="black" stroke="black" points="472.75,-201.16 482.4,-205.53 477.58,-196.09 472.75,-201.16"/>
<text text-anchor="middle" x="486.19" y="-176.8" font-family="Times,serif" font-size="14.00">2. Yes!</text>
</g>
<!-- CustomerDB -->
<g id="node4" class="node">
<title>CustomerDB</title>
<polygon fill="none" stroke="black" points="387.69,-68 249.69,-68 249.69,0 387.69,0 387.69,-68"/>
<text text-anchor="middle" x="318.69" y="-52.8" font-family="Times,serif" font-size="14.00">Customer Table</text>
<text text-anchor="middle" x="318.69" y="-37.8" font-family="Times,serif" font-size="14.00">Cust ID | Status</text>
<text text-anchor="middle" x="318.69" y="-22.8" font-family="Times,serif" font-size="14.00">2346 | PENDING</text>
<text text-anchor="middle" x="318.69" y="-7.8" font-family="Times,serif" font-size="14.00">9943 | PENDING</text>
</g>
<!-- WorkerA&#45;&gt;CustomerDB -->
<g id="edge5" class="edge">
<title>WorkerA&#45;&gt;CustomerDB</title>
<path fill="none" stroke="black" d="M318.69,-118.87C318.69,-107.73 318.69,-92.66 318.69,-78.38"/>
<polygon fill="black" stroke="black" points="322.19,-78.18 318.69,-68.18 315.19,-78.18 322.19,-78.18"/>
<text text-anchor="middle" x="377.19" y="-89.8" font-family="Times,serif" font-size="14.00">Rows are locked</text>
</g>
<!-- WorkerB&#45;&gt;Coordinator -->
<g id="edge4" class="edge">
<title>WorkerB&#45;&gt;Coordinator</title>
<path fill="none" stroke="black" d="M720.23,-139.74C769.85,-142.79 848.44,-151.04 866.69,-173 870.95,-178.13 871.17,-183.07 866.69,-188 846.51,-210.18 659.67,-218.63 560.26,-221.57"/>
<polygon fill="black" stroke="black" points="559.94,-218.08 550.05,-221.87 560.14,-225.08 559.94,-218.08"/>
<text text-anchor="middle" x="894.19" y="-176.8" font-family="Times,serif" font-size="14.00">2. Yes!</text>
</g>
<!-- PendingEnrollmentsDB -->
<g id="node5" class="node">
<title>PendingEnrollmentsDB</title>
<polygon fill="none" stroke="black" points="781.19,-68 576.19,-68 576.19,0 781.19,0 781.19,-68"/>
<text text-anchor="middle" x="678.69" y="-52.8" font-family="Times,serif" font-size="14.00">PendingEnrollments Table</text>
<text text-anchor="middle" x="678.69" y="-37.8" font-family="Times,serif" font-size="14.00">Cust ID | Enroll start date</text>
<text text-anchor="middle" x="678.69" y="-22.8" font-family="Times,serif" font-size="14.00">2346 | 04/07/2021</text>
<text text-anchor="middle" x="678.69" y="-7.8" font-family="Times,serif" font-size="14.00">9943 | 03/06/2021</text>
</g>
<!-- WorkerB&#45;&gt;PendingEnrollmentsDB -->
<g id="edge6" class="edge">
<title>WorkerB&#45;&gt;PendingEnrollmentsDB</title>
<path fill="none" stroke="black" d="M678.69,-118.87C678.69,-107.73 678.69,-92.66 678.69,-78.38"/>
<polygon fill="black" stroke="black" points="682.19,-78.18 678.69,-68.18 675.19,-78.18 682.19,-78.18"/>
<text text-anchor="middle" x="737.19" y="-89.8" font-family="Times,serif" font-size="14.00">Rows are locked</text>
</g>
</g>
</svg>
