<?xml version="1.0" encoding="UTF-8" standalone="no"?>
<!DOCTYPE svg PUBLIC "-//W3C//DTD SVG 1.1//EN"
 "http://www.w3.org/Graphics/SVG/1.1/DTD/svg11.dtd">
<!-- Generated by graphviz version 2.43.0 (0)
 -->
<!-- Title: ArtifactPipeline Pages: 1 -->
<svg width="1084pt" height="185pt"
 viewBox="0.00 0.00 1084.17 185.00" xmlns="http://www.w3.org/2000/svg" xmlns:xlink="http://www.w3.org/1999/xlink">
<g id="graph0" class="graph" transform="scale(1 1) rotate(0) translate(4 181)">
<title>ArtifactPipeline</title>
<polygon fill="white" stroke="transparent" points="-4,4 -4,-181 1080.17,-181 1080.17,4 -4,4"/>
<text text-anchor="middle" x="538.09" y="-160.2" font-family="Times,serif" font-size="16.00">Reusing the Same Artifact Across Environments</text>
<!-- ArtifactStore -->
<g id="node1" class="node">
<title>ArtifactStore</title>
<polygon fill="lightblue" stroke="lightblue" points="137.26,-68 102.92,-99.05 34.25,-99.05 -0.09,-68 34.25,-36.95 102.92,-36.95 137.26,-68"/>
<text text-anchor="middle" x="68.59" y="-71.8" font-family="Times,serif" font-size="14.00">Catalog</text>
<text text-anchor="middle" x="68.59" y="-56.8" font-family="Times,serif" font-size="14.00">build&#45;123</text>
</g>
<!-- Compile -->
<g id="node2" class="node">
<title>Compile</title>
<polygon fill="lightblue" stroke="lightblue" points="571.17,-151 394.17,-151 394.17,-115 571.17,-115 571.17,-151"/>
<text text-anchor="middle" x="482.67" y="-129.3" font-family="Times,serif" font-size="14.00">Compile and fast tests</text>
</g>
<!-- ArtifactStore&#45;&gt;Compile -->
<g id="edge4" class="edge">
<title>ArtifactStore&#45;&gt;Compile</title>
<path fill="none" stroke="black" stroke-dasharray="5,2" d="M115.06,-88.15C127.81,-93.08 141.85,-97.84 155.17,-101 230.66,-118.9 318.25,-126.81 383.7,-130.3"/>
<polygon fill="black" stroke="black" points="383.84,-133.81 394,-130.82 384.19,-126.82 383.84,-133.81"/>
<text text-anchor="middle" x="265.67" y="-132.8" font-family="Times,serif" font-size="14.00">Artifact created as part of step</text>
</g>
<!-- SlowTests -->
<g id="node3" class="node">
<title>SlowTests</title>
<polygon fill="lightblue" stroke="lightblue" points="729.67,-113 638.67,-113 638.67,-77 729.67,-77 729.67,-113"/>
<text text-anchor="middle" x="684.17" y="-91.3" font-family="Times,serif" font-size="14.00">Slow tests</text>
</g>
<!-- ArtifactStore&#45;&gt;SlowTests -->
<g id="edge5" class="edge">
<title>ArtifactStore&#45;&gt;SlowTests</title>
<path fill="none" stroke="black" stroke-dasharray="5,2" d="M134.38,-70.85C255.66,-76.19 514.92,-87.6 628.25,-92.58"/>
<polygon fill="black" stroke="black" points="628.28,-96.09 638.43,-93.03 628.59,-89.09 628.28,-96.09"/>
</g>
<!-- PerformanceTests -->
<g id="node4" class="node">
<title>PerformanceTests</title>
<polygon fill="lightblue" stroke="lightblue" points="944.17,-70 797.17,-70 797.17,-34 944.17,-34 944.17,-70"/>
<text text-anchor="middle" x="870.67" y="-48.3" font-family="Times,serif" font-size="14.00">Performance tests</text>
</g>
<!-- ArtifactStore&#45;&gt;PerformanceTests -->
<g id="edge6" class="edge">
<title>ArtifactStore&#45;&gt;PerformanceTests</title>
<path fill="none" stroke="black" stroke-dasharray="5,2" d="M136.08,-66.67C281.48,-63.76 627.37,-56.85 786.71,-53.66"/>
<polygon fill="black" stroke="black" points="787,-57.15 796.93,-53.45 786.86,-50.16 787,-57.15"/>
</g>
<!-- Production -->
<g id="node5" class="node">
<title>Production</title>
<polygon fill="lightblue" stroke="lightblue" points="1076.17,-36 981.17,-36 981.17,0 1076.17,0 1076.17,-36"/>
<text text-anchor="middle" x="1028.67" y="-14.3" font-family="Times,serif" font-size="14.00">Production</text>
</g>
<!-- ArtifactStore&#45;&gt;Production -->
<g id="edge7" class="edge">
<title>ArtifactStore&#45;&gt;Production</title>
<path fill="none" stroke="black" stroke-dasharray="5,2" d="M122.87,-54.78C201.04,-36.57 351.63,-6 481.67,-6 481.67,-6 481.67,-6 871.67,-6 904.6,-6 941.31,-8.69 970.85,-11.52"/>
<polygon fill="black" stroke="black" points="970.69,-15.02 980.98,-12.53 971.38,-8.06 970.69,-15.02"/>
<text text-anchor="middle" x="684.17" y="-9.8" font-family="Times,serif" font-size="14.00">Same artifact is used</text>
</g>
<!-- Compile&#45;&gt;SlowTests -->
<g id="edge1" class="edge">
<title>Compile&#45;&gt;SlowTests</title>
<path fill="none" stroke="black" d="M571.18,-116.33C590.6,-112.63 610.66,-108.81 628.34,-105.44"/>
<polygon fill="black" stroke="black" points="629.28,-108.83 638.45,-103.52 627.97,-101.95 629.28,-108.83"/>
</g>
<!-- SlowTests&#45;&gt;PerformanceTests -->
<g id="edge2" class="edge">
<title>SlowTests&#45;&gt;PerformanceTests</title>
<path fill="none" stroke="black" d="M729.83,-84.59C747.08,-80.57 767.37,-75.84 787.08,-71.25"/>
<polygon fill="black" stroke="black" points="788.05,-74.62 797,-68.94 786.46,-67.8 788.05,-74.62"/>
</g>
<!-- PerformanceTests&#45;&gt;Production -->
<g id="edge3" class="edge">
<title>PerformanceTests&#45;&gt;Production</title>
<path fill="none" stroke="black" d="M944.19,-36.19C953.33,-34.2 962.56,-32.19 971.39,-30.27"/>
<polygon fill="black" stroke="black" points="972.14,-33.69 981.16,-28.14 970.65,-26.85 972.14,-33.69"/>
</g>
</g>
</svg>
