<?xml version="1.0" encoding="UTF-8" standalone="no"?>
<!DOCTYPE svg PUBLIC "-//W3C//DTD SVG 1.1//EN"
 "http://www.w3.org/Graphics/SVG/1.1/DTD/svg11.dtd">
<!-- Generated by graphviz version 2.43.0 (0)
 -->
<!-- Title: BuildPipeline Pages: 1 -->
<svg width="882pt" height="180pt"
 viewBox="0.00 0.00 881.99 180.00" xmlns="http://www.w3.org/2000/svg" xmlns:xlink="http://www.w3.org/1999/xlink">
<g id="graph0" class="graph" transform="scale(1 1) rotate(0) translate(4 176)">
<title>BuildPipeline</title>
<polygon fill="white" stroke="transparent" points="-4,4 -4,-176 877.99,-176 877.99,4 -4,4"/>
<text text-anchor="middle" x="436.99" y="-155.2" font-family="Times,serif" font-size="16.00">Build Pipeline for Catalog Service</text>
<!-- Artifact -->
<g id="node1" class="node">
<title>Artifact</title>
<ellipse fill="white" stroke="white" cx="71.49" cy="-63" rx="71.49" ry="18"/>
<text text-anchor="middle" x="71.49" y="-59.3" font-family="Times,serif" font-size="14.00">artifact b123</text>
</g>
<!-- Compile -->
<g id="node2" class="node">
<title>Compile</title>
<polygon fill="lightblue" stroke="lightblue" points="429.99,-146 252.99,-146 252.99,-110 429.99,-110 429.99,-146"/>
<text text-anchor="middle" x="341.49" y="-124.3" font-family="Times,serif" font-size="14.00">Compile and fast tests</text>
</g>
<!-- Artifact&#45;&gt;Compile -->
<g id="edge1" class="edge">
<title>Artifact&#45;&gt;Compile</title>
<path fill="none" stroke="black" d="M109.03,-78.32C124.8,-84.49 143.59,-91.25 160.99,-96 187.12,-103.14 215.83,-109.08 242.49,-113.83"/>
<polygon fill="black" stroke="black" points="242.14,-117.32 252.59,-115.59 243.34,-110.42 242.14,-117.32"/>
<text text-anchor="middle" x="197.99" y="-115.8" font-family="Times,serif" font-size="14.00">Generates</text>
</g>
<!-- SlowTests -->
<g id="node3" class="node">
<title>SlowTests</title>
<polygon fill="lightblue" stroke="lightblue" points="557.99,-108 466.99,-108 466.99,-72 557.99,-72 557.99,-108"/>
<text text-anchor="middle" x="512.49" y="-86.3" font-family="Times,serif" font-size="14.00">Slow tests</text>
</g>
<!-- Artifact&#45;&gt;SlowTests -->
<g id="edge5" class="edge">
<title>Artifact&#45;&gt;SlowTests</title>
<path fill="none" stroke="black" stroke-dasharray="5,2" d="M141.09,-67.22C228.09,-72.57 376.41,-81.69 456.42,-86.61"/>
<polygon fill="black" stroke="black" points="456.58,-90.13 466.77,-87.25 457.01,-83.14 456.58,-90.13"/>
</g>
<!-- PerformanceTests -->
<g id="node4" class="node">
<title>PerformanceTests</title>
<polygon fill="lightblue" stroke="lightblue" points="741.99,-70 594.99,-70 594.99,-34 741.99,-34 741.99,-70"/>
<text text-anchor="middle" x="668.49" y="-48.3" font-family="Times,serif" font-size="14.00">Performance tests</text>
</g>
<!-- Artifact&#45;&gt;PerformanceTests -->
<g id="edge6" class="edge">
<title>Artifact&#45;&gt;PerformanceTests</title>
<path fill="none" stroke="black" stroke-dasharray="5,2" d="M143.08,-61.69C253.6,-59.65 466.99,-55.71 584.63,-53.53"/>
<polygon fill="black" stroke="black" points="584.73,-57.03 594.67,-53.35 584.6,-50.03 584.73,-57.03"/>
</g>
<!-- Production -->
<g id="node5" class="node">
<title>Production</title>
<polygon fill="lightblue" stroke="lightblue" points="873.99,-36 778.99,-36 778.99,0 873.99,0 873.99,-36"/>
<text text-anchor="middle" x="826.49" y="-14.3" font-family="Times,serif" font-size="14.00">Production</text>
</g>
<!-- Artifact&#45;&gt;Production -->
<g id="edge7" class="edge">
<title>Artifact&#45;&gt;Production</title>
<path fill="none" stroke="black" stroke-dasharray="5,2" d="M114.15,-48.47C166.36,-31.58 258.91,-6 340.49,-6 340.49,-6 340.49,-6 669.49,-6 702.41,-6 739.13,-8.69 768.67,-11.52"/>
<polygon fill="black" stroke="black" points="768.5,-15.02 778.8,-12.53 769.19,-8.06 768.5,-15.02"/>
</g>
<!-- Compile&#45;&gt;SlowTests -->
<g id="edge2" class="edge">
<title>Compile&#45;&gt;SlowTests</title>
<path fill="none" stroke="black" d="M423.03,-109.89C434.37,-107.34 445.8,-104.77 456.51,-102.36"/>
<polygon fill="black" stroke="black" points="457.54,-105.72 466.53,-100.11 456.01,-98.89 457.54,-105.72"/>
</g>
<!-- SlowTests&#45;&gt;PerformanceTests -->
<g id="edge3" class="edge">
<title>SlowTests&#45;&gt;PerformanceTests</title>
<path fill="none" stroke="black" d="M558.03,-79.01C566.6,-76.89 575.83,-74.62 585.16,-72.31"/>
<polygon fill="black" stroke="black" points="586.03,-75.7 594.9,-69.91 584.35,-68.91 586.03,-75.7"/>
</g>
<!-- PerformanceTests&#45;&gt;Production -->
<g id="edge4" class="edge">
<title>PerformanceTests&#45;&gt;Production</title>
<path fill="none" stroke="black" d="M742.01,-36.19C751.14,-34.2 760.38,-32.19 769.21,-30.27"/>
<polygon fill="black" stroke="black" points="769.95,-33.69 778.98,-28.14 768.46,-26.85 769.95,-33.69"/>
</g>
</g>
</svg>
