<?xml version="1.0" encoding="UTF-8" standalone="no"?>
<!DOCTYPE svg PUBLIC "-//W3C//DTD SVG 1.1//EN"
 "http://www.w3.org/Graphics/SVG/1.1/DTD/svg11.dtd">
<!-- Generated by graphviz version 2.43.0 (0)
 -->
<!-- Title: BuildResults Pages: 1 -->
<svg width="852pt" height="237pt"
 viewBox="0.00 0.00 852.00 237.00" xmlns="http://www.w3.org/2000/svg" xmlns:xlink="http://www.w3.org/1999/xlink">
<g id="graph0" class="graph" transform="scale(1 1) rotate(0) translate(4 233)">
<title>BuildResults</title>
<polygon fill="white" stroke="transparent" points="-4,4 -4,-233 848,-233 848,4 -4,4"/>
<text text-anchor="middle" x="422" y="-212.2" font-family="Times,serif" font-size="16.00">Build Pipeline Test Results for Catalog Service</text>
<g id="clust1" class="cluster">
<title>cluster_Results</title>
<polygon fill="none" stroke="black" stroke-dasharray="5,2" points="8,-8 8,-195 198,-195 198,-8 8,-8"/>
<text text-anchor="middle" x="103" y="-181.4" font-family="Times,serif" font-size="12.00">Build Results</text>
</g>
<!-- Compile -->
<g id="node1" class="node">
<title>Compile</title>
<polygon fill="lightblue" stroke="lightblue" points="403,-160 226,-160 226,-124 403,-124 403,-160"/>
<text text-anchor="middle" x="314.5" y="-138.3" font-family="Times,serif" font-size="14.00">Compile and fast tests</text>
</g>
<!-- SlowTests -->
<g id="node2" class="node">
<title>SlowTests</title>
<polygon fill="lightblue" stroke="lightblue" points="530,-158 439,-158 439,-122 530,-122 530,-158"/>
<text text-anchor="middle" x="484.5" y="-136.3" font-family="Times,serif" font-size="14.00">Slow tests</text>
</g>
<!-- Compile&#45;&gt;SlowTests -->
<g id="edge1" class="edge">
<title>Compile&#45;&gt;SlowTests</title>
<path fill="none" stroke="black" d="M403.44,-140.95C412.03,-140.85 420.57,-140.75 428.7,-140.65"/>
<polygon fill="black" stroke="black" points="428.78,-144.15 438.74,-140.53 428.7,-137.15 428.78,-144.15"/>
</g>
<!-- PerformanceTests -->
<g id="node3" class="node">
<title>PerformanceTests</title>
<polygon fill="lightblue" stroke="lightblue" points="713,-109 566,-109 566,-73 713,-73 713,-109"/>
<text text-anchor="middle" x="639.5" y="-87.3" font-family="Times,serif" font-size="14.00">Performance tests</text>
</g>
<!-- SlowTests&#45;&gt;PerformanceTests -->
<g id="edge2" class="edge">
<title>SlowTests&#45;&gt;PerformanceTests</title>
<path fill="none" stroke="black" d="M530.17,-125.7C543.35,-121.47 558.07,-116.76 572.31,-112.2"/>
<polygon fill="black" stroke="black" points="573.61,-115.46 582.06,-109.07 571.47,-108.79 573.61,-115.46"/>
</g>
<!-- Production -->
<g id="node4" class="node">
<title>Production</title>
<polygon fill="lightblue" stroke="lightblue" points="844,-81 749,-81 749,-45 844,-45 844,-81"/>
<text text-anchor="middle" x="796.5" y="-59.3" font-family="Times,serif" font-size="14.00">Production</text>
</g>
<!-- PerformanceTests&#45;&gt;Production -->
<g id="edge3" class="edge">
<title>PerformanceTests&#45;&gt;Production</title>
<path fill="none" stroke="black" d="M713.01,-77.9C721.63,-76.34 730.34,-74.77 738.71,-73.26"/>
<polygon fill="black" stroke="black" points="739.49,-76.68 748.7,-71.45 738.24,-69.79 739.49,-76.68"/>
</g>
<!-- Build120 -->
<g id="node5" class="node">
<title>Build120</title>
<polygon fill="red" stroke="red" points="145,-166 61,-166 61,-128 145,-128 145,-166"/>
<text text-anchor="middle" x="103" y="-150.8" font-family="Times,serif" font-size="14.00">build&#45;120</text>
<text text-anchor="middle" x="103" y="-135.8" font-family="Times,serif" font-size="14.00">Failed</text>
</g>
<!-- Build120&#45;&gt;Compile -->
<g id="edge4" class="edge">
<title>Build120&#45;&gt;Compile</title>
<path fill="none" stroke="red" d="M145.39,-146.01C165.62,-145.53 190.9,-144.93 215.66,-144.34"/>
<polygon fill="red" stroke="red" points="215.93,-147.83 225.85,-144.09 215.77,-140.83 215.93,-147.83"/>
</g>
<!-- Build121 -->
<g id="node6" class="node">
<title>Build121</title>
<polygon fill="orange" stroke="orange" points="190,-110 16,-110 16,-72 190,-72 190,-110"/>
<text text-anchor="middle" x="103" y="-94.8" font-family="Times,serif" font-size="14.00">build&#45;121</text>
<text text-anchor="middle" x="103" y="-79.8" font-family="Times,serif" font-size="14.00">Failed at Performance</text>
</g>
<!-- Build121&#45;&gt;PerformanceTests -->
<g id="edge5" class="edge">
<title>Build121&#45;&gt;PerformanceTests</title>
<path fill="none" stroke="orange" d="M190.17,-91C290.84,-91 456.24,-91 555.52,-91"/>
<polygon fill="orange" stroke="orange" points="555.8,-94.5 565.8,-91 555.8,-87.5 555.8,-94.5"/>
</g>
<!-- Build122 -->
<g id="node7" class="node">
<title>Build122</title>
<polygon fill="green" stroke="green" points="145,-54 61,-54 61,-16 145,-16 145,-54"/>
<text text-anchor="middle" x="103" y="-38.8" font-family="Times,serif" font-size="14.00">build&#45;122</text>
<text text-anchor="middle" x="103" y="-23.8" font-family="Times,serif" font-size="14.00">Released</text>
</g>
<!-- Build122&#45;&gt;Production -->
<g id="edge6" class="edge">
<title>Build122&#45;&gt;Production</title>
<path fill="none" stroke="green" d="M145.19,-36.67C263.21,-41.45 602.86,-55.2 738.52,-60.69"/>
<polygon fill="green" stroke="green" points="738.57,-64.2 748.7,-61.11 738.85,-57.2 738.57,-64.2"/>
</g>
</g>
</svg>
