<?xml version="1.0" encoding="UTF-8" standalone="no"?>
<!DOCTYPE svg PUBLIC "-//W3C//DTD SVG 1.1//EN"
 "http://www.w3.org/Graphics/SVG/1.1/DTD/svg11.dtd">
<!-- Generated by graphviz version 2.43.0 (0)
 -->
<!-- Title: BuildPipelineBalance Pages: 1 -->
<svg width="688pt" height="72pt"
 viewBox="0.00 0.00 688.00 72.00" xmlns="http://www.w3.org/2000/svg" xmlns:xlink="http://www.w3.org/1999/xlink">
<g id="graph0" class="graph" transform="scale(1 1) rotate(0) translate(4 68)">
<title>BuildPipelineBalance</title>
<polygon fill="white" stroke="transparent" points="-4,4 -4,-68 684,-68 684,4 -4,4"/>
<text text-anchor="middle" x="340" y="-47.2" font-family="Times,serif" font-size="16.00">Balancing a Build Pipeline for Fast Feedback and Production&#45;Like Environments</text>
<!-- Compile -->
<g id="node1" class="node">
<title>Compile</title>
<polygon fill="lightblue" stroke="lightblue" points="172.5,-38 66.5,-38 66.5,0 172.5,0 172.5,-38"/>
<text text-anchor="middle" x="119.5" y="-22.8" font-family="Times,serif" font-size="14.00">Compile and</text>
<text text-anchor="middle" x="119.5" y="-7.8" font-family="Times,serif" font-size="14.00">fast tests</text>
</g>
<!-- SlowTests -->
<g id="node2" class="node">
<title>SlowTests</title>
<polygon fill="lightblue" stroke="lightblue" points="299.5,-37 208.5,-37 208.5,-1 299.5,-1 299.5,-37"/>
<text text-anchor="middle" x="254" y="-15.3" font-family="Times,serif" font-size="14.00">Slow tests</text>
</g>
<!-- Compile&#45;&gt;SlowTests -->
<g id="edge1" class="edge">
<title>Compile&#45;&gt;SlowTests</title>
<path fill="none" stroke="black" d="M172.87,-19C181.2,-19 189.84,-19 198.22,-19"/>
<polygon fill="black" stroke="black" points="198.29,-22.5 208.29,-19 198.29,-15.5 198.29,-22.5"/>
</g>
<!-- PerformanceTests -->
<g id="node3" class="node">
<title>PerformanceTests</title>
<polygon fill="lightblue" stroke="lightblue" points="482.5,-37 335.5,-37 335.5,-1 482.5,-1 482.5,-37"/>
<text text-anchor="middle" x="409" y="-15.3" font-family="Times,serif" font-size="14.00">Performance tests</text>
</g>
<!-- SlowTests&#45;&gt;PerformanceTests -->
<g id="edge2" class="edge">
<title>SlowTests&#45;&gt;PerformanceTests</title>
<path fill="none" stroke="black" d="M299.67,-19C307.72,-19 316.34,-19 325.08,-19"/>
<polygon fill="black" stroke="black" points="325.36,-22.5 335.36,-19 325.36,-15.5 325.36,-22.5"/>
</g>
<!-- Production -->
<g id="node4" class="node">
<title>Production</title>
<polygon fill="lightblue" stroke="lightblue" points="613.5,-37 518.5,-37 518.5,-1 613.5,-1 613.5,-37"/>
<text text-anchor="middle" x="566" y="-15.3" font-family="Times,serif" font-size="14.00">Production</text>
</g>
<!-- PerformanceTests&#45;&gt;Production -->
<g id="edge3" class="edge">
<title>PerformanceTests&#45;&gt;Production</title>
<path fill="none" stroke="black" d="M482.51,-19C491.04,-19 499.65,-19 507.93,-19"/>
<polygon fill="black" stroke="black" points="508.2,-22.5 518.2,-19 508.2,-15.5 508.2,-22.5"/>
</g>
</g>
</svg>
