<?xml version="1.0" encoding="UTF-8" standalone="no"?>
<!DOCTYPE svg PUBLIC "-//W3C//DTD SVG 1.1//EN"
 "http://www.w3.org/Graphics/SVG/1.1/DTD/svg11.dtd">
<!-- Generated by graphviz version 2.43.0 (0)
 -->
<!-- Title: CodeReuse Pages: 1 -->
<svg width="1119pt" height="232pt"
 viewBox="0.00 0.00 1119.00 232.03" xmlns="http://www.w3.org/2000/svg" xmlns:xlink="http://www.w3.org/1999/xlink">
<g id="graph0" class="graph" transform="scale(1 1) rotate(0) translate(4 228.03)">
<title>CodeReuse</title>
<polygon fill="white" stroke="transparent" points="-4,4 -4,-228.03 1115,-228.03 1115,4 -4,4"/>
<text text-anchor="middle" x="555.5" y="-207.23" font-family="Times,serif" font-size="16.00">Reusing Code Across Different Repositories</text>
<!-- CodeRepo -->
<g id="node1" class="node">
<title>CodeRepo</title>
<polygon fill="lightblue" stroke="lightblue" points="149,-106 0,-106 0,-68 149,-68 149,-106"/>
<text text-anchor="middle" x="74.5" y="-90.8" font-family="Times,serif" font-size="14.00">Connection library</text>
<text text-anchor="middle" x="74.5" y="-75.8" font-family="Times,serif" font-size="14.00">code repo</text>
</g>
<!-- BuildProcess -->
<g id="node2" class="node">
<title>BuildProcess</title>
<polygon fill="lightblue" stroke="lightblue" points="376,-106 186,-106 186,-68 376,-68 376,-106"/>
<text text-anchor="middle" x="281" y="-90.8" font-family="Times,serif" font-size="14.00">Connection library build</text>
<text text-anchor="middle" x="281" y="-75.8" font-family="Times,serif" font-size="14.00">CI server</text>
</g>
<!-- CodeRepo&#45;&gt;BuildProcess -->
<g id="edge1" class="edge">
<title>CodeRepo&#45;&gt;BuildProcess</title>
<path fill="none" stroke="black" d="M149.04,-87C157.69,-87 166.64,-87 175.62,-87"/>
<polygon fill="black" stroke="black" points="175.74,-90.5 185.74,-87 175.74,-83.5 175.74,-90.5"/>
</g>
<!-- LibraryBuild -->
<g id="node3" class="node">
<title>LibraryBuild</title>
<polygon fill="lightblue" stroke="lightblue" points="562,-106 413,-106 413,-68 562,-68 562,-106"/>
<text text-anchor="middle" x="487.5" y="-90.8" font-family="Times,serif" font-size="14.00">Connection library</text>
<text text-anchor="middle" x="487.5" y="-75.8" font-family="Times,serif" font-size="14.00">build&#45;123</text>
</g>
<!-- BuildProcess&#45;&gt;LibraryBuild -->
<g id="edge2" class="edge">
<title>BuildProcess&#45;&gt;LibraryBuild</title>
<path fill="none" stroke="black" d="M376.17,-87C384.98,-87 393.88,-87 402.59,-87"/>
<polygon fill="black" stroke="black" points="402.72,-90.5 412.72,-87 402.72,-83.5 402.72,-90.5"/>
</g>
<!-- InvoiceService -->
<g id="node4" class="node">
<title>InvoiceService</title>
<polygon fill="lightblue" stroke="lightblue" points="1096.82,-167 1035.91,-198.05 914.09,-198.05 853.18,-167 914.09,-135.95 1035.91,-135.95 1096.82,-167"/>
<text text-anchor="middle" x="975" y="-170.8" font-family="Times,serif" font-size="14.00">Invoice</text>
<text text-anchor="middle" x="975" y="-155.8" font-family="Times,serif" font-size="14.00">Connection library</text>
</g>
<!-- LibraryBuild&#45;&gt;InvoiceService -->
<g id="edge3" class="edge">
<title>LibraryBuild&#45;&gt;InvoiceService</title>
<path fill="none" stroke="black" d="M562.35,-102.67C568.31,-103.84 574.25,-104.96 580,-106 677.65,-123.69 789.5,-140.69 869.01,-152.24"/>
<polygon fill="black" stroke="black" points="868.64,-155.72 879.04,-153.69 869.64,-148.79 868.64,-155.72"/>
<text text-anchor="middle" x="700.5" y="-147.8" font-family="Times,serif" font-size="14.00">Library included via static linking</text>
</g>
<!-- PayrollService -->
<g id="node5" class="node">
<title>PayrollService</title>
<polygon fill="lightblue" stroke="lightblue" points="1096.82,-87 1035.91,-118.05 914.09,-118.05 853.18,-87 914.09,-55.95 1035.91,-55.95 1096.82,-87"/>
<text text-anchor="middle" x="975" y="-90.8" font-family="Times,serif" font-size="14.00">Payroll</text>
<text text-anchor="middle" x="975" y="-75.8" font-family="Times,serif" font-size="14.00">Connection library</text>
</g>
<!-- LibraryBuild&#45;&gt;PayrollService -->
<g id="edge4" class="edge">
<title>LibraryBuild&#45;&gt;PayrollService</title>
<path fill="none" stroke="black" d="M562.24,-87C636.64,-87 753.1,-87 843.2,-87"/>
<polygon fill="black" stroke="black" points="843.22,-90.5 853.22,-87 843.22,-83.5 843.22,-90.5"/>
<text text-anchor="middle" x="700.5" y="-90.8" font-family="Times,serif" font-size="14.00">Library included via static linking</text>
</g>
<!-- Annotation -->
<g id="node6" class="node">
<title>Annotation</title>
<polygon fill="white" stroke="white" points="1105,-38 839,-38 839,0 1111,0 1111,-32 1105,-38"/>
<polyline fill="none" stroke="white" points="1105,-38 1105,-32 "/>
<polyline fill="none" stroke="white" points="1111,-32 1105,-32 "/>
<text text-anchor="middle" x="975" y="-22.8" font-family="Times,serif" font-size="14.00">Redeployment of services required</text>
<text text-anchor="middle" x="975" y="-7.8" font-family="Times,serif" font-size="14.00">to deploy new version of the library</text>
</g>
<!-- LibraryBuild&#45;&gt;Annotation -->
<g id="edge5" class="edge">
<title>LibraryBuild&#45;&gt;Annotation</title>
<path fill="none" stroke="black" stroke-dasharray="1,5" d="M562.24,-76.67C632.73,-66.8 740.98,-51.64 828.8,-39.34"/>
<polygon fill="black" stroke="black" points="829.44,-42.78 838.86,-37.93 828.47,-35.85 829.44,-42.78"/>
</g>
</g>
</svg>
