<?xml version="1.0" encoding="UTF-8" standalone="no"?>
<!DOCTYPE svg PUBLIC "-//W3C//DTD SVG 1.1//EN"
 "http://www.w3.org/Graphics/SVG/1.1/DTD/svg11.dtd">
<!-- Generated by graphviz version 2.43.0 (0)
 -->
<!-- Title: CrossRepoCommits Pages: 1 -->
<svg width="888pt" height="131pt"
 viewBox="0.00 0.00 888.16 131.00" xmlns="http://www.w3.org/2000/svg" xmlns:xlink="http://www.w3.org/1999/xlink">
<g id="graph0" class="graph" transform="scale(1 1) rotate(0) translate(4 127)">
<title>CrossRepoCommits</title>
<polygon fill="white" stroke="transparent" points="-4,4 -4,-127 884.16,-127 884.16,4 -4,4"/>
<text text-anchor="middle" x="440.08" y="-106.2" font-family="Times,serif" font-size="16.00">Changes Across Repository Boundaries Require Multiple Commits</text>
<!-- ShippingRepo -->
<g id="node1" class="node">
<title>ShippingRepo</title>
<polygon fill="lightblue" stroke="lightblue" points="80,-67 0,-67 0,-29 80,-29 80,-67"/>
<text text-anchor="middle" x="40" y="-51.8" font-family="Times,serif" font-size="14.00">Shipping</text>
<text text-anchor="middle" x="40" y="-36.8" font-family="Times,serif" font-size="14.00">repo</text>
</g>
<!-- ShippingService -->
<g id="node3" class="node">
<title>ShippingService</title>
<polygon fill="lightblue" stroke="lightblue" points="470.12,-73 440.08,-91 380,-91 349.96,-73 380,-55 440.08,-55 470.12,-73"/>
<text text-anchor="middle" x="410.04" y="-69.3" font-family="Times,serif" font-size="14.00">Shipping</text>
</g>
<!-- ShippingRepo&#45;&gt;ShippingService -->
<g id="edge3" class="edge">
<title>ShippingRepo&#45;&gt;ShippingService</title>
<path fill="none" stroke="black" d="M80.23,-52.36C86.18,-52.95 92.25,-53.52 98,-54 182.91,-61.06 281.06,-66.62 344.02,-69.86"/>
<polygon fill="black" stroke="black" points="344.04,-73.37 354.21,-70.38 344.4,-66.37 344.04,-73.37"/>
</g>
<!-- Files -->
<g id="node5" class="node">
<title>Files</title>
<polygon fill="white" stroke="white" points="326,-44 117,-44 117,-6 332,-6 332,-38 326,-44"/>
<polyline fill="none" stroke="white" points="326,-44 326,-38 "/>
<polyline fill="none" stroke="white" points="332,-38 326,-38 "/>
<text text-anchor="middle" x="224.5" y="-28.8" font-family="Times,serif" font-size="14.00">Change to client and server</text>
<text text-anchor="middle" x="224.5" y="-13.8" font-family="Times,serif" font-size="14.00">requires two commits</text>
</g>
<!-- ShippingRepo&#45;&gt;Files -->
<g id="edge1" class="edge">
<title>ShippingRepo&#45;&gt;Files</title>
<path fill="none" stroke="black" d="M90.14,-41.81C95.56,-41.12 101.24,-40.41 107.06,-39.67"/>
<polygon fill="black" stroke="black" points="89.63,-38.34 80.15,-43.07 90.51,-45.29 89.63,-38.34"/>
<polygon fill="black" stroke="black" points="107.5,-43.15 116.98,-38.42 106.62,-36.2 107.5,-43.15"/>
</g>
<!-- InventoryRepo -->
<g id="node2" class="node">
<title>InventoryRepo</title>
<polygon fill="lightblue" stroke="lightblue" points="644.08,-38 558.08,-38 558.08,0 644.08,0 644.08,-38"/>
<text text-anchor="middle" x="601.08" y="-22.8" font-family="Times,serif" font-size="14.00">Inventory</text>
<text text-anchor="middle" x="601.08" y="-7.8" font-family="Times,serif" font-size="14.00">repo</text>
</g>
<!-- InventoryService -->
<g id="node4" class="node">
<title>InventoryService</title>
<polygon fill="lightblue" stroke="lightblue" points="880.2,-46 847.91,-64 783.33,-64 751.04,-46 783.33,-28 847.91,-28 880.2,-46"/>
<text text-anchor="middle" x="815.62" y="-42.3" font-family="Times,serif" font-size="14.00">Inventory</text>
</g>
<!-- InventoryRepo&#45;&gt;InventoryService -->
<g id="edge4" class="edge">
<title>InventoryRepo&#45;&gt;InventoryService</title>
<path fill="none" stroke="black" d="M644.32,-24.37C675.29,-28.3 717.81,-33.7 752.62,-38.12"/>
<polygon fill="black" stroke="black" points="752.32,-41.61 762.68,-39.4 753.2,-34.67 752.32,-41.61"/>
</g>
<!-- ShippingService&#45;&gt;InventoryService -->
<g id="edge5" class="edge">
<title>ShippingService&#45;&gt;InventoryService</title>
<path fill="none" stroke="black" stroke-dasharray="5,2" d="M464.22,-69.44C537.04,-64.57 667.8,-55.82 747.35,-50.5"/>
<polygon fill="black" stroke="black" points="748,-53.96 757.75,-49.8 747.54,-46.98 748,-53.96"/>
<text text-anchor="middle" x="601.08" y="-85.8" font-family="Times,serif" font-size="14.00">Need to deploy in correct order</text>
<text text-anchor="middle" x="601.08" y="-70.8" font-family="Times,serif" font-size="14.00">to maintain compatibility</text>
</g>
<!-- Files&#45;&gt;InventoryRepo -->
<g id="edge2" class="edge">
<title>Files&#45;&gt;InventoryRepo</title>
<path fill="none" stroke="black" d="M342.32,-23.13C411.12,-22.03 494.77,-20.69 547.73,-19.84"/>
<polygon fill="black" stroke="black" points="342.03,-19.63 332.09,-23.29 342.14,-26.63 342.03,-19.63"/>
<polygon fill="black" stroke="black" points="547.96,-23.34 557.9,-19.68 547.85,-16.34 547.96,-23.34"/>
</g>
</g>
</svg>
