<?xml version="1.0" encoding="UTF-8" standalone="no"?>
<!DOCTYPE svg PUBLIC "-//W3C//DTD SVG 1.1//EN"
 "http://www.w3.org/Graphics/SVG/1.1/DTD/svg11.dtd">
<!-- Generated by graphviz version 2.43.0 (0)
 -->
<!-- Title: MonorepoSingleCommit Pages: 1 -->
<svg width="959pt" height="111pt"
 viewBox="0.00 0.00 959.16 111.00" xmlns="http://www.w3.org/2000/svg" xmlns:xlink="http://www.w3.org/1999/xlink">
<g id="graph0" class="graph" transform="scale(1 1) rotate(0) translate(4 107)">
<title>MonorepoSingleCommit</title>
<polygon fill="white" stroke="transparent" points="-4,4 -4,-107 955.16,-107 955.16,4 -4,4"/>
<text text-anchor="middle" x="475.58" y="-86.2" font-family="Times,serif" font-size="16.00">Single Commit Across Two Microservices Using a Monorepo</text>
<!-- Files -->
<g id="node1" class="node">
<title>Files</title>
<polygon fill="white" stroke="white" points="209,-38 0,-38 0,0 215,0 215,-32 209,-38"/>
<polyline fill="none" stroke="white" points="209,-38 209,-32 "/>
<polyline fill="none" stroke="white" points="215,-32 209,-32 "/>
<text text-anchor="middle" x="107.5" y="-22.8" font-family="Times,serif" font-size="14.00">Change to client and server</text>
<text text-anchor="middle" x="107.5" y="-7.8" font-family="Times,serif" font-size="14.00">requires a single commit</text>
</g>
<!-- Monorepo -->
<g id="node2" class="node">
<title>Monorepo</title>
<polygon fill="lightblue" stroke="lightblue" points="341,-37 252,-37 252,-1 341,-1 341,-37"/>
<text text-anchor="middle" x="296.5" y="-15.3" font-family="Times,serif" font-size="14.00">Monorepo</text>
</g>
<!-- Files&#45;&gt;Monorepo -->
<g id="edge1" class="edge">
<title>Files&#45;&gt;Monorepo</title>
<path fill="none" stroke="black" d="M215.11,-19C224.32,-19 233.36,-19 241.86,-19"/>
<polygon fill="black" stroke="black" points="241.94,-22.5 251.94,-19 241.94,-15.5 241.94,-22.5"/>
</g>
<!-- Shipping -->
<g id="node3" class="node">
<title>Shipping</title>
<polygon fill="lightblue" stroke="lightblue" points="498.12,-53 468.08,-71 408,-71 377.96,-53 408,-35 468.08,-35 498.12,-53"/>
<text text-anchor="middle" x="438.04" y="-49.3" font-family="Times,serif" font-size="14.00">Shipping</text>
</g>
<!-- Monorepo&#45;&gt;Shipping -->
<g id="edge2" class="edge">
<title>Monorepo&#45;&gt;Shipping</title>
<path fill="none" stroke="black" d="M341.27,-29.66C355.17,-33.05 370.67,-36.83 385.08,-40.34"/>
<polygon fill="black" stroke="black" points="384.31,-43.76 394.86,-42.72 385.97,-36.95 384.31,-43.76"/>
</g>
<!-- Inventory -->
<g id="node4" class="node">
<title>Inventory</title>
<polygon fill="lightblue" stroke="lightblue" points="951.2,-23 918.91,-41 854.33,-41 822.04,-23 854.33,-5 918.91,-5 951.2,-23"/>
<text text-anchor="middle" x="886.62" y="-19.3" font-family="Times,serif" font-size="14.00">Inventory</text>
</g>
<!-- Monorepo&#45;&gt;Inventory -->
<g id="edge3" class="edge">
<title>Monorepo&#45;&gt;Inventory</title>
<path fill="none" stroke="black" d="M341.22,-19.3C441.43,-19.98 688.54,-21.66 812.39,-22.5"/>
<polygon fill="black" stroke="black" points="812.52,-26 822.54,-22.57 812.56,-19 812.52,-26"/>
</g>
<!-- Shipping&#45;&gt;Inventory -->
<g id="edge4" class="edge">
<title>Shipping&#45;&gt;Inventory</title>
<path fill="none" stroke="black" stroke-dasharray="5,2" d="M492.46,-49.41C574.05,-43.93 729.59,-33.48 818.63,-27.5"/>
<polygon fill="black" stroke="black" points="818.87,-30.99 828.62,-26.83 818.4,-24.01 818.87,-30.99"/>
<text text-anchor="middle" x="660.08" y="-65.8" font-family="Times,serif" font-size="14.00">Still requires two separate deployments</text>
<text text-anchor="middle" x="660.08" y="-50.8" font-family="Times,serif" font-size="14.00">to roll out the change</text>
</g>
</g>
</svg>
