<?xml version="1.0" encoding="UTF-8" standalone="no"?>
<!DOCTYPE svg PUBLIC "-//W3C//DTD SVG 1.1//EN"
 "http://www.w3.org/Graphics/SVG/1.1/DTD/svg11.dtd">
<!-- Generated by graphviz version 2.43.0 (0)
 -->
<!-- Title: MultiRepoBuild Pages: 1 -->
<svg width="511pt" height="259pt"
 viewBox="0.00 0.00 511.17 259.03" xmlns="http://www.w3.org/2000/svg" xmlns:xlink="http://www.w3.org/1999/xlink">
<g id="graph0" class="graph" transform="scale(1 1) rotate(0) translate(4 255.03)">
<title>MultiRepoBuild</title>
<polygon fill="white" stroke="transparent" points="-4,4 -4,-255.03 507.17,-255.03 507.17,4 -4,4"/>
<text text-anchor="middle" x="251.59" y="-234.23" font-family="Times,serif" font-size="16.00">Source Code Stored in Separate Repositories</text>
<g id="clust1" class="cluster">
<title>cluster_CIServer</title>
<polygon fill="none" stroke="gray" stroke-dasharray="1,5" points="155,-31.03 155,-217.03 338,-217.03 338,-31.03 155,-31.03"/>
<text text-anchor="middle" x="246.5" y="-200.23" font-family="Times,serif" font-size="16.00">CI Server</text>
</g>
<!-- UserRepo -->
<g id="node1" class="node">
<title>UserRepo</title>
<polygon fill="lightblue" stroke="lightblue" points="117,-186.03 10,-186.03 10,-148.03 117,-148.03 117,-186.03"/>
<text text-anchor="middle" x="63.5" y="-170.83" font-family="Times,serif" font-size="14.00">User service</text>
<text text-anchor="middle" x="63.5" y="-155.83" font-family="Times,serif" font-size="14.00">code repo</text>
</g>
<!-- UserBuild -->
<g id="node7" class="node">
<title>UserBuild</title>
<polygon fill="lightblue" stroke="lightblue" points="320,-183.03 173,-183.03 173,-147.03 320,-147.03 320,-183.03"/>
<text text-anchor="middle" x="246.5" y="-161.33" font-family="Times,serif" font-size="14.00">User service build</text>
</g>
<!-- UserRepo&#45;&gt;UserBuild -->
<g id="edge1" class="edge">
<title>UserRepo&#45;&gt;UserBuild</title>
<path fill="none" stroke="black" d="M117.34,-166.44C131.55,-166.29 147.26,-166.11 162.68,-165.94"/>
<polygon fill="black" stroke="black" points="162.79,-169.44 172.75,-165.83 162.71,-162.44 162.79,-169.44"/>
</g>
<!-- CatalogRepo -->
<g id="node2" class="node">
<title>CatalogRepo</title>
<polygon fill="lightblue" stroke="lightblue" points="127,-130.03 0,-130.03 0,-92.03 127,-92.03 127,-130.03"/>
<text text-anchor="middle" x="63.5" y="-114.83" font-family="Times,serif" font-size="14.00">Catalog service</text>
<text text-anchor="middle" x="63.5" y="-99.83" font-family="Times,serif" font-size="14.00">code repo</text>
</g>
<!-- CatalogBuild -->
<g id="node8" class="node">
<title>CatalogBuild</title>
<polygon fill="lightblue" stroke="lightblue" points="330,-129.03 163,-129.03 163,-93.03 330,-93.03 330,-129.03"/>
<text text-anchor="middle" x="246.5" y="-107.33" font-family="Times,serif" font-size="14.00">Catalog service build</text>
</g>
<!-- CatalogRepo&#45;&gt;CatalogBuild -->
<g id="edge3" class="edge">
<title>CatalogRepo&#45;&gt;CatalogBuild</title>
<path fill="none" stroke="black" d="M127.04,-111.03C135.34,-111.03 143.99,-111.03 152.66,-111.03"/>
<polygon fill="black" stroke="black" points="152.84,-114.53 162.84,-111.03 152.84,-107.53 152.84,-114.53"/>
</g>
<!-- InvoiceRepo -->
<g id="node3" class="node">
<title>InvoiceRepo</title>
<polygon fill="lightblue" stroke="lightblue" points="125,-74.03 2,-74.03 2,-36.03 125,-36.03 125,-74.03"/>
<text text-anchor="middle" x="63.5" y="-58.83" font-family="Times,serif" font-size="14.00">Invoice service</text>
<text text-anchor="middle" x="63.5" y="-43.83" font-family="Times,serif" font-size="14.00">code repo</text>
</g>
<!-- InvoiceBuild -->
<g id="node9" class="node">
<title>InvoiceBuild</title>
<polygon fill="lightblue" stroke="lightblue" points="328.5,-75.03 164.5,-75.03 164.5,-39.03 328.5,-39.03 328.5,-75.03"/>
<text text-anchor="middle" x="246.5" y="-53.33" font-family="Times,serif" font-size="14.00">Invoice service build</text>
</g>
<!-- InvoiceRepo&#45;&gt;InvoiceBuild -->
<g id="edge5" class="edge">
<title>InvoiceRepo&#45;&gt;InvoiceBuild</title>
<path fill="none" stroke="black" d="M125.02,-55.7C134.4,-55.8 144.27,-55.91 154.15,-56.02"/>
<polygon fill="black" stroke="black" points="154.39,-59.52 164.43,-56.13 154.47,-52.52 154.39,-59.52"/>
</g>
<!-- UserArtifact -->
<g id="node4" class="node">
<title>UserArtifact</title>
<polygon fill="lightblue" stroke="lightblue" points="503.26,-191.03 468.92,-222.08 400.25,-222.08 365.91,-191.03 400.25,-159.97 468.92,-159.97 503.26,-191.03"/>
<text text-anchor="middle" x="434.59" y="-194.83" font-family="Times,serif" font-size="14.00">User</text>
<text text-anchor="middle" x="434.59" y="-179.83" font-family="Times,serif" font-size="14.00">build&#45;123</text>
</g>
<!-- CatalogArtifact -->
<g id="node5" class="node">
<title>CatalogArtifact</title>
<polygon fill="lightblue" stroke="lightblue" points="503.26,-111.03 468.92,-142.08 400.25,-142.08 365.91,-111.03 400.25,-79.97 468.92,-79.97 503.26,-111.03"/>
<text text-anchor="middle" x="434.59" y="-114.83" font-family="Times,serif" font-size="14.00">Catalog</text>
<text text-anchor="middle" x="434.59" y="-99.83" font-family="Times,serif" font-size="14.00">build&#45;456</text>
</g>
<!-- InvoiceArtifact -->
<g id="node6" class="node">
<title>InvoiceArtifact</title>
<polygon fill="lightblue" stroke="lightblue" points="503.26,-31.03 468.92,-62.08 400.25,-62.08 365.91,-31.03 400.25,0.03 468.92,0.03 503.26,-31.03"/>
<text text-anchor="middle" x="434.59" y="-34.83" font-family="Times,serif" font-size="14.00">Invoice</text>
<text text-anchor="middle" x="434.59" y="-19.83" font-family="Times,serif" font-size="14.00">build&#45;789</text>
</g>
<!-- UserBuild&#45;&gt;UserArtifact -->
<g id="edge2" class="edge">
<title>UserBuild&#45;&gt;UserArtifact</title>
<path fill="none" stroke="black" d="M320.25,-175.19C334.76,-177.22 349.98,-179.34 364.37,-181.36"/>
<polygon fill="black" stroke="black" points="364.3,-184.88 374.69,-182.8 365.27,-177.95 364.3,-184.88"/>
</g>
<!-- CatalogBuild&#45;&gt;CatalogArtifact -->
<g id="edge4" class="edge">
<title>CatalogBuild&#45;&gt;CatalogArtifact</title>
<path fill="none" stroke="black" d="M330.2,-111.03C338.69,-111.03 347.3,-111.03 355.73,-111.03"/>
<polygon fill="black" stroke="black" points="355.91,-114.53 365.91,-111.03 355.91,-107.53 355.91,-114.53"/>
</g>
<!-- InvoiceBuild&#45;&gt;InvoiceArtifact -->
<g id="edge6" class="edge">
<title>InvoiceBuild&#45;&gt;InvoiceArtifact</title>
<path fill="none" stroke="black" d="M328.58,-45.7C340.62,-44.02 352.94,-42.29 364.7,-40.65"/>
<polygon fill="black" stroke="black" points="365.46,-44.08 374.88,-39.23 364.49,-37.15 365.46,-44.08"/>
</g>
</g>
</svg>
