<?xml version="1.0" encoding="UTF-8" standalone="no"?>
<!DOCTYPE svg PUBLIC "-//W3C//DTD SVG 1.1//EN"
 "http://www.w3.org/Graphics/SVG/1.1/DTD/svg11.dtd">
<!-- Generated by graphviz version 2.43.0 (0)
 -->
<!-- Title: SingleRepoBuild Pages: 1 -->
<svg width="941pt" height="256pt"
 viewBox="0.00 0.00 941.17 256.05" xmlns="http://www.w3.org/2000/svg" xmlns:xlink="http://www.w3.org/1999/xlink">
<g id="graph0" class="graph" transform="scale(1 1) rotate(0) translate(4 252.05)">
<title>SingleRepoBuild</title>
<polygon fill="white" stroke="transparent" points="-4,4 -4,-252.05 937.17,-252.05 937.17,4 -4,4"/>
<text text-anchor="middle" x="466.59" y="-231.25" font-family="Times,serif" font-size="16.00">Using a Single Source Code Repository and CI Build for All Microservices</text>
<!-- SourceRepo -->
<g id="node1" class="node">
<title>SourceRepo</title>
<polygon fill="lightblue" stroke="lightblue" points="146,-153.03 143,-157.03 122,-157.03 119,-153.03 0,-153.03 0,-69.03 146,-69.03 146,-153.03"/>
<text text-anchor="middle" x="73" y="-137.83" font-family="Times,serif" font-size="14.00">Source code repo</text>
<text text-anchor="middle" x="73" y="-106.83" font-family="Times,serif" font-size="14.00"> |&#45; /user&#45;service</text>
<text text-anchor="middle" x="73" y="-91.83" font-family="Times,serif" font-size="14.00"> |&#45; /catalog&#45;service</text>
<text text-anchor="middle" x="73" y="-76.83" font-family="Times,serif" font-size="14.00"> |&#45; /invoice&#45;service</text>
</g>
<!-- MonolithicBuild -->
<g id="node2" class="node">
<title>MonolithicBuild</title>
<polygon fill="lightblue" stroke="lightblue" points="529,-129.03 400,-129.03 396,-125.03 396,-93.03 525,-93.03 529,-97.03 529,-129.03"/>
<polyline fill="none" stroke="lightblue" points="525,-125.03 396,-125.03 "/>
<polyline fill="none" stroke="lightblue" points="525,-125.03 525,-93.03 "/>
<polyline fill="none" stroke="lightblue" points="525,-125.03 529,-129.03 "/>
<text text-anchor="middle" x="462.5" y="-107.33" font-family="Times,serif" font-size="14.00">Monolithic build</text>
</g>
<!-- SourceRepo&#45;&gt;MonolithicBuild -->
<g id="edge1" class="edge">
<title>SourceRepo&#45;&gt;MonolithicBuild</title>
<path fill="none" stroke="black" d="M146.43,-111.03C214.56,-111.03 316.19,-111.03 385.47,-111.03"/>
<polygon fill="black" stroke="black" points="385.88,-114.53 395.88,-111.03 385.88,-107.53 385.88,-114.53"/>
<text text-anchor="middle" x="271" y="-114.83" font-family="Times,serif" font-size="14.00">Any change triggers the build</text>
</g>
<!-- CIServer -->
<g id="node3" class="node">
<title>CIServer</title>
<polygon fill="lightblue" stroke="lightblue" points="759,-129.03 676,-129.03 676,-93.03 759,-93.03 759,-129.03"/>
<text text-anchor="middle" x="717.5" y="-107.33" font-family="Times,serif" font-size="14.00">CI server</text>
</g>
<!-- MonolithicBuild&#45;&gt;CIServer -->
<g id="edge2" class="edge">
<title>MonolithicBuild&#45;&gt;CIServer</title>
<path fill="none" stroke="black" d="M529.31,-111.03C571.92,-111.03 626.56,-111.03 665.79,-111.03"/>
<polygon fill="black" stroke="black" points="665.92,-114.53 675.92,-111.03 665.92,-107.53 665.92,-114.53"/>
<text text-anchor="middle" x="602.5" y="-114.83" font-family="Times,serif" font-size="14.00">Verification run</text>
</g>
<!-- UserArtifact -->
<g id="node4" class="node">
<title>UserArtifact</title>
<polygon fill="lightblue" stroke="lightblue" points="933.26,-191.03 898.92,-222.08 830.25,-222.08 795.91,-191.03 830.25,-159.97 898.92,-159.97 933.26,-191.03"/>
<text text-anchor="middle" x="864.59" y="-194.83" font-family="Times,serif" font-size="14.00">User</text>
<text text-anchor="middle" x="864.59" y="-179.83" font-family="Times,serif" font-size="14.00">build&#45;123</text>
</g>
<!-- CIServer&#45;&gt;UserArtifact -->
<g id="edge3" class="edge">
<title>CIServer&#45;&gt;UserArtifact</title>
<path fill="none" stroke="black" d="M751.42,-129.18C769.48,-139.14 792.27,-151.7 812.58,-162.9"/>
<polygon fill="black" stroke="black" points="810.97,-166.01 821.41,-167.77 814.35,-159.88 810.97,-166.01"/>
</g>
<!-- CatalogArtifact -->
<g id="node5" class="node">
<title>CatalogArtifact</title>
<polygon fill="lightblue" stroke="lightblue" points="933.26,-111.03 898.92,-142.08 830.25,-142.08 795.91,-111.03 830.25,-79.97 898.92,-79.97 933.26,-111.03"/>
<text text-anchor="middle" x="864.59" y="-114.83" font-family="Times,serif" font-size="14.00">Catalog</text>
<text text-anchor="middle" x="864.59" y="-99.83" font-family="Times,serif" font-size="14.00">build&#45;123</text>
</g>
<!-- CIServer&#45;&gt;CatalogArtifact -->
<g id="edge4" class="edge">
<title>CIServer&#45;&gt;CatalogArtifact</title>
<path fill="none" stroke="black" d="M759.3,-111.03C767.58,-111.03 776.55,-111.03 785.63,-111.03"/>
<polygon fill="black" stroke="black" points="785.91,-114.53 795.91,-111.03 785.91,-107.53 785.91,-114.53"/>
</g>
<!-- InvoiceArtifact -->
<g id="node6" class="node">
<title>InvoiceArtifact</title>
<polygon fill="lightblue" stroke="lightblue" points="933.26,-31.03 898.92,-62.08 830.25,-62.08 795.91,-31.03 830.25,0.03 898.92,0.03 933.26,-31.03"/>
<text text-anchor="middle" x="864.59" y="-34.83" font-family="Times,serif" font-size="14.00">Invoice</text>
<text text-anchor="middle" x="864.59" y="-19.83" font-family="Times,serif" font-size="14.00">build&#45;123</text>
</g>
<!-- CIServer&#45;&gt;InvoiceArtifact -->
<g id="edge5" class="edge">
<title>CIServer&#45;&gt;InvoiceArtifact</title>
<path fill="none" stroke="black" d="M751.42,-92.87C769.48,-82.91 792.27,-70.35 812.58,-59.15"/>
<polygon fill="black" stroke="black" points="814.35,-62.17 821.41,-54.28 810.97,-56.04 814.35,-62.17"/>
</g>
</g>
</svg>
