<?xml version="1.0" encoding="UTF-8" standalone="no"?>
<!DOCTYPE svg PUBLIC "-//W3C//DTD SVG 1.1//EN"
 "http://www.w3.org/Graphics/SVG/1.1/DTD/svg11.dtd">
<!-- Generated by graphviz version 2.43.0 (0)
 -->
<!-- Title: SubdirectoryBuilds Pages: 1 -->
<svg width="530pt" height="256pt"
 viewBox="0.00 0.00 530.17 256.05" xmlns="http://www.w3.org/2000/svg" xmlns:xlink="http://www.w3.org/1999/xlink">
<g id="graph0" class="graph" transform="scale(1 1) rotate(0) translate(4 252.05)">
<title>SubdirectoryBuilds</title>
<polygon fill="white" stroke="transparent" points="-4,4 -4,-252.05 526.17,-252.05 526.17,4 -4,4"/>
<text text-anchor="middle" x="261.09" y="-231.25" font-family="Times,serif" font-size="16.00">Subdirectories Mapped to Independent Builds</text>
<!-- SourceRepo -->
<g id="node1" class="node">
<title>SourceRepo</title>
<polygon fill="lightblue" stroke="lightblue" points="146,-153.03 143,-157.03 122,-157.03 119,-153.03 0,-153.03 0,-69.03 146,-69.03 146,-153.03"/>
<text text-anchor="middle" x="73" y="-137.83" font-family="Times,serif" font-size="14.00">Source code repo</text>
<text text-anchor="middle" x="73" y="-106.83" font-family="Times,serif" font-size="14.00"> |&#45; /user&#45;service</text>
<text text-anchor="middle" x="73" y="-91.83" font-family="Times,serif" font-size="14.00"> |&#45; /catalog&#45;service</text>
<text text-anchor="middle" x="73" y="-76.83" font-family="Times,serif" font-size="14.00"> |&#45; /invoice&#45;service</text>
</g>
<!-- UserBuild -->
<g id="node2" class="node">
<title>UserBuild</title>
<polygon fill="lightblue" stroke="lightblue" points="339,-196.03 192,-196.03 192,-160.03 339,-160.03 339,-196.03"/>
<text text-anchor="middle" x="265.5" y="-174.33" font-family="Times,serif" font-size="14.00">User service build</text>
</g>
<!-- SourceRepo&#45;&gt;UserBuild -->
<g id="edge1" class="edge">
<title>SourceRepo&#45;&gt;UserBuild</title>
<path fill="none" stroke="black" d="M146.02,-136.36C164.95,-143.02 185.19,-150.13 203.49,-156.57"/>
<polygon fill="black" stroke="black" points="202.55,-159.95 213.14,-159.96 204.87,-153.35 202.55,-159.95"/>
</g>
<!-- CatalogBuild -->
<g id="node3" class="node">
<title>CatalogBuild</title>
<polygon fill="lightblue" stroke="lightblue" points="349,-129.03 182,-129.03 182,-93.03 349,-93.03 349,-129.03"/>
<text text-anchor="middle" x="265.5" y="-107.33" font-family="Times,serif" font-size="14.00">Catalog service build</text>
</g>
<!-- SourceRepo&#45;&gt;CatalogBuild -->
<g id="edge3" class="edge">
<title>SourceRepo&#45;&gt;CatalogBuild</title>
<path fill="none" stroke="black" d="M146.02,-111.03C154.43,-111.03 163.09,-111.03 171.73,-111.03"/>
<polygon fill="black" stroke="black" points="171.83,-114.53 181.83,-111.03 171.83,-107.53 171.83,-114.53"/>
</g>
<!-- InvoiceBuild -->
<g id="node4" class="node">
<title>InvoiceBuild</title>
<polygon fill="lightblue" stroke="lightblue" points="347.5,-63.03 183.5,-63.03 183.5,-25.03 347.5,-25.03 347.5,-63.03"/>
<text text-anchor="middle" x="265.5" y="-47.83" font-family="Times,serif" font-size="14.00">Invoice service build</text>
<text text-anchor="middle" x="265.5" y="-32.83" font-family="Times,serif" font-size="14.00">CI server</text>
</g>
<!-- SourceRepo&#45;&gt;InvoiceBuild -->
<g id="edge5" class="edge">
<title>SourceRepo&#45;&gt;InvoiceBuild</title>
<path fill="none" stroke="black" d="M146.02,-85.7C163.98,-79.38 183.11,-72.65 200.64,-66.49"/>
<polygon fill="black" stroke="black" points="201.93,-69.74 210.2,-63.12 199.61,-63.14 201.93,-69.74"/>
</g>
<!-- UserArtifact -->
<g id="node5" class="node">
<title>UserArtifact</title>
<polygon fill="lightblue" stroke="lightblue" points="522.26,-191.03 487.92,-222.08 419.25,-222.08 384.91,-191.03 419.25,-159.97 487.92,-159.97 522.26,-191.03"/>
<text text-anchor="middle" x="453.59" y="-194.83" font-family="Times,serif" font-size="14.00">User</text>
<text text-anchor="middle" x="453.59" y="-179.83" font-family="Times,serif" font-size="14.00">build&#45;123</text>
</g>
<!-- UserBuild&#45;&gt;UserArtifact -->
<g id="edge2" class="edge">
<title>UserBuild&#45;&gt;UserArtifact</title>
<path fill="none" stroke="black" d="M339.25,-183.11C352.49,-184.03 366.3,-185 379.55,-185.92"/>
<polygon fill="black" stroke="black" points="379.33,-189.42 389.55,-186.62 379.82,-182.43 379.33,-189.42"/>
</g>
<!-- CatalogArtifact -->
<g id="node6" class="node">
<title>CatalogArtifact</title>
<polygon fill="lightblue" stroke="lightblue" points="522.26,-111.03 487.92,-142.08 419.25,-142.08 384.91,-111.03 419.25,-79.97 487.92,-79.97 522.26,-111.03"/>
<text text-anchor="middle" x="453.59" y="-114.83" font-family="Times,serif" font-size="14.00">Catalog</text>
<text text-anchor="middle" x="453.59" y="-99.83" font-family="Times,serif" font-size="14.00">build&#45;456</text>
</g>
<!-- CatalogBuild&#45;&gt;CatalogArtifact -->
<g id="edge4" class="edge">
<title>CatalogBuild&#45;&gt;CatalogArtifact</title>
<path fill="none" stroke="black" d="M349.2,-111.03C357.69,-111.03 366.3,-111.03 374.73,-111.03"/>
<polygon fill="black" stroke="black" points="374.91,-114.53 384.91,-111.03 374.91,-107.53 374.91,-114.53"/>
</g>
<!-- InvoiceArtifact -->
<g id="node7" class="node">
<title>InvoiceArtifact</title>
<polygon fill="lightblue" stroke="lightblue" points="522.26,-31.03 487.92,-62.08 419.25,-62.08 384.91,-31.03 419.25,0.03 487.92,0.03 522.26,-31.03"/>
<text text-anchor="middle" x="453.59" y="-34.83" font-family="Times,serif" font-size="14.00">Invoice</text>
<text text-anchor="middle" x="453.59" y="-19.83" font-family="Times,serif" font-size="14.00">build&#45;789</text>
</g>
<!-- InvoiceBuild&#45;&gt;InvoiceArtifact -->
<g id="edge6" class="edge">
<title>InvoiceBuild&#45;&gt;InvoiceArtifact</title>
<path fill="none" stroke="black" d="M347.58,-38.36C358.16,-37.62 368.94,-36.87 379.38,-36.14"/>
<polygon fill="black" stroke="black" points="379.95,-39.61 389.68,-35.42 379.46,-32.63 379.95,-39.61"/>
</g>
</g>
</svg>
