<?xml version="1.0" encoding="UTF-8" standalone="no"?>
<!DOCTYPE svg PUBLIC "-//W3C//DTD SVG 1.1//EN"
 "http://www.w3.org/Graphics/SVG/1.1/DTD/svg11.dtd">
<!-- Generated by graphviz version 2.43.0 (0)
 -->
<!-- Title: TeamMonorepo Pages: 1 -->
<svg width="653pt" height="202pt"
 viewBox="0.00 0.00 653.00 202.00" xmlns="http://www.w3.org/2000/svg" xmlns:xlink="http://www.w3.org/1999/xlink">
<g id="graph0" class="graph" transform="scale(1 1) rotate(0) translate(4 198)">
<title>TeamMonorepo</title>
<polygon fill="white" stroke="transparent" points="-4,4 -4,-198 649,-198 649,4 -4,4"/>
<text text-anchor="middle" x="322.5" y="-177.2" font-family="Times,serif" font-size="16.00">Pattern Variation with Team&#45;Specific Monorepos</text>
<g id="clust1" class="cluster">
<title>cluster_TeamA</title>
<polygon fill="none" stroke="black" points="8,-8 8,-160 345,-160 345,-8 8,-8"/>
<text text-anchor="middle" x="176.5" y="-143.2" font-family="Times,serif" font-size="16.00">Team A responsibility</text>
</g>
<g id="clust2" class="cluster">
<title>cluster_TeamB</title>
<polygon fill="none" stroke="black" points="353,-8 353,-160 637,-160 637,-8 353,-8"/>
<text text-anchor="middle" x="495" y="-143.2" font-family="Times,serif" font-size="16.00">Team B responsibility</text>
</g>
<!-- TeamARepo -->
<g id="node1" class="node">
<title>TeamARepo</title>
<polygon fill="lightblue" stroke="lightblue" points="208.5,-126 119.5,-126 119.5,-88 208.5,-88 208.5,-126"/>
<text text-anchor="middle" x="164" y="-110.8" font-family="Times,serif" font-size="14.00">Team A</text>
<text text-anchor="middle" x="164" y="-95.8" font-family="Times,serif" font-size="14.00">Monorepo</text>
</g>
<!-- UserService -->
<g id="node2" class="node">
<title>UserService</title>
<polygon fill="lightblue" stroke="lightblue" points="92.05,-34 73.03,-52 34.97,-52 15.95,-34 34.97,-16 73.03,-16 92.05,-34"/>
<text text-anchor="middle" x="54" y="-30.3" font-family="Times,serif" font-size="14.00">User</text>
</g>
<!-- TeamARepo&#45;&gt;UserService -->
<g id="edge1" class="edge">
<title>TeamARepo&#45;&gt;UserService</title>
<path fill="none" stroke="black" d="M135.96,-87.9C120.28,-77.78 100.71,-65.15 84.63,-54.77"/>
<polygon fill="black" stroke="black" points="86.4,-51.74 76.1,-49.26 82.6,-57.63 86.4,-51.74"/>
</g>
<!-- CatalogService -->
<g id="node3" class="node">
<title>CatalogService</title>
<polygon fill="lightblue" stroke="lightblue" points="217.07,-34 190.54,-52 137.46,-52 110.93,-34 137.46,-16 190.54,-16 217.07,-34"/>
<text text-anchor="middle" x="164" y="-30.3" font-family="Times,serif" font-size="14.00">Catalog</text>
</g>
<!-- TeamARepo&#45;&gt;CatalogService -->
<g id="edge2" class="edge">
<title>TeamARepo&#45;&gt;CatalogService</title>
<path fill="none" stroke="black" d="M164,-87.72C164,-79.97 164,-70.79 164,-62.27"/>
<polygon fill="black" stroke="black" points="167.5,-62 164,-52 160.5,-62 167.5,-62"/>
</g>
<!-- InvoiceService -->
<g id="node4" class="node">
<title>InvoiceService</title>
<polygon fill="lightblue" stroke="lightblue" points="337.07,-34 311.53,-52 260.47,-52 234.93,-34 260.47,-16 311.53,-16 337.07,-34"/>
<text text-anchor="middle" x="286" y="-30.3" font-family="Times,serif" font-size="14.00">Invoice</text>
</g>
<!-- TeamARepo&#45;&gt;InvoiceService -->
<g id="edge3" class="edge">
<title>TeamARepo&#45;&gt;InvoiceService</title>
<path fill="none" stroke="black" d="M195.1,-87.9C211.81,-78.17 232.5,-66.13 249.92,-56"/>
<polygon fill="black" stroke="black" points="251.81,-58.95 258.69,-50.89 248.29,-52.9 251.81,-58.95"/>
</g>
<!-- TeamBRepo -->
<g id="node5" class="node">
<title>TeamBRepo</title>
<polygon fill="lightblue" stroke="lightblue" points="541.5,-126 452.5,-126 452.5,-88 541.5,-88 541.5,-126"/>
<text text-anchor="middle" x="497" y="-110.8" font-family="Times,serif" font-size="14.00">Team B</text>
<text text-anchor="middle" x="497" y="-95.8" font-family="Times,serif" font-size="14.00">Monorepo</text>
</g>
<!-- InventoryService -->
<g id="node6" class="node">
<title>InventoryService</title>
<polygon fill="lightblue" stroke="lightblue" points="490.58,-34 458.29,-52 393.71,-52 361.42,-34 393.71,-16 458.29,-16 490.58,-34"/>
<text text-anchor="middle" x="426" y="-30.3" font-family="Times,serif" font-size="14.00">Inventory</text>
</g>
<!-- TeamBRepo&#45;&gt;InventoryService -->
<g id="edge4" class="edge">
<title>TeamBRepo&#45;&gt;InventoryService</title>
<path fill="none" stroke="black" d="M478.72,-87.72C470.03,-79.03 459.52,-68.52 450.19,-59.19"/>
<polygon fill="black" stroke="black" points="452.55,-56.6 443,-52 447.6,-61.55 452.55,-56.6"/>
</g>
<!-- ShippingService -->
<g id="node7" class="node">
<title>ShippingService</title>
<polygon fill="lightblue" stroke="lightblue" points="629.08,-34 599.04,-52 538.96,-52 508.92,-34 538.96,-16 599.04,-16 629.08,-34"/>
<text text-anchor="middle" x="569" y="-30.3" font-family="Times,serif" font-size="14.00">Shipping</text>
</g>
<!-- TeamBRepo&#45;&gt;ShippingService -->
<g id="edge5" class="edge">
<title>TeamBRepo&#45;&gt;ShippingService</title>
<path fill="none" stroke="black" d="M515.54,-87.72C524.35,-79.03 535,-68.52 544.47,-59.19"/>
<polygon fill="black" stroke="black" points="547.09,-61.52 551.76,-52 542.18,-56.53 547.09,-61.52"/>
</g>
</g>
</svg>
