<?xml version="1.0" encoding="UTF-8" standalone="no"?>
<!DOCTYPE svg PUBLIC "-//W3C//DTD SVG 1.1//EN"
 "http://www.w3.org/Graphics/SVG/1.1/DTD/svg11.dtd">
<!-- Generated by graphviz version 2.43.0 (0)
 -->
<!-- Title: AggregateRelationshipAcrossMicroservices Pages: 1 -->
<svg width="878pt" height="99pt"
 viewBox="0.00 0.00 877.66 99.00" xmlns="http://www.w3.org/2000/svg" xmlns:xlink="http://www.w3.org/1999/xlink">
<g id="graph0" class="graph" transform="scale(1 1) rotate(0) translate(4 95)">
<title>AggregateRelationshipAcrossMicroservices</title>
<polygon fill="white" stroke="transparent" points="-4,4 -4,-95 873.66,-95 873.66,4 -4,4"/>
<text text-anchor="middle" x="434.83" y="-75.8" font-family="Times,serif" font-size="14.00">Aggregate Relationship Across Microservices in ShopLink</text>
<!-- Customer -->
<g id="node1" class="node">
<title>Customer</title>
<polygon fill="lightblue" stroke="black" points="129.13,-34 96.83,-52 32.25,-52 -0.04,-34 32.25,-16 96.83,-16 129.13,-34"/>
<text text-anchor="middle" x="64.54" y="-30.3" font-family="Times,serif" font-size="14.00">Customer</text>
</g>
<!-- Finance -->
<g id="node2" class="node">
<title>Finance</title>
<polygon fill="lightblue" stroke="black" points="509.44,-34 482.16,-52 427.58,-52 400.3,-34 427.58,-16 482.16,-16 509.44,-34"/>
<text text-anchor="middle" x="454.87" y="-30.3" font-family="Times,serif" font-size="14.00">Finance</text>
</g>
<!-- Customer&#45;&gt;Finance -->
<g id="edge1" class="edge">
<title>Customer&#45;&gt;Finance</title>
<path fill="none" stroke="black" stroke-dasharray="5,2" d="M129.23,-34C201.22,-34 317.73,-34 389.85,-34"/>
<polygon fill="black" stroke="black" points="390.16,-37.5 400.16,-34 390.16,-30.5 390.16,-37.5"/>
<text text-anchor="middle" x="264.58" y="-52.8" font-family="Times,serif" font-size="14.00">Refers to an aggregate managed</text>
<text text-anchor="middle" x="264.58" y="-37.8" font-family="Times,serif" font-size="14.00">in the Customer microservice</text>
</g>
<!-- Ledger -->
<g id="node3" class="node">
<title>Ledger</title>
<polygon fill="white" stroke="black" points="869.66,-68 696.66,-68 696.66,0 869.66,0 869.66,-68"/>
<text text-anchor="middle" x="783.16" y="-52.8" font-family="Times,serif" font-size="14.00">Ledger</text>
<text text-anchor="middle" x="783.16" y="-37.8" font-family="Times,serif" font-size="14.00">CustID &#160;Amount</text>
<text text-anchor="middle" x="783.16" y="-22.8" font-family="Times,serif" font-size="14.00">/customer/141 $12.39</text>
<text text-anchor="middle" x="783.16" y="-7.8" font-family="Times,serif" font-size="14.00">/customer/332 $55.99</text>
</g>
<!-- Finance&#45;&gt;Ledger -->
<g id="edge2" class="edge">
<title>Finance&#45;&gt;Ledger</title>
<path fill="none" stroke="black" d="M509.75,-34C557.65,-34 628.79,-34 686.37,-34"/>
<polygon fill="black" stroke="black" points="686.58,-37.5 696.58,-34 686.58,-30.5 686.58,-37.5"/>
<text text-anchor="middle" x="603.16" y="-37.8" font-family="Times,serif" font-size="14.00">Manages ledger data</text>
</g>
</g>
</svg>
