<?xml version="1.0" encoding="UTF-8" standalone="no"?>
<!DOCTYPE svg PUBLIC "-//W3C//DTD SVG 1.1//EN"
 "http://www.w3.org/Graphics/SVG/1.1/DTD/svg11.dtd">
<!-- Generated by graphviz version 2.43.0 (0)
 -->
<!-- Title: CommonCoupling Pages: 1 -->
<svg width="669pt" height="129pt"
 viewBox="0.00 0.00 669.13 129.00" xmlns="http://www.w3.org/2000/svg" xmlns:xlink="http://www.w3.org/1999/xlink">
<g id="graph0" class="graph" transform="scale(1 1) rotate(0) translate(4 125)">
<title>CommonCoupling</title>
<polygon fill="white" stroke="transparent" points="-4,4 -4,-125 665.13,-125 665.13,4 -4,4"/>
<text text-anchor="middle" x="330.57" y="-107.4" font-family="Times,serif" font-size="12.00">Common coupling with a shared Order table</text>
<g id="clust1" class="cluster">
<title>cluster_shared_data</title>
<polygon fill="none" stroke="black" stroke-dasharray="1,5" points="538.13,-19 538.13,-92 653.13,-92 653.13,-19 538.13,-19"/>
<text text-anchor="middle" x="595.63" y="-78.4" font-family="Times,serif" font-size="12.00">Order table</text>
</g>
<!-- OrderTable -->
<g id="node1" class="node">
<title>OrderTable</title>
<path fill="none" stroke="black" d="M645.13,-59.73C645.13,-61.53 622.94,-63 595.63,-63 568.32,-63 546.13,-61.53 546.13,-59.73 546.13,-59.73 546.13,-30.27 546.13,-30.27 546.13,-28.47 568.32,-27 595.63,-27 622.94,-27 645.13,-28.47 645.13,-30.27 645.13,-30.27 645.13,-59.73 645.13,-59.73"/>
<path fill="none" stroke="black" d="M645.13,-59.73C645.13,-57.92 622.94,-56.45 595.63,-56.45 568.32,-56.45 546.13,-57.92 546.13,-59.73"/>
<text text-anchor="middle" x="595.63" y="-41.3" font-family="Times,serif" font-size="14.00">Order table</text>
</g>
<!-- OrderProcessor -->
<g id="node2" class="node">
<title>OrderProcessor</title>
<polygon fill="none" stroke="black" points="201.2,-72 150.88,-90 50.25,-90 -0.07,-72 50.25,-54 150.88,-54 201.2,-72"/>
<text text-anchor="middle" x="100.57" y="-68.3" font-family="Times,serif" font-size="14.00">Order Processor</text>
</g>
<!-- OrderProcessor&#45;&gt;OrderTable -->
<g id="edge1" class="edge">
<title>OrderProcessor&#45;&gt;OrderTable</title>
<path fill="none" stroke="black" d="M188.02,-67.27C287.94,-61.79 449.68,-52.94 535.98,-48.21"/>
<polygon fill="black" stroke="black" points="536.32,-51.7 546.12,-47.66 535.94,-44.71 536.32,-51.7"/>
<text text-anchor="middle" x="373.63" y="-68.8" font-family="Times,serif" font-size="14.00">Sets PLACED, PAID, COMPLETED statuses</text>
</g>
<!-- Warehouse -->
<g id="node3" class="node">
<title>Warehouse</title>
<polygon fill="none" stroke="black" points="171.66,-18 136.11,-36 65.02,-36 29.47,-18 65.02,0 136.11,0 171.66,-18"/>
<text text-anchor="middle" x="100.57" y="-14.3" font-family="Times,serif" font-size="14.00">Warehouse</text>
</g>
<!-- Warehouse&#45;&gt;OrderTable -->
<g id="edge2" class="edge">
<title>Warehouse&#45;&gt;OrderTable</title>
<path fill="none" stroke="black" d="M166.94,-15.44C250.93,-13.13 401.07,-12.27 528.13,-29 530.65,-29.33 533.22,-29.72 535.81,-30.15"/>
<polygon fill="black" stroke="black" points="535.35,-33.63 545.82,-32.02 536.63,-26.75 535.35,-33.63"/>
<text text-anchor="middle" x="373.63" y="-32.8" font-family="Times,serif" font-size="14.00">Sets PICKING and SHIPPED statuses</text>
</g>
</g>
</svg>
