<?xml version="1.0" encoding="UTF-8" standalone="no"?>
<!DOCTYPE svg PUBLIC "-//W3C//DTD SVG 1.1//EN"
 "http://www.w3.org/Graphics/SVG/1.1/DTD/svg11.dtd">
<!-- Generated by graphviz version 2.43.0 (0)
 -->
<!-- Title: ContentCoupling Pages: 1 -->
<svg width="278pt" height="287pt"
 viewBox="0.00 0.00 278.44 287.00" xmlns="http://www.w3.org/2000/svg" xmlns:xlink="http://www.w3.org/1999/xlink">
<g id="graph0" class="graph" transform="scale(1 1) rotate(0) translate(4 283)">
<title>ContentCoupling</title>
<polygon fill="white" stroke="transparent" points="-4,4 -4,-283 274.44,-283 274.44,4 -4,4"/>
<text text-anchor="middle" x="135.22" y="-262.2" font-family="Times,serif" font-size="16.00">Content Coupling in ShopLink</text>
<g id="clust1" class="cluster">
<title>cluster_order_service</title>
<polygon fill="none" stroke="black" stroke-dasharray="5,2" points="120.44,-8 120.44,-180 251.44,-180 251.44,-8 120.44,-8"/>
<text text-anchor="middle" x="185.94" y="-163.2" font-family="Times,serif" font-size="16.00">Order Service</text>
</g>
<!-- Order -->
<g id="node1" class="node">
<title>Order</title>
<polygon fill="lightblue" stroke="black" points="201.76,-128 185.1,-146 151.79,-146 135.13,-128 151.79,-110 185.1,-110 201.76,-128"/>
<text text-anchor="middle" x="168.44" y="-124.9" font-family="Arial" font-size="12.00">Order</text>
</g>
<!-- OrderTable -->
<g id="node2" class="node">
<title>OrderTable</title>
<path fill="white" stroke="black" d="M205.44,-48.73C205.44,-50.53 188.41,-52 167.44,-52 146.48,-52 129.44,-50.53 129.44,-48.73 129.44,-48.73 129.44,-19.27 129.44,-19.27 129.44,-17.47 146.48,-16 167.44,-16 188.41,-16 205.44,-17.47 205.44,-19.27 205.44,-19.27 205.44,-48.73 205.44,-48.73"/>
<path fill="none" stroke="black" d="M205.44,-48.73C205.44,-46.92 188.41,-45.45 167.44,-45.45 146.48,-45.45 129.44,-46.92 129.44,-48.73"/>
<text text-anchor="middle" x="167.44" y="-30.9" font-family="Arial" font-size="12.00">Order table</text>
</g>
<!-- Order&#45;&gt;OrderTable -->
<g id="edge1" class="edge">
<title>Order&#45;&gt;OrderTable</title>
<path fill="none" stroke="black" d="M168.26,-109.7C168.11,-96.46 167.91,-77.95 167.74,-62.66"/>
<polygon fill="black" stroke="black" points="171.24,-62.19 167.63,-52.23 164.24,-62.26 171.24,-62.19"/>
<text text-anchor="middle" x="196.94" y="-78.5" font-family="Arial" font-size="10.00">Updates data</text>
</g>
<!-- OrderProcessor -->
<g id="node3" class="node">
<title>OrderProcessor</title>
<polygon fill="lightblue" stroke="black" points="242.29,-235 205.37,-253 131.52,-253 94.59,-235 131.52,-217 205.37,-217 242.29,-235"/>
<text text-anchor="middle" x="168.44" y="-231.9" font-family="Arial" font-size="12.00">Order Processor</text>
</g>
<!-- OrderProcessor&#45;&gt;Order -->
<g id="edge2" class="edge">
<title>OrderProcessor&#45;&gt;Order</title>
<path fill="none" stroke="black" d="M168.44,-216.66C168.44,-200.22 168.44,-175.28 168.44,-156.19"/>
<polygon fill="black" stroke="black" points="171.94,-156.02 168.44,-146.02 164.94,-156.02 171.94,-156.02"/>
<text text-anchor="middle" x="219.44" y="-191" font-family="Arial" font-size="10.00">Request status change</text>
</g>
<!-- Warehouse -->
<g id="node4" class="node">
<title>Warehouse</title>
<polygon fill="lightblue" stroke="black" points="110.83,-128 83.14,-146 27.75,-146 0.06,-128 27.75,-110 83.14,-110 110.83,-128"/>
<text text-anchor="middle" x="55.44" y="-124.9" font-family="Arial" font-size="12.00">Warehouse</text>
</g>
<!-- Warehouse&#45;&gt;OrderTable -->
<g id="edge3" class="edge">
<title>Warehouse&#45;&gt;OrderTable</title>
<path fill="none" stroke="black" stroke-dasharray="1,5" d="M56.89,-109.77C58.8,-97.28 63.22,-80.76 73.44,-70 85.57,-57.25 102.76,-49.11 119.14,-43.93"/>
<polygon fill="black" stroke="black" points="120.51,-47.18 129.17,-41.07 118.6,-40.45 120.51,-47.18"/>
<text text-anchor="middle" x="118.44" y="-84" font-family="Arial" font-size="10.00">Directly updates</text>
<text text-anchor="middle" x="118.44" y="-73" font-family="Arial" font-size="10.00">data bypassing logic</text>
</g>
</g>
</svg>
