<?xml version="1.0" encoding="UTF-8" standalone="no"?>
<!DOCTYPE svg PUBLIC "-//W3C//DTD SVG 1.1//EN"
 "http://www.w3.org/Graphics/SVG/1.1/DTD/svg11.dtd">
<!-- Generated by graphviz version 2.43.0 (0)
 -->
<!-- Title: CouplingTypes Pages: 1 -->
<svg width="849pt" height="128pt"
 viewBox="0.00 0.00 849.00 128.00" xmlns="http://www.w3.org/2000/svg" xmlns:xlink="http://www.w3.org/1999/xlink">
<g id="graph0" class="graph" transform="scale(1 1) rotate(0) translate(4 124)">
<title>CouplingTypes</title>
<polygon fill="white" stroke="transparent" points="-4,4 -4,-124 845,-124 845,4 -4,4"/>
<text text-anchor="middle" x="420.5" y="-100" font-family="Times,serif" font-size="20.00">Types of Coupling: Loose to Tight</text>
<!-- Domain -->
<g id="node1" class="node">
<title>Domain</title>
<polygon fill="lightblue" stroke="lightblue" points="105.5,-36 34.5,-36 34.5,0 105.5,0 105.5,-36"/>
<text text-anchor="middle" x="70" y="-14.3" font-family="Times,serif" font-size="14.00">Domain</text>
</g>
<!-- PassThrough -->
<g id="node2" class="node">
<title>PassThrough</title>
<polygon fill="lightblue" stroke="lightblue" points="400.5,-36 290.5,-36 290.5,0 400.5,0 400.5,-36"/>
<text text-anchor="middle" x="345.5" y="-14.3" font-family="Times,serif" font-size="14.00">Pass&#45;through</text>
</g>
<!-- Domain&#45;&gt;PassThrough -->
<g id="edge1" class="edge">
<title>Domain&#45;&gt;PassThrough</title>
<path fill="none" stroke="black" d="M105.64,-18C149.39,-18 225.54,-18 280.11,-18"/>
<polygon fill="black" stroke="black" points="280.37,-21.5 290.37,-18 280.37,-14.5 280.37,-21.5"/>
<text text-anchor="middle" x="208" y="-21" font-family="Times,serif" font-size="10.00">Coupling Spectrum</text>
</g>
<!-- Common -->
<g id="node3" class="node">
<title>Common</title>
<polygon fill="lightblue" stroke="lightblue" points="631,-36 551,-36 551,0 631,0 631,-36"/>
<text text-anchor="middle" x="591" y="-14.3" font-family="Times,serif" font-size="14.00">Common</text>
</g>
<!-- PassThrough&#45;&gt;Common -->
<g id="edge2" class="edge">
<title>PassThrough&#45;&gt;Common</title>
<path fill="none" stroke="black" d="M400.54,-18C442.43,-18 500,-18 540.65,-18"/>
<polygon fill="black" stroke="black" points="540.86,-21.5 550.86,-18 540.86,-14.5 540.86,-21.5"/>
<text text-anchor="middle" x="483" y="-21" font-family="Times,serif" font-size="10.00">Coupling Spectrum</text>
</g>
<!-- Content -->
<g id="node4" class="node">
<title>Content</title>
<polygon fill="lightblue" stroke="lightblue" points="841,-36 767,-36 767,0 841,0 841,-36"/>
<text text-anchor="middle" x="804" y="-14.3" font-family="Times,serif" font-size="14.00">Content</text>
</g>
<!-- Common&#45;&gt;Content -->
<g id="edge3" class="edge">
<title>Common&#45;&gt;Content</title>
<path fill="none" stroke="black" d="M631.19,-18C666.71,-18 719.08,-18 756.65,-18"/>
<polygon fill="black" stroke="black" points="756.83,-21.5 766.83,-18 756.83,-14.5 756.83,-21.5"/>
<text text-anchor="middle" x="699" y="-21" font-family="Times,serif" font-size="10.00">Coupling Spectrum</text>
</g>
<!-- Low -->
<g id="node5" class="node">
<title>Low</title>
<polygon fill="lightblue" stroke="transparent" points="140,-90 0,-90 0,-54 140,-54 140,-90"/>
<text text-anchor="middle" x="70" y="-68.9" font-family="Times,serif" font-size="12.00">Low/Loose Coupling</text>
</g>
<!-- High -->
<g id="node6" class="node">
<title>High</title>
<polygon fill="lightblue" stroke="transparent" points="415,-90 276,-90 276,-54 415,-54 415,-90"/>
<text text-anchor="middle" x="345.5" y="-68.9" font-family="Times,serif" font-size="12.00">High/Tight Coupling</text>
</g>
<!-- Low&#45;&gt;High -->
</g>
</svg>
