<?xml version="1.0" encoding="UTF-8" standalone="no"?>
<!DOCTYPE svg PUBLIC "-//W3C//DTD SVG 1.1//EN"
 "http://www.w3.org/Graphics/SVG/1.1/DTD/svg11.dtd">
<!-- Generated by graphviz version 2.43.0 (0)
 -->
<!-- Title: CustomerAggregateRelationships Pages: 1 -->
<svg width="442pt" height="125pt"
 viewBox="0.00 0.00 442.00 125.00" xmlns="http://www.w3.org/2000/svg" xmlns:xlink="http://www.w3.org/1999/xlink">
<g id="graph0" class="graph" transform="scale(1 1) rotate(0) translate(4 121)">
<title>CustomerAggregateRelationships</title>
<polygon fill="white" stroke="transparent" points="-4,4 -4,-121 438,-121 438,4 -4,4"/>
<text text-anchor="middle" x="217" y="-101.8" font-family="Times,serif" font-size="14.00">Customer Aggregate Relationships in ShopLink</text>
<!-- Customer -->
<g id="node1" class="node">
<title>Customer</title>
<polygon fill="lightblue" stroke="black" points="137,-66 0,-66 0,-28 137,-28 137,-66"/>
<text text-anchor="middle" x="68.5" y="-50.8" font-family="Times,serif" font-size="14.00">Customer</text>
<text text-anchor="middle" x="68.5" y="-35.8" font-family="Times,serif" font-size="14.00">&lt;&lt;aggregate&gt;&gt;</text>
</g>
<!-- Order -->
<g id="node2" class="node">
<title>Order</title>
<polygon fill="lightblue" stroke="black" points="434,-94 297,-94 297,-56 434,-56 434,-94"/>
<text text-anchor="middle" x="365.5" y="-78.8" font-family="Times,serif" font-size="14.00">Order</text>
<text text-anchor="middle" x="365.5" y="-63.8" font-family="Times,serif" font-size="14.00">&lt;&lt;aggregate&gt;&gt;</text>
</g>
<!-- Customer&#45;&gt;Order -->
<g id="edge1" class="edge">
<title>Customer&#45;&gt;Order</title>
<path fill="none" stroke="black" d="M137.18,-53.42C181.79,-57.66 240.34,-63.22 286.85,-67.63"/>
<polygon fill="black" stroke="black" points="286.6,-71.12 296.88,-68.58 287.26,-64.15 286.6,-71.12"/>
<text text-anchor="middle" x="217" y="-69.8" font-family="Times,serif" font-size="14.00">Has zero or more</text>
</g>
<!-- Wishlist -->
<g id="node3" class="node">
<title>Wishlist</title>
<polygon fill="lightblue" stroke="black" points="434,-38 297,-38 297,0 434,0 434,-38"/>
<text text-anchor="middle" x="365.5" y="-22.8" font-family="Times,serif" font-size="14.00">Wishlist</text>
<text text-anchor="middle" x="365.5" y="-7.8" font-family="Times,serif" font-size="14.00">&lt;&lt;aggregate&gt;&gt;</text>
</g>
<!-- Customer&#45;&gt;Wishlist -->
<g id="edge2" class="edge">
<title>Customer&#45;&gt;Wishlist</title>
<path fill="none" stroke="black" d="M137.14,-38C143.17,-37.29 149.2,-36.61 155,-36 198.57,-31.43 247.35,-27.41 286.87,-24.43"/>
<polygon fill="black" stroke="black" points="287.25,-27.91 296.97,-23.67 286.73,-20.93 287.25,-27.91"/>
<text text-anchor="middle" x="217" y="-39.8" font-family="Times,serif" font-size="14.00">Has zero or more</text>
</g>
</g>
</svg>
