<?xml version="1.0" encoding="UTF-8" standalone="no"?>
<!DOCTYPE svg PUBLIC "-//W3C//DTD SVG 1.1//EN"
 "http://www.w3.org/Graphics/SVG/1.1/DTD/svg11.dtd">
<!-- Generated by graphviz version 2.43.0 (0)
 -->
<!-- Title: DirectCommunication Pages: 1 -->
<svg width="776pt" height="148pt"
 viewBox="0.00 0.00 775.80 148.00" xmlns="http://www.w3.org/2000/svg" xmlns:xlink="http://www.w3.org/1999/xlink">
<g id="graph0" class="graph" transform="scale(1 1) rotate(0) translate(4 144)">
<title>DirectCommunication</title>
<polygon fill="white" stroke="transparent" points="-4,4 -4,-144 771.8,-144 771.8,4 -4,4"/>
<text text-anchor="middle" x="383.9" y="-124.8" font-family="Times,serif" font-size="14.00">Direct Communication in ShopLink</text>
<!-- OrderProcessor -->
<g id="node1" class="node">
<title>OrderProcessor</title>
<polygon fill="lightblue" stroke="black" points="201.2,-45 150.88,-63 50.25,-63 -0.07,-45 50.25,-27 150.88,-27 201.2,-45"/>
<text text-anchor="middle" x="100.57" y="-41.3" font-family="Times,serif" font-size="14.00">Order Processor</text>
</g>
<!-- Warehouse -->
<g id="node2" class="node">
<title>Warehouse</title>
<polygon fill="lightblue" stroke="black" points="767.6,-45 732.05,-63 660.96,-63 625.41,-45 660.96,-27 732.05,-27 767.6,-45"/>
<text text-anchor="middle" x="696.51" y="-41.3" font-family="Times,serif" font-size="14.00">Warehouse</text>
</g>
<!-- OrderProcessor&#45;&gt;Warehouse -->
<g id="edge1" class="edge">
<title>OrderProcessor&#45;&gt;Warehouse</title>
<path fill="none" stroke="black" d="M184.07,-51.25C195.83,-51.95 207.78,-52.57 219.13,-53 391.49,-59.5 435,-64.72 607.21,-55 614.41,-54.59 621.93,-54 629.4,-53.31"/>
<polygon fill="black" stroke="black" points="629.93,-56.77 639.54,-52.3 629.24,-49.81 629.93,-56.77"/>
<text text-anchor="middle" x="411.17" y="-63.8" font-family="Times,serif" font-size="14.00">1. Reserve stock</text>
</g>
<!-- Shipping -->
<g id="node3" class="node">
<title>Shipping</title>
<polygon fill="lightblue" stroke="black" points="471.25,-18 441.21,-36 381.13,-36 351.09,-18 381.13,0 441.21,0 471.25,-18"/>
<text text-anchor="middle" x="411.17" y="-14.3" font-family="Times,serif" font-size="14.00">Shipping</text>
</g>
<!-- OrderProcessor&#45;&gt;Shipping -->
<g id="edge2" class="edge">
<title>OrderProcessor&#45;&gt;Shipping</title>
<path fill="none" stroke="black" d="M181.84,-37.98C233.75,-33.43 300.31,-27.61 348.16,-23.43"/>
<polygon fill="black" stroke="black" points="348.72,-26.89 358.38,-22.53 348.11,-19.92 348.72,-26.89"/>
<text text-anchor="middle" x="276.13" y="-37.8" font-family="Times,serif" font-size="14.00">2. Ship package</text>
</g>
<!-- Shipping&#45;&gt;Warehouse -->
<g id="edge3" class="edge">
<title>Shipping&#45;&gt;Warehouse</title>
<path fill="none" stroke="black" d="M463.15,-22.86C508.69,-27.2 575.79,-33.59 626.19,-38.39"/>
<polygon fill="black" stroke="black" points="626.07,-41.9 636.36,-39.36 626.73,-34.93 626.07,-41.9"/>
<text text-anchor="middle" x="548.21" y="-39.8" font-family="Times,serif" font-size="14.00">3. Remove stock</text>
</g>
<!-- ShippingManifest -->
<g id="node4" class="node">
<title>ShippingManifest</title>
<polygon fill="lightpink" stroke="black" points="174.57,-117 26.57,-117 26.57,-81 174.57,-81 174.57,-117"/>
<text text-anchor="middle" x="100.57" y="-95.3" font-family="Times,serif" font-size="14.00">Shipping Manifest</text>
</g>
</g>
</svg>
