<?xml version="1.0" encoding="UTF-8" standalone="no"?>
<!DOCTYPE svg PUBLIC "-//W3C//DTD SVG 1.1//EN"
 "http://www.w3.org/Graphics/SVG/1.1/DTD/svg11.dtd">
<!-- Generated by graphviz version 2.43.0 (0)
 -->
<!-- Title: DomainCoupling Pages: 1 -->
<svg width="401pt" height="121pt"
 viewBox="0.00 0.00 401.33 121.00" xmlns="http://www.w3.org/2000/svg" xmlns:xlink="http://www.w3.org/1999/xlink">
<g id="graph0" class="graph" transform="scale(1 1) rotate(0) translate(4 117)">
<title>DomainCoupling</title>
<polygon fill="white" stroke="transparent" points="-4,4 -4,-117 397.33,-117 397.33,4 -4,4"/>
<text text-anchor="middle" x="196.66" y="-7.8" font-family="Times,serif" font-size="14.00">ShopLink: Domain Coupling</text>
<!-- Order Processor -->
<g id="node1" class="node">
<title>Order Processor</title>
<polygon fill="lightblue" stroke="black" points="166.5,-68 124.83,-86 41.5,-86 -0.17,-68 41.5,-50 124.83,-50 166.5,-68"/>
<text text-anchor="middle" x="83.17" y="-64.9" font-family="Times,serif" font-size="12.00">Order Processor</text>
</g>
<!-- Warehouse -->
<g id="node2" class="node">
<title>Warehouse</title>
<polygon fill="lightblue" stroke="black" points="393.33,-95 363.83,-113 304.83,-113 275.33,-95 304.83,-77 363.83,-77 393.33,-95"/>
<text text-anchor="middle" x="334.33" y="-91.9" font-family="Times,serif" font-size="12.00">Warehouse</text>
</g>
<!-- Order Processor&#45;&gt;Warehouse -->
<g id="edge1" class="edge">
<title>Order Processor&#45;&gt;Warehouse</title>
<path fill="none" stroke="black" d="M150.28,-75.16C188.63,-79.32 236.54,-84.51 273.72,-88.54"/>
<polygon fill="black" stroke="black" points="273.59,-92.05 283.91,-89.64 274.34,-85.09 273.59,-92.05"/>
<text text-anchor="middle" x="220.83" y="-89" font-family="Times,serif" font-size="10.00">Reserve stock</text>
</g>
<!-- Payment -->
<g id="node3" class="node">
<title>Payment</title>
<polygon fill="lightblue" stroke="black" points="382.5,-41 358.42,-59 310.24,-59 286.16,-41 310.24,-23 358.42,-23 382.5,-41"/>
<text text-anchor="middle" x="334.33" y="-37.9" font-family="Times,serif" font-size="12.00">Payment</text>
</g>
<!-- Order Processor&#45;&gt;Payment -->
<g id="edge2" class="edge">
<title>Order Processor&#45;&gt;Payment</title>
<path fill="none" stroke="black" d="M150.28,-60.84C191.4,-56.38 243.5,-50.73 281.6,-46.61"/>
<polygon fill="black" stroke="black" points="282.38,-50.04 291.95,-45.48 281.63,-43.08 282.38,-50.04"/>
<text text-anchor="middle" x="220.83" y="-59" font-family="Times,serif" font-size="10.00">Take payment</text>
</g>
</g>
</svg>
