<?xml version="1.0" encoding="UTF-8" standalone="no"?>
<!DOCTYPE svg PUBLIC "-//W3C//DTD SVG 1.1//EN"
 "http://www.w3.org/Graphics/SVG/1.1/DTD/svg11.dtd">
<!-- Generated by graphviz version 2.43.0 (0)
 -->
<!-- Title: HidingDetails Pages: 1 -->
<svg width="869pt" height="121pt"
 viewBox="0.00 0.00 868.80 121.00" xmlns="http://www.w3.org/2000/svg" xmlns:xlink="http://www.w3.org/1999/xlink">
<g id="graph0" class="graph" transform="scale(1 1) rotate(0) translate(4 117)">
<title>HidingDetails</title>
<polygon fill="white" stroke="transparent" points="-4,4 -4,-117 864.8,-117 864.8,4 -4,4"/>
<text text-anchor="middle" x="430.4" y="-97.8" font-family="Times,serif" font-size="14.00">Hiding Shipping Manifest Details in ShopLink</text>
<!-- OrderProcessor -->
<g id="node1" class="node">
<title>OrderProcessor</title>
<polygon fill="lightblue" stroke="black" points="201.2,-18 150.88,-36 50.25,-36 -0.07,-18 50.25,0 150.88,0 201.2,-18"/>
<text text-anchor="middle" x="100.57" y="-14.3" font-family="Times,serif" font-size="14.00">Order Processor</text>
</g>
<!-- Warehouse -->
<g id="node2" class="node">
<title>Warehouse</title>
<polygon fill="lightblue" stroke="black" points="518.52,-18 482.97,-36 411.88,-36 376.33,-18 411.88,0 482.97,0 518.52,-18"/>
<text text-anchor="middle" x="447.43" y="-14.3" font-family="Times,serif" font-size="14.00">Warehouse</text>
</g>
<!-- OrderProcessor&#45;&gt;Warehouse -->
<g id="edge1" class="edge">
<title>OrderProcessor&#45;&gt;Warehouse</title>
<path fill="none" stroke="black" d="M201.31,-18C253.59,-18 316.78,-18 365.91,-18"/>
<polygon fill="black" stroke="black" points="366.17,-21.5 376.17,-18 366.17,-14.5 366.17,-21.5"/>
<text text-anchor="middle" x="288.63" y="-36.8" font-family="Times,serif" font-size="14.00">Send order request</text>
<text text-anchor="middle" x="288.63" y="-21.8" font-family="Times,serif" font-size="14.00">(Address + Type)</text>
</g>
<!-- Shipping -->
<g id="node3" class="node">
<title>Shipping</title>
<polygon fill="lightblue" stroke="black" points="860.84,-18 830.8,-36 770.72,-36 740.68,-18 770.72,0 830.8,0 860.84,-18"/>
<text text-anchor="middle" x="800.76" y="-14.3" font-family="Times,serif" font-size="14.00">Shipping</text>
</g>
<!-- Warehouse&#45;&gt;Shipping -->
<g id="edge2" class="edge">
<title>Warehouse&#45;&gt;Shipping</title>
<path fill="none" stroke="black" d="M518.68,-18C580.2,-18 669.1,-18 730.37,-18"/>
<polygon fill="black" stroke="black" points="730.71,-21.5 740.71,-18 730.71,-14.5 730.71,-21.5"/>
<text text-anchor="middle" x="629.72" y="-21.8" font-family="Times,serif" font-size="14.00">Dispatch package request</text>
</g>
<!-- ShippingManifest -->
<g id="node4" class="node">
<title>ShippingManifest</title>
<polygon fill="lightpink" stroke="black" points="174.57,-90 26.57,-90 26.57,-54 174.57,-54 174.57,-90"/>
<text text-anchor="middle" x="100.57" y="-68.3" font-family="Times,serif" font-size="14.00">Shipping Manifest</text>
</g>
</g>
</svg>
