<?xml version="1.0" encoding="UTF-8" standalone="no"?>
<!DOCTYPE svg PUBLIC "-//W3C//DTD SVG 1.1//EN"
 "http://www.w3.org/Graphics/SVG/1.1/DTD/svg11.dtd">
<!-- Generated by graphviz version 2.43.0 (0)
 -->
<!-- Title: OpaqueDataPassing Pages: 1 -->
<svg width="1117pt" height="79pt"
 viewBox="0.00 0.00 1116.80 79.00" xmlns="http://www.w3.org/2000/svg" xmlns:xlink="http://www.w3.org/1999/xlink">
<g id="graph0" class="graph" transform="scale(1 1) rotate(0) translate(4 75)">
<title>OpaqueDataPassing</title>
<polygon fill="white" stroke="transparent" points="-4,4 -4,-75 1112.8,-75 1112.8,4 -4,4"/>
<text text-anchor="middle" x="554.4" y="-55.8" font-family="Times,serif" font-size="14.00">Opaque Data Passing in ShopLink</text>
<!-- OrderProcessor -->
<g id="node1" class="node">
<title>OrderProcessor</title>
<polygon fill="lightblue" stroke="black" points="201.2,-18 150.88,-36 50.25,-36 -0.07,-18 50.25,0 150.88,0 201.2,-18"/>
<text text-anchor="middle" x="100.57" y="-14.3" font-family="Times,serif" font-size="14.00">Order Processor</text>
</g>
<!-- Warehouse -->
<g id="node2" class="node">
<title>Warehouse</title>
<polygon fill="lightblue" stroke="black" points="518.52,-18 482.97,-36 411.88,-36 376.33,-18 411.88,0 482.97,0 518.52,-18"/>
<text text-anchor="middle" x="447.43" y="-14.3" font-family="Times,serif" font-size="14.00">Warehouse</text>
</g>
<!-- OrderProcessor&#45;&gt;Warehouse -->
<g id="edge1" class="edge">
<title>OrderProcessor&#45;&gt;Warehouse</title>
<path fill="none" stroke="black" d="M201.31,-18C253.59,-18 316.78,-18 365.91,-18"/>
<polygon fill="black" stroke="black" points="366.17,-21.5 376.17,-18 366.17,-14.5 366.17,-21.5"/>
<text text-anchor="middle" x="288.63" y="-36.8" font-family="Times,serif" font-size="14.00">Send order request</text>
<text text-anchor="middle" x="288.63" y="-21.8" font-family="Times,serif" font-size="14.00">(Include manifest)</text>
</g>
<!-- Shipping -->
<g id="node3" class="node">
<title>Shipping</title>
<polygon fill="lightblue" stroke="black" points="801.84,-18 771.8,-36 711.72,-36 681.68,-18 711.72,0 771.8,0 801.84,-18"/>
<text text-anchor="middle" x="741.76" y="-14.3" font-family="Times,serif" font-size="14.00">Shipping</text>
</g>
<!-- Warehouse&#45;&gt;Shipping -->
<g id="edge2" class="edge">
<title>Warehouse&#45;&gt;Shipping</title>
<path fill="none" stroke="black" d="M518.82,-18C565,-18 625.12,-18 671.15,-18"/>
<polygon fill="black" stroke="black" points="671.33,-21.5 681.33,-18 671.33,-14.5 671.33,-21.5"/>
<text text-anchor="middle" x="600.22" y="-21.8" font-family="Times,serif" font-size="14.00">Forward manifest</text>
</g>
<!-- ShippingManifest -->
<g id="node4" class="node">
<title>ShippingManifest</title>
<polygon fill="lightpink" stroke="black" points="1108.8,-36 960.8,-36 960.8,0 1108.8,0 1108.8,-36"/>
<text text-anchor="middle" x="1034.8" y="-14.3" font-family="Times,serif" font-size="14.00">Shipping Manifest</text>
</g>
<!-- Shipping&#45;&gt;ShippingManifest -->
<g id="edge3" class="edge">
<title>Shipping&#45;&gt;ShippingManifest</title>
<path fill="none" stroke="black" d="M802.01,-18C844.75,-18 903.02,-18 950.44,-18"/>
<polygon fill="black" stroke="black" points="950.7,-21.5 960.7,-18 950.7,-14.5 950.7,-21.5"/>
<text text-anchor="middle" x="881.3" y="-21.8" font-family="Times,serif" font-size="14.00">Process manifest</text>
</g>
</g>
</svg>
