<?xml version="1.0" encoding="UTF-8" standalone="no"?>
<!DOCTYPE svg PUBLIC "-//W3C//DTD SVG 1.1//EN"
 "http://www.w3.org/Graphics/SVG/1.1/DTD/svg11.dtd">
<!-- Generated by graphviz version 2.43.0 (0)
 -->
<!-- Title: OrderStateTransitions Pages: 1 -->
<svg width="519pt" height="130pt"
 viewBox="0.00 0.00 518.96 130.00" xmlns="http://www.w3.org/2000/svg" xmlns:xlink="http://www.w3.org/1999/xlink">
<g id="graph0" class="graph" transform="scale(1 1) rotate(0) translate(4 126)">
<title>OrderStateTransitions</title>
<polygon fill="white" stroke="transparent" points="-4,4 -4,-126 514.96,-126 514.96,4 -4,4"/>
<text text-anchor="middle" x="255.48" y="-108.4" font-family="Times,serif" font-size="12.00">Allowable State Transitions for an Order in ShopLink</text>
<!-- PLACED -->
<g id="node1" class="node">
<title>PLACED</title>
<ellipse fill="none" stroke="black" cx="50.05" cy="-18" rx="50.09" ry="18"/>
<text text-anchor="middle" x="50.05" y="-14.3" font-family="Times,serif" font-size="14.00">PLACED</text>
</g>
<!-- PAID -->
<g id="node2" class="node">
<title>PAID</title>
<ellipse fill="none" stroke="black" cx="169.24" cy="-41" rx="33.29" ry="18"/>
<text text-anchor="middle" x="169.24" y="-37.3" font-family="Times,serif" font-size="14.00">PAID</text>
</g>
<!-- PLACED&#45;&gt;PAID -->
<g id="edge1" class="edge">
<title>PLACED&#45;&gt;PAID</title>
<path fill="none" stroke="black" d="M94.35,-26.5C105.32,-28.65 117.06,-30.96 127.88,-33.08"/>
<polygon fill="black" stroke="black" points="127.42,-36.56 137.91,-35.05 128.77,-29.69 127.42,-36.56"/>
</g>
<!-- CANCELED -->
<g id="node5" class="node">
<title>CANCELED</title>
<ellipse fill="none" stroke="black" cx="445.32" cy="-29" rx="65.79" ry="18"/>
<text text-anchor="middle" x="445.32" y="-25.3" font-family="Times,serif" font-size="14.00">CANCELED</text>
</g>
<!-- PLACED&#45;&gt;CANCELED -->
<g id="edge4" class="edge">
<title>PLACED&#45;&gt;CANCELED</title>
<path fill="none" stroke="black" d="M99.6,-15.32C111.53,-14.77 124.27,-14.28 136.09,-14 217.14,-12.09 310.07,-17.68 372.52,-22.57"/>
<polygon fill="black" stroke="black" points="372.41,-26.07 382.66,-23.38 372.97,-19.1 372.41,-26.07"/>
</g>
<!-- PICKING -->
<g id="node3" class="node">
<title>PICKING</title>
<ellipse fill="none" stroke="black" cx="291.03" cy="-79" rx="52.79" ry="18"/>
<text text-anchor="middle" x="291.03" y="-75.3" font-family="Times,serif" font-size="14.00">PICKING</text>
</g>
<!-- PAID&#45;&gt;PICKING -->
<g id="edge2" class="edge">
<title>PAID&#45;&gt;PICKING</title>
<path fill="none" stroke="black" d="M198.32,-49.91C211.37,-54.05 227.26,-59.09 242.12,-63.8"/>
<polygon fill="black" stroke="black" points="241.1,-67.15 251.69,-66.84 243.22,-60.48 241.1,-67.15"/>
</g>
<!-- PAID&#45;&gt;CANCELED -->
<g id="edge5" class="edge">
<title>PAID&#45;&gt;CANCELED</title>
<path fill="none" stroke="black" d="M202.48,-39.59C243.45,-37.79 315.4,-34.64 370.2,-32.25"/>
<polygon fill="black" stroke="black" points="370.39,-35.74 380.22,-31.81 370.08,-28.75 370.39,-35.74"/>
</g>
<!-- SHIPPED -->
<g id="node4" class="node">
<title>SHIPPED</title>
<ellipse fill="none" stroke="black" cx="445.32" cy="-83" rx="55.49" ry="18"/>
<text text-anchor="middle" x="445.32" y="-79.3" font-family="Times,serif" font-size="14.00">SHIPPED</text>
</g>
<!-- PICKING&#45;&gt;SHIPPED -->
<g id="edge3" class="edge">
<title>PICKING&#45;&gt;SHIPPED</title>
<path fill="none" stroke="black" d="M343.59,-80.35C355.32,-80.66 367.92,-80.99 380.11,-81.31"/>
<polygon fill="black" stroke="black" points="380.12,-84.81 390.21,-81.58 380.31,-77.82 380.12,-84.81"/>
</g>
<!-- PICKING&#45;&gt;CANCELED -->
<g id="edge6" class="edge">
<title>PICKING&#45;&gt;CANCELED</title>
<path fill="none" stroke="black" d="M329.68,-66.64C348.76,-60.37 372.23,-52.67 392.94,-45.87"/>
<polygon fill="black" stroke="black" points="394.14,-49.16 402.55,-42.71 391.96,-42.51 394.14,-49.16"/>
</g>
</g>
</svg>
