<?xml version="1.0" encoding="UTF-8" standalone="no"?>
<!DOCTYPE svg PUBLIC "-//W3C//DTD SVG 1.1//EN"
 "http://www.w3.org/Graphics/SVG/1.1/DTD/svg11.dtd">
<!-- Generated by graphviz version 2.43.0 (0)
 -->
<!-- Title: PassThroughCoupling Pages: 1 -->
<svg width="897pt" height="121pt"
 viewBox="0.00 0.00 896.72 121.00" xmlns="http://www.w3.org/2000/svg" xmlns:xlink="http://www.w3.org/1999/xlink">
<g id="graph0" class="graph" transform="scale(1 1) rotate(0) translate(4 117)">
<title>PassThroughCoupling</title>
<polygon fill="white" stroke="transparent" points="-4,4 -4,-117 892.72,-117 892.72,4 -4,4"/>
<text text-anchor="middle" x="444.36" y="-97.8" font-family="Times,serif" font-size="14.00">Pass&#45;through Coupling in ShopLink</text>
<!-- OrderProcessor -->
<g id="node1" class="node">
<title>OrderProcessor</title>
<polygon fill="lightblue" stroke="black" points="201.2,-45 150.88,-63 50.25,-63 -0.07,-45 50.25,-27 150.88,-27 201.2,-45"/>
<text text-anchor="middle" x="100.57" y="-41.3" font-family="Times,serif" font-size="14.00">Order Processor</text>
</g>
<!-- Warehouse -->
<g id="node2" class="node">
<title>Warehouse</title>
<polygon fill="lightblue" stroke="black" points="518.52,-45 482.97,-63 411.88,-63 376.33,-45 411.88,-27 482.97,-27 518.52,-45"/>
<text text-anchor="middle" x="447.43" y="-41.3" font-family="Times,serif" font-size="14.00">Warehouse</text>
</g>
<!-- OrderProcessor&#45;&gt;Warehouse -->
<g id="edge1" class="edge">
<title>OrderProcessor&#45;&gt;Warehouse</title>
<path fill="none" stroke="black" d="M201.31,-45C253.59,-45 316.78,-45 365.91,-45"/>
<polygon fill="black" stroke="black" points="366.17,-48.5 376.17,-45 366.17,-41.5 366.17,-48.5"/>
<text text-anchor="middle" x="288.63" y="-48.8" font-family="Times,serif" font-size="14.00">Send order request</text>
</g>
<!-- Shipping -->
<g id="node3" class="node">
<title>Shipping</title>
<polygon fill="lightblue" stroke="black" points="874.8,-72 844.76,-90 784.68,-90 754.65,-72 784.68,-54 844.76,-54 874.8,-72"/>
<text text-anchor="middle" x="814.72" y="-68.3" font-family="Times,serif" font-size="14.00">Shipping</text>
</g>
<!-- Warehouse&#45;&gt;Shipping -->
<g id="edge2" class="edge">
<title>Warehouse&#45;&gt;Shipping</title>
<path fill="none" stroke="black" d="M509.98,-49.55C577,-54.5 683.6,-62.38 751.05,-67.37"/>
<polygon fill="black" stroke="black" points="750.88,-70.86 761.12,-68.11 751.4,-63.88 750.88,-70.86"/>
<text text-anchor="middle" x="629.72" y="-67.8" font-family="Times,serif" font-size="14.00">Dispatch package request</text>
</g>
<!-- ShippingManifest -->
<g id="node4" class="node">
<title>ShippingManifest</title>
<polygon fill="lightpink" stroke="black" points="888.72,-36 740.72,-36 740.72,0 888.72,0 888.72,-36"/>
<text text-anchor="middle" x="814.72" y="-14.3" font-family="Times,serif" font-size="14.00">Shipping Manifest</text>
</g>
<!-- Warehouse&#45;&gt;ShippingManifest -->
<g id="edge3" class="edge">
<title>Warehouse&#45;&gt;ShippingManifest</title>
<path fill="none" stroke="black" d="M502.98,-36.88C514.13,-35.42 525.79,-34.04 536.72,-33 601.72,-26.83 675.55,-22.99 730.64,-20.74"/>
<polygon fill="black" stroke="black" points="730.85,-24.24 740.7,-20.34 730.57,-17.24 730.85,-24.24"/>
<text text-anchor="middle" x="629.72" y="-36.8" font-family="Times,serif" font-size="14.00">Forward manifest</text>
</g>
</g>
</svg>
