<?xml version="1.0" encoding="UTF-8" standalone="no"?>
<!DOCTYPE svg PUBLIC "-//W3C//DTD SVG 1.1//EN"
 "http://www.w3.org/Graphics/SVG/1.1/DTD/svg11.dtd">
<!-- Generated by graphviz version 2.43.0 (0)
 -->
<!-- Title: ServiceBoundarySplit Pages: 1 -->
<svg width="418pt" height="351pt"
 viewBox="0.00 0.00 418.00 351.00" xmlns="http://www.w3.org/2000/svg" xmlns:xlink="http://www.w3.org/1999/xlink">
<g id="graph0" class="graph" transform="scale(1 1) rotate(0) translate(4 347)">
<title>ServiceBoundarySplit</title>
<polygon fill="white" stroke="transparent" points="-4,4 -4,-347 414,-347 414,4 -4,4"/>
<text text-anchor="middle" x="205" y="-326.2" font-family="Times,serif" font-size="16.00">Service Boundary Split Across Technical Seams</text>
<g id="clust1" class="cluster">
<title>cluster_california_team</title>
<polygon fill="none" stroke="black" stroke-dasharray="1,5" points="125,-176 125,-254 285,-254 285,-176 125,-176"/>
<text text-anchor="middle" x="205" y="-237.2" font-family="Times,serif" font-size="16.00">California Team</text>
</g>
<g id="clust2" class="cluster">
<title>cluster_brazil_team</title>
<polygon fill="none" stroke="black" stroke-dasharray="1,5" points="118,-65 118,-143 292,-143 292,-65 118,-65"/>
<text text-anchor="middle" x="205" y="-126.2" font-family="Times,serif" font-size="16.00">Brazil Team</text>
</g>
<!-- FrontendWebsite -->
<g id="node1" class="node">
<title>FrontendWebsite</title>
<polygon fill="lightblue" stroke="lightblue" points="276.5,-220 133.5,-220 133.5,-184 276.5,-184 276.5,-220"/>
<text text-anchor="middle" x="205" y="-198.3" font-family="Times,serif" font-size="14.00">Frontend website</text>
</g>
<!-- DataAccessService -->
<g id="node2" class="node">
<title>DataAccessService</title>
<polygon fill="lightblue" stroke="lightblue" points="283.5,-109 126.5,-109 126.5,-73 283.5,-73 283.5,-109"/>
<text text-anchor="middle" x="205" y="-87.3" font-family="Times,serif" font-size="14.00">Data access service</text>
</g>
<!-- FrontendWebsite&#45;&gt;DataAccessService -->
<g id="edge2" class="edge">
<title>FrontendWebsite&#45;&gt;DataAccessService</title>
<path fill="none" stroke="black" d="M205,-183.97C205,-166.71 205,-139.74 205,-119.46"/>
<polygon fill="black" stroke="black" points="208.5,-119.27 205,-109.27 201.5,-119.27 208.5,-119.27"/>
<text text-anchor="middle" x="220.5" y="-154.8" font-family="Times,serif" font-size="14.00">RPC</text>
</g>
<!-- Database -->
<g id="node4" class="node">
<title>Database</title>
<polygon fill="lightblue" stroke="lightblue" points="246.5,-36 163.5,-36 163.5,0 246.5,0 246.5,-36"/>
<text text-anchor="middle" x="205" y="-14.3" font-family="Times,serif" font-size="14.00">Database</text>
</g>
<!-- DataAccessService&#45;&gt;Database -->
<g id="edge3" class="edge">
<title>DataAccessService&#45;&gt;Database</title>
<path fill="none" stroke="black" d="M205,-72.81C205,-64.79 205,-55.05 205,-46.07"/>
<polygon fill="black" stroke="black" points="208.5,-46.03 205,-36.03 201.5,-46.03 208.5,-46.03"/>
</g>
<!-- ExternalRequests -->
<g id="node3" class="node">
<title>ExternalRequests</title>
<text text-anchor="middle" x="205" y="-295.3" font-family="Times,serif" font-size="14.00">External requests</text>
</g>
<!-- ExternalRequests&#45;&gt;FrontendWebsite -->
<g id="edge1" class="edge">
<title>ExternalRequests&#45;&gt;FrontendWebsite</title>
<path fill="none" stroke="black" d="M205,-280.58C205,-266.65 205,-246.86 205,-230.76"/>
<polygon fill="black" stroke="black" points="208.5,-230.31 205,-220.31 201.5,-230.31 208.5,-230.31"/>
</g>
</g>
</svg>
