<?xml version="1.0" encoding="UTF-8" standalone="no"?>
<!DOCTYPE svg PUBLIC "-//W3C//DTD SVG 1.1//EN"
 "http://www.w3.org/Graphics/SVG/1.1/DTD/svg11.dtd">
<!-- Generated by graphviz version 2.43.0 (0)
 -->
<!-- Title: ShopLinkSharedRepresentation Pages: 1 -->
<svg width="435pt" height="258pt"
 viewBox="0.00 0.00 435.00 258.00" xmlns="http://www.w3.org/2000/svg" xmlns:xlink="http://www.w3.org/1999/xlink">
<g id="graph0" class="graph" transform="scale(1 1) rotate(0) translate(4 254)">
<title>ShopLinkSharedRepresentation</title>
<polygon fill="white" stroke="transparent" points="-4,4 -4,-254 431,-254 431,4 -4,4"/>
<text text-anchor="middle" x="213.5" y="-234.8" font-family="Times,serif" font-size="14.00">Internal and External Representations of a Shared Model</text>
<g id="clust1" class="cluster">
<title>cluster_internal</title>
<polygon fill="none" stroke="black" stroke-dasharray="5,2" points="101.5,-132 101.5,-219 325.5,-219 325.5,-132 101.5,-132"/>
<text text-anchor="middle" x="213.5" y="-203.8" font-family="Times,serif" font-size="14.00">Warehouse Bounded Context</text>
</g>
<g id="clust2" class="cluster">
<title>cluster_external</title>
<polygon fill="none" stroke="black" stroke-dasharray="5,2" points="120.5,-8 120.5,-84 312.5,-84 312.5,-8 120.5,-8"/>
<text text-anchor="middle" x="216.5" y="-68.8" font-family="Times,serif" font-size="14.00">External Representation</text>
</g>
<!-- InternalStockItem -->
<g id="node1" class="node">
<title>InternalStockItem</title>
<path fill="none" stroke="black" d="M134.5,-140.5C134.5,-140.5 216.5,-140.5 216.5,-140.5 222.5,-140.5 228.5,-146.5 228.5,-152.5 228.5,-152.5 228.5,-175.5 228.5,-175.5 228.5,-181.5 222.5,-187.5 216.5,-187.5 216.5,-187.5 134.5,-187.5 134.5,-187.5 128.5,-187.5 122.5,-181.5 122.5,-175.5 122.5,-175.5 122.5,-152.5 122.5,-152.5 122.5,-146.5 128.5,-140.5 134.5,-140.5"/>
<text text-anchor="middle" x="175.5" y="-173.9" font-family="Times,serif" font-size="12.00">Stock Item</text>
<text text-anchor="middle" x="175.5" y="-160.9" font-family="Times,serif" font-size="12.00">shelf_locations</text>
<text text-anchor="middle" x="175.5" y="-147.9" font-family="Times,serif" font-size="12.00">total_count</text>
</g>
<!-- ExternalStockItem -->
<g id="node2" class="node">
<title>ExternalStockItem</title>
<path fill="none" stroke="black" d="M145.5,-16.5C145.5,-16.5 205.5,-16.5 205.5,-16.5 211.5,-16.5 217.5,-22.5 217.5,-28.5 217.5,-28.5 217.5,-40.5 217.5,-40.5 217.5,-46.5 211.5,-52.5 205.5,-52.5 205.5,-52.5 145.5,-52.5 145.5,-52.5 139.5,-52.5 133.5,-46.5 133.5,-40.5 133.5,-40.5 133.5,-28.5 133.5,-28.5 133.5,-22.5 139.5,-16.5 145.5,-16.5"/>
<text text-anchor="middle" x="175.5" y="-37.9" font-family="Times,serif" font-size="12.00">Stock Item</text>
<text text-anchor="middle" x="175.5" y="-24.9" font-family="Times,serif" font-size="12.00">total_count</text>
</g>
<!-- InternalStockItem&#45;&gt;ExternalStockItem -->
<g id="edge1" class="edge">
<title>InternalStockItem&#45;&gt;ExternalStockItem</title>
<path fill="none" stroke="black" d="M175.5,-140.5C175.5,-118.9 175.5,-86.23 175.5,-63.07"/>
<polygon fill="black" stroke="black" points="179,-62.87 175.5,-52.87 172,-62.87 179,-62.87"/>
<text text-anchor="middle" x="252.5" y="-110.8" font-family="Times,serif" font-size="14.00">Shelf locations</text>
<text text-anchor="middle" x="252.5" y="-95.8" font-family="Times,serif" font-size="14.00">not shared externally</text>
</g>
</g>
</svg>
