<?xml version="1.0" encoding="UTF-8" standalone="no"?>
<!DOCTYPE svg PUBLIC "-//W3C//DTD SVG 1.1//EN"
 "http://www.w3.org/Graphics/SVG/1.1/DTD/svg11.dtd">
<!-- Generated by graphviz version 2.43.0 (0)
 -->
<!-- Title: ShopLinkSharedModel Pages: 1 -->
<svg width="457pt" height="687pt"
 viewBox="0.00 0.00 457.00 687.00" xmlns="http://www.w3.org/2000/svg" xmlns:xlink="http://www.w3.org/1999/xlink">
<g id="graph0" class="graph" transform="scale(1 1) rotate(0) translate(4 683)">
<title>ShopLinkSharedModel</title>
<polygon fill="white" stroke="transparent" points="-4,4 -4,-683 453,-683 453,4 -4,4"/>
<text text-anchor="middle" x="224.5" y="-663.8" font-family="Times,serif" font-size="14.00">Shared Model Between Finance and Warehouse</text>
<g id="clust1" class="cluster">
<title>cluster_warehouse</title>
<polygon fill="none" stroke="black" stroke-dasharray="5,2" points="8,-184 8,-648 232,-648 232,-184 8,-184"/>
<text text-anchor="middle" x="120" y="-632.8" font-family="Times,serif" font-size="14.00">Warehouse Bounded Context</text>
</g>
<g id="clust2" class="cluster">
<title>cluster_finance</title>
<polygon fill="none" stroke="black" stroke-dasharray="5,2" points="240,-8 240,-260 441,-260 441,-8 240,-8"/>
<text text-anchor="middle" x="340.5" y="-244.8" font-family="Times,serif" font-size="14.00">Finance Bounded Context</text>
</g>
<!-- Trolley -->
<g id="node1" class="node">
<title>Trolley</title>
<path fill="none" stroke="black" d="M76.5,-580.5C76.5,-580.5 111.5,-580.5 111.5,-580.5 117.5,-580.5 123.5,-586.5 123.5,-592.5 123.5,-592.5 123.5,-604.5 123.5,-604.5 123.5,-610.5 117.5,-616.5 111.5,-616.5 111.5,-616.5 76.5,-616.5 76.5,-616.5 70.5,-616.5 64.5,-610.5 64.5,-604.5 64.5,-604.5 64.5,-592.5 64.5,-592.5 64.5,-586.5 70.5,-580.5 76.5,-580.5"/>
<text text-anchor="middle" x="94" y="-595.4" font-family="Times,serif" font-size="12.00">Trolley</text>
</g>
<!-- Picker -->
<g id="node2" class="node">
<title>Picker</title>
<path fill="none" stroke="black" d="M78,-492.5C78,-492.5 110,-492.5 110,-492.5 116,-492.5 122,-498.5 122,-504.5 122,-504.5 122,-516.5 122,-516.5 122,-522.5 116,-528.5 110,-528.5 110,-528.5 78,-528.5 78,-528.5 72,-528.5 66,-522.5 66,-516.5 66,-516.5 66,-504.5 66,-504.5 66,-498.5 72,-492.5 78,-492.5"/>
<text text-anchor="middle" x="94" y="-507.4" font-family="Times,serif" font-size="12.00">Picker</text>
</g>
<!-- Trolley&#45;&gt;Picker -->
<g id="edge1" class="edge">
<title>Trolley&#45;&gt;Picker</title>
<path fill="none" stroke="black" d="M94,-580.1C94,-568.25 94,-552.32 94,-538.79"/>
<polygon fill="black" stroke="black" points="97.5,-538.58 94,-528.58 90.5,-538.58 97.5,-538.58"/>
<text text-anchor="middle" x="127" y="-550.8" font-family="Times,serif" font-size="14.00">Uses one</text>
</g>
<!-- PickList -->
<g id="node5" class="node">
<title>PickList</title>
<path fill="none" stroke="black" d="M72.5,-404.5C72.5,-404.5 117.5,-404.5 117.5,-404.5 123.5,-404.5 129.5,-410.5 129.5,-416.5 129.5,-416.5 129.5,-428.5 129.5,-428.5 129.5,-434.5 123.5,-440.5 117.5,-440.5 117.5,-440.5 72.5,-440.5 72.5,-440.5 66.5,-440.5 60.5,-434.5 60.5,-428.5 60.5,-428.5 60.5,-416.5 60.5,-416.5 60.5,-410.5 66.5,-404.5 72.5,-404.5"/>
<text text-anchor="middle" x="95" y="-419.4" font-family="Times,serif" font-size="12.00">Pick List</text>
</g>
<!-- Picker&#45;&gt;PickList -->
<g id="edge2" class="edge">
<title>Picker&#45;&gt;PickList</title>
<path fill="none" stroke="black" d="M94.2,-492.1C94.34,-480.25 94.53,-464.32 94.68,-450.79"/>
<polygon fill="black" stroke="black" points="98.18,-450.62 94.8,-440.58 91.19,-450.54 98.18,-450.62"/>
<text text-anchor="middle" x="160" y="-462.8" font-family="Times,serif" font-size="14.00">Is assigned to one</text>
</g>
<!-- Shelf -->
<g id="node3" class="node">
<title>Shelf</title>
<path fill="none" stroke="black" d="M96,-192.5C96,-192.5 126,-192.5 126,-192.5 132,-192.5 138,-198.5 138,-204.5 138,-204.5 138,-216.5 138,-216.5 138,-222.5 132,-228.5 126,-228.5 126,-228.5 96,-228.5 96,-228.5 90,-228.5 84,-222.5 84,-216.5 84,-216.5 84,-204.5 84,-204.5 84,-198.5 90,-192.5 96,-192.5"/>
<text text-anchor="middle" x="111" y="-207.4" font-family="Times,serif" font-size="12.00">Shelf</text>
</g>
<!-- StockItem -->
<g id="node4" class="node">
<title>StockItem</title>
<path fill="none" stroke="black" d="M82,-316.5C82,-316.5 140,-316.5 140,-316.5 146,-316.5 152,-322.5 152,-328.5 152,-328.5 152,-340.5 152,-340.5 152,-346.5 146,-352.5 140,-352.5 140,-352.5 82,-352.5 82,-352.5 76,-352.5 70,-346.5 70,-340.5 70,-340.5 70,-328.5 70,-328.5 70,-322.5 76,-316.5 82,-316.5"/>
<text text-anchor="middle" x="111" y="-331.4" font-family="Times,serif" font-size="12.00">Stock Item</text>
</g>
<!-- StockItem&#45;&gt;Shelf -->
<g id="edge4" class="edge">
<title>StockItem&#45;&gt;Shelf</title>
<path fill="none" stroke="black" d="M111,-316.28C111,-296.12 111,-262.46 111,-238.75"/>
<polygon fill="black" stroke="black" points="114.5,-238.63 111,-228.63 107.5,-238.63 114.5,-238.63"/>
<text text-anchor="middle" x="160.5" y="-279.3" font-family="Times,serif" font-size="14.00">Is on multiple</text>
</g>
<!-- StockReport -->
<g id="node8" class="node">
<title>StockReport</title>
<path fill="none" stroke="black" d="M264,-192.5C264,-192.5 336,-192.5 336,-192.5 342,-192.5 348,-198.5 348,-204.5 348,-204.5 348,-216.5 348,-216.5 348,-222.5 342,-228.5 336,-228.5 336,-228.5 264,-228.5 264,-228.5 258,-228.5 252,-222.5 252,-216.5 252,-216.5 252,-204.5 252,-204.5 252,-198.5 258,-192.5 264,-192.5"/>
<text text-anchor="middle" x="300" y="-207.4" font-family="Times,serif" font-size="12.00">Stock Report</text>
</g>
<!-- StockItem&#45;&gt;StockReport -->
<g id="edge7" class="edge">
<title>StockItem&#45;&gt;StockReport</title>
<path fill="none" stroke="black" d="M152.04,-324.01C171.73,-318.33 195.09,-309.86 214,-298 240.22,-281.56 264.52,-255.71 280.56,-236.54"/>
<polygon fill="black" stroke="black" points="283.28,-238.74 286.91,-228.78 277.87,-234.31 283.28,-238.74"/>
<text text-anchor="middle" x="313.5" y="-286.8" font-family="Times,serif" font-size="14.00">Shared model</text>
<text text-anchor="middle" x="313.5" y="-271.8" font-family="Times,serif" font-size="14.00">Contains multiple</text>
</g>
<!-- PickList&#45;&gt;StockItem -->
<g id="edge3" class="edge">
<title>PickList&#45;&gt;StockItem</title>
<path fill="none" stroke="black" d="M98.24,-404.1C100.44,-392.25 103.41,-376.32 105.92,-362.79"/>
<polygon fill="black" stroke="black" points="109.43,-363.06 107.82,-352.58 102.55,-361.78 109.43,-363.06"/>
<text text-anchor="middle" x="167.5" y="-374.8" font-family="Times,serif" font-size="14.00">Contains multiple</text>
</g>
<!-- LedgerEntry -->
<g id="node6" class="node">
<title>LedgerEntry</title>
<path fill="none" stroke="black" d="M266.5,-104.5C266.5,-104.5 339.5,-104.5 339.5,-104.5 345.5,-104.5 351.5,-110.5 351.5,-116.5 351.5,-116.5 351.5,-128.5 351.5,-128.5 351.5,-134.5 345.5,-140.5 339.5,-140.5 339.5,-140.5 266.5,-140.5 266.5,-140.5 260.5,-140.5 254.5,-134.5 254.5,-128.5 254.5,-128.5 254.5,-116.5 254.5,-116.5 254.5,-110.5 260.5,-104.5 266.5,-104.5"/>
<text text-anchor="middle" x="303" y="-119.4" font-family="Times,serif" font-size="12.00">Ledger Entry</text>
</g>
<!-- CompanyValuation -->
<g id="node7" class="node">
<title>CompanyValuation</title>
<path fill="none" stroke="black" d="M260,-16.5C260,-16.5 370,-16.5 370,-16.5 376,-16.5 382,-22.5 382,-28.5 382,-28.5 382,-40.5 382,-40.5 382,-46.5 376,-52.5 370,-52.5 370,-52.5 260,-52.5 260,-52.5 254,-52.5 248,-46.5 248,-40.5 248,-40.5 248,-28.5 248,-28.5 248,-22.5 254,-16.5 260,-16.5"/>
<text text-anchor="middle" x="315" y="-31.4" font-family="Times,serif" font-size="12.00">Company Valuation</text>
</g>
<!-- LedgerEntry&#45;&gt;CompanyValuation -->
<g id="edge6" class="edge">
<title>LedgerEntry&#45;&gt;CompanyValuation</title>
<path fill="none" stroke="black" d="M305.43,-104.1C307.08,-92.25 309.3,-76.32 311.19,-62.79"/>
<polygon fill="black" stroke="black" points="314.7,-62.97 312.62,-52.58 307.77,-62 314.7,-62.97"/>
<text text-anchor="middle" x="373" y="-74.8" font-family="Times,serif" font-size="14.00">Requires multiple</text>
</g>
<!-- StockReport&#45;&gt;LedgerEntry -->
<g id="edge5" class="edge">
<title>StockReport&#45;&gt;LedgerEntry</title>
<path fill="none" stroke="black" d="M300.61,-192.1C301.02,-180.25 301.58,-164.32 302.05,-150.79"/>
<polygon fill="black" stroke="black" points="305.55,-150.7 302.4,-140.58 298.56,-150.46 305.55,-150.7"/>
<text text-anchor="middle" x="348" y="-162.8" font-family="Times,serif" font-size="14.00">Contains one</text>
</g>
</g>
</svg>
