<?xml version="1.0" encoding="UTF-8" standalone="no"?>
<!DOCTYPE svg PUBLIC "-//W3C//DTD SVG 1.1//EN"
 "http://www.w3.org/Graphics/SVG/1.1/DTD/svg11.dtd">
<!-- Generated by graphviz version 2.43.0 (0)
 -->
<!-- Title: ShopLink_Sensitive_Data_Zones Pages: 1 -->
<svg width="1010pt" height="194pt"
 viewBox="0.00 0.00 1010.00 194.00" xmlns="http://www.w3.org/2000/svg" xmlns:xlink="http://www.w3.org/1999/xlink">
<g id="graph0" class="graph" transform="scale(1 1) rotate(0) translate(4 190)">
<title>ShopLink_Sensitive_Data_Zones</title>
<polygon fill="white" stroke="transparent" points="-4,4 -4,-190 1006,-190 1006,4 -4,4"/>
<text text-anchor="middle" x="501" y="-169.2" font-family="Times,serif" font-size="16.00">ShopLink Sensitive Data Segregation &#45; PCI Compliance</text>
<g id="clust1" class="cluster">
<title>cluster_green_zone</title>
<polygon fill="none" stroke="green" stroke-dasharray="1,5" points="8,-8 8,-83 710,-83 710,-8 8,-8"/>
<text text-anchor="middle" x="359" y="-67.8" font-family="Times,serif" font-size="14.00">Green Zone: No Credit Card Data</text>
</g>
<g id="clust2" class="cluster">
<title>cluster_red_zone</title>
<polygon fill="none" stroke="red" stroke-dasharray="5,2" points="718,-8 718,-83 994,-83 994,-8 718,-8"/>
<text text-anchor="middle" x="856" y="-67.8" font-family="Times,serif" font-size="14.00">Red Zone: Credit Card Data Allowed</text>
</g>
<!-- customer -->
<g id="node1" class="node">
<title>customer</title>
<polygon fill="lightblue" stroke="black" points="145.58,-34 113.29,-52 48.71,-52 16.42,-34 48.71,-16 113.29,-16 145.58,-34"/>
<text text-anchor="middle" x="81" y="-30.3" font-family="Times,serif" font-size="14.00">Customer</text>
</g>
<!-- merchant_management -->
<g id="node2" class="node">
<title>merchant_management</title>
<polygon fill="lightblue" stroke="black" points="440.18,-34 371.09,-52 232.91,-52 163.82,-34 232.91,-16 371.09,-16 440.18,-34"/>
<text text-anchor="middle" x="302" y="-30.3" font-family="Times,serif" font-size="14.00">Merchant Management</text>
</g>
<!-- payment_scheduling -->
<g id="node3" class="node">
<title>payment_scheduling</title>
<polygon fill="lightblue" stroke="black" points="702.16,-34 641.08,-52 518.92,-52 457.84,-34 518.92,-16 641.08,-16 702.16,-34"/>
<text text-anchor="middle" x="580" y="-30.3" font-family="Times,serif" font-size="14.00">Payment Scheduling</text>
</g>
<!-- payment_service -->
<g id="node4" class="node">
<title>payment_service</title>
<polygon fill="lightblue" stroke="black" points="931.63,-34 880.32,-52 777.68,-52 726.37,-34 777.68,-16 880.32,-16 931.63,-34"/>
<text text-anchor="middle" x="829" y="-30.3" font-family="Times,serif" font-size="14.00">Payment Service</text>
</g>
<!-- gateway -->
<g id="node5" class="node">
<title>gateway</title>
<polygon fill="lightgray" stroke="black" points="479.5,-160 400.5,-160 400.5,-124 479.5,-124 479.5,-160"/>
<text text-anchor="middle" x="440" y="-138.3" font-family="Times,serif" font-size="14.00">Gateway</text>
</g>
<!-- gateway&#45;&gt;customer -->
<g id="edge1" class="edge">
<title>gateway&#45;&gt;customer</title>
<path fill="none" stroke="green" stroke-dasharray="1,5" d="M400.39,-137.65C344.07,-131.85 238.43,-117.11 155,-83 139.57,-76.69 123.88,-67.07 110.94,-58.09"/>
<polygon fill="green" stroke="green" points="112.63,-54.99 102.46,-52.02 108.56,-60.69 112.63,-54.99"/>
</g>
<!-- gateway&#45;&gt;merchant_management -->
<g id="edge2" class="edge">
<title>gateway&#45;&gt;merchant_management</title>
<path fill="none" stroke="green" stroke-dasharray="1,5" d="M417.83,-123.97C394.73,-106.23 358.37,-78.3 332.56,-58.47"/>
<polygon fill="green" stroke="green" points="334.64,-55.66 324.58,-52.34 330.37,-61.21 334.64,-55.66"/>
</g>
<!-- gateway&#45;&gt;payment_scheduling -->
<g id="edge3" class="edge">
<title>gateway&#45;&gt;payment_scheduling</title>
<path fill="none" stroke="green" stroke-dasharray="1,5" d="M462.49,-123.97C485.93,-106.23 522.81,-78.3 549,-58.47"/>
<polygon fill="green" stroke="green" points="551.24,-61.17 557.1,-52.34 547.01,-55.59 551.24,-61.17"/>
</g>
<!-- gateway&#45;&gt;payment_service -->
<g id="edge4" class="edge">
<title>gateway&#45;&gt;payment_service</title>
<path fill="none" stroke="red" stroke-dasharray="5,2" d="M479.61,-135C533.43,-126.32 632.3,-108.45 714,-83 737.55,-75.66 762.94,-65.34 783.86,-56.14"/>
<polygon fill="red" stroke="red" points="785.42,-59.28 793.13,-52.01 782.57,-52.88 785.42,-59.28"/>
<text text-anchor="middle" x="772.5" y="-94.8" font-family="Times,serif" font-size="14.00">Routes Credit Card Data</text>
</g>
</g>
</svg>
