<?xml version="1.0" encoding="UTF-8" standalone="no"?>
<!DOCTYPE svg PUBLIC "-//W3C//DTD SVG 1.1//EN"
 "http://www.w3.org/Graphics/SVG/1.1/DTD/svg11.dtd">
<!-- Generated by graphviz version 2.43.0 (0)
 -->
<!-- Title: StaticReferenceData Pages: 1 -->
<svg width="416pt" height="129pt"
 viewBox="0.00 0.00 416.13 129.00" xmlns="http://www.w3.org/2000/svg" xmlns:xlink="http://www.w3.org/1999/xlink">
<g id="graph0" class="graph" transform="scale(1 1) rotate(0) translate(4 125)">
<title>StaticReferenceData</title>
<polygon fill="white" stroke="transparent" points="-4,4 -4,-125 412.13,-125 412.13,4 -4,4"/>
<text text-anchor="middle" x="204.07" y="-107.4" font-family="Times,serif" font-size="12.00">Multiple services accessing shared static reference data</text>
<g id="clust1" class="cluster">
<title>cluster_shared_data</title>
<polygon fill="none" stroke="black" stroke-dasharray="1,5" points="229.13,-19 229.13,-92 400.13,-92 400.13,-19 229.13,-19"/>
<text text-anchor="middle" x="314.63" y="-78.4" font-family="Times,serif" font-size="12.00">Country static data</text>
</g>
<!-- CountryData -->
<g id="node1" class="node">
<title>CountryData</title>
<path fill="none" stroke="black" d="M392.13,-59.73C392.13,-61.53 357.39,-63 314.63,-63 271.87,-63 237.13,-61.53 237.13,-59.73 237.13,-59.73 237.13,-30.27 237.13,-30.27 237.13,-28.47 271.87,-27 314.63,-27 357.39,-27 392.13,-28.47 392.13,-30.27 392.13,-30.27 392.13,-59.73 392.13,-59.73"/>
<path fill="none" stroke="black" d="M392.13,-59.73C392.13,-57.92 357.39,-56.45 314.63,-56.45 271.87,-56.45 237.13,-57.92 237.13,-59.73"/>
<text text-anchor="middle" x="314.63" y="-41.3" font-family="Times,serif" font-size="14.00">Country static data</text>
</g>
<!-- OrderProcessor -->
<g id="node2" class="node">
<title>OrderProcessor</title>
<polygon fill="none" stroke="black" points="201.2,-72 150.88,-90 50.25,-90 -0.07,-72 50.25,-54 150.88,-54 201.2,-72"/>
<text text-anchor="middle" x="100.57" y="-68.3" font-family="Times,serif" font-size="14.00">Order Processor</text>
</g>
<!-- OrderProcessor&#45;&gt;CountryData -->
<g id="edge1" class="edge">
<title>OrderProcessor&#45;&gt;CountryData</title>
<path fill="none" stroke="black" d="M175.14,-62.63C191.84,-60.51 209.73,-58.23 226.92,-56.04"/>
<polygon fill="black" stroke="black" points="227.46,-59.5 236.94,-54.76 226.58,-52.55 227.46,-59.5"/>
</g>
<!-- Warehouse -->
<g id="node3" class="node">
<title>Warehouse</title>
<polygon fill="none" stroke="black" points="171.66,-18 136.11,-36 65.02,-36 29.47,-18 65.02,0 136.11,0 171.66,-18"/>
<text text-anchor="middle" x="100.57" y="-14.3" font-family="Times,serif" font-size="14.00">Warehouse</text>
</g>
<!-- Warehouse&#45;&gt;CountryData -->
<g id="edge2" class="edge">
<title>Warehouse&#45;&gt;CountryData</title>
<path fill="none" stroke="black" d="M157.84,-25.16C179.1,-27.87 203.81,-31.02 227.2,-34"/>
<polygon fill="black" stroke="black" points="226.77,-37.47 237.13,-35.26 227.65,-30.52 226.77,-37.47"/>
</g>
</g>
</svg>
