<?xml version="1.0" encoding="UTF-8" standalone="no"?>
<!DOCTYPE svg PUBLIC "-//W3C//DTD SVG 1.1//EN"
 "http://www.w3.org/Graphics/SVG/1.1/DTD/svg11.dtd">
<!-- Generated by graphviz version 2.43.0 (0)
 -->
<!-- Title: StateManagement Pages: 1 -->
<svg width="790pt" height="129pt"
 viewBox="0.00 0.00 789.69 129.00" xmlns="http://www.w3.org/2000/svg" xmlns:xlink="http://www.w3.org/1999/xlink">
<g id="graph0" class="graph" transform="scale(1 1) rotate(0) translate(4 125)">
<title>StateManagement</title>
<polygon fill="white" stroke="transparent" points="-4,4 -4,-125 785.69,-125 785.69,4 -4,4"/>
<text text-anchor="middle" x="390.84" y="-107.4" font-family="Times,serif" font-size="12.00">Centralized state management for orders</text>
<g id="clust1" class="cluster">
<title>cluster_shared_data</title>
<polygon fill="none" stroke="black" stroke-dasharray="1,5" points="658.69,-19 658.69,-92 773.69,-92 773.69,-19 658.69,-19"/>
<text text-anchor="middle" x="716.19" y="-78.4" font-family="Times,serif" font-size="12.00">Order table</text>
</g>
<!-- OrderTable -->
<g id="node1" class="node">
<title>OrderTable</title>
<path fill="none" stroke="black" d="M765.69,-59.73C765.69,-61.53 743.5,-63 716.19,-63 688.88,-63 666.69,-61.53 666.69,-59.73 666.69,-59.73 666.69,-30.27 666.69,-30.27 666.69,-28.47 688.88,-27 716.19,-27 743.5,-27 765.69,-28.47 765.69,-30.27 765.69,-30.27 765.69,-59.73 765.69,-59.73"/>
<path fill="none" stroke="black" d="M765.69,-59.73C765.69,-57.92 743.5,-56.45 716.19,-56.45 688.88,-56.45 666.69,-57.92 666.69,-59.73"/>
<text text-anchor="middle" x="716.19" y="-41.3" font-family="Times,serif" font-size="14.00">Order table</text>
</g>
<!-- OrderProcessor -->
<g id="node2" class="node">
<title>OrderProcessor</title>
<polygon fill="none" stroke="black" points="201.2,-72 150.88,-90 50.25,-90 -0.07,-72 50.25,-54 150.88,-54 201.2,-72"/>
<text text-anchor="middle" x="100.57" y="-68.3" font-family="Times,serif" font-size="14.00">Order Processor</text>
</g>
<!-- OrderService -->
<g id="node4" class="node">
<title>OrderService</title>
<polygon fill="none" stroke="black" points="488.47,-45 466.44,-63 422.38,-63 400.35,-45 422.38,-27 466.44,-27 488.47,-45"/>
<text text-anchor="middle" x="444.41" y="-41.3" font-family="Times,serif" font-size="14.00">Order</text>
</g>
<!-- OrderProcessor&#45;&gt;OrderService -->
<g id="edge1" class="edge">
<title>OrderProcessor&#45;&gt;OrderService</title>
<path fill="none" stroke="black" d="M183.45,-65.53C248.95,-60.36 338.66,-53.27 393.74,-48.92"/>
<polygon fill="black" stroke="black" points="394.25,-52.39 403.94,-48.12 393.7,-45.42 394.25,-52.39"/>
<text text-anchor="middle" x="300.63" y="-65.8" font-family="Times,serif" font-size="14.00">Request status change</text>
</g>
<!-- Warehouse -->
<g id="node3" class="node">
<title>Warehouse</title>
<polygon fill="none" stroke="black" points="171.66,-18 136.11,-36 65.02,-36 29.47,-18 65.02,0 136.11,0 171.66,-18"/>
<text text-anchor="middle" x="100.57" y="-14.3" font-family="Times,serif" font-size="14.00">Warehouse</text>
</g>
<!-- Warehouse&#45;&gt;OrderService -->
<g id="edge2" class="edge">
<title>Warehouse&#45;&gt;OrderService</title>
<path fill="none" stroke="black" d="M171.35,-17.79C228.3,-18.44 310.75,-21.27 382.13,-31 388.09,-31.81 394.32,-32.92 400.43,-34.17"/>
<polygon fill="black" stroke="black" points="400.02,-37.66 410.53,-36.35 401.5,-30.82 400.02,-37.66"/>
<text text-anchor="middle" x="300.63" y="-34.8" font-family="Times,serif" font-size="14.00">Request status change</text>
</g>
<!-- OrderService&#45;&gt;OrderTable -->
<g id="edge3" class="edge">
<title>OrderService&#45;&gt;OrderTable</title>
<path fill="none" stroke="black" d="M488.75,-45C534.18,-45 605.84,-45 656.35,-45"/>
<polygon fill="black" stroke="black" points="656.48,-48.5 666.48,-45 656.48,-41.5 656.48,-48.5"/>
<text text-anchor="middle" x="577.69" y="-48.8" font-family="Times,serif" font-size="14.00">Manage order state</text>
</g>
</g>
</svg>
