<?xml version="1.0" encoding="UTF-8" standalone="no"?>
<!DOCTYPE svg PUBLIC "-//W3C//DTD SVG 1.1//EN"
 "http://www.w3.org/Graphics/SVG/1.1/DTD/svg11.dtd">
<!-- Generated by graphviz version 2.43.0 (0)
 -->
<!-- Title: TemporalCoupling Pages: 1 -->
<svg width="506pt" height="67pt"
 viewBox="0.00 0.00 506.33 67.00" xmlns="http://www.w3.org/2000/svg" xmlns:xlink="http://www.w3.org/1999/xlink">
<g id="graph0" class="graph" transform="scale(1 1) rotate(0) translate(4 63)">
<title>TemporalCoupling</title>
<polygon fill="white" stroke="transparent" points="-4,4 -4,-63 502.33,-63 502.33,4 -4,4"/>
<text text-anchor="middle" x="249.16" y="-7.8" font-family="Times,serif" font-size="14.00">ShopLink: Temporal Coupling</text>
<!-- Order Processor -->
<g id="node1" class="node">
<title>Order Processor</title>
<polygon fill="lightblue" stroke="black" points="166.5,-41 124.83,-59 41.5,-59 -0.17,-41 41.5,-23 124.83,-23 166.5,-41"/>
<text text-anchor="middle" x="83.17" y="-37.9" font-family="Times,serif" font-size="12.00">Order Processor</text>
</g>
<!-- Warehouse -->
<g id="node2" class="node">
<title>Warehouse</title>
<polygon fill="lightblue" stroke="black" points="498.33,-41 468.83,-59 409.83,-59 380.33,-41 409.83,-23 468.83,-23 498.33,-41"/>
<text text-anchor="middle" x="439.33" y="-37.9" font-family="Times,serif" font-size="12.00">Warehouse</text>
</g>
<!-- Order Processor&#45;&gt;Warehouse -->
<g id="edge1" class="edge">
<title>Order Processor&#45;&gt;Warehouse</title>
<path fill="none" stroke="black" d="M166.75,-41C228.55,-41 312.07,-41 370.1,-41"/>
<polygon fill="black" stroke="black" points="370.27,-44.5 380.27,-41 370.27,-37.5 370.27,-44.5"/>
<text text-anchor="middle" x="273.33" y="-44" font-family="Times,serif" font-size="10.00">Synchronous blocking network call</text>
</g>
</g>
</svg>
