<?xml version="1.0" encoding="UTF-8" standalone="no"?>
<!DOCTYPE svg PUBLIC "-//W3C//DTD SVG 1.1//EN"
 "http://www.w3.org/Graphics/SVG/1.1/DTD/svg11.dtd">
<!-- Generated by graphviz version 2.43.0 (0)
 -->
<!-- Title: ThreeTierArchitecture Pages: 1 -->
<svg width="403pt" height="291pt"
 viewBox="0.00 0.00 403.00 291.00" xmlns="http://www.w3.org/2000/svg" xmlns:xlink="http://www.w3.org/1999/xlink">
<g id="graph0" class="graph" transform="scale(1 1) rotate(0) translate(4 287)">
<title>ThreeTierArchitecture</title>
<polygon fill="white" stroke="transparent" points="-4,4 -4,-287 399,-287 399,4 -4,4"/>
<text text-anchor="middle" x="197.5" y="-266.2" font-family="Times,serif" font-size="16.00">ShopLink: Traditional Three&#45;Tier Architecture</text>
<g id="clust1" class="cluster">
<title>cluster_frontend</title>
<polygon fill="none" stroke="lightgrey" stroke-dasharray="1,5" points="111.5,-174 111.5,-249 283.5,-249 283.5,-174 111.5,-174"/>
<text text-anchor="middle" x="197.5" y="-235.4" font-family="Times,serif" font-size="12.00">Frontend Team</text>
</g>
<g id="clust2" class="cluster">
<title>cluster_backend</title>
<polygon fill="none" stroke="lightgrey" stroke-dasharray="1,5" points="103.5,-91 103.5,-166 291.5,-166 291.5,-91 103.5,-91"/>
<text text-anchor="middle" x="197.5" y="-152.4" font-family="Times,serif" font-size="12.00">Backend Team</text>
</g>
<g id="clust3" class="cluster">
<title>cluster_db</title>
<polygon fill="none" stroke="lightgrey" stroke-dasharray="1,5" points="140.5,-8 140.5,-83 254.5,-83 254.5,-8 140.5,-8"/>
<text text-anchor="middle" x="197.5" y="-69.4" font-family="Times,serif" font-size="12.00">DBAs</text>
</g>
<!-- Web UI -->
<g id="node1" class="node">
<title>Web UI</title>
<polygon fill="lightblue" stroke="black" points="275.5,-220 119.5,-220 119.5,-182 275.5,-182 275.5,-220"/>
<text text-anchor="middle" x="197.5" y="-204.8" font-family="Times,serif" font-size="14.00">Web UI</text>
<text text-anchor="middle" x="197.5" y="-189.8" font-family="Times,serif" font-size="14.00">&lt;&lt;Presentation&gt;&gt;</text>
</g>
<!-- Backend -->
<g id="node2" class="node">
<title>Backend</title>
<polygon fill="lightblue" stroke="black" points="283,-137 112,-137 112,-99 283,-99 283,-137"/>
<text text-anchor="middle" x="197.5" y="-121.8" font-family="Times,serif" font-size="14.00">Backend</text>
<text text-anchor="middle" x="197.5" y="-106.8" font-family="Times,serif" font-size="14.00">&lt;&lt;Business Logic&gt;&gt;</text>
</g>
<!-- Web UI&#45;&gt;Backend -->
<g id="edge1" class="edge">
<title>Web UI&#45;&gt;Backend</title>
<path fill="none" stroke="black" d="M197.5,-181.62C197.5,-171.5 197.5,-158.73 197.5,-147.36"/>
<polygon fill="black" stroke="black" points="201,-147.03 197.5,-137.03 194,-147.03 201,-147.03"/>
</g>
<!-- Database -->
<g id="node3" class="node">
<title>Database</title>
<polygon fill="lightblue" stroke="black" points="246.5,-54 148.5,-54 148.5,-16 246.5,-16 246.5,-54"/>
<text text-anchor="middle" x="197.5" y="-38.8" font-family="Times,serif" font-size="14.00">Database</text>
<text text-anchor="middle" x="197.5" y="-23.8" font-family="Times,serif" font-size="14.00">&lt;&lt;Data&gt;&gt;</text>
</g>
<!-- Backend&#45;&gt;Database -->
<g id="edge2" class="edge">
<title>Backend&#45;&gt;Database</title>
<path fill="none" stroke="black" d="M197.5,-98.62C197.5,-88.5 197.5,-75.73 197.5,-64.36"/>
<polygon fill="black" stroke="black" points="201,-64.03 197.5,-54.03 194,-64.03 201,-64.03"/>
</g>
</g>
</svg>
