<?xml version="1.0" encoding="UTF-8" standalone="no"?>
<!DOCTYPE svg PUBLIC "-//W3C//DTD SVG 1.1//EN"
 "http://www.w3.org/Graphics/SVG/1.1/DTD/svg11.dtd">
<!-- Generated by graphviz version 2.43.0 (0)
 -->
<!-- Title: Warehouse_Service_Decomposition Pages: 1 -->
<svg width="801pt" height="176pt"
 viewBox="0.00 0.00 800.66 176.00" xmlns="http://www.w3.org/2000/svg" xmlns:xlink="http://www.w3.org/1999/xlink">
<g id="graph0" class="graph" transform="scale(1 1) rotate(0) translate(4 172)">
<title>Warehouse_Service_Decomposition</title>
<polygon fill="white" stroke="transparent" points="-4,4 -4,-172 796.66,-172 796.66,4 -4,4"/>
<text text-anchor="middle" x="396.33" y="-152.8" font-family="Times,serif" font-size="14.00">ShopLink: Internal Decomposition of Warehouse Microservice</text>
<g id="clust1" class="cluster">
<title>cluster_warehouse</title>
<polygon fill="none" stroke="black" stroke-dasharray="5,2" points="444.57,-8 444.57,-137 784.66,-137 784.66,-8 444.57,-8"/>
<text text-anchor="middle" x="614.61" y="-121.8" font-family="Times,serif" font-size="14.00">Warehouse &#39;microservice&#39;</text>
</g>
<!-- Inventory -->
<g id="node1" class="node">
<title>Inventory</title>
<polygon fill="none" stroke="black" points="581.7,-88 549.41,-106 484.82,-106 452.53,-88 484.82,-70 549.41,-70 581.7,-88"/>
<text text-anchor="middle" x="517.11" y="-84.3" font-family="Times,serif" font-size="14.00">Inventory</text>
</g>
<!-- StockItem -->
<g id="node3" class="node">
<title>StockItem</title>
<polygon fill="none" stroke="black" points="776.66,-106 682.66,-106 682.66,-70 776.66,-70 776.66,-106"/>
<text text-anchor="middle" x="729.66" y="-84.3" font-family="Times,serif" font-size="14.00">Stock Item</text>
</g>
<!-- Inventory&#45;&gt;StockItem -->
<g id="edge1" class="edge">
<title>Inventory&#45;&gt;StockItem</title>
<path fill="none" stroke="black" d="M581.85,-88C610.62,-88 644.3,-88 672.15,-88"/>
<polygon fill="black" stroke="black" points="672.51,-91.5 682.51,-88 672.51,-84.5 672.51,-91.5"/>
<text text-anchor="middle" x="632.16" y="-91.8" font-family="Times,serif" font-size="14.00">Manages</text>
</g>
<!-- Shipping -->
<g id="node2" class="node">
<title>Shipping</title>
<polygon fill="none" stroke="black" points="577.19,-34 547.15,-52 487.07,-52 457.04,-34 487.07,-16 547.15,-16 577.19,-34"/>
<text text-anchor="middle" x="517.11" y="-30.3" font-family="Times,serif" font-size="14.00">Shipping</text>
</g>
<!-- Shipment -->
<g id="node4" class="node">
<title>Shipment</title>
<polygon fill="none" stroke="black" points="772.66,-52 686.66,-52 686.66,-16 772.66,-16 772.66,-52"/>
<text text-anchor="middle" x="729.66" y="-30.3" font-family="Times,serif" font-size="14.00">Shipment</text>
</g>
<!-- Shipping&#45;&gt;Shipment -->
<g id="edge2" class="edge">
<title>Shipping&#45;&gt;Shipment</title>
<path fill="none" stroke="black" d="M577.32,-34C608.44,-34 646.24,-34 676.28,-34"/>
<polygon fill="black" stroke="black" points="676.56,-37.5 686.56,-34 676.56,-30.5 676.56,-37.5"/>
<text text-anchor="middle" x="632.16" y="-37.8" font-family="Times,serif" font-size="14.00">Manages</text>
</g>
<!-- Finance -->
<g id="node5" class="node">
<title>Finance</title>
<polygon fill="none" stroke="black" points="109.36,-60 82.07,-78 27.5,-78 0.21,-60 27.5,-42 82.07,-42 109.36,-60"/>
<text text-anchor="middle" x="54.79" y="-56.3" font-family="Times,serif" font-size="14.00">Finance</text>
</g>
<!-- Finance&#45;&gt;Inventory -->
<g id="edge3" class="edge">
<title>Finance&#45;&gt;Inventory</title>
<path fill="none" stroke="black" d="M105.05,-63C187.76,-68.03 354.69,-78.18 448.38,-83.88"/>
<polygon fill="black" stroke="black" points="448.4,-87.39 458.6,-84.5 448.83,-80.4 448.4,-87.39"/>
<text text-anchor="middle" x="281.07" y="-85.8" font-family="Times,serif" font-size="14.00">Only aware of the Warehouse microservice</text>
</g>
<!-- Finance&#45;&gt;Shipping -->
</g>
</svg>
